<svg width="60" height="60" viewBox="0 0 60 60" fill="none" xmlns="http://www.w3.org/2000/svg">
<g clip-path="url(#clip0)">
<path d="M60 30C60 31.7926 59.8433 33.5474 59.542 35.253C59.2016 37.1767 58.6787 39.0367 57.9906 40.8159C53.651 52.0396 42.7555 60 30 60C26.5065 60 23.1526 59.4025 20.0339 58.3054C17.4209 57.3858 14.973 56.1135 12.7482 54.5462C11.5471 53.7013 10.4107 52.7695 9.3491 51.7605C6.79242 49.3336 4.66301 46.4597 3.08578 43.265C1.10941 39.2657 0 34.762 0 30C0 27.5436 0.295078 25.1559 0.852187 22.871C1.00406 22.2502 1.17422 21.638 1.36406 21.0343C1.50363 20.5849 1.65422 20.1417 1.81465 19.7021C2.06449 19.0165 2.34 18.343 2.63754 17.6817C2.88973 17.1209 3.15914 16.5698 3.44566 16.0287C3.7077 15.5303 3.98449 15.0405 4.27465 14.5593C4.33219 14.4626 4.39102 14.3658 4.45219 14.2703C4.78523 13.7266 5.13785 13.1952 5.50652 12.6759C5.80406 12.2548 6.11262 11.8409 6.43219 11.4368C6.59133 11.2348 6.75305 11.0364 6.91711 10.8393C12.4188 4.21711 20.7171 0 30 0C39.3135 0 47.6364 4.24406 53.138 10.9041C55.413 13.6567 57.2058 16.822 58.3874 20.2714C59.089 22.3175 59.5739 24.4629 59.8175 26.6816C59.9388 27.7714 60 28.8784 60 30Z" fill="#34ABE0"/>
<path d="M29.4171 21.2608C29.6987 21.5437 29.8738 21.9343 29.8738 22.3653C29.8738 23.2274 29.1758 23.9265 28.3126 23.9265H28.1596C27.7286 23.9265 27.338 24.1016 27.0563 24.3832C26.7734 24.6661 26.5983 25.0567 26.5983 25.4877C26.5983 26.3497 25.8992 27.0488 25.0371 27.0488H2.55189C2.12088 27.0488 1.73029 26.8738 1.4474 26.5922C1.1658 26.3093 0.990723 25.9187 0.990723 25.4877C0.990723 24.6256 1.68986 23.9265 2.55189 23.9265H7.29799C7.729 23.9265 8.11959 23.7514 8.40248 23.4698C8.68408 23.1869 8.85916 22.7963 8.85916 22.3653C8.85916 21.5033 8.16002 20.8042 7.29799 20.8042H5.97307C5.54205 20.8042 5.15146 20.6291 4.86857 20.3475C4.58697 20.0646 4.41189 19.674 4.41189 19.243C4.41189 18.381 5.11104 17.6818 5.97307 17.6818H10.358C10.789 17.6818 11.1796 17.5067 11.4613 17.2251C11.7442 16.9422 11.9193 16.5517 11.9193 16.1206C11.9193 15.2586 11.2201 14.5595 10.3581 14.5595H4.27467C4.92857 13.4721 5.64975 12.4289 6.43221 11.437H24.6697C25.1008 11.437 25.4913 11.6121 25.7731 11.8937C26.056 12.1766 26.231 12.5672 26.231 12.9982C26.231 13.8602 26.9302 14.5594 27.7922 14.5594H28.3126C29.176 14.5594 29.8738 15.2585 29.8738 16.1205C29.8738 16.9826 29.1758 17.6817 28.3126 17.6817H25.451C25.02 17.6817 24.6294 17.8568 24.3477 18.1384C24.0648 18.4213 23.8897 18.8119 23.8897 19.2429C23.8897 20.1049 24.5889 20.804 25.4509 20.804H28.3125C28.7437 20.804 29.1344 20.9791 29.4171 21.2608Z" fill="#78CAEF"/>
<path d="M58.3874 20.2714H52.3556C51.9245 20.2714 51.5339 20.0964 51.2522 19.8135C50.9693 19.5319 50.7943 19.1413 50.7943 18.7102C50.7943 17.8481 51.4934 17.149 52.3554 17.149H52.7889C53.2199 17.149 53.6105 16.9739 53.8922 16.691C54.1751 16.4094 54.3502 16.0188 54.3502 15.5877C54.3502 14.7257 53.6511 14.0265 52.789 14.0265H48.5339C48.1029 14.0265 47.7123 13.8514 47.4295 13.5685C47.1479 13.2869 46.9728 12.8964 46.9728 12.4652C46.9728 11.6032 47.6707 10.9041 48.5339 10.9041H53.138C55.4131 13.6567 57.2057 16.822 58.3874 20.2714Z" fill="#78CAEF"/>
<path d="M60 30C60 31.7927 59.8433 33.5474 59.542 35.2531C59.4146 35.0266 59.3411 34.7657 59.3411 34.4877C59.3411 33.6257 58.642 32.9266 57.78 32.9266H50.3191C49.8881 32.9266 49.4975 32.7515 49.2146 32.4699C48.933 32.187 48.7579 31.7964 48.7579 31.3654C48.7579 30.5034 49.4571 29.8042 50.3191 29.8042H55.3506C55.7816 29.8042 56.1722 29.6292 56.4539 29.3475C56.7368 29.0647 56.9118 28.6741 56.9118 28.2431C56.9118 27.381 57.611 26.6819 58.473 26.6819H59.8175C59.9388 27.7715 60 28.8784 60 30Z" fill="#78CAEF"/>
<path d="M57.9905 40.816C53.6509 52.0396 42.7554 60 29.9999 60C26.5064 60 23.1525 59.4025 20.0338 58.3054C17.4208 57.3858 14.973 56.1135 12.7482 54.5463C11.547 53.7013 10.4106 52.7696 9.34901 51.7606C6.79233 49.3336 4.66292 46.4597 3.08569 43.2651H3.26933C3.74194 43.2651 4.12644 42.8818 4.12644 42.408V37.2651C4.12644 36.7925 4.50976 36.408 4.98354 36.408H7.18761C7.66022 36.408 8.04472 36.0247 8.04472 35.5509V34.3264C8.04472 33.8538 8.42804 33.4693 8.90183 33.4693H9.63647C10.1091 33.4693 10.4936 33.8538 10.4936 34.3264V35.6733C10.4936 36.1522 10.8855 36.539 11.3666 36.5304C11.8332 36.5219 12.2078 36.921 12.2078 37.3876V38.857C12.2078 39.3309 12.5911 39.7141 13.0649 39.7141H14.9016C15.3742 39.7141 15.7587 40.0986 15.7587 40.5712V42.4079C15.7587 42.8818 16.142 43.265 16.6158 43.265H20.1668C20.6394 43.265 21.0239 42.8817 21.0239 42.4079V35.5508C21.0239 35.0781 21.4073 34.6936 21.881 34.6936H22.8606C23.3332 34.6936 23.7177 35.0781 23.7177 35.5508V42.6748C23.7177 43.2038 24.1463 43.6324 24.6753 43.6324H26.5524C27.0814 43.6324 27.5099 43.2038 27.5099 42.6748V36.6528C27.5099 36.1802 27.8944 35.7957 28.367 35.7957H30.9385C31.4124 35.7957 31.7956 36.1802 31.7956 36.6528V42.7752C31.7956 43.2492 32.1801 43.6324 32.6527 43.6324H34.6118C35.0857 43.6324 35.4689 43.249 35.4689 42.7752V39.4692C35.4689 38.9965 35.8534 38.612 36.326 38.612H41.5914C42.0653 38.612 42.4485 38.2287 42.4485 37.7549V32.9794C42.4485 32.5068 42.833 32.1223 43.3056 32.1223H45.8771C46.351 32.1223 46.7342 32.5068 46.7342 32.9794V41.5509C46.7342 42.0248 47.1187 42.408 47.5913 42.408H49.428C49.9019 42.408 50.2851 42.0247 50.2851 41.5509V39.4693C50.2851 38.9966 50.6696 38.6122 51.1422 38.6122H55.0606C55.5345 38.6122 55.9177 38.9966 55.9177 39.4693V39.9591C55.9177 40.433 56.3022 40.8162 56.7748 40.8162H57.9905V40.816Z" fill="#279FC9"/>
<path d="M15.2891 15.4775H7.39111V18.2325H15.2891V15.4775Z" fill="#D6C8B0"/>
<path d="M9.68694 10.8391V22.871H0.852173C1.00405 22.2501 1.1742 21.6379 1.36405 21.0343C1.50362 20.5849 1.6542 20.1417 1.81463 19.7021C2.06448 19.0165 2.33999 18.343 2.63752 17.6817C2.88971 17.1208 3.15913 16.5698 3.44565 16.0286C3.70768 15.5302 3.98448 15.0405 4.27463 14.5592C4.33217 14.4625 4.391 14.3658 4.45217 14.2702C4.78522 13.7266 5.13784 13.1952 5.50651 12.6759C5.80405 12.2547 6.1126 11.8408 6.43217 11.4368C6.59131 11.2347 6.75303 11.0363 6.9171 10.8392C6.9171 10.8391 9.68694 10.8391 9.68694 10.8391Z" fill="#EDBB4C"/>
<path d="M7.85011 12.676V21.0344H1.36401C1.50358 20.585 1.65417 20.1418 1.8146 19.7022C2.06444 19.0166 2.33995 18.3431 2.63749 17.6818C2.88968 17.1209 3.15909 16.5699 3.44562 16.0288C3.70765 15.5304 3.98444 15.0406 4.2746 14.5593C4.33214 14.4627 4.39097 14.3659 4.45214 14.2704C4.78519 13.7267 5.1378 13.1953 5.50647 12.676C5.50647 12.676 7.85011 12.676 7.85011 12.676Z" fill="#FFD15C"/>
<path d="M4.45232 14.2701V16.0285H3.4458C3.70783 15.5301 3.98463 15.0404 4.27479 14.5591C4.33232 14.4624 4.39115 14.3656 4.45232 14.2701Z" fill="#5C5E70"/>
<path d="M4.45224 17.6816V19.7021H1.8147C2.06454 19.0164 2.34005 18.3429 2.63759 17.6816H4.45224V17.6816Z" fill="#5C5E70"/>
<path d="M21.8081 22.3652H13.9102V25.1202H21.8081V22.3652Z" fill="#D6C8B0"/>
<path d="M21.8081 6.20325H13.9102V8.9582H21.8081V6.20325Z" fill="#D6C8B0"/>
<path d="M20.0339 58.3053C16.0103 56.8886 12.3796 54.6379 9.349 51.7604L9.89146 44.073C9.94783 43.2771 10.6103 42.6611 11.4074 42.6611H17.5139C18.3123 42.6611 18.9735 43.2771 19.0299 44.073L20.0339 58.3053Z" fill="#F4A14E"/>
<path d="M13.4767 42.6611C13.2183 42.6611 13.0052 43.2771 12.9868 44.073L12.748 54.5461C11.5468 53.7011 10.4105 52.7694 9.34888 51.7604L9.89251 44.073C9.94888 43.2771 10.61 42.6611 11.4072 42.6611H13.4767Z" fill="#E28D40"/>
<path d="M16.2979 0H12.6245V42.66H16.2979V0Z" fill="#E8DBC4"/>
<path d="M14.4611 0H12.6245V42.66H14.4611V0Z" fill="#D6C8B0"/>
<path d="M43.3542 13.5971H19.5116V1.56445H43.3542L49.8162 7.58086L43.3542 13.5971Z" fill="#EDBB4C"/>
<path d="M21.3484 11.7603V3.40112H42.6316L47.1207 7.58085L42.6316 11.7603H21.3484Z" fill="#FFD15C"/>
<path d="M43.3542 29.7596H19.5116V17.7268H43.3542L49.8162 23.7432L43.3542 29.7596Z" fill="#EDBB4C"/>
<path d="M21.3484 27.9228V19.5636H42.6316L47.1207 23.7432L42.6316 27.9228H21.3484Z" fill="#FFD15C"/>
<path d="M41.0914 20.8959H24.7457V22.9162H41.0914V20.8959Z" fill="#5C5E70"/>
<path d="M41.0914 24.5695H24.7457V26.5898H41.0914V24.5695Z" fill="#5C5E70"/>
<path d="M41.0914 6.57056H24.7457V8.59087H41.0914V6.57056Z" fill="#5C5E70"/>
</g>
<defs>
<clipPath id="clip0">
<rect width="60" height="60" fill="white"/>
</clipPath>
</defs>
</svg>
