<svg width="60" height="60" viewBox="0 0 60 60" fill="none" xmlns="http://www.w3.org/2000/svg">
<path d="M60 30C60 39.9036 55.2 48.687 47.8004 54.1506C45.2964 55.9996 42.4948 57.4677 39.4813 58.4706C36.5009 59.4625 33.3135 60 30 60C26.5236 60 23.1857 59.4086 20.0816 58.3212C8.38781 54.2265 0 43.0922 0 30C0 16.9078 8.38781 5.77348 20.0816 1.67883C23.1857 0.591445 26.5236 0 30 0C38.9609 0 47.0033 3.92813 52.5012 10.1571C54.1652 12.0428 55.5967 14.1391 56.749 16.402C58.8281 20.4845 60 25.1057 60 30Z" fill="#F9EED7"/>
<path d="M52.6201 38.4461C52.6201 37.5838 51.9211 36.8847 51.0587 36.8847H50.5383C49.676 36.8847 48.977 36.1856 48.977 35.3234C48.977 34.4611 48.278 33.762 47.4157 33.762H23.476C22.6137 33.762 21.9146 34.461 21.9146 35.3234C21.9146 36.1856 22.6136 36.8847 23.476 36.8847H33.104C33.9662 36.8847 34.6654 37.5837 34.6654 38.4461C34.6654 39.3083 33.9663 40.0074 33.104 40.0074H28.7189C27.8567 40.0074 27.1575 40.7064 27.1575 41.5688C27.1575 42.431 27.8565 43.1301 28.7189 43.1301H30.0436C30.9059 43.1301 31.605 43.8291 31.605 44.6913C31.605 45.5536 30.906 46.2527 30.0436 46.2527H25.2975C24.4353 46.2527 23.7361 46.9518 23.7361 47.814C23.7361 48.6763 24.4351 49.3754 25.2975 49.3754H47.783C48.6453 49.3754 49.3443 48.6764 49.3443 47.814C49.3443 46.9518 50.0433 46.2527 50.9057 46.2527H51.0591C51.9213 46.2527 52.6205 45.5537 52.6205 44.6913C52.6205 43.8291 51.9215 43.1301 51.0591 43.1301H48.1967C47.3344 43.1301 46.6354 42.431 46.6354 41.5688C46.6354 40.7065 47.3344 40.0074 48.1967 40.0074H51.0591C51.9211 40.0074 52.6201 39.3083 52.6201 38.4461Z" fill="#FCF8F2"/>
<path d="M47.8004 54.1505C45.2964 55.9995 42.4948 57.4676 39.4813 58.4705C39.4715 57.6171 38.7772 56.9276 37.9201 56.9276H33.665C33.234 56.9276 32.8434 56.7526 32.5617 56.4697C32.2788 56.1881 32.1038 55.7975 32.1038 55.3663C32.1038 54.5043 32.8029 53.8052 33.6649 53.8052H46.822C47.1919 53.8053 47.5335 53.935 47.8004 54.1505Z" fill="#FCF8F2"/>
<path d="M24.2288 11.8387C24.2288 10.9764 24.9278 10.2774 25.7902 10.2774H30.8216C31.6838 10.2774 32.3828 9.57834 32.3828 8.71607C32.3828 7.85381 31.6838 7.15479 30.8216 7.15479H15.9892C15.127 7.15479 14.4278 7.85381 14.4278 8.71607C14.4278 9.57834 13.7288 10.2774 12.8665 10.2774H7.83522C6.97295 10.2774 6.27393 10.9764 6.27393 11.8387C6.27393 12.7009 6.97295 13.3999 7.83522 13.3999H15.2953C16.1575 13.3999 16.8567 14.099 16.8567 14.9612C16.8567 15.8235 17.5557 16.5226 18.4181 16.5226H33.2503C34.1125 16.5226 34.8117 15.8236 34.8117 14.9614C34.8117 14.0991 34.1126 13.4001 33.2503 13.4001H25.7902C24.9278 13.3999 24.2288 12.7009 24.2288 11.8387Z" fill="#FCF8F2"/>
<path d="M56.7491 16.4019H52.6312C52.2001 16.4019 51.8096 16.2268 51.5267 15.9439C51.2451 15.6623 51.07 15.2717 51.07 14.8406C51.07 13.9786 50.3709 13.2794 49.5088 13.2794H47.0366C46.6056 13.2794 46.215 13.1044 45.9333 12.8215C45.6504 12.5399 45.4753 12.1493 45.4753 11.7182C45.4753 10.8561 46.1745 10.157 47.0365 10.157H52.5014C54.1655 12.0428 55.5968 14.139 56.7491 16.4019Z" fill="#FCF8F2"/>
<path d="M20.0816 1.67883V58.3213C14.8187 56.4784 10.227 53.2103 6.76652 48.9797C5.88117 47.8972 5.07059 46.7523 4.34086 45.5511C4.19391 45.3087 4.04941 45.0638 3.90867 44.8165C3.28172 43.7156 2.72332 42.5708 2.23723 41.3879C0.794648 37.8759 0 34.031 0 30C0 25.0739 1.18781 20.4245 3.29262 16.3236C3.73828 15.4531 4.22695 14.607 4.75465 13.7877C4.91262 13.5403 5.07551 13.2955 5.24203 13.0531C5.94984 12.022 6.72 11.0364 7.54898 10.1032C10.9054 6.31711 15.2057 3.38567 20.0816 1.67883Z" fill="#5C5E70"/>
<path d="M7.69481 10.6236V12.0537C7.69481 12.6059 7.24668 13.0529 6.69567 13.0529H5.24219C5.95 12.0219 6.72016 11.0362 7.54914 10.103C7.64102 10.255 7.69481 10.4326 7.69481 10.6236Z" fill="#797B89"/>
<path d="M12.1029 14.7869V16.217C12.1029 16.7692 11.6548 17.2162 11.1037 17.2162H4.28577C3.77026 17.2162 3.34534 16.8256 3.29272 16.3235C3.73839 15.4529 4.22706 14.6069 4.75476 13.7876H11.1037C11.6546 13.7877 12.1029 14.2358 12.1029 14.7869Z" fill="#797B89"/>
<path d="M16.3686 13.0534H9.55066C8.99882 13.0534 8.55151 12.6061 8.55151 12.0543V10.6241C8.55151 10.0723 8.99882 9.625 9.55066 9.625H16.3686C16.9205 9.625 17.3678 10.0723 17.3678 10.6241V12.0543C17.3678 12.6061 16.9203 13.0534 16.3686 13.0534Z" fill="#797B89"/>
<path d="M18.5727 29.6327H11.7548C11.2029 29.6327 10.7556 29.1854 10.7556 28.6335V27.2034C10.7556 26.6515 11.2029 26.2042 11.7548 26.2042H18.5727C19.1246 26.2042 19.5719 26.6515 19.5719 27.2034V28.6335C19.5719 29.1854 19.1245 29.6327 18.5727 29.6327Z" fill="#797B89"/>
<path d="M20.0817 30.3673V33.7959H16.1633C15.6111 33.7959 15.1642 33.3489 15.1642 32.7967V31.3666C15.1642 30.8144 15.6111 30.3674 16.1633 30.3674H20.0817V30.3673Z" fill="#797B89"/>
<path d="M5.49066 42.3868V43.817C5.49066 44.3692 5.04253 44.8161 4.49152 44.8161H3.90863C3.28167 43.7153 2.72328 42.5705 2.23718 41.3876H4.49152C5.04253 41.3877 5.49066 41.8345 5.49066 42.3868Z" fill="#797B89"/>
<path d="M9.89891 46.55V47.9802C9.89891 48.5324 9.45079 48.9793 8.89977 48.9793H6.76661C5.88126 47.8969 5.07067 46.752 4.34094 45.5508H8.89977C9.45067 45.5509 9.89891 45.9979 9.89891 46.55Z" fill="#797B89"/>
<path d="M14.1646 44.8165H7.34668C6.79484 44.8165 6.34753 44.3692 6.34753 43.8174V42.3872C6.34753 41.8354 6.79484 41.3881 7.34668 41.3881H14.1646C14.7165 41.3881 15.1638 41.8354 15.1638 42.3872V43.8174C15.1638 44.3692 14.7164 44.8165 14.1646 44.8165Z" fill="#797B89"/>
<path d="M22.2644 33.3392H20.0817V0.0330811H22.2644C23.02 0.0330811 23.6327 0.645737 23.6327 1.40136V31.971C23.6326 32.7266 23.02 33.3392 22.2644 33.3392Z" fill="#FFD15C"/>
<path d="M36.9795 6.8291V9.15562H35.0631C34.3186 9.15562 33.5926 9.24012 32.8958 9.40055C28.6124 10.3862 25.4079 14.2311 25.4079 18.8107V20.9719H23.0814V18.8107C23.0814 14.9988 24.8704 11.5972 27.6524 9.40055C29.6936 7.79039 32.2675 6.8291 35.063 6.8291C35.0633 6.8291 36.9795 6.8291 36.9795 6.8291Z" fill="#FFD15C"/>
<path d="M36.9795 6.82898V9.1555H35.0632C34.3187 9.1555 33.5926 9.23999 32.8958 9.40042H27.6525C29.6936 7.79027 32.2675 6.82898 35.063 6.82898C35.0632 6.82898 36.9795 6.82898 36.9795 6.82898Z" fill="#EDBB4C"/>
<path d="M44.0204 6.27795H41.449V21.0943H44.0204V6.27795Z" fill="#FFD15C"/>
<path d="M44.0204 6.27795H41.449V9.70651H44.0204V6.27795Z" fill="#EDBB4C"/>
<path d="M42.7347 45.5498C50.9419 45.5498 57.5951 38.8966 57.5951 30.6894C57.5951 22.4822 50.9419 15.829 42.7347 15.829C34.5275 15.829 27.8743 22.4822 27.8743 30.6894C27.8743 38.8966 34.5275 45.5498 42.7347 45.5498Z" fill="#EF4152"/>
<path d="M42.7346 42.1555C49.0672 42.1555 54.2007 37.0219 54.2007 30.6894C54.2007 24.3568 49.0672 19.2233 42.7346 19.2233C36.4021 19.2233 31.2686 24.3568 31.2686 30.6894C31.2686 37.0219 36.4021 42.1555 42.7346 42.1555Z" fill="#FF525D"/>
<path d="M51.7808 31.5469C51.3074 31.5469 50.9237 31.1631 50.9237 30.6898C50.9237 27.0439 48.4771 23.8038 44.9736 22.8104C44.5182 22.6812 44.2538 22.2073 44.3828 21.7519C44.5118 21.2965 44.9852 21.0318 45.4412 21.1611C49.6785 22.3626 52.6378 26.2809 52.6378 30.6897C52.6381 31.1634 52.2543 31.5469 51.7808 31.5469Z" fill="#FF6E7C"/>
<path d="M53.3265 7.5024H23.6326V4.68604H53.3265C54.1041 4.68604 54.7346 5.3165 54.7346 6.09416C54.7346 6.87193 54.1041 7.5024 53.3265 7.5024Z" fill="#FFD15C"/>
<path d="M41.449 20.8938C41.1446 20.8938 40.898 21.1405 40.898 21.4448V25.5876C40.898 25.7905 40.7336 25.955 40.5306 25.955C40.3276 25.955 40.1632 25.7906 40.1632 25.5876V21.4448C40.1632 21.1405 39.9165 20.8938 39.6122 20.8938C39.3079 20.8938 39.0612 21.1405 39.0612 21.4448V25.5876C39.0612 25.7905 38.8968 25.955 38.6938 25.955C38.4908 25.955 38.3264 25.7906 38.3264 25.5876V21.4448C38.3264 21.1405 38.0797 20.8938 37.7754 20.8938C37.4711 20.8938 37.2244 21.1405 37.2244 21.4448V25.955H37.1836V27.057C37.1836 28.1154 37.8673 29.0122 38.8163 29.3352V39.7101C38.8163 40.1384 39.1635 40.4856 39.5917 40.4856C40.02 40.4856 40.3671 40.1384 40.3671 39.7101V29.3352C41.3161 29.0122 41.9998 28.1154 41.9998 27.057V25.955V21.4448C42 21.1406 41.7532 20.8938 41.449 20.8938Z" fill="#FFD15C"/>
<path d="M48.2853 23.7515V29.547C48.2853 30.311 47.9363 30.9931 47.3878 31.4413V39.7103C47.3878 40.1389 47.0401 40.4854 46.6127 40.4854C46.1841 40.4854 45.8363 40.1389 45.8363 39.7103V21.3025C45.8572 21.3025 45.8779 21.3025 45.8988 21.3037C46.5796 21.3208 47.1918 21.6147 47.6241 22.0787C48.0343 22.5171 48.2853 23.105 48.2853 23.7515Z" fill="#FFD15C"/>
<path d="M48.2854 23.7515V24.676C47.5789 24.0184 46.7524 23.4833 45.8364 23.1086V21.3025C45.8573 21.3025 45.878 21.3025 45.8989 21.3037C46.505 21.5082 47.0818 21.769 47.6242 22.0787C48.0344 22.5171 48.2854 23.105 48.2854 23.7515Z" fill="#FFDC8D"/>
</svg>
