<svg width="60" height="60" viewBox="0 0 60 60" fill="none" xmlns="http://www.w3.org/2000/svg">
<g clip-path="url(#clip0)">
<path d="M60 30C60 30.087 60 30.1739 59.9976 30.2609C59.9204 39.4665 55.696 47.6816 49.1022 53.1329C46.7181 55.1044 44.023 56.7145 41.1026 57.8766C40.619 58.07 40.1291 58.2512 39.6332 58.4177C38.5055 58.8011 37.3471 59.1182 36.163 59.3654C35.8116 59.4401 35.4577 59.5063 35.1026 59.5675C33.4446 59.8515 31.739 59.9997 30.0001 59.9997C29.8067 59.9997 29.6145 59.9985 29.4222 59.9936C29.0671 59.9875 28.7132 59.9752 28.3606 59.9544C26.4124 59.8504 24.5133 59.5601 22.6801 59.0998C22.3238 59.0104 21.97 58.9149 21.6197 58.812C21.3406 58.7311 21.0613 58.6454 20.7858 58.556C20.2899 58.3969 19.8001 58.2242 19.3164 58.0393C18.1543 57.5973 17.0267 57.0843 15.9393 56.5051C15.7384 56.3998 15.5388 56.2908 15.3404 56.1795C15.1849 56.0925 15.0306 56.0044 14.8776 55.9138C14.4404 55.6592 14.0119 55.3947 13.5894 55.1179C12.0172 54.088 10.5465 52.915 9.19841 51.6158C8.83478 51.2668 8.48087 50.9081 8.13681 50.5408C7.79767 50.1808 7.46826 49.8134 7.14869 49.4375C6.85361 49.091 6.5658 48.7371 6.28548 48.3771C4.9288 46.6274 3.75939 44.7245 2.81158 42.6967C2.68912 42.4358 2.57158 42.1738 2.4565 41.9081C2.41736 41.8175 2.3781 41.727 2.34013 41.6351C1.98869 40.7987 1.67275 39.9429 1.39607 39.0697C1.07404 38.0534 0.804624 37.0138 0.591577 35.9547C0.520562 35.6045 0.45564 35.2506 0.398101 34.8942C0.136304 33.3025 0.000366211 31.6665 0.000366211 30C0.000366211 24.4739 1.49427 19.2956 4.1024 14.8495C9.31009 5.96591 18.9578 0.000244141 30.0002 0.000244141C33.1704 0.000244141 36.2255 0.49126 39.0933 1.40345C39.7324 1.60548 40.3619 1.82954 40.9827 2.07329C47.1958 4.51981 52.3961 8.9781 55.7794 14.6475C58.4596 19.1388 60 24.3894 60 30Z" fill="#5C5E70"/>
<path d="M60 30C60 30.0869 60 30.1739 59.9975 30.2608H46.1939C45.7629 30.2608 45.3723 30.0858 45.0907 29.8029C44.8078 29.5213 44.6327 29.1307 44.6327 28.6997C44.6327 27.8376 45.3318 27.1385 46.1939 27.1385H50.94C51.371 27.1385 51.7616 26.9634 52.0432 26.6805C52.3261 26.3989 52.5011 26.0083 52.5011 25.5773C52.5011 24.7153 51.802 24.0162 50.94 24.0162H49.615C49.184 24.0162 48.7934 23.8411 48.5118 23.5582C48.2289 23.2766 48.0539 22.886 48.0539 22.455C48.0539 21.5929 48.753 20.8938 49.615 20.8938H54C54.431 20.8938 54.8216 20.7187 55.1045 20.4358C55.3861 20.1542 55.5611 19.7637 55.5611 19.3326C55.5611 18.4694 54.862 17.7715 54 17.7715H44.3718C43.5098 17.7715 42.8107 17.0723 42.8107 16.2103V16.2091C42.8107 15.3471 43.5098 14.6479 44.3718 14.6479H55.7791C58.4595 19.1388 60 24.3894 60 30Z" fill="#797B89"/>
<path d="M48.2256 37.8233C48.2256 36.961 47.5266 36.262 46.6645 36.262H33.5075C32.6452 36.262 31.9463 36.961 31.9463 37.8233C31.9463 38.6855 32.6453 39.3844 33.5075 39.3844H37.7632C38.6255 39.3844 39.3244 40.0834 39.3244 40.9457C39.3244 41.808 38.6254 42.507 37.7632 42.507H37.3294C36.4671 42.507 35.7682 43.206 35.7682 44.0682C35.7682 44.9304 36.4673 45.6293 37.3294 45.6293H49.9393C50.8015 45.6293 51.5004 44.9303 51.5004 44.0682C51.5004 43.2059 52.1995 42.507 53.0617 42.507H53.4955C54.3578 42.507 55.0568 41.808 55.0568 40.9457C55.0568 40.0834 54.3578 39.3844 53.4955 39.3844H49.7868C48.9248 39.3845 48.2256 38.6855 48.2256 37.8233Z" fill="#797B89"/>
<path d="M43.6899 9.20955C43.6899 10.0727 42.9908 10.772 42.1287 10.772H27.2965C26.8655 10.772 26.4749 10.5969 26.192 10.314C25.9104 10.0324 25.7354 9.64056 25.7354 9.20955C25.7354 8.34751 25.0362 7.64837 24.1742 7.64837H16.7146C16.2836 7.64837 15.893 7.4733 15.6101 7.19169C15.3285 6.9088 15.1534 6.51822 15.1534 6.0872C15.1534 5.22517 15.8514 4.52603 16.7146 4.52603H21.7448C22.1758 4.52603 22.5677 4.35095 22.8493 4.06935C23.1322 3.78646 23.3072 3.39587 23.3072 2.96486C23.3072 2.10283 24.0052 1.40369 24.8684 1.40369H39.0932C39.7324 1.60572 40.3618 1.82978 40.9826 2.07353C41.1577 2.32572 41.2618 2.6331 41.2618 2.96498C41.2618 3.82701 40.5626 4.52615 39.7006 4.52615H34.6692C33.8071 4.52615 33.108 5.22529 33.108 6.08732C33.108 6.95052 33.8071 7.64849 34.6692 7.64849H42.1287C42.5597 7.64849 42.9503 7.82357 43.2319 8.10517C43.5148 8.38794 43.6899 8.77853 43.6899 9.20955Z" fill="#797B89"/>
<path d="M49.1022 14.8495V53.1329C47.47 54.4823 45.692 55.6626 43.7965 56.6459C39.6663 58.7888 34.9753 59.9998 30.0002 59.9998C13.4317 59.9998 0.000366211 46.5684 0.000366211 30V14.8495H49.1022Z" fill="#FF525D"/>
<path d="M49.1018 14.8492H0V17.4207H49.1018V14.8492Z" fill="#EF4152"/>
<path d="M50.5764 15.2168H0V9.09448H51.5896V14.2037C51.5896 14.7632 51.1358 15.2168 50.5764 15.2168Z" fill="#FF525D"/>
<path d="M51.5899 7.01257H0V9.6248H51.5899V7.01257Z" fill="#EF4152"/>
<path d="M57.4898 7.76781H0V5.44128H57.4898C58.1324 5.44128 58.653 5.96207 58.653 6.60449C58.653 7.24703 58.1323 7.76781 57.4898 7.76781Z" fill="#FF525D"/>
<path d="M38.5193 19H1V25.4897H38.5193V19Z" fill="#5C5E70"/>
<path d="M14.0001 20.1978C14.0001 20.094 14.094 20 14.2423 20H15.2359C15.8636 20 16.3579 20.3016 16.3579 21.1122V21.1419C16.3579 21.9526 15.8487 22.2639 15.1964 22.2639H14.6427V23.4107C14.6427 23.5442 14.4795 23.6134 14.3213 23.6134C14.1581 23.6134 14 23.5442 14 23.4107V20.1978H14.0001ZM14.6427 20.5636V21.7598H15.1964C15.5177 21.7598 15.7153 21.5769 15.7153 21.1913V21.1319C15.7153 20.7465 15.5175 20.5636 15.1964 20.5636H14.6427Z" fill="#FFD15C"/>
<path d="M18.7156 20.1978C18.7156 20.0594 18.8738 20 19.037 20C19.1952 20 19.3583 20.0594 19.3583 20.1978V22.5112C19.3583 23.3367 18.8343 23.6431 18.172 23.6431C17.5046 23.6431 16.9856 23.3367 16.9856 22.5112V20.1978C16.9856 20.0594 17.1438 20 17.3069 20C17.4651 20 17.6283 20.0594 17.6283 20.1978V22.5112C17.6283 22.8966 17.8309 23.0796 18.172 23.0796C18.513 23.0796 18.7156 22.8966 18.7156 22.5112V20.1978Z" fill="#FFD15C"/>
<path d="M20.1835 20.2027C20.1835 20.0693 20.322 20.0001 20.4653 20.0001H21.4193C21.9333 20.0001 22.4128 20.1683 22.4128 20.8701C22.4128 21.2755 22.2546 21.5423 21.9926 21.656C22.2943 21.7746 22.5018 21.9675 22.5018 22.4616V22.5655C22.5018 23.3367 22.0717 23.6134 21.5132 23.6134H20.4653C20.2923 23.6134 20.1835 23.5195 20.1835 23.4156V20.2026V20.2026V20.2027ZM20.8211 21.404H21.3747C21.6416 21.404 21.7702 21.2311 21.7702 20.9789C21.7702 20.7219 21.6219 20.5637 21.3698 20.5637H20.8211V21.404ZM21.3797 23.05C21.6812 23.05 21.8591 22.8869 21.8591 22.5112V22.4321C21.8591 22.0466 21.6811 21.9082 21.3797 21.9082H20.8211V23.05H21.3797V23.05Z" fill="#FFD15C"/>
<path d="M48.6736 14.1148C48.3016 14.1148 48.0001 13.8132 48.0001 13.4413V11.1148C48.0001 10.7428 48.3016 10.4413 48.6736 10.4413C49.0455 10.4413 49.3471 10.7428 49.3471 11.1148V13.4413C49.347 13.8132 49.0455 14.1148 48.6736 14.1148Z" fill="#EF4152"/>
<path d="M44.5308 14.1148C44.1588 14.1148 43.8573 13.8132 43.8573 13.4413V11.1148C43.8573 10.7428 44.1588 10.4413 44.5308 10.4413C44.9027 10.4413 45.2043 10.7428 45.2043 11.1148V13.4413C45.2043 13.8132 44.9026 14.1148 44.5308 14.1148Z" fill="#EF4152"/>
<path d="M46.6022 14.1148C46.2302 14.1148 45.9287 13.8132 45.9287 13.4413V11.1148C45.9287 10.7428 46.2302 10.4413 46.6022 10.4413C46.9741 10.4413 47.2757 10.7428 47.2757 11.1148V13.4413C47.2757 13.8132 46.974 14.1148 46.6022 14.1148Z" fill="#EF4152"/>
<path d="M38.3318 14.1148C37.9598 14.1148 37.6583 13.8132 37.6583 13.4413V11.1148C37.6583 10.7428 37.9598 10.4413 38.3318 10.4413C38.7038 10.4413 39.0053 10.7428 39.0053 11.1148V13.4413C39.0053 13.8132 38.7036 14.1148 38.3318 14.1148Z" fill="#EF4152"/>
<path d="M34.189 14.1148C33.817 14.1148 33.5155 13.8132 33.5155 13.4413V11.1148C33.5155 10.7428 33.817 10.4413 34.189 10.4413C34.5609 10.4413 34.8625 10.7428 34.8625 11.1148V13.4413C34.8625 13.8132 34.5609 14.1148 34.189 14.1148Z" fill="#EF4152"/>
<path d="M36.2604 14.1148C35.8884 14.1148 35.5869 13.8132 35.5869 13.4413V11.1148C35.5869 10.7428 35.8884 10.4413 36.2604 10.4413C36.6323 10.4413 36.9339 10.7428 36.9339 11.1148V13.4413C36.9339 13.8132 36.6323 14.1148 36.2604 14.1148Z" fill="#EF4152"/>
<path d="M27.9901 14.1148C27.6182 14.1148 27.3167 13.8132 27.3167 13.4413V11.1148C27.3167 10.7428 27.6182 10.4413 27.9901 10.4413C28.3621 10.4413 28.6636 10.7428 28.6636 11.1148V13.4413C28.6636 13.8132 28.362 14.1148 27.9901 14.1148Z" fill="#EF4152"/>
<path d="M23.8472 14.1148C23.4752 14.1148 23.1737 13.8132 23.1737 13.4413V11.1148C23.1737 10.7428 23.4752 10.4413 23.8472 10.4413C24.2191 10.4413 24.5207 10.7428 24.5207 11.1148V13.4413C24.5207 13.8132 24.2191 14.1148 23.8472 14.1148Z" fill="#EF4152"/>
<path d="M25.9186 14.1148C25.5466 14.1148 25.2451 13.8132 25.2451 13.4413V11.1148C25.2451 10.7428 25.5466 10.4413 25.9186 10.4413C26.2905 10.4413 26.5921 10.7428 26.5921 11.1148V13.4413C26.5921 13.8132 26.2905 14.1148 25.9186 14.1148Z" fill="#EF4152"/>
<path d="M17.6482 14.1148C17.2763 14.1148 16.9747 13.8132 16.9747 13.4413V11.1148C16.9747 10.7428 17.2763 10.4413 17.6482 10.4413C18.0202 10.4413 18.3217 10.7428 18.3217 11.1148V13.4413C18.3217 13.8132 18.0203 14.1148 17.6482 14.1148Z" fill="#EF4152"/>
<path d="M13.5054 14.1148C13.1334 14.1148 12.8319 13.8132 12.8319 13.4413V11.1148C12.8319 10.7428 13.1334 10.4413 13.5054 10.4413C13.8773 10.4413 14.1789 10.7428 14.1789 11.1148V13.4413C14.1789 13.8132 13.8773 14.1148 13.5054 14.1148Z" fill="#EF4152"/>
<path d="M15.5769 14.1148C15.205 14.1148 14.9034 13.8132 14.9034 13.4413V11.1148C14.9034 10.7428 15.205 10.4413 15.5769 10.4413C15.9489 10.4413 16.2504 10.7428 16.2504 11.1148V13.4413C16.2504 13.8132 15.9488 14.1148 15.5769 14.1148Z" fill="#EF4152"/>
<path d="M7.30653 14.1148C6.93458 14.1148 6.63306 13.8132 6.63306 13.4413V11.1148C6.63306 10.7428 6.93458 10.4413 7.30653 10.4413C7.67848 10.4413 7.98001 10.7428 7.98001 11.1148V13.4413C7.98001 13.8132 7.67837 14.1148 7.30653 14.1148Z" fill="#EF4152"/>
<path d="M3.16371 14.1148C2.79176 14.1148 2.49023 13.8132 2.49023 13.4413V11.1148C2.49023 10.7428 2.79176 10.4413 3.16371 10.4413C3.53566 10.4413 3.83719 10.7428 3.83719 11.1148V13.4413C3.83719 13.8132 3.53555 14.1148 3.16371 14.1148Z" fill="#EF4152"/>
<path d="M5.235 14.1148C4.86305 14.1148 4.56152 13.8132 4.56152 13.4413V11.1148C4.56152 10.7428 4.86305 10.4413 5.235 10.4413C5.60695 10.4413 5.90848 10.7428 5.90848 11.1148V13.4413C5.90848 13.8132 5.60707 14.1148 5.235 14.1148Z" fill="#EF4152"/>
<path d="M43.7965 28.3721V56.6459C43.2479 56.93 42.6895 57.1981 42.1226 57.4491C38.3837 59.103 34.2436 60.0156 29.887 59.9995C13.3235 59.9384 0.000366211 46.3222 0.000366211 29.7585V27.5021H42.9263C43.407 27.502 43.7965 27.8915 43.7965 28.3721Z" fill="#EF4152"/>
<path d="M42.1226 29.1759V57.4491C38.4161 59.0887 34.3153 59.9997 30.0002 59.9997C13.4317 59.9997 0.000366211 46.5684 0.000366211 30V29.1759H42.1226Z" fill="#5C5E70"/>
<path d="M36.1631 28.1559V59.3655C35.8116 59.4401 35.4577 59.5064 35.1027 59.5675V28.1559H36.1631Z" fill="#EF4152"/>
<path d="M29.4223 28.1559V59.9936C29.0672 59.9875 28.7133 59.9752 28.3607 59.9545V28.1559H29.4223Z" fill="#EF4152"/>
<path d="M22.6803 28.1559V59.0998C22.3239 59.0104 21.9701 58.9149 21.6199 58.812V28.1559H22.6803Z" fill="#EF4152"/>
<path d="M15.9395 28.1559V56.5051C15.7387 56.3997 15.5391 56.2907 15.3407 56.1794C15.1852 56.0924 15.0309 56.0043 14.8778 55.9137V28.1559H15.9395Z" fill="#EF4152"/>
<path d="M9.19869 28.1559V51.6158C8.83505 51.2668 8.48115 50.9081 8.13708 50.5407V28.1559H9.19869Z" fill="#EF4152"/>
<path d="M2.45667 28.1559V41.9081C2.41753 41.8175 2.37827 41.7269 2.3403 41.635C1.98886 40.7987 1.67292 39.9428 1.39624 39.0697V28.1559H2.45667Z" fill="#EF4152"/>
<path d="M43.3066 55.1176V56.1792H15.3406C14.7442 55.8448 14.1602 55.491 13.5896 55.1176H43.3066Z" fill="#EF4152"/>
<path d="M43.3066 48.377V49.4374H7.14885C6.85377 49.0909 6.56596 48.737 6.28564 48.377H43.3066Z" fill="#EF4152"/>
<path d="M43.3066 41.635V42.6966H2.81178C2.64771 42.3465 2.49092 41.9925 2.34033 41.635H43.3066Z" fill="#EF4152"/>
<path d="M43.3066 34.8942V35.9546H0.591792C0.520776 35.6044 0.455854 35.2505 0.398315 34.8942H43.3066Z" fill="#EF4152"/>
<path d="M40.5478 32.3187H40.1872C39.8811 32.3187 39.6329 32.0705 39.6329 31.7644V30.5875C39.6329 30.2814 39.8811 30.0332 40.1872 30.0332H40.5478C40.8539 30.0332 41.1021 30.2814 41.1021 30.5875V31.7644C41.1023 32.0705 40.8541 32.3187 40.5478 32.3187Z" fill="#797B89"/>
<path d="M27.0039 32.3187H26.6433C26.3372 32.3187 26.089 32.0705 26.089 31.7644V30.5875C26.089 30.2814 26.3372 30.0332 26.6433 30.0332H27.0039C27.31 30.0332 27.5582 30.2814 27.5582 30.5875V31.7644C27.5582 32.0705 27.31 32.3187 27.0039 32.3187Z" fill="#797B89"/>
<path d="M13.4597 32.3187H13.0991C12.793 32.3187 12.5448 32.0705 12.5448 31.7644V30.5875C12.5448 30.2814 12.793 30.0332 13.0991 30.0332H13.4597C13.7658 30.0332 14.014 30.2814 14.014 30.5875V31.7644C14.014 32.0705 13.7658 32.3187 13.4597 32.3187Z" fill="#797B89"/>
<path d="M33.7758 32.3187H33.4153C33.1092 32.3187 32.861 32.0705 32.861 31.7644V30.5875C32.861 30.2814 33.1092 30.0332 33.4153 30.0332H33.7758C34.0819 30.0332 34.3301 30.2814 34.3301 30.5875V31.7644C34.3301 32.0705 34.0819 32.3187 33.7758 32.3187Z" fill="#797B89"/>
<path d="M20.2317 32.3187H19.8711C19.565 32.3187 19.3168 32.0705 19.3168 31.7644V30.5875C19.3168 30.2814 19.565 30.0332 19.8711 30.0332H20.2317C20.5377 30.0332 20.786 30.2814 20.786 30.5875V31.7644C20.786 32.0705 20.5377 32.3187 20.2317 32.3187Z" fill="#797B89"/>
<path d="M6.68759 32.3187H6.327C6.02091 32.3187 5.77271 32.0705 5.77271 31.7644V30.5875C5.77271 30.2814 6.02091 30.0332 6.327 30.0332H6.68759C6.99368 30.0332 7.24189 30.2814 7.24189 30.5875V31.7644C7.24189 32.0705 6.9938 32.3187 6.68759 32.3187Z" fill="#797B89"/>
<path d="M40.5478 45.5799H40.1872C39.8811 45.5799 39.6329 45.3317 39.6329 45.0256V43.8487C39.6329 43.5426 39.8811 43.2944 40.1872 43.2944H40.5478C40.8539 43.2944 41.1021 43.5426 41.1021 43.8487V45.0256C41.1023 45.3317 40.8541 45.5799 40.5478 45.5799Z" fill="#797B89"/>
<path d="M27.0039 45.5799H26.6433C26.3372 45.5799 26.089 45.3317 26.089 45.0256V43.8487C26.089 43.5426 26.3372 43.2944 26.6433 43.2944H27.0039C27.31 43.2944 27.5582 43.5426 27.5582 43.8487V45.0256C27.5582 45.3317 27.31 45.5799 27.0039 45.5799Z" fill="#797B89"/>
<path d="M13.4597 45.5799H13.0991C12.793 45.5799 12.5448 45.3317 12.5448 45.0256V43.8487C12.5448 43.5426 12.793 43.2944 13.0991 43.2944H13.4597C13.7658 43.2944 14.014 43.5426 14.014 43.8487V45.0256C14.014 45.3317 13.7658 45.5799 13.4597 45.5799Z" fill="#797B89"/>
<path d="M33.7758 45.5799H33.4153C33.1092 45.5799 32.861 45.3317 32.861 45.0256V43.8487C32.861 43.5426 33.1092 43.2944 33.4153 43.2944H33.7758C34.0819 43.2944 34.3301 43.5426 34.3301 43.8487V45.0256C34.3301 45.3317 34.0819 45.5799 33.7758 45.5799Z" fill="#797B89"/>
<path d="M20.2317 45.5799H19.8711C19.565 45.5799 19.3168 45.3317 19.3168 45.0256V43.8487C19.3168 43.5426 19.565 43.2944 19.8711 43.2944H20.2317C20.5377 43.2944 20.786 43.5426 20.786 43.8487V45.0256C20.786 45.3317 20.5377 45.5799 20.2317 45.5799Z" fill="#797B89"/>
<path d="M6.68759 45.5799H6.327C6.02091 45.5799 5.77271 45.3317 5.77271 45.0256V43.8487C5.77271 43.5426 6.02091 43.2944 6.327 43.2944H6.68759C6.99368 43.2944 7.24189 43.5426 7.24189 43.8487V45.0256C7.24189 45.3317 6.9938 45.5799 6.68759 45.5799Z" fill="#797B89"/>
<path d="M40.5478 52.3109H40.1872C39.8811 52.3109 39.6329 52.0627 39.6329 51.7566V50.5797C39.6329 50.2736 39.8811 50.0254 40.1872 50.0254H40.5478C40.8539 50.0254 41.1021 50.2736 41.1021 50.5797V51.7566C41.1023 52.0627 40.8541 52.3109 40.5478 52.3109Z" fill="#797B89"/>
<path d="M27.0039 52.3109H26.6433C26.3372 52.3109 26.089 52.0627 26.089 51.7566V50.5797C26.089 50.2736 26.3372 50.0254 26.6433 50.0254H27.0039C27.31 50.0254 27.5582 50.2736 27.5582 50.5797V51.7566C27.5582 52.0627 27.31 52.3109 27.0039 52.3109Z" fill="#797B89"/>
<path d="M13.4597 52.3109H13.0991C12.793 52.3109 12.5448 52.0627 12.5448 51.7566V50.5797C12.5448 50.2736 12.793 50.0254 13.0991 50.0254H13.4597C13.7658 50.0254 14.014 50.2736 14.014 50.5797V51.7566C14.014 52.0627 13.7658 52.3109 13.4597 52.3109Z" fill="#797B89"/>
<path d="M33.7758 52.3109H33.4153C33.1092 52.3109 32.861 52.0627 32.861 51.7566V50.5797C32.861 50.2736 33.1092 50.0254 33.4153 50.0254H33.7758C34.0819 50.0254 34.3301 50.2736 34.3301 50.5797V51.7566C34.3301 52.0627 34.0819 52.3109 33.7758 52.3109Z" fill="#797B89"/>
<path d="M20.2317 52.3109H19.8711C19.565 52.3109 19.3168 52.0627 19.3168 51.7566V50.5797C19.3168 50.2736 19.565 50.0254 19.8711 50.0254H20.2317C20.5377 50.0254 20.786 50.2736 20.786 50.5797V51.7566C20.786 52.0627 20.5377 52.3109 20.2317 52.3109Z" fill="#797B89"/>
<path d="M41.1026 57.7908V57.8765C40.619 58.07 40.1291 58.2512 39.6332 58.4177V57.7907C39.6332 57.4846 39.8806 57.2361 40.1867 57.2361H40.5478C40.854 57.2361 41.1026 57.4846 41.1026 57.7908Z" fill="#797B89"/>
<path d="M27.0039 59.5221H26.6433C26.3372 59.5221 26.089 59.2739 26.089 58.9678V57.7909C26.089 57.4848 26.3372 57.2366 26.6433 57.2366H27.0039C27.31 57.2366 27.5582 57.4848 27.5582 57.7909V58.9678C27.5582 59.2739 27.31 59.5221 27.0039 59.5221Z" fill="#797B89"/>
<path d="M33.7758 59.5221H33.4153C33.1092 59.5221 32.861 59.2739 32.861 58.9678V57.7909C32.861 57.4848 33.1092 57.2366 33.4153 57.2366H33.7758C34.0819 57.2366 34.3301 57.4848 34.3301 57.7909V58.9678C34.3301 59.2739 34.0819 59.5221 33.7758 59.5221Z" fill="#797B89"/>
<path d="M20.7859 57.7909V58.5562C20.29 58.3971 19.8003 58.2243 19.3165 58.0395V57.791C19.3165 57.4849 19.5651 57.2363 19.8712 57.2363H20.2312C20.5374 57.2361 20.7859 57.4846 20.7859 57.7909Z" fill="#797B89"/>
<path d="M40.5478 38.8494H40.1872C39.8811 38.8494 39.6329 38.6011 39.6329 38.2951V37.1181C39.6329 36.812 39.8811 36.5638 40.1872 36.5638H40.5478C40.8539 36.5638 41.1021 36.812 41.1021 37.1181V38.2951C41.1023 38.6011 40.8541 38.8494 40.5478 38.8494Z" fill="#797B89"/>
<path d="M27.0039 38.8494H26.6433C26.3372 38.8494 26.089 38.6011 26.089 38.2951V37.1181C26.089 36.812 26.3372 36.5638 26.6433 36.5638H27.0039C27.31 36.5638 27.5582 36.812 27.5582 37.1181V38.2951C27.5582 38.6011 27.31 38.8494 27.0039 38.8494Z" fill="#797B89"/>
<path d="M13.4597 38.8494H13.0991C12.793 38.8494 12.5448 38.6011 12.5448 38.2951V37.1181C12.5448 36.812 12.793 36.5638 13.0991 36.5638H13.4597C13.7658 36.5638 14.014 36.812 14.014 37.1181V38.2951C14.014 38.6011 13.7658 38.8494 13.4597 38.8494Z" fill="#797B89"/>
<path d="M33.7758 38.8494H33.4153C33.1092 38.8494 32.861 38.6011 32.861 38.2951V37.1181C32.861 36.812 33.1092 36.5638 33.4153 36.5638H33.7758C34.0819 36.5638 34.3301 36.812 34.3301 37.1181V38.2951C34.3301 38.6011 34.0819 38.8494 33.7758 38.8494Z" fill="#797B89"/>
<path d="M20.2317 38.8494H19.8711C19.565 38.8494 19.3168 38.6011 19.3168 38.2951V37.1181C19.3168 36.812 19.565 36.5638 19.8711 36.5638H20.2317C20.5377 36.5638 20.786 36.812 20.786 37.1181V38.2951C20.786 38.6011 20.5377 38.8494 20.2317 38.8494Z" fill="#797B89"/>
<path d="M6.68759 38.8494H6.327C6.02091 38.8494 5.77271 38.6011 5.77271 38.2951V37.1181C5.77271 36.812 6.02091 36.5638 6.327 36.5638H6.68759C6.99368 36.5638 7.24189 36.812 7.24189 37.1181V38.2951C7.24189 38.6011 6.9938 38.8494 6.68759 38.8494Z" fill="#797B89"/>
<path d="M43.0307 6.84953H54.2756C54.6645 6.84953 54.9796 6.5343 54.9796 6.14547C54.9796 5.75652 54.6644 5.44141 54.2756 5.44141H43.0307C42.6418 5.44141 42.3267 5.75664 42.3267 6.14547C42.3267 6.5343 42.6418 6.84953 43.0307 6.84953Z" fill="#FF6E7C"/>
<path d="M47.0175 28.2372H46.2886C45.9489 28.2372 45.6735 27.9618 45.6735 27.6222V19.3014C45.6735 18.9617 45.9489 18.6864 46.2886 18.6864H47.0175C47.3571 18.6864 47.6325 18.9618 47.6325 19.3014V27.6222C47.6326 27.9618 47.3572 28.2372 47.0175 28.2372Z" fill="#FF6E7C"/>
</g>
<defs>
<clipPath id="clip0">
<rect width="60" height="60" fill="white"/>
</clipPath>
</defs>
</svg>
