<svg width="60" height="60" viewBox="0 0 60 60" fill="none" xmlns="http://www.w3.org/2000/svg">
<path d="M60 30C60 40.1461 54.9633 49.1156 47.2535 54.5438C46.1742 55.3055 44.5452 54.1047 43.3675 54.7187C39.2202 56.8843 35.0016 55.4059 30 55.4059C27.1172 55.4059 24.3293 56.93 21.6902 56.1695C19.7508 55.6129 19.0488 54.3144 17.291 53.3968C16.1133 52.7828 13.8258 55.3043 12.7465 54.5438C5.03672 49.1156 0 40.1461 0 30C0 13.432 13.432 0 30 0C46.568 0 60 13.432 60 30V30Z" fill="#DD636E"/>
<path d="M51.4184 15.3292L51.1512 17.8452L50.986 19.3991L47.2535 54.5437C46.1742 55.3054 45.0422 55.9956 43.8645 56.6097C39.7172 58.7753 35.0016 55.4058 30 55.4058C24.9973 55.4058 20.2817 58.7753 16.1344 56.6097C14.9567 55.9956 13.8258 55.3042 12.7465 54.5437L9.01526 19.3991L8.85002 17.8452L8.58167 15.3292H51.4184Z" fill="#CBE2FF"/>
<path d="M51.4178 15.3294L51.1511 17.8453L50.986 19.3988H9.01504L8.84992 17.8453L8.58203 15.3294L27.8177 8.33228L51.4178 15.3294Z" fill="#9DC6FB"/>
<path d="M16.1343 56.6096C14.9566 55.9956 13.8257 55.3041 12.7464 54.5436L8.58276 15.3303H19.3992L21.6679 58.4963C21.6738 58.61 17.8921 57.5272 16.1343 56.6096V56.6096Z" fill="#9DC6FB"/>
<path d="M47.1081 26.0613L43.8644 56.6097C39.7171 58.7753 35.0015 59.9999 29.9999 59.9999C24.9972 59.9999 20.2816 58.7753 16.1343 56.6097L12.8917 26.0613H47.1081Z" fill="#F1F4F6"/>
<path d="M21.6902 58.8328C19.7507 58.2761 17.8921 57.5273 16.1343 56.6097L12.8917 26.0613H19.9616C19.9616 26.0613 21.1361 48.3731 21.5488 56.1768C21.6354 57.8146 21.6885 58.8134 21.6902 58.8328Z" fill="#DFEAEF"/>
<path d="M36.9477 40.1734C38.5873 40.1734 39.9164 38.8442 39.9164 37.2047C39.9164 35.5651 38.5873 34.236 36.9477 34.236C35.3081 34.236 33.979 35.5651 33.979 37.2047C33.979 38.8442 35.3081 40.1734 36.9477 40.1734Z" fill="white"/>
<path d="M28.3513 52.597C29.6883 52.597 30.7722 51.5131 30.7722 50.1761C30.7722 48.8391 29.6883 47.7552 28.3513 47.7552C27.0143 47.7552 25.9304 48.8391 25.9304 50.1761C25.9304 51.5131 27.0143 52.597 28.3513 52.597Z" fill="white"/>
<path d="M51.6978 15.33H24.2615L12.6264 13.4443L8.58249 15.33H8.30393C6.85866 15.33 5.68713 14.1583 5.68713 12.7132V3.95151C5.68713 2.50624 6.85877 1.33472 8.30393 1.33472H51.6978C53.143 1.33472 54.3146 2.50636 54.3146 3.95151V12.713C54.3146 14.1583 53.143 15.33 51.6978 15.33Z" fill="#CBE2FF"/>
<path d="M24.5688 15.3309H8.30319C6.8585 15.3309 5.68616 14.1599 5.68616 12.7139V3.95273C5.68616 2.50687 6.8585 1.33569 8.30319 1.33569H24.5688C23.123 1.33569 21.9518 2.50675 21.9518 3.95273V12.7139C21.9518 14.1599 23.123 15.3309 24.5688 15.3309Z" fill="#9DC6FB"/>
</svg>
