<svg width="60" height="60" viewBox="0 0 60 60" fill="none" xmlns="http://www.w3.org/2000/svg">
<path d="M58.7368 38.6332C59.5571 35.8989 60 33.0014 60 30C60 13.4314 46.5686 0 30 0C13.4314 0 0 13.4314 0 30C0 33.0014 0.442852 35.8989 1.26316 38.6332H58.7368Z" fill="#FFE400"/>
<path d="M23.5786 11.145C23.5408 11.145 23.5033 11.1461 23.4659 11.1478C23.34 9.68885 22.1166 8.54358 20.6249 8.54358C19.1333 8.54358 17.9098 9.68885 17.784 11.148C17.7466 11.1462 17.7091 11.1451 17.6712 11.1451C16.3925 11.1451 15.3557 12.1818 15.3557 13.4606C15.3557 14.7395 16.3924 15.7762 17.6712 15.7762H23.5785C24.8573 15.7762 25.894 14.7395 25.894 13.4606C25.894 12.1818 24.8574 11.145 23.5786 11.145V11.145Z" fill="#60B550"/>
<path d="M40.028 10.2386C39.7099 10.2386 39.4019 10.2803 39.1081 10.3577C39.1102 10.3182 39.1114 10.2786 39.1114 10.2386C39.1114 9.01178 38.1168 8.01733 36.8901 8.01733C36.3352 8.01733 35.8283 8.22124 35.439 8.55756C34.9702 7.91585 34.2124 7.49866 33.3569 7.49866C31.9334 7.49866 30.7793 8.6526 30.7793 10.0762C30.7793 10.5101 30.887 10.9188 31.0764 11.2775C30.9789 11.2662 30.8799 11.2599 30.7793 11.2599C29.3558 11.2599 28.2018 12.4139 28.2018 13.8374V15.0924H41.4803V10.5447C41.0359 10.3484 40.5449 10.2386 40.028 10.2386V10.2386Z" fill="#60B550"/>
<path d="M49.0523 53.1702C53.5867 49.4373 57.0082 44.4014 58.7391 38.6332L55.9676 26.6977C55.916 26.4762 55.8187 26.2688 55.6828 26.0871L52.7613 22.1895C52.5785 21.9445 52.4672 21.6539 52.4414 21.3504L51.368 8.94375L50.8559 3.01641C50.8195 2.59453 50.625 2.2207 50.3332 1.95352C50.0414 1.68516 49.6523 1.52344 49.2281 1.52344C48.6645 1.52344 48.1395 1.81523 47.8406 2.29453L46.2844 4.80117L45.5109 6.04688C45.3199 6.35508 45.0305 6.5918 44.6895 6.71719L42.6094 7.48477C42.1781 7.64414 41.8336 7.97695 41.6602 8.40352L39.375 14.0461L30 30L37.6202 53.1702H49.0523Z" fill="#725057"/>
<path d="M51.5176 43.0654L47.8152 39.9189C47.2436 39.4331 46.914 38.7207 46.914 37.9705V26.7053C46.914 25.5403 46.1264 24.5225 44.9986 24.2301L44.4088 24.0772C43.3779 23.8099 42.6206 22.9317 42.5078 21.8728L41.9177 16.333C41.7792 15.0329 40.6825 14.0466 39.375 14.0466H39.3748L30 30L37.6202 53.1702H49.0525C50.7561 51.7675 52.3027 50.1809 53.6614 48.4408L52.2941 44.225C52.1477 43.7739 51.8789 43.3725 51.5176 43.0654V43.0654Z" fill="#543438"/>
<path d="M23.3922 50.092L30.0001 30L20.6251 14.0461L18.3399 8.40352C18.1665 7.97695 17.8219 7.64414 17.3907 7.48477L15.3106 6.71719C14.9696 6.5918 14.6801 6.35508 14.4891 6.04687L13.7157 4.80117L12.1594 2.29453C11.8606 1.81523 11.3356 1.52344 10.7719 1.52344C10.3477 1.52344 9.95865 1.68516 9.66685 1.95352C9.37505 2.2207 9.18052 2.59453 9.14419 3.01641L8.63208 8.94375L7.55865 21.3504C7.53286 21.6539 7.42154 21.9445 7.23872 22.1895L4.31724 26.0871C4.1813 26.2688 4.08403 26.4762 4.03247 26.6977L1.26099 38.6332C2.55333 42.9404 4.7895 46.8384 7.72611 50.092H23.3922Z" fill="#725057"/>
<path d="M7.23872 22.1896L4.31724 26.0872C4.1813 26.2688 4.08403 26.4763 4.03247 26.6978L1.26099 38.6333C2.55333 42.9405 4.7895 46.8385 7.7261 50.0921H23.3922L28.9273 33.2619L28.5897 27.6L24.7665 21.0938H16.4008C15.9387 21.0938 15.5263 21.3839 15.37 21.8188L12.5122 29.7728C12.3559 30.2076 11.9436 30.4977 11.4814 30.4977C10.7686 30.4977 10.2458 29.8278 10.4188 29.1364L12.2025 22.0118C12.235 21.882 12.2434 21.7475 12.2275 21.6147L10.8174 9.90818C10.7511 9.35787 10.2842 8.94385 9.73001 8.94385H8.63208L7.55864 21.3505C7.53286 21.654 7.42153 21.9446 7.23872 22.1896V22.1896Z" fill="#543438"/>
<path d="M20.625 14.0464H39.375V53.467H20.625V14.0464Z" fill="#64B6EC"/>
<path d="M35.625 25.9943V29.1819C35.625 30.2175 34.7856 31.0569 33.75 31.0569C32.7144 31.0569 31.875 31.8963 31.875 32.9319V36.6471C31.875 37.6827 31.0356 38.5221 30 38.5221C28.9644 38.5221 28.125 37.6827 28.125 36.6471V18.8672C28.125 17.8316 27.2856 16.9922 26.25 16.9922C25.2144 16.9922 24.375 17.8316 24.375 18.8672V19.2188C24.375 20.2543 23.5356 21.0938 22.5 21.0938H20.625V53.4671H39.375V24.1193H37.5C36.4644 24.1193 35.625 24.9588 35.625 25.9943V25.9943Z" fill="#3188CA"/>
<path d="M12.254 54.1868H28.6627C28.6456 53.94 28.5918 53.6969 28.4985 53.4671L26.3815 48.2504C26.2679 47.9704 26.2095 47.6713 26.2095 47.3692V36.1218C26.2095 35.8704 26.169 35.6205 26.0896 35.3819L22.6091 24.9213C22.4499 24.4425 22.0019 24.1194 21.4971 24.1194H18.0871C17.5558 24.1194 17.091 24.4768 16.9545 24.9903L14.6221 33.7667C14.4628 34.3661 14.0725 34.8779 13.5366 35.19L11.296 36.4951C10.7189 36.8312 10.3126 37.3975 10.1792 38.0518L7.72302 50.092C9.08896 51.6054 10.6081 52.9773 12.254 54.1868V54.1868Z" fill="#7E5966"/>
<path d="M18.0872 24.1193C17.5559 24.1193 17.0911 24.4767 16.9546 24.9902L14.6222 33.7666C14.4629 34.3659 14.0726 34.8778 13.5367 35.1898L11.2961 36.495C10.719 36.8311 10.3127 37.3974 10.1793 38.0517L7.72302 50.092C9.08884 51.6055 10.6081 52.9773 12.254 54.1868H28.6627C28.6456 53.94 28.5918 53.6969 28.4985 53.4671L26.3815 48.2504C26.2679 47.9704 26.2095 47.6713 26.2095 47.3691V44.5443H17.7858C17.3991 44.5443 17.0373 44.7351 16.8189 45.0542L15.0922 47.576C14.4579 48.5025 13.0097 48.0927 12.9549 46.9712L12.6249 40.2234C12.6076 39.872 12.7493 39.5313 13.0108 39.2957L16.4278 36.2156C16.6405 36.0239 16.7756 35.7609 16.8077 35.4764L18.0872 24.1193Z" fill="#725057"/>
<path d="M47.7494 54.1868C48.1946 53.8596 48.631 53.5211 49.057 53.1702V45.6499C49.057 45.1796 48.8772 44.7269 48.5544 44.3847L45.1065 40.7296C44.7836 40.3874 44.6039 39.9348 44.6039 39.4643V27.6748C44.6039 27.0276 44.0792 26.5029 43.432 26.5029H42.3217C41.857 26.5029 41.4362 26.7775 41.249 27.2028L37.6474 35.3873C37.5444 35.6213 37.4912 35.8742 37.4912 36.1299V42.3626C37.4912 42.7917 37.3414 43.2075 37.0678 43.5381L34.7147 46.3816C34.441 46.7123 34.2914 47.1279 34.2914 47.5571V54.1867H47.7494V54.1868Z" fill="#7E5966"/>
<path d="M40.8736 43.7818L39.8266 36.6093C39.7807 36.295 39.7992 35.9746 39.881 35.6677L42.3217 26.5031C41.857 26.5031 41.4362 26.7776 41.249 27.2029L37.6474 35.3874C37.5444 35.6214 37.4912 35.8743 37.4912 36.1301V42.3629C37.4912 42.792 37.3414 43.2078 37.0678 43.5384L34.7147 46.3818C34.441 46.7124 34.2914 47.1282 34.2914 47.5573V54.187H47.7494C48.1946 53.8598 48.631 53.5212 49.057 53.1704L47.5284 49.2031C47.3333 48.6965 46.9683 48.2734 46.4959 48.006L42.0383 45.483C41.4081 45.1263 40.9782 44.4982 40.8736 43.7818V43.7818Z" fill="#725057"/>
<path d="M44.0816 51.8749C43.8108 51.8749 43.5464 51.902 43.2905 51.9525C43.3094 51.7849 43.3201 51.6148 43.3201 51.442C43.3201 48.9593 41.3074 46.9467 38.8248 46.9467C38.0481 46.9467 37.3174 47.1437 36.68 47.4905C35.3851 45.1332 32.8794 43.5352 30 43.5352C27.1206 43.5352 24.6149 45.1334 23.32 47.4906C22.6825 47.1439 21.9518 46.9468 21.1752 46.9468C18.6925 46.9468 16.6799 48.9594 16.6799 51.4421C16.6799 51.6149 16.6905 51.7849 16.7095 51.9526C16.4536 51.9021 16.1892 51.875 15.9184 51.875C14.3017 51.875 12.9057 52.8196 12.2517 54.1868C17.222 57.8402 23.3584 60 30 60C36.6416 60 42.778 57.8402 47.7483 54.1868C47.0944 52.8196 45.6983 51.8749 44.0816 51.8749V51.8749Z" fill="#C5DEF8"/>
<path d="M21.1752 46.9468C18.6925 46.9468 16.6799 48.9594 16.6799 51.4421C16.6799 51.6148 16.6905 51.7849 16.7095 51.9526C16.4536 51.9021 16.1892 51.875 15.9184 51.875C14.3017 51.875 12.9057 52.8195 12.2517 54.1868C17.222 57.8402 23.3584 60 30 60C33.4162 60 36.6982 59.4273 39.7571 58.375C39.3731 54.5929 34.1141 52.7769 30 54.1868C25.0781 55.8736 20.7422 51.2109 23.32 47.4905C22.6825 47.1438 21.9519 46.9468 21.1752 46.9468V46.9468Z" fill="#64B6EC"/>
</svg>
