<svg width="60" height="60" viewBox="0 0 60 60" fill="none" xmlns="http://www.w3.org/2000/svg">
<path d="M15.2202 29.5703C5.91923 29.5703 0.628449 18.852 6.36032 11.5271C11.8515 4.51008 20.399 0 30 0C46.3043 0 59.5706 13.0064 59.9898 29.2096C59.9949 29.4074 59.8343 29.5703 59.6363 29.5703H15.2202Z" fill="#40C1FA"/>
<path d="M56.3383 30C56.3383 44.5462 44.5462 56.3383 30 56.3383C15.4537 56.3383 3.66162 44.5462 3.66162 30C3.66162 15.4537 15.4537 3.66162 30 3.66162C44.5462 3.66162 56.3383 15.4537 56.3383 30Z" fill="#72D1FB"/>
<path d="M22.0638 16.543H13.8448C12.8741 16.543 12.087 15.7559 12.087 14.7852C12.087 13.8144 12.8741 13.0273 13.8448 13.0273H22.0638C23.0346 13.0273 23.8216 13.8144 23.8216 14.7852C23.8216 15.7559 23.0347 16.543 22.0638 16.543ZM23.8216 7.05078C23.8216 6.08 23.0346 5.29297 22.0638 5.29297H19.7122C18.7414 5.29297 17.9544 6.08 17.9544 7.05078C17.9544 8.02156 18.7414 8.80859 19.7122 8.80859H22.0638C23.0347 8.80859 23.8216 8.02156 23.8216 7.05078ZM54.299 15.8203C54.299 14.8495 53.512 14.0625 52.5412 14.0625H50.1896C49.2188 14.0625 48.4318 14.8495 48.4318 15.8203C48.4318 16.791 49.2188 17.5781 50.1896 17.5781H52.5412C53.512 17.5781 54.299 16.791 54.299 15.8203Z" fill="#B4E7FD"/>
<path d="M40.0081 8.90984C39.7971 10.2212 40.6676 11.4624 41.9722 11.711C42.5481 11.8207 42.7657 12.5306 42.3502 12.9441C41.4088 13.8811 41.3834 15.3969 42.2928 16.3648C42.6941 16.7921 42.4529 17.4943 41.8737 17.5846C40.5614 17.7893 39.6498 19.0006 39.8166 20.3183C39.8902 20.8999 39.2822 21.3262 38.7605 21.0588C37.5785 20.453 36.129 20.8972 35.4894 22.0612C35.2071 22.575 34.4647 22.5625 34.1998 22.0395C33.5997 20.8546 32.1659 20.3621 30.9642 20.9279C30.4338 21.1776 29.8405 20.7311 29.9336 20.1523C30.1445 18.841 29.274 17.5998 27.9694 17.3512C27.3935 17.2415 27.1759 16.5316 27.5915 16.118C28.5328 15.1811 28.5582 13.6653 27.6489 12.6973C27.2475 12.2701 27.4887 11.5679 28.0679 11.4775C29.3802 11.2729 30.2918 10.0616 30.125 8.7439C30.0515 8.1623 30.6594 7.73597 31.1811 8.0034C32.3631 8.60914 33.8126 8.165 34.4522 7.00097C34.7345 6.48722 35.4769 6.49965 35.7419 7.02265C36.342 8.20754 37.7758 8.70008 38.9774 8.1343C39.5078 7.88457 40.1011 8.33105 40.0081 8.90984V8.90984Z" fill="#FFDE91"/>
<path d="M39.3011 14.5312C39.3011 16.9228 37.3624 18.8616 34.9708 18.8616C32.5793 18.8616 30.6405 16.9228 30.6405 14.5312C30.6405 12.1397 32.5793 10.2009 34.9708 10.2009C37.3624 10.2009 39.3011 12.1397 39.3011 14.5312Z" fill="#FFC14F"/>
<path d="M37.5691 14.5313C37.5691 15.9662 36.4059 17.1294 34.971 17.1294C33.536 17.1294 32.3728 15.9662 32.3728 14.5313C32.3728 13.0963 33.536 11.9331 34.971 11.9331C36.4058 11.9331 37.5691 13.0963 37.5691 14.5313Z" fill="#FFA90B"/>
<path d="M21.4908 22.2656C24.2989 22.2656 26.5753 24.5421 26.5753 27.3502C26.5753 30.1582 24.2988 32.4347 21.4908 32.4347C18.6827 32.4347 16.4062 30.1583 16.4062 27.3502C16.4062 24.542 18.6827 22.2656 21.4908 22.2656Z" fill="#489160"/>
<path d="M39.4661 23.0405C39.4661 25.8485 37.1896 28.125 34.3815 28.125C32.2731 28.125 30.4645 26.8417 29.694 25.0136C28.9235 26.8417 27.115 28.125 25.0065 28.125C22.1984 28.125 19.9219 25.8485 19.9219 23.0405C19.9219 20.2387 22.1879 17.9664 24.9872 17.9561C24.9976 15.8039 26.7454 14.0625 28.8998 14.0625C31.0608 14.0625 32.8125 15.8142 32.8125 17.9752C32.8125 18.0523 32.8102 18.1288 32.8058 18.2047C33.3019 18.0432 33.8314 17.9558 34.3815 17.9558C37.1896 17.9558 39.4661 20.2323 39.4661 23.0405V23.0405Z" fill="#6DC54A"/>
<path d="M21.0938 21.4908C21.0938 24.9462 18.2926 27.7473 14.8373 27.7473C11.382 27.7473 8.58094 24.9462 8.58094 21.4908C8.58094 21.049 8.62676 20.6179 8.71383 20.202C7.02352 19.3757 5.85938 17.6395 5.85938 15.6314C5.85938 12.8234 8.13586 10.5469 10.9439 10.5469C13.6563 10.5469 15.8725 12.6708 16.0205 15.3462C18.9101 15.8992 21.0938 18.4399 21.0938 21.4908V21.4908Z" fill="#489160"/>
<path d="M56.6318 31.6406C58.4832 31.6406 59.8768 33.3121 59.5621 35.1366C57.1255 49.2579 44.8173 60 30 60C16.2868 60 4.72264 50.7991 1.14409 38.2339C0.202135 34.9266 2.70936 31.6406 6.14823 31.6406H56.6318Z" fill="#82CD64"/>
<path d="M35.6177 59.4749C33.7979 59.8195 31.92 60 30 60C16.2868 60 4.72264 50.799 1.14409 38.2339C0.202135 34.9266 2.70936 31.6406 6.14823 31.6406H17.3835C13.9446 31.6406 11.4374 34.9266 12.3793 38.2339C15.4568 49.0398 24.4404 57.3575 35.6177 59.4749Z" fill="#6DC54A"/>
<path d="M24.6094 51.3867C24.6094 51.8721 24.2159 52.2656 23.7305 52.2656H18.457C17.9716 52.2656 17.5781 51.8721 17.5781 51.3867C17.5781 50.9013 17.9716 50.5078 18.457 50.5078H23.7305C24.2159 50.5078 24.6094 50.9013 24.6094 51.3867ZM36.3214 54.3164C36.3214 54.8018 35.9279 55.1953 35.4425 55.1953H30.1691C29.6837 55.1953 29.2902 54.8018 29.2902 54.3164C29.2902 53.831 29.6837 53.4375 30.1691 53.4375H35.4425C35.9279 53.4375 36.3214 53.831 36.3214 54.3164ZM47.8686 52.2656C47.8686 51.7802 47.4751 51.3867 46.9897 51.3867H44.6548C44.1694 51.3867 43.7759 51.7802 43.7759 52.2656C43.7759 52.751 44.1694 53.1445 44.6548 53.1445H46.9897C47.4751 53.1445 47.8686 52.751 47.8686 52.2656ZM40.6516 49.6289C40.6516 50.1143 40.2581 50.5078 39.7727 50.5078H34.4993C34.0139 50.5078 33.6204 50.1143 33.6204 49.6289C33.6204 49.1435 34.0139 48.75 34.4993 48.75H39.7727C40.2582 48.75 40.6516 49.1435 40.6516 49.6289ZM54.3906 41.5044C54.3906 41.019 53.9971 40.6255 53.5117 40.6255H51.1767C50.6913 40.6255 50.2978 41.019 50.2978 41.5044C50.2978 41.9898 50.6913 42.3833 51.1767 42.3833H53.5117C53.9971 42.3833 54.3906 41.9898 54.3906 41.5044ZM50.2978 38.3495C50.2978 38.8349 49.9043 39.2284 49.4189 39.2284H44.1455C43.6601 39.2284 43.2666 38.8349 43.2666 38.3495C43.2666 37.8641 43.6601 37.4706 44.1455 37.4706H49.4189C49.9043 37.4706 50.2978 37.8641 50.2978 38.3495Z" fill="#6DC54A"/>
<path d="M26.9531 38.2942H16.2891C16.2891 38.2942 0.326953 34.8089 0.146836 32.987C0.0496875 32.0045 0 31.008 0 30C0 22.8512 2.50043 16.2865 6.67441 11.1327L26.9531 38.2942Z" fill="#FFC14F"/>
<path d="M3.08496 34.7125C1.37859 34.0839 0.195117 33.4755 0.146836 32.9869C0.0496875 32.0044 0 31.008 0 30C0 22.8512 2.50043 16.2865 6.67441 11.1327L9.13453 14.4278C5.39637 20.3061 3.19195 27.2555 3.08496 34.7125V34.7125Z" fill="#E4AB45"/>
<path d="M7.64568 26.7171L16.2891 38.2942H1.16135C0.670098 36.583 0.32709 34.8094 0.146973 32.9877L4.82861 26.717C5.53162 25.7755 6.94267 25.7755 7.64568 26.7171V26.7171Z" fill="#7B5341"/>
<path d="M6.304 29.4487C4.42361 31.9673 3.79959 35.2203 4.66139 38.2429C4.66631 38.26 4.67111 38.2771 4.67604 38.2942H1.16135C0.670098 36.5831 0.32709 34.8094 0.146973 32.9878L4.82861 26.7171C5.53162 25.7755 6.94268 25.7755 7.64568 26.7171L7.99455 27.1843L6.304 29.4487Z" fill="#634539"/>
<path d="M43.7371 7.40894L59.9889 29.1768C59.9962 29.4501 60 29.7246 60 29.9999C60 31.758 59.8487 33.4809 59.5585 35.1561H53.789L52.2763 34.7366C46.8648 33.2362 41.1289 33.3823 35.8008 35.1562H23.0211L43.7371 7.40894Z" fill="#2476ED"/>
<path d="M43.7371 10.5469C43.2517 10.5469 42.8582 10.1534 42.8582 9.66797V6.73828C42.8582 6.25289 43.2517 5.85938 43.7371 5.85938C44.2225 5.85938 44.616 6.25289 44.616 6.73828V9.66797C44.616 10.1534 44.2225 10.5469 43.7371 10.5469Z" fill="#0956C6"/>
<path d="M33.6852 35.1563L42.3286 23.5792C43.0316 22.6376 44.4426 22.6376 45.1457 23.5792L53.7891 35.1563H33.6852Z" fill="#634539"/>
<path d="M42.8326 28.1063L45.6791 24.2936L53.789 35.1563H46.3671C42.7366 35.1563 40.6606 31.0155 42.8326 28.1063Z" fill="#7B5341"/>
<path d="M5.85938 46.875L26.5754 19.1277L46.0446 45.205C46.5591 45.894 46.0673 46.875 45.2073 46.875H36.6273L35.7814 46.4164C30.0388 43.3034 23.112 43.3034 17.3693 46.4164L16.5234 46.875H5.85938Z" fill="#F44545"/>
<path d="M28.8899 22.2278L10.4883 46.875H7.86961C7.04004 46.875 6.56567 45.9288 7.06196 45.2641L26.5753 19.1277L28.8899 22.2278Z" fill="#D63030"/>
<path d="M27.4543 18.457V21.3867C27.4543 21.8721 27.0608 22.2656 26.5754 22.2656C26.09 22.2656 25.6965 21.8721 25.6965 21.3867V18.457C25.6965 17.9716 26.09 17.5781 26.5754 17.5781C27.0608 17.5781 27.4543 17.9716 27.4543 18.457Z" fill="#AF2727"/>
<path d="M16.5234 46.875L25.1668 35.2979C25.8698 34.3563 27.2809 34.3563 27.9839 35.2979L36.6273 46.875H16.5234Z" fill="#634539"/>
<path d="M26.0157 39.6059L28.608 36.1338L36.6272 46.875H29.6601C25.9169 46.875 23.7762 42.6055 26.0157 39.6059Z" fill="#7B5341"/>
<path d="M50.3906 45.9961C50.3906 46.4815 49.9971 46.875 49.5117 46.875H44.2383C43.7529 46.875 43.3594 46.4815 43.3594 45.9961C43.3594 45.5107 43.7529 45.1172 44.2383 45.1172H49.5117C49.9971 45.1172 50.3906 45.5107 50.3906 45.9961ZM8.49612 45.1172H4.08167C4.43206 45.7167 4.80272 46.3029 5.1926 46.875H8.49612C8.98151 46.875 9.37502 46.4815 9.37502 45.9961C9.37502 45.5107 8.98151 45.1172 8.49612 45.1172Z" fill="#FFC14F"/>
<path d="M27.0095 45.7178L24.9379 47.7894C24.6062 48.1211 24.0755 48.1322 23.7305 47.823C23.575 47.9623 23.3696 48.0469 23.1445 48.0469C22.6591 48.0469 22.2656 47.6534 22.2656 47.168V43.0664C22.2656 42.581 22.6591 42.1875 23.1445 42.1875C23.6299 42.1875 24.0234 42.581 24.0234 43.0664V46.218L25.7665 44.4749C26.1097 44.1316 26.6663 44.1316 27.0095 44.4749C27.3527 44.8181 27.3527 45.3746 27.0095 45.7178Z" fill="#82CD64"/>
<path d="M55.9925 33.1705L53.4208 35.7422L53.6488 35.9701C53.992 36.3133 53.992 36.8699 53.6488 37.213C53.3055 37.5562 52.749 37.5562 52.4058 37.213L49.5055 34.3127C49.1622 33.9695 49.1622 33.4129 49.5055 33.0698C49.8487 32.7266 50.4052 32.7266 50.7485 33.0698L52.1778 34.4992L54.7495 31.9274C55.0927 31.5841 55.6493 31.5841 55.9925 31.9274C56.3358 32.2707 56.3358 32.8271 55.9925 33.1705V33.1705Z" fill="#82CD64"/>
</svg>
