<svg width="60" height="60" viewBox="0 0 60 60" fill="none" xmlns="http://www.w3.org/2000/svg">
<g clip-path="url(#clip0)">
<path d="M60 30C60 37.4375 57.2939 44.242 52.811 49.4841C51.9294 50.5164 50.9791 51.4861 49.9665 52.3897C49.7645 52.5697 49.5612 52.7473 49.3543 52.9212C48.5719 53.5836 47.7539 54.2057 46.9054 54.7861C42.9098 57.5167 38.2213 59.307 33.1555 59.8359C32.1184 59.9449 31.0654 60 30 60C28.9346 60 27.8816 59.9449 26.8445 59.8359C26.7257 59.8238 26.607 59.8103 26.4894 59.7955C26.4882 59.7955 26.4882 59.7955 26.487 59.7955C26.0143 59.7404 25.5441 59.6743 25.0788 59.5971C25.0777 59.5971 25.0777 59.5971 25.0764 59.5971C22.3617 59.1502 19.7682 58.3371 17.3523 57.2118C16.6152 56.8677 15.8927 56.4954 15.1898 56.0951C14.9609 55.9652 14.7343 55.8318 14.5103 55.6959C13.7658 55.2454 13.0409 54.7641 12.3404 54.2523C4.86 48.7984 0 39.9661 0 30C0 13.4314 13.4314 0 30 0C46.5686 0 60 13.4314 60 30Z" fill="#52C8D3"/>
<path d="M18.7454 2.72901C19.1481 2.72901 19.5415 2.76721 19.9242 2.83682C20.3293 1.37807 21.6659 0.307095 23.2536 0.307095C24.3214 0.307095 25.2756 0.791548 25.9096 1.55233C26.9233 0.627368 28.2717 0.0631104 29.752 0.0631104C31.6498 0.0631104 33.3301 0.991001 34.3666 2.41706C35.5982 1.02979 37.3939 0.154634 39.3949 0.154634C41.7091 0.154634 43.7498 1.32417 44.9592 3.10401C45.8372 2.54889 46.877 2.22639 47.9927 2.22639C51.1335 2.22639 53.6797 4.77264 53.6797 7.91338C53.6797 11.0541 51.1334 13.6004 47.9927 13.6004C46.387 13.6004 44.9378 12.9339 43.9038 11.8638C42.7111 12.943 41.1298 13.6004 39.3949 13.6004C37.8346 13.6004 36.3998 13.0674 35.2588 12.1756C34.6251 12.9128 33.6863 13.3804 32.6378 13.3804C31.2819 13.3804 30.1089 12.5991 29.5429 11.4624C29.2232 11.4509 28.9099 11.4144 28.6056 11.3524C27.9758 12.0172 27.0851 12.4325 26.0971 12.4325C25.5822 12.4325 25.094 12.319 24.655 12.1171C23.5979 14.317 21.3489 15.8355 18.7451 15.8355C15.1258 15.8355 12.1918 12.9015 12.1918 9.28213C12.1918 5.6628 15.126 2.72901 18.7454 2.72901Z" fill="#F2EEED"/>
<path d="M12.3404 11.3254V16.0888C9.98691 16.0888 7.81707 16.8896 6.0882 18.2341C5.75152 18.4961 5.43183 18.779 5.13066 19.0802C3.28414 20.9256 2.1405 23.4773 2.1405 26.2888V37.0459C2.1405 40.9569 4.34703 44.454 7.76339 46.1622C8.21527 46.3888 8.68906 46.5834 9.18136 46.7438L12.3405 47.7737V54.2525C13.0409 54.7644 13.7659 55.2456 14.5103 55.6961C14.7344 55.8321 14.9609 55.9656 15.1899 56.0953C15.8928 56.4957 16.6153 56.8679 17.3524 57.212C20.1846 58.5308 23.2569 59.4198 26.487 59.7956C26.4882 59.7956 26.4882 59.7956 26.4895 59.7956C26.607 59.8102 26.7259 59.8237 26.8446 59.836C27.8817 59.945 28.9347 60.0001 30.0001 60.0001C31.0654 60.0001 32.1185 59.945 33.1556 59.836C38.2212 59.307 42.9099 57.5169 46.9054 54.7862C47.754 54.2058 48.5719 53.5837 49.3544 52.9213C49.5614 52.7474 49.7646 52.5698 49.9666 52.3898C50.9792 51.4862 51.9295 50.5163 52.8111 49.4842V11.3254H12.3404ZM12.3404 42.8401L10.6347 42.2842C9.15429 41.8017 7.98863 40.7401 7.35804 39.3968C7.0189 38.6792 6.83269 37.8797 6.83269 37.0457V26.2886C6.83269 23.252 9.30371 20.7809 12.3405 20.7809V42.8401H12.3404Z" fill="#E6E2E0"/>
<path d="M25.0763 59.5972C22.3616 59.1502 19.7681 58.3372 17.3522 57.2118C16.6151 56.8678 15.8926 56.4955 15.1897 56.0952C14.9608 55.9653 14.7342 55.8318 14.5102 55.696C13.7657 55.2454 13.0408 54.7642 12.3403 54.2524V11.3254H21.9012V43.876C21.9011 46.8392 21.6501 54.7581 25.0763 59.5972Z" fill="#D8D4D3"/>
<path d="M49.9665 22.2734V52.3898C49.7645 52.5698 49.5611 52.7473 49.3543 52.9213C48.5718 53.5837 47.7539 54.2057 46.9053 54.7862C42.9098 57.5168 38.2213 59.307 33.1555 59.836C32.1184 59.945 31.0653 60.0001 30 60.0001C28.9346 60.0001 27.8816 59.945 26.8445 59.836C26.7256 59.8238 26.6069 59.8104 26.4894 59.7956C26.4882 59.7956 26.4882 59.7956 26.4869 59.7956C23.2568 59.4197 20.1845 58.5307 17.3523 57.212C16.6152 56.8679 15.8927 56.4956 15.1898 56.0953C15.1862 56.0071 15.1837 55.9189 15.1837 55.8296V22.2734H49.9665Z" fill="#F9EF4A"/>
<path d="M15.1846 22.2737H49.967V13.7429H15.1846V22.2737Z" fill="#F2EEED"/>
<path d="M20.8233 9.7601C21.6294 9.7601 22.3641 9.45588 22.9198 8.95643C22.8352 8.96334 22.7499 8.96768 22.6634 8.96768C20.9305 8.96768 19.5255 7.56283 19.5255 5.82986C19.5255 4.90291 19.9277 4.07006 20.5668 3.49561C18.954 3.62615 17.6853 4.97568 17.6853 6.62205C17.6857 8.35525 19.0905 9.7601 20.8233 9.7601Z" fill="#D8D4D3"/>
<path d="M26.3234 5.89934C26.8532 5.89934 27.3362 5.69942 27.7015 5.37106C27.6459 5.37563 27.5897 5.37856 27.533 5.37856C26.3937 5.37856 25.4702 4.455 25.4702 3.31583C25.4702 2.70645 25.7346 2.15895 26.1548 1.78137C25.0945 1.86715 24.2606 2.75426 24.2606 3.83672C24.2606 4.97579 25.1841 5.89934 26.3234 5.89934Z" fill="#D8D4D3"/>
<path d="M45.3137 7.5717C45.8435 7.5717 46.3266 7.37178 46.6918 7.04342C46.6363 7.04799 46.58 7.05092 46.5233 7.05092C45.384 7.05092 44.4606 6.12737 44.4606 4.98819C44.4606 4.37881 44.725 3.83131 45.1452 3.45374C44.0849 3.53952 43.251 4.42663 43.251 5.50909C43.251 6.64827 44.1744 7.5717 45.3137 7.5717Z" fill="#D8D4D3"/>
<path d="M35.2162 9.94149C36.1644 9.94149 37.0287 9.58372 37.6824 8.99614C37.5829 9.00423 37.4825 9.00938 37.3808 9.00938C35.3423 9.00938 33.6896 7.3568 33.6896 5.31833C33.6896 4.2279 34.1628 3.24821 34.9146 2.57251C33.0172 2.72603 31.525 4.31345 31.525 6.25044C31.525 8.28891 33.1776 9.94149 35.2162 9.94149Z" fill="#D8D4D3"/>
<path d="M25.0788 59.5971C22.3629 59.1501 19.7694 58.3371 17.3523 57.2117C16.6152 56.8677 15.8927 56.4954 15.1898 56.095C15.1862 56.0069 15.1837 55.9187 15.1837 55.8294V22.2734H21.9013V43.8759C21.9011 46.8391 21.6501 54.7591 25.0788 59.5971Z" fill="#DBCF48"/>
<path d="M38.3925 34.7867C39.5409 34.7867 40.4719 33.8557 40.4719 32.7073C40.4719 31.5589 39.5409 30.6279 38.3925 30.6279C37.2441 30.6279 36.3131 31.5589 36.3131 32.7073C36.3131 33.8557 37.2441 34.7867 38.3925 34.7867Z" fill="#DBCF48"/>
<path d="M35.7011 46.0371C36.2753 46.0371 36.7408 45.5717 36.7408 44.9975C36.7408 44.4232 36.2753 43.9578 35.7011 43.9578C35.1269 43.9578 34.6614 44.4232 34.6614 44.9975C34.6614 45.5717 35.1269 46.0371 35.7011 46.0371Z" fill="#DBCF48"/>
<path d="M27.1641 56.0462C27.7383 56.0462 28.2038 55.5807 28.2038 55.0065C28.2038 54.4323 27.7383 53.9668 27.1641 53.9668C26.5899 53.9668 26.1244 54.4323 26.1244 55.0065C26.1244 55.5807 26.5899 56.0462 27.1641 56.0462Z" fill="#DBCF48"/>
<path d="M26.9241 28.8013C27.4983 28.8013 27.9638 28.3358 27.9638 27.7616C27.9638 27.1874 27.4983 26.7219 26.9241 26.7219C26.3499 26.7219 25.8844 27.1874 25.8844 27.7616C25.8844 28.3358 26.3499 28.8013 26.9241 28.8013Z" fill="#DBCF48"/>
<path d="M28.2099 44.4368C29.3583 44.4368 30.2893 43.5059 30.2893 42.3575C30.2893 41.209 29.3583 40.2781 28.2099 40.2781C27.0615 40.2781 26.1305 41.209 26.1305 42.3575C26.1305 43.5059 27.0615 44.4368 28.2099 44.4368Z" fill="#DBCF48"/>
<path d="M45.3196 45.3932H44.7867C43.8737 45.3932 43.1337 44.6532 43.1337 43.7401V27.2824C43.1337 26.3694 43.8737 25.6294 44.7867 25.6294H45.3196C46.2326 25.6294 46.9726 26.3694 46.9726 27.2824V43.7401C46.9726 44.6532 46.2326 45.3932 45.3196 45.3932Z" fill="#FFFCA6"/>
</g>
<defs>
<clipPath id="clip0">
<rect width="60" height="60" fill="white"/>
</clipPath>
</defs>
</svg>
