<svg width="200" height="192" viewBox="0 0 200 192" fill="none" xmlns="http://www.w3.org/2000/svg">
<g filter="url(#filter0_d)">
<rect x="4" width="192" height="184" rx="8" fill="#F0F0F0"/>
<path d="M68.9062 131.391C68.7656 132.594 68.3203 133.523 67.5703 134.18C66.8255 134.831 65.8333 135.156 64.5938 135.156C63.25 135.156 62.1719 134.674 61.3594 133.711C60.5521 132.747 60.1484 131.458 60.1484 129.844V128.75C60.1484 127.693 60.3359 126.763 60.7109 125.961C61.0911 125.159 61.6276 124.544 62.3203 124.117C63.013 123.685 63.8151 123.469 64.7266 123.469C65.9349 123.469 66.9036 123.807 67.6328 124.484C68.362 125.156 68.7865 126.089 68.9062 127.281H67.3984C67.2682 126.375 66.9844 125.719 66.5469 125.312C66.1146 124.906 65.5078 124.703 64.7266 124.703C63.7682 124.703 63.0156 125.057 62.4688 125.766C61.9271 126.474 61.6562 127.482 61.6562 128.789V129.891C61.6562 131.125 61.9141 132.107 62.4297 132.836C62.9453 133.565 63.6667 133.93 64.5938 133.93C65.4271 133.93 66.0651 133.742 66.5078 133.367C66.9557 132.987 67.2526 132.328 67.3984 131.391H68.9062ZM70.3516 130.695C70.3516 129.867 70.513 129.122 70.8359 128.461C71.1641 127.799 71.6172 127.289 72.1953 126.93C72.7786 126.57 73.4427 126.391 74.1875 126.391C75.3385 126.391 76.2682 126.789 76.9766 127.586C77.6901 128.383 78.0469 129.443 78.0469 130.766V130.867C78.0469 131.69 77.888 132.43 77.5703 133.086C77.2578 133.737 76.8073 134.245 76.2188 134.609C75.6354 134.974 74.9635 135.156 74.2031 135.156C73.0573 135.156 72.1276 134.758 71.4141 133.961C70.7057 133.164 70.3516 132.109 70.3516 130.797V130.695ZM71.8047 130.867C71.8047 131.805 72.0208 132.557 72.4531 133.125C72.8906 133.693 73.474 133.977 74.2031 133.977C74.9375 133.977 75.5208 133.69 75.9531 133.117C76.3854 132.539 76.6016 131.732 76.6016 130.695C76.6016 129.768 76.3802 129.018 75.9375 128.445C75.5 127.867 74.9167 127.578 74.1875 127.578C73.474 127.578 72.8984 127.862 72.4609 128.43C72.0234 128.997 71.8047 129.81 71.8047 130.867ZM84.7812 132.758C84.7812 132.367 84.6328 132.065 84.3359 131.852C84.0443 131.633 83.5312 131.445 82.7969 131.289C82.0677 131.133 81.487 130.945 81.0547 130.727C80.6276 130.508 80.3099 130.247 80.1016 129.945C79.8984 129.643 79.7969 129.284 79.7969 128.867C79.7969 128.174 80.0885 127.589 80.6719 127.109C81.2604 126.63 82.0104 126.391 82.9219 126.391C83.8802 126.391 84.6562 126.638 85.25 127.133C85.849 127.628 86.1484 128.26 86.1484 129.031H84.6953C84.6953 128.635 84.526 128.294 84.1875 128.008C83.8542 127.721 83.4323 127.578 82.9219 127.578C82.3958 127.578 81.9844 127.693 81.6875 127.922C81.3906 128.151 81.2422 128.451 81.2422 128.82C81.2422 129.169 81.3802 129.432 81.6562 129.609C81.9323 129.786 82.4297 129.956 83.1484 130.117C83.8724 130.279 84.4583 130.471 84.9062 130.695C85.3542 130.919 85.6849 131.19 85.8984 131.508C86.1172 131.82 86.2266 132.203 86.2266 132.656C86.2266 133.411 85.9245 134.018 85.3203 134.477C84.7161 134.93 83.9323 135.156 82.9688 135.156C82.2917 135.156 81.6927 135.036 81.1719 134.797C80.651 134.557 80.2422 134.224 79.9453 133.797C79.6536 133.365 79.5078 132.898 79.5078 132.398H80.9531C80.9792 132.883 81.1719 133.268 81.5312 133.555C81.8958 133.836 82.375 133.977 82.9688 133.977C83.5156 133.977 83.9531 133.867 84.2812 133.648C84.6146 133.424 84.7812 133.128 84.7812 132.758ZM90.0703 124.5V126.547H91.6484V127.664H90.0703V132.906C90.0703 133.245 90.1406 133.5 90.2812 133.672C90.4219 133.839 90.6615 133.922 91 133.922C91.1667 133.922 91.3958 133.891 91.6875 133.828V135C91.3073 135.104 90.9375 135.156 90.5781 135.156C89.9323 135.156 89.4453 134.961 89.1172 134.57C88.7891 134.18 88.625 133.625 88.625 132.906V127.664H87.0859V126.547H88.625V124.5H90.0703ZM98.5625 134.164C98 134.826 97.1745 135.156 96.0859 135.156C95.1849 135.156 94.4974 134.896 94.0234 134.375C93.5547 133.849 93.3177 133.073 93.3125 132.047V126.547H94.7578V132.008C94.7578 133.289 95.2786 133.93 96.3203 133.93C97.4245 133.93 98.1589 133.518 98.5234 132.695V126.547H99.9688V135H98.5938L98.5625 134.164ZM106.258 127.844C106.039 127.807 105.802 127.789 105.547 127.789C104.599 127.789 103.956 128.193 103.617 129V135H102.172V126.547H103.578L103.602 127.523C104.076 126.768 104.747 126.391 105.617 126.391C105.898 126.391 106.112 126.427 106.258 126.5V127.844ZM110.945 135.156C109.799 135.156 108.867 134.781 108.148 134.031C107.43 133.276 107.07 132.268 107.07 131.008V130.742C107.07 129.904 107.229 129.156 107.547 128.5C107.87 127.839 108.318 127.323 108.891 126.953C109.469 126.578 110.094 126.391 110.766 126.391C111.865 126.391 112.719 126.753 113.328 127.477C113.938 128.201 114.242 129.237 114.242 130.586V131.188H108.516C108.536 132.021 108.779 132.695 109.242 133.211C109.711 133.721 110.305 133.977 111.023 133.977C111.534 133.977 111.966 133.872 112.32 133.664C112.674 133.456 112.984 133.18 113.25 132.836L114.133 133.523C113.424 134.612 112.362 135.156 110.945 135.156ZM110.766 127.578C110.182 127.578 109.693 127.792 109.297 128.219C108.901 128.641 108.656 129.234 108.562 130H112.797V129.891C112.755 129.156 112.557 128.589 112.203 128.188C111.849 127.781 111.37 127.578 110.766 127.578ZM117.492 135H116.047V126.547H117.492V135ZM115.93 124.305C115.93 124.07 116 123.872 116.141 123.711C116.286 123.549 116.5 123.469 116.781 123.469C117.062 123.469 117.276 123.549 117.422 123.711C117.568 123.872 117.641 124.07 117.641 124.305C117.641 124.539 117.568 124.734 117.422 124.891C117.276 125.047 117.062 125.125 116.781 125.125C116.5 125.125 116.286 125.047 116.141 124.891C116 124.734 115.93 124.539 115.93 124.305ZM123.898 127.844C123.68 127.807 123.443 127.789 123.188 127.789C122.24 127.789 121.596 128.193 121.258 129V135H119.812V126.547H121.219L121.242 127.523C121.716 126.768 122.388 126.391 123.258 126.391C123.539 126.391 123.753 126.427 123.898 126.5V127.844ZM130.141 135C130.057 134.833 129.99 134.536 129.938 134.109C129.266 134.807 128.464 135.156 127.531 135.156C126.698 135.156 126.013 134.922 125.477 134.453C124.945 133.979 124.68 133.38 124.68 132.656C124.68 131.776 125.013 131.094 125.68 130.609C126.352 130.12 127.294 129.875 128.508 129.875H129.914V129.211C129.914 128.706 129.763 128.305 129.461 128.008C129.159 127.706 128.714 127.555 128.125 127.555C127.609 127.555 127.177 127.685 126.828 127.945C126.479 128.206 126.305 128.521 126.305 128.891H124.852C124.852 128.469 125 128.062 125.297 127.672C125.599 127.276 126.005 126.964 126.516 126.734C127.031 126.505 127.596 126.391 128.211 126.391C129.185 126.391 129.948 126.635 130.5 127.125C131.052 127.609 131.339 128.279 131.359 129.133V133.023C131.359 133.799 131.458 134.417 131.656 134.875V135H130.141ZM127.742 133.898C128.195 133.898 128.625 133.781 129.031 133.547C129.438 133.312 129.732 133.008 129.914 132.633V130.898H128.781C127.01 130.898 126.125 131.417 126.125 132.453C126.125 132.906 126.276 133.26 126.578 133.516C126.88 133.771 127.268 133.898 127.742 133.898ZM138.547 132.758C138.547 132.367 138.398 132.065 138.102 131.852C137.81 131.633 137.297 131.445 136.562 131.289C135.833 131.133 135.253 130.945 134.82 130.727C134.393 130.508 134.076 130.247 133.867 129.945C133.664 129.643 133.562 129.284 133.562 128.867C133.562 128.174 133.854 127.589 134.438 127.109C135.026 126.63 135.776 126.391 136.688 126.391C137.646 126.391 138.422 126.638 139.016 127.133C139.615 127.628 139.914 128.26 139.914 129.031H138.461C138.461 128.635 138.292 128.294 137.953 128.008C137.62 127.721 137.198 127.578 136.688 127.578C136.161 127.578 135.75 127.693 135.453 127.922C135.156 128.151 135.008 128.451 135.008 128.82C135.008 129.169 135.146 129.432 135.422 129.609C135.698 129.786 136.195 129.956 136.914 130.117C137.638 130.279 138.224 130.471 138.672 130.695C139.12 130.919 139.451 131.19 139.664 131.508C139.883 131.82 139.992 132.203 139.992 132.656C139.992 133.411 139.69 134.018 139.086 134.477C138.482 134.93 137.698 135.156 136.734 135.156C136.057 135.156 135.458 135.036 134.938 134.797C134.417 134.557 134.008 134.224 133.711 133.797C133.419 133.365 133.273 132.898 133.273 132.398H134.719C134.745 132.883 134.938 133.268 135.297 133.555C135.661 133.836 136.141 133.977 136.734 133.977C137.281 133.977 137.719 133.867 138.047 133.648C138.38 133.424 138.547 133.128 138.547 132.758Z" fill="#322153"/>
<g clip-path="url(#clip0)">
<path d="M80.6415 66.5375V69.1286C80.6415 70.1193 81.452 70.93 82.4428 70.93H86.8459C87.8366 70.93 88.6473 70.1194 88.6473 69.1286V66.5375H80.6415Z" fill="#F4DD45"/>
<path d="M122.174 29.3748H118.016C117.17 29.3748 116.478 30.0619 116.478 30.902V37.9799C116.478 38.8198 117.17 39.5071 118.016 39.5071H122.174C123.02 39.5071 123.712 38.8198 123.712 37.9799V30.902C123.712 30.0621 123.02 29.3748 122.174 29.3748Z" fill="#F87C68"/>
<path d="M120.095 37.9799V30.902C120.095 30.0621 120.787 29.3748 121.633 29.3748H118.016C117.17 29.3748 116.478 30.0619 116.478 30.902V37.98C116.478 38.82 117.17 39.5073 118.016 39.5073H121.633C120.787 39.5071 120.095 38.8198 120.095 37.9799Z" fill="#EC625E"/>
<path d="M121.634 39.5071H85.8622C80.1212 39.5071 75.4672 44.1612 75.4672 49.9022V63.7895C75.4672 65.5499 76.8942 66.977 78.6547 66.977H90.634C92.3945 66.977 93.8216 65.5499 93.8216 63.7895V60.635C93.8216 59.1033 95.0632 57.8617 96.5949 57.8617H110.901C112.432 57.8617 113.674 59.1033 113.674 60.635V79.4252H132.029V49.9022C132.029 44.1612 127.375 39.5071 121.634 39.5071Z" fill="#7FB3FA"/>
<path d="M80.6415 63.7895V49.9022C80.6415 44.1612 85.2956 39.5071 91.0366 39.5071H85.8622C80.1212 39.5071 75.4672 44.1612 75.4672 49.9022V63.7895C75.4672 65.5499 76.8942 66.977 78.6547 66.977H83.8291C82.0688 66.977 80.6415 65.5499 80.6415 63.7895Z" fill="#64A6F4"/>
<path d="M116.075 57.8617H110.901C112.433 57.8617 113.674 59.1033 113.674 60.635V79.4252H118.849V60.6348C118.849 59.1033 117.607 57.8617 116.075 57.8617Z" fill="#64A6F4"/>
<path d="M82.8557 61.4731C83.8436 61.4731 84.6444 60.6722 84.6444 59.6843V48.126C84.6444 47.1381 83.8436 46.3373 82.8557 46.3373H76.0949C75.6889 47.4493 75.4672 48.6499 75.4672 49.9023V61.4732H82.8557V61.4731Z" fill="#64A6F4"/>
<path d="M80.6415 49.9022C80.6415 48.6497 80.8633 47.4491 81.2692 46.3371H76.0949C75.6679 47.5241 75.4675 48.7338 75.4672 49.8994V49.9022V61.473H80.6415V49.9022Z" fill="#3D8BD8"/>
<path d="M126.296 65.9586C130.798 65.9586 134.448 62.3088 134.448 57.8065C134.448 53.3041 130.798 49.6543 126.296 49.6543C121.794 49.6543 118.144 53.3041 118.144 57.8065C118.144 62.3088 121.794 65.9586 126.296 65.9586Z" fill="#477B9E"/>
<path d="M122.929 57.8065C122.929 54.1368 125.354 51.0342 128.688 50.0119C127.932 49.7798 127.128 49.6543 126.296 49.6543C121.794 49.6543 118.144 53.3042 118.144 57.8065C118.144 62.3087 121.794 65.9586 126.296 65.9586C127.128 65.9586 127.932 65.8331 128.688 65.601C125.354 64.5787 122.929 61.4761 122.929 57.8065Z" fill="#3F6D8E"/>
<path d="M126.296 61.661C128.425 61.661 130.15 59.9353 130.15 57.8065C130.15 55.6777 128.425 53.952 126.296 53.952C124.167 53.952 122.441 55.6777 122.441 57.8065C122.441 59.9353 124.167 61.661 126.296 61.661Z" fill="#3F6D8E"/>
<path d="M126.296 57.8065C126.296 56.38 127.071 55.1354 128.223 54.4689C127.656 54.1408 126.998 53.952 126.296 53.952C124.167 53.952 122.441 55.6777 122.441 57.8065C122.441 59.9352 124.167 61.661 126.296 61.661C126.998 61.661 127.656 61.4722 128.223 61.1441C127.071 60.4775 126.296 59.233 126.296 57.8065Z" fill="#365E7D"/>
<path d="M91.0708 78.9858H132.029V93.8699H91.0708V78.9858Z" fill="#B5DCFF"/>
<path d="M72.0745 78.9858H69.4459C68.1678 78.9858 67.1317 80.034 67.1317 81.3272V93.8699H72.0745V78.9858Z" fill="#8BCAFF"/>
<path d="M72.0745 98.3622V93.6963H66.1486C65.2404 93.6963 64.4974 94.4393 64.4974 95.3475V98.1996C64.4974 99.1078 65.2404 99.8508 66.1486 99.8508H73.5631C72.741 99.8508 72.0745 99.1843 72.0745 98.3622Z" fill="#DBEDFF"/>
<path d="M132.797 93.6963H91.0708V98.3622C91.0708 99.1843 90.4042 99.8508 89.5822 99.8508H132.797C133.705 99.8508 134.448 99.1078 134.448 98.1996V95.3475C134.448 94.4393 133.705 93.6963 132.797 93.6963Z" fill="#DBEDFF"/>
<path d="M72.0745 98.3621V96.7735H66.1486C65.2785 96.7735 64.5617 96.0909 64.5033 95.2349C64.5007 95.2723 64.4974 95.3095 64.4974 95.3476V98.1997C64.4974 99.1079 65.2406 99.8509 66.1486 99.8509H73.5631C72.741 99.8507 72.0745 99.1842 72.0745 98.3621Z" fill="#B5DCFF"/>
<path d="M132.797 96.7735H91.0708V98.3622C91.0708 99.1842 90.4042 99.8508 89.5822 99.8508H132.797C133.705 99.8508 134.448 99.1078 134.448 98.1996V95.3475C134.448 95.3095 134.445 95.2723 134.442 95.2348C134.384 96.0909 133.667 96.7735 132.797 96.7735Z" fill="#B5DCFF"/>
<path d="M90.4611 77.4346H73.1236C72.3015 77.4346 71.635 78.101 71.635 78.9232V98.3622C71.635 99.1843 72.3015 99.8508 73.1236 99.8508H90.4611C91.2832 99.8508 91.9497 99.1843 91.9497 98.3622V78.9231C91.9497 78.101 91.2832 77.4346 90.4611 77.4346Z" fill="#F87C68"/>
<path d="M77.2869 98.3622V78.9231C77.2869 78.101 77.9534 77.4344 78.7755 77.4344H73.1236C72.3015 77.4344 71.635 78.1008 71.635 78.9231V98.362C71.635 99.1841 72.3015 99.8507 73.1236 99.8507H78.7755C77.9534 99.8508 77.2869 99.1843 77.2869 98.3622Z" fill="#EC625E"/>
<path d="M84.6718 83.0053C85.2786 83.0053 85.7704 82.5135 85.7704 81.9066V80.9199C85.7704 80.313 85.2786 79.8213 84.6718 79.8213C84.0649 79.8213 83.5731 80.313 83.5731 80.9199V81.9066C83.5731 82.5135 84.0649 83.0053 84.6718 83.0053Z" fill="black"/>
<path d="M84.6718 87.7051C85.2786 87.7051 85.7704 87.2134 85.7704 86.6065V85.6198C85.7704 85.0129 85.2786 84.5211 84.6718 84.5211C84.0649 84.5211 83.5731 85.0129 83.5731 85.6198V86.6065C83.5731 87.2134 84.0649 87.7051 84.6718 87.7051Z" fill="black"/>
<path d="M84.6718 92.4048C85.2786 92.4048 85.7704 91.9131 85.7704 91.3062V90.3195C85.7704 89.7126 85.2786 89.2208 84.6718 89.2208C84.0649 89.2208 83.5731 89.7126 83.5731 90.3195V91.3062C83.5731 91.9131 84.0649 92.4048 84.6718 92.4048Z" fill="black"/>
<path d="M84.6718 97.1045C85.2786 97.1045 85.7704 96.6127 85.7704 96.0058V95.0191C85.7704 94.4122 85.2786 93.9205 84.6718 93.9205C84.0649 93.9205 83.5731 94.4122 83.5731 95.0191V96.0058C83.5731 96.6127 84.0649 97.1045 84.6718 97.1045Z" fill="black"/>
<path d="M90.1007 45.289C89.4938 45.289 89.0021 45.7807 89.0021 46.3876V48.7144C89.0021 49.3213 89.4938 49.813 90.1007 49.813C90.7076 49.813 91.1993 49.3213 91.1993 48.7144V46.3876C91.1993 45.7807 90.7076 45.289 90.1007 45.289Z" fill="black"/>
<path d="M93.7594 45.289C93.1525 45.289 92.6608 45.7807 92.6608 46.3876V48.7144C92.6608 49.3213 93.1525 49.813 93.7594 49.813C94.3663 49.813 94.858 49.3213 94.858 48.7144V46.3876C94.858 45.7807 94.3661 45.289 93.7594 45.289Z" fill="black"/>
<path d="M97.418 45.289C96.8111 45.289 96.3193 45.7807 96.3193 46.3876V48.7144C96.3193 49.3213 96.8111 49.813 97.418 49.813C98.0249 49.813 98.5166 49.3213 98.5166 48.7144V46.3876C98.5166 45.7807 98.0249 45.289 97.418 45.289Z" fill="black"/>
<path d="M101.077 45.289C100.47 45.289 99.9783 45.7807 99.9783 46.3876V48.7144C99.9783 49.3213 100.47 49.813 101.077 49.813C101.684 49.813 102.176 49.3213 102.176 48.7144V46.3876C102.176 45.7807 101.684 45.289 101.077 45.289Z" fill="black"/>
<path d="M126.323 52.9039C123.592 52.9039 121.37 55.1259 121.37 57.857C121.37 60.5881 123.592 62.8102 126.323 62.8102C129.054 62.8102 131.276 60.5881 131.276 57.857C131.276 55.1259 129.054 52.9039 126.323 52.9039ZM126.323 60.613C124.804 60.613 123.567 59.3768 123.567 57.8572C123.567 56.3375 124.804 55.1013 126.323 55.1013C127.843 55.1013 129.079 56.3375 129.079 57.8572C129.079 59.3768 127.843 60.613 126.323 60.613Z" fill="black"/>
<path d="M132.056 85.1416C132.663 85.1416 133.155 84.6498 133.155 84.0429C133.155 83.1072 133.155 65.0958 133.155 64.0877C134.656 62.4425 135.574 60.255 135.574 57.857C135.574 55.459 134.656 53.2717 133.155 51.6263V49.9526C133.155 44.6663 129.566 40.2049 124.698 38.8692C124.788 38.6054 124.838 38.324 124.838 38.0304V30.9527C124.838 29.5047 123.656 28.3268 122.202 28.3268H121.221V27.0987C121.221 26.4918 120.729 26 120.122 26C119.515 26 119.024 26.4918 119.024 27.0987V28.3268H118.043C116.589 28.3268 115.406 29.5047 115.406 30.9527V34.4563H85.7704V33.9661C85.7704 33.3592 85.2787 32.8675 84.6718 32.8675C84.0649 32.8675 83.5731 33.3592 83.5731 33.9661V34.4563H83.5334C82.9265 34.4563 82.4348 34.948 82.4348 35.5549C82.4348 36.1618 82.9265 36.6536 83.5334 36.6536H83.5731V38.6937C78.3352 39.7698 74.3958 44.4171 74.3958 49.9527V63.84C74.3958 66.2036 76.3186 68.1264 78.6822 68.1264H79.5702V69.1793C79.5702 70.7784 80.8712 72.0793 82.4702 72.0793H83.5731V73.1343H82.9705C82.3636 73.1343 81.8718 73.6261 81.8718 74.233C81.8718 74.8399 82.3636 75.3316 82.9705 75.3316H83.5731V76.3866H73.1509C72.0926 76.3866 71.1821 77.0258 70.7817 77.9378H69.4733C67.5914 77.9378 66.0604 79.4687 66.0604 81.3506V92.6543C64.5979 92.7156 63.4261 93.921 63.4261 95.3983V98.2504C63.4261 99.7669 64.6597 101 66.1759 101H132.824C134.34 101 135.574 99.7667 135.574 98.2504V95.3983C135.574 93.9941 134.515 92.8344 133.155 92.6704V89.1704C133.155 88.5635 132.663 88.0718 132.056 88.0718C131.449 88.0718 130.957 88.5635 130.957 89.1704V92.6486H93.0756V80.1352H130.957V84.0434C130.957 84.6498 131.449 85.1416 132.056 85.1416ZM126.323 64.9105C122.434 64.9105 119.27 61.7463 119.27 57.8572C119.27 53.9678 122.434 50.8037 126.323 50.8037C130.218 50.8037 133.377 53.9741 133.377 57.8572C133.377 61.7606 130.197 64.9105 126.323 64.9105ZM117.604 30.9527C117.604 30.7204 117.805 30.5241 118.043 30.5241H122.202C122.44 30.5241 122.641 30.7204 122.641 30.9527V38.0306C122.641 38.2627 122.44 38.459 122.202 38.459C119.827 38.459 120.418 38.459 118.043 38.459C117.805 38.459 117.604 38.2627 117.604 38.0306V30.9527ZM85.7704 36.6536H115.406V38.0306C115.406 38.1768 115.421 38.3193 115.445 38.459H85.8894C85.8495 38.459 85.8101 38.4617 85.7704 38.4621V36.6536ZM76.9277 47.4863H82.8829C83.2636 47.4863 83.5731 47.7958 83.5731 48.1766V59.7348C83.5731 60.1154 83.2636 60.4249 82.8829 60.4249H76.593V49.9527C76.593 49.1569 76.6931 48.3387 76.9277 47.4863ZM81.7674 69.1792V68.1262H87.5757V69.1792C87.5757 69.5602 87.2541 69.8819 86.8732 69.8819H82.4701C82.0892 69.8819 81.7674 69.56 81.7674 69.1792ZM68.2577 81.3505C68.2577 80.6803 68.8031 80.1349 69.4733 80.1349H70.5636V92.6483H68.2577V81.3505ZM66.1759 98.8027C65.8764 98.8027 65.6235 98.5496 65.6235 98.2501V95.398C65.6235 95.0986 65.8766 94.8456 66.1759 94.8456H67.1591H70.5636V98.4129C70.5636 98.4932 70.5684 98.5721 70.5756 98.6506C70.5777 98.6736 70.5806 98.6964 70.5834 98.7192C70.5867 98.747 70.5886 98.7753 70.5929 98.8028H66.1759V98.8027ZM72.7609 98.4128C72.7609 97.9283 72.7609 79.1236 72.7609 79.0363V78.9737C72.7609 78.7587 72.9358 78.5838 73.1509 78.5838H90.4883C90.7034 78.5838 90.8782 78.7587 90.8782 78.9737V79.0363V98.4128C90.8782 98.6278 90.7034 98.8027 90.4883 98.8027H73.1509C72.9358 98.8027 72.7609 98.6278 72.7609 98.4128ZM132.824 94.8456C133.123 94.8456 133.376 95.0988 133.376 95.398V98.2501C133.376 98.5497 133.123 98.8027 132.824 98.8027H93.0462C93.0504 98.7752 93.0523 98.7469 93.0557 98.7191C93.0585 98.6962 93.0614 98.6735 93.0634 98.6505C93.0706 98.5721 93.0755 98.493 93.0755 98.4128V94.8455C95.263 94.8456 130.589 94.8456 132.824 94.8456ZM114.8 77.9376V60.6854C114.8 58.5505 113.063 56.8134 110.928 56.8134H106.339C105.732 56.8134 105.24 57.3052 105.24 57.9121C105.24 58.519 105.732 59.0108 106.339 59.0108H110.928C111.851 59.0108 112.603 59.7619 112.603 60.6854V77.9375H92.8575C92.457 77.0255 91.5466 76.3863 90.4885 76.3863H85.7704V75.3313H86.3729C86.9798 75.3313 87.4716 74.8396 87.4716 74.2327C87.4716 73.6258 86.9798 73.134 86.3729 73.134H85.7704V72.079H86.8733C88.4722 72.079 89.7732 70.7781 89.7732 69.179V68.1261H90.6612C93.0248 68.1261 94.9476 66.2033 94.9476 63.8397V60.6852C94.9476 59.7618 95.6988 59.0106 96.6222 59.0106H101.212C101.819 59.0106 102.31 58.5189 102.31 57.912C102.31 57.3051 101.819 56.8133 101.212 56.8133H96.6222C94.4873 56.8133 92.7503 58.5502 92.7503 60.6852V63.8397C92.7503 64.9915 91.8132 65.9288 90.6612 65.9288H88.6745H80.6689H78.6822C77.5304 65.9288 76.5932 64.9917 76.5932 63.8397V62.6221H82.883C84.4752 62.6221 85.7706 61.3267 85.7706 59.7347V48.1764C85.7706 46.5842 84.4752 45.2889 82.883 45.2889H77.8528C79.4649 42.5216 82.4626 40.6562 85.8895 40.6562H121.661C126.752 40.6562 130.9 44.7694 130.957 49.8468C129.506 49.0045 127.898 48.6061 126.323 48.6061C121.222 48.6061 117.072 52.756 117.072 57.8569C117.072 62.9577 121.222 67.1075 126.323 67.1075C127.942 67.1075 129.544 66.6874 130.957 65.8664V77.9372H114.8V77.9376Z" fill="black"/>
</g>
</g>
<defs>
<filter id="filter0_d" x="0" y="0" width="200" height="192" filterUnits="userSpaceOnUse" color-interpolation-filters="sRGB">
<feFlood flood-opacity="0" result="BackgroundImageFix"/>
<feColorMatrix in="SourceAlpha" type="matrix" values="0 0 0 0 0 0 0 0 0 0 0 0 0 0 0 0 0 0 127 0"/>
<feOffset dy="4"/>
<feGaussianBlur stdDeviation="2"/>
<feColorMatrix type="matrix" values="0 0 0 0 0 0 0 0 0 0 0 0 0 0 0 0 0 0 0.25 0"/>
<feBlend mode="normal" in2="BackgroundImageFix" result="effect1_dropShadow"/>
<feBlend mode="normal" in="SourceGraphic" in2="effect1_dropShadow" result="shape"/>
</filter>
<clipPath id="clip0">
<rect width="75" height="75" fill="white" transform="translate(62 26)"/>
</clipPath>
</defs>
</svg>
