<svg width="200" height="192" viewBox="0 0 200 192" fill="none" xmlns="http://www.w3.org/2000/svg">
<g filter="url(#filter0_d)">
<rect x="4" width="192" height="184" rx="8" fill="#F0F0F0"/>
<path d="M48.375 135V123.625H51.5859C52.5755 123.625 53.4505 123.844 54.2109 124.281C54.9714 124.719 55.5573 125.341 55.9688 126.148C56.3854 126.956 56.5964 127.883 56.6016 128.93V129.656C56.6016 130.729 56.3932 131.669 55.9766 132.477C55.5651 133.284 54.974 133.904 54.2031 134.336C53.4375 134.768 52.5443 134.99 51.5234 135H48.375ZM49.875 124.859V133.773H51.4531C52.6094 133.773 53.5078 133.414 54.1484 132.695C54.7943 131.977 55.1172 130.953 55.1172 129.625V128.961C55.1172 127.669 54.8125 126.667 54.2031 125.953C53.599 125.234 52.7396 124.87 51.625 124.859H49.875ZM62.1562 135.156C61.0104 135.156 60.0781 134.781 59.3594 134.031C58.6406 133.276 58.2812 132.268 58.2812 131.008V130.742C58.2812 129.904 58.4401 129.156 58.7578 128.5C59.0807 127.839 59.5286 127.323 60.1016 126.953C60.6797 126.578 61.3047 126.391 61.9766 126.391C63.0755 126.391 63.9297 126.753 64.5391 127.477C65.1484 128.201 65.4531 129.237 65.4531 130.586V131.188H59.7266C59.7474 132.021 59.9896 132.695 60.4531 133.211C60.9219 133.721 61.5156 133.977 62.2344 133.977C62.7448 133.977 63.1771 133.872 63.5312 133.664C63.8854 133.456 64.1953 133.18 64.4609 132.836L65.3438 133.523C64.6354 134.612 63.5729 135.156 62.1562 135.156ZM61.9766 127.578C61.3932 127.578 60.9036 127.792 60.5078 128.219C60.112 128.641 59.8672 129.234 59.7734 130H64.0078V129.891C63.9661 129.156 63.7682 128.589 63.4141 128.188C63.0599 127.781 62.5807 127.578 61.9766 127.578ZM72.0547 132.758C72.0547 132.367 71.9062 132.065 71.6094 131.852C71.3177 131.633 70.8047 131.445 70.0703 131.289C69.3411 131.133 68.7604 130.945 68.3281 130.727C67.901 130.508 67.5833 130.247 67.375 129.945C67.1719 129.643 67.0703 129.284 67.0703 128.867C67.0703 128.174 67.362 127.589 67.9453 127.109C68.5339 126.63 69.2839 126.391 70.1953 126.391C71.1536 126.391 71.9297 126.638 72.5234 127.133C73.1224 127.628 73.4219 128.26 73.4219 129.031H71.9688C71.9688 128.635 71.7995 128.294 71.4609 128.008C71.1276 127.721 70.7057 127.578 70.1953 127.578C69.6693 127.578 69.2578 127.693 68.9609 127.922C68.6641 128.151 68.5156 128.451 68.5156 128.82C68.5156 129.169 68.6536 129.432 68.9297 129.609C69.2057 129.786 69.7031 129.956 70.4219 130.117C71.1458 130.279 71.7318 130.471 72.1797 130.695C72.6276 130.919 72.9583 131.19 73.1719 131.508C73.3906 131.82 73.5 132.203 73.5 132.656C73.5 133.411 73.1979 134.018 72.5938 134.477C71.9896 134.93 71.2057 135.156 70.2422 135.156C69.5651 135.156 68.9661 135.036 68.4453 134.797C67.9245 134.557 67.5156 134.224 67.2188 133.797C66.9271 133.365 66.7812 132.898 66.7812 132.398H68.2266C68.2526 132.883 68.4453 133.268 68.8047 133.555C69.1693 133.836 69.6484 133.977 70.2422 133.977C70.7891 133.977 71.2266 133.867 71.5547 133.648C71.888 133.424 72.0547 133.128 72.0547 132.758ZM78.8906 135.156C77.7448 135.156 76.8125 134.781 76.0938 134.031C75.375 133.276 75.0156 132.268 75.0156 131.008V130.742C75.0156 129.904 75.1745 129.156 75.4922 128.5C75.8151 127.839 76.263 127.323 76.8359 126.953C77.4141 126.578 78.0391 126.391 78.7109 126.391C79.8099 126.391 80.6641 126.753 81.2734 127.477C81.8828 128.201 82.1875 129.237 82.1875 130.586V131.188H76.4609C76.4818 132.021 76.724 132.695 77.1875 133.211C77.6562 133.721 78.25 133.977 78.9688 133.977C79.4792 133.977 79.9115 133.872 80.2656 133.664C80.6198 133.456 80.9297 133.18 81.1953 132.836L82.0781 133.523C81.3698 134.612 80.3073 135.156 78.8906 135.156ZM78.7109 127.578C78.1276 127.578 77.638 127.792 77.2422 128.219C76.8464 128.641 76.6016 129.234 76.5078 130H80.7422V129.891C80.7005 129.156 80.5026 128.589 80.1484 128.188C79.7943 127.781 79.3151 127.578 78.7109 127.578ZM85.2344 126.547L85.2812 127.609C85.9271 126.797 86.7708 126.391 87.8125 126.391C89.599 126.391 90.5 127.398 90.5156 129.414V135H89.0703V129.406C89.0651 128.797 88.9245 128.346 88.6484 128.055C88.3776 127.763 87.9531 127.617 87.375 127.617C86.9062 127.617 86.4948 127.742 86.1406 127.992C85.7865 128.242 85.5104 128.57 85.3125 128.977V135H83.8672V126.547H85.2344ZM95.4844 133.039L97.5781 126.547H99.0547L96.0234 135H94.9219L91.8594 126.547H93.3359L95.4844 133.039ZM99.9375 130.695C99.9375 129.867 100.099 129.122 100.422 128.461C100.75 127.799 101.203 127.289 101.781 126.93C102.365 126.57 103.029 126.391 103.773 126.391C104.924 126.391 105.854 126.789 106.562 127.586C107.276 128.383 107.633 129.443 107.633 130.766V130.867C107.633 131.69 107.474 132.43 107.156 133.086C106.844 133.737 106.393 134.245 105.805 134.609C105.221 134.974 104.549 135.156 103.789 135.156C102.643 135.156 101.714 134.758 101 133.961C100.292 133.164 99.9375 132.109 99.9375 130.797V130.695ZM101.391 130.867C101.391 131.805 101.607 132.557 102.039 133.125C102.477 133.693 103.06 133.977 103.789 133.977C104.523 133.977 105.107 133.69 105.539 133.117C105.971 132.539 106.188 131.732 106.188 130.695C106.188 129.768 105.966 129.018 105.523 128.445C105.086 127.867 104.503 127.578 103.773 127.578C103.06 127.578 102.484 127.862 102.047 128.43C101.609 128.997 101.391 129.81 101.391 130.867ZM111.016 135H109.57V123H111.016V135ZM116.125 133.039L118.219 126.547H119.695L116.664 135H115.562L112.5 126.547H113.977L116.125 133.039ZM124.484 135.156C123.339 135.156 122.406 134.781 121.688 134.031C120.969 133.276 120.609 132.268 120.609 131.008V130.742C120.609 129.904 120.768 129.156 121.086 128.5C121.409 127.839 121.857 127.323 122.43 126.953C123.008 126.578 123.633 126.391 124.305 126.391C125.404 126.391 126.258 126.753 126.867 127.477C127.477 128.201 127.781 129.237 127.781 130.586V131.188H122.055C122.076 132.021 122.318 132.695 122.781 133.211C123.25 133.721 123.844 133.977 124.562 133.977C125.073 133.977 125.505 133.872 125.859 133.664C126.214 133.456 126.523 133.18 126.789 132.836L127.672 133.523C126.964 134.612 125.901 135.156 124.484 135.156ZM124.305 127.578C123.721 127.578 123.232 127.792 122.836 128.219C122.44 128.641 122.195 129.234 122.102 130H126.336V129.891C126.294 129.156 126.096 128.589 125.742 128.188C125.388 127.781 124.909 127.578 124.305 127.578ZM129.109 130.703C129.109 129.406 129.417 128.365 130.031 127.578C130.646 126.786 131.451 126.391 132.445 126.391C133.435 126.391 134.219 126.729 134.797 127.406V123H136.242V135H134.914L134.844 134.094C134.266 134.802 133.461 135.156 132.43 135.156C131.451 135.156 130.651 134.755 130.031 133.953C129.417 133.151 129.109 132.104 129.109 130.812V130.703ZM130.555 130.867C130.555 131.826 130.753 132.576 131.148 133.117C131.544 133.659 132.091 133.93 132.789 133.93C133.706 133.93 134.375 133.518 134.797 132.695V128.812C134.365 128.016 133.701 127.617 132.805 127.617C132.096 127.617 131.544 127.891 131.148 128.438C130.753 128.984 130.555 129.794 130.555 130.867ZM138.109 130.695C138.109 129.867 138.271 129.122 138.594 128.461C138.922 127.799 139.375 127.289 139.953 126.93C140.536 126.57 141.201 126.391 141.945 126.391C143.096 126.391 144.026 126.789 144.734 127.586C145.448 128.383 145.805 129.443 145.805 130.766V130.867C145.805 131.69 145.646 132.43 145.328 133.086C145.016 133.737 144.565 134.245 143.977 134.609C143.393 134.974 142.721 135.156 141.961 135.156C140.815 135.156 139.885 134.758 139.172 133.961C138.464 133.164 138.109 132.109 138.109 130.797V130.695ZM139.562 130.867C139.562 131.805 139.779 132.557 140.211 133.125C140.648 133.693 141.232 133.977 141.961 133.977C142.695 133.977 143.279 133.69 143.711 133.117C144.143 132.539 144.359 131.732 144.359 130.695C144.359 129.768 144.138 129.018 143.695 128.445C143.258 127.867 142.674 127.578 141.945 127.578C141.232 127.578 140.656 127.862 140.219 128.43C139.781 128.997 139.562 129.81 139.562 130.867ZM151.703 127.844C151.484 127.807 151.247 127.789 150.992 127.789C150.044 127.789 149.401 128.193 149.062 129V135H147.617V126.547H149.023L149.047 127.523C149.521 126.768 150.193 126.391 151.062 126.391C151.344 126.391 151.557 126.427 151.703 126.5V127.844Z" fill="#322153"/>
<path d="M132.901 47.1191H60.0986V40.9668C60.0986 38.5397 62.0661 36.5723 64.4932 36.5723H128.507C130.934 36.5723 132.901 38.5397 132.901 40.9668V47.1191Z" fill="#43809F"/>
<path d="M128.507 36.5723V47.1191H132.901V40.9668C132.901 38.5397 130.934 36.5723 128.507 36.5723Z" fill="#3A7190"/>
<path d="M128.507 88.4277H64.4932C62.0661 88.4277 60.0986 86.4603 60.0986 84.0332V47.1191H132.901V84.0332C132.901 86.4603 130.934 88.4277 128.507 88.4277Z" fill="#A9DBF5"/>
<path d="M128.507 47.1191V88.4277C130.934 88.4277 132.901 86.4603 132.901 84.0332V47.1191H128.507Z" fill="#88C3E0"/>
<path d="M67.131 44.0973C68.3445 44.0973 69.3283 43.1135 69.3283 41.9C69.3283 40.6865 68.3445 39.7028 67.131 39.7028C65.9175 39.7028 64.9337 40.6865 64.9337 41.9C64.9337 43.1135 65.9175 44.0973 67.131 44.0973Z" fill="#29CEF6"/>
<path d="M75.6503 44.0973C76.8638 44.0973 77.8475 43.1135 77.8475 41.9C77.8475 40.6865 76.8638 39.7028 75.6503 39.7028C74.4368 39.7028 73.453 40.6865 73.453 41.9C73.453 43.1135 74.4368 44.0973 75.6503 44.0973Z" fill="#F3F3F3"/>
<path d="M84.1697 44.0973C85.3832 44.0973 86.3669 43.1135 86.3669 41.9C86.3669 40.6865 85.3832 39.7028 84.1697 39.7028C82.9562 39.7028 81.9724 40.6865 81.9724 41.9C81.9724 43.1135 82.9562 44.0973 84.1697 44.0973Z" fill="#F78E36"/>
<path d="M115.03 59.4044H108.146C106.932 59.4044 105.948 58.4206 105.948 57.2072C105.948 55.9937 106.932 55.0099 108.146 55.0099H115.03C116.244 55.0099 117.228 55.9937 117.228 57.2072C117.228 58.4206 116.244 59.4044 115.03 59.4044Z" fill="#29CEF6"/>
<path d="M126.31 68.1935H108.146C106.932 68.1935 105.948 67.2097 105.948 65.9962C105.948 64.7827 106.932 63.799 108.146 63.799H126.31C127.523 63.799 128.507 64.7827 128.507 65.9962C128.507 67.2097 127.523 68.1935 126.31 68.1935Z" fill="#FFC328"/>
<path d="M120.914 76.9825H108.146C106.932 76.9825 105.948 75.9988 105.948 74.7853C105.948 73.5718 106.932 72.588 108.146 72.588H120.914C122.127 72.588 123.111 73.5718 123.111 74.7853C123.111 75.9988 122.127 76.9825 120.914 76.9825Z" fill="#F78E36"/>
<path d="M128.507 35.4736H124.66C124.053 35.4736 123.561 35.9654 123.561 36.5723C123.561 37.1792 124.053 37.6709 124.66 37.6709H128.507C130.324 37.6709 131.803 39.1495 131.803 40.9668V46.0205H61.1973V40.9668C61.1973 39.1495 62.6757 37.6709 64.4932 37.6709H119.836C120.443 37.6709 120.935 37.1792 120.935 36.5723C120.935 35.9654 120.443 35.4736 119.836 35.4736H64.4932C61.4642 35.4736 59 37.9378 59 40.9668V53.0783C59 53.6852 59.4919 54.1769 60.0986 54.1769C60.7054 54.1769 61.1973 53.6852 61.1973 53.0783V48.2178H131.803V76.5429C131.803 77.1498 132.294 77.6415 132.901 77.6415C133.508 77.6415 134 77.1498 134 76.5429V40.9668C134 37.9378 131.536 35.4736 128.507 35.4736Z" fill="black"/>
<path d="M132.901 80.0773C132.294 80.0773 131.803 80.5691 131.803 81.176V84.0333C131.803 85.8506 130.324 87.3292 128.507 87.3292H64.4932C62.6757 87.3292 61.1973 85.8506 61.1973 84.0333V57.7931C61.1973 57.1862 60.7054 56.6945 60.0986 56.6945C59.4919 56.6945 59 57.1862 59 57.7931V84.0333C59 87.0623 61.4642 89.5264 64.4932 89.5264H128.507C131.536 89.5264 134 87.0623 134 84.0333V81.176C134 80.5692 133.508 80.0773 132.901 80.0773Z" fill="black"/>
<path d="M74.8909 59.3443C74.4619 58.9154 73.7662 58.9154 73.3373 59.3443L66.7353 65.9463C66.5292 66.1524 66.4135 66.4318 66.4135 66.7233C66.4135 67.0148 66.5292 67.294 66.7353 67.5002L73.25 74.015C73.4645 74.2294 73.7457 74.3366 74.0268 74.3366C74.3079 74.3366 74.5892 74.2294 74.8036 74.015C75.2327 73.5858 75.2327 72.8902 74.8036 72.4612L69.0657 66.7234L74.8909 60.8982C75.3201 60.469 75.3201 59.7735 74.8909 59.3443Z" fill="black"/>
<path d="M89.6656 74.0148C89.88 74.2293 90.1613 74.3365 90.4424 74.3365C90.7235 74.3365 91.0047 74.2293 91.2192 74.0148L97.7341 67.5001C97.94 67.294 98.0557 67.0146 98.0557 66.7231C98.0557 66.4316 97.94 66.1524 97.7341 65.9462L91.1319 59.3441C90.7028 58.9152 90.0072 58.9152 89.5783 59.3441C89.1492 59.7733 89.1492 60.4688 89.5783 60.8979L95.4036 66.7231L89.6657 72.4609C89.2365 72.8903 89.2365 73.5858 89.6656 74.0148Z" fill="black"/>
<path d="M78.3345 78.0616C78.7776 78.0616 79.1952 77.7914 79.3618 77.3524L87.1685 56.7863C87.3839 56.219 87.0985 55.5846 86.5313 55.3692C85.9641 55.1537 85.3296 55.4392 85.1144 56.0064L77.3076 76.5728C77.0923 77.14 77.3777 77.7744 77.9448 77.9898C78.0732 78.0386 78.2049 78.0616 78.3345 78.0616Z" fill="black"/>
<path d="M63.8348 41.9C63.8348 43.7173 65.3133 45.1959 67.1307 45.1959C68.9482 45.1959 70.4266 43.7173 70.4266 41.9C70.4266 40.0827 68.9482 38.6041 67.1307 38.6041C65.3133 38.6041 63.8348 40.0827 63.8348 41.9ZM68.2294 41.9C68.2294 42.5059 67.7366 42.9987 67.1307 42.9987C66.5249 42.9987 66.0321 42.5059 66.0321 41.9C66.0321 41.2942 66.5249 40.8014 67.1307 40.8014C67.7366 40.8014 68.2294 41.2942 68.2294 41.9Z" fill="black"/>
<path d="M72.3544 41.9C72.3544 43.7173 73.8328 45.1959 75.6503 45.1959C77.4677 45.1959 78.9462 43.7173 78.9462 41.9C78.9462 40.0827 77.4677 38.6041 75.6503 38.6041C73.8328 38.6041 72.3544 40.0827 72.3544 41.9ZM76.7489 41.9C76.7489 42.5059 76.2561 42.9987 75.6503 42.9987C75.0444 42.9987 74.5516 42.5059 74.5516 41.9C74.5516 41.2942 75.0444 40.8014 75.6503 40.8014C76.2561 40.8014 76.7489 41.2942 76.7489 41.9Z" fill="black"/>
<path d="M80.8738 41.9C80.8738 43.7173 82.3522 45.1959 84.1697 45.1959C85.9871 45.1959 87.4656 43.7173 87.4656 41.9C87.4656 40.0827 85.9871 38.6041 84.1697 38.6041C82.3522 38.6041 80.8738 40.0827 80.8738 41.9ZM85.2683 41.9C85.2683 42.5059 84.7755 42.9987 84.1697 42.9987C83.5638 42.9987 83.071 42.5059 83.071 41.9C83.071 41.2942 83.5638 40.8014 84.1697 40.8014C84.7755 40.8014 85.2683 41.2942 85.2683 41.9Z" fill="black"/>
<path d="M108.146 60.5031H115.03C116.848 60.5031 118.326 59.0244 118.326 57.2072C118.326 55.3899 116.848 53.9113 115.03 53.9113H108.146C106.328 53.9113 104.85 55.3899 104.85 57.2072C104.85 59.0244 106.328 60.5031 108.146 60.5031ZM108.146 56.1085H115.03C115.636 56.1085 116.129 56.6013 116.129 57.2072C116.129 57.813 115.636 58.3058 115.03 58.3058H108.146C107.54 58.3058 107.047 57.813 107.047 57.2072C107.047 56.6013 107.54 56.1085 108.146 56.1085Z" fill="black"/>
<path d="M108.146 69.2921H126.31C128.127 69.2921 129.605 67.8135 129.605 65.9962C129.605 64.1789 128.127 62.7003 126.31 62.7003H108.146C106.328 62.7003 104.85 64.1789 104.85 65.9962C104.85 67.8135 106.328 69.2921 108.146 69.2921ZM108.146 64.8976H126.31C126.915 64.8976 127.408 65.3904 127.408 65.9962C127.408 66.6021 126.915 67.0948 126.31 67.0948H108.146C107.54 67.0948 107.047 66.6021 107.047 65.9962C107.047 65.3904 107.54 64.8976 108.146 64.8976Z" fill="black"/>
<path d="M108.146 78.0812H120.914C122.731 78.0812 124.21 76.6026 124.21 74.7853C124.21 72.968 122.731 71.4894 120.914 71.4894H108.146C106.328 71.4894 104.85 72.968 104.85 74.7853C104.85 76.6026 106.328 78.0812 108.146 78.0812ZM108.146 73.6866H120.914C121.52 73.6866 122.012 74.1794 122.012 74.7853C122.012 75.3911 121.52 75.8839 120.914 75.8839H108.146C107.54 75.8839 107.047 75.3911 107.047 74.7853C107.047 74.1794 107.54 73.6866 108.146 73.6866Z" fill="black"/>
</g>
<defs>
<filter id="filter0_d" x="0" y="0" width="200" height="192" filterUnits="userSpaceOnUse" color-interpolation-filters="sRGB">
<feFlood flood-opacity="0" result="BackgroundImageFix"/>
<feColorMatrix in="SourceAlpha" type="matrix" values="0 0 0 0 0 0 0 0 0 0 0 0 0 0 0 0 0 0 127 0"/>
<feOffset dy="4"/>
<feGaussianBlur stdDeviation="2"/>
<feColorMatrix type="matrix" values="0 0 0 0 0 0 0 0 0 0 0 0 0 0 0 0 0 0 0.25 0"/>
<feBlend mode="normal" in2="BackgroundImageFix" result="effect1_dropShadow"/>
<feBlend mode="normal" in="SourceGraphic" in2="effect1_dropShadow" result="shape"/>
</filter>
</defs>
</svg>
