<svg width="200" height="192" viewBox="0 0 200 192" fill="none" xmlns="http://www.w3.org/2000/svg">
<g filter="url(#filter0_d)">
<rect x="4" width="192" height="184" rx="8" fill="#F0F0F0"/>
<path d="M49.3281 135V123.625H52.5391C53.5286 123.625 54.4036 123.844 55.1641 124.281C55.9245 124.719 56.5104 125.341 56.9219 126.148C57.3385 126.956 57.5495 127.883 57.5547 128.93V129.656C57.5547 130.729 57.3464 131.669 56.9297 132.477C56.5182 133.284 55.9271 133.904 55.1562 134.336C54.3906 134.768 53.4974 134.99 52.4766 135H49.3281ZM50.8281 124.859V133.773H52.4062C53.5625 133.773 54.4609 133.414 55.1016 132.695C55.7474 131.977 56.0703 130.953 56.0703 129.625V128.961C56.0703 127.669 55.7656 126.667 55.1562 125.953C54.5521 125.234 53.6927 124.87 52.5781 124.859H50.8281ZM63.1094 135.156C61.9635 135.156 61.0312 134.781 60.3125 134.031C59.5938 133.276 59.2344 132.268 59.2344 131.008V130.742C59.2344 129.904 59.3932 129.156 59.7109 128.5C60.0339 127.839 60.4818 127.323 61.0547 126.953C61.6328 126.578 62.2578 126.391 62.9297 126.391C64.0286 126.391 64.8828 126.753 65.4922 127.477C66.1016 128.201 66.4062 129.237 66.4062 130.586V131.188H60.6797C60.7005 132.021 60.9427 132.695 61.4062 133.211C61.875 133.721 62.4688 133.977 63.1875 133.977C63.6979 133.977 64.1302 133.872 64.4844 133.664C64.8385 133.456 65.1484 133.18 65.4141 132.836L66.2969 133.523C65.5885 134.612 64.526 135.156 63.1094 135.156ZM62.9297 127.578C62.3464 127.578 61.8568 127.792 61.4609 128.219C61.0651 128.641 60.8203 129.234 60.7266 130H64.9609V129.891C64.9193 129.156 64.7214 128.589 64.3672 128.188C64.013 127.781 63.5339 127.578 62.9297 127.578ZM73.0078 132.758C73.0078 132.367 72.8594 132.065 72.5625 131.852C72.2708 131.633 71.7578 131.445 71.0234 131.289C70.2943 131.133 69.7135 130.945 69.2812 130.727C68.8542 130.508 68.5365 130.247 68.3281 129.945C68.125 129.643 68.0234 129.284 68.0234 128.867C68.0234 128.174 68.3151 127.589 68.8984 127.109C69.487 126.63 70.237 126.391 71.1484 126.391C72.1068 126.391 72.8828 126.638 73.4766 127.133C74.0755 127.628 74.375 128.26 74.375 129.031H72.9219C72.9219 128.635 72.7526 128.294 72.4141 128.008C72.0807 127.721 71.6589 127.578 71.1484 127.578C70.6224 127.578 70.2109 127.693 69.9141 127.922C69.6172 128.151 69.4688 128.451 69.4688 128.82C69.4688 129.169 69.6068 129.432 69.8828 129.609C70.1589 129.786 70.6562 129.956 71.375 130.117C72.099 130.279 72.6849 130.471 73.1328 130.695C73.5807 130.919 73.9115 131.19 74.125 131.508C74.3438 131.82 74.4531 132.203 74.4531 132.656C74.4531 133.411 74.151 134.018 73.5469 134.477C72.9427 134.93 72.1589 135.156 71.1953 135.156C70.5182 135.156 69.9193 135.036 69.3984 134.797C68.8776 134.557 68.4688 134.224 68.1719 133.797C67.8802 133.365 67.7344 132.898 67.7344 132.398H69.1797C69.2057 132.883 69.3984 133.268 69.7578 133.555C70.1224 133.836 70.6016 133.977 71.1953 133.977C71.7422 133.977 72.1797 133.867 72.5078 133.648C72.8411 133.424 73.0078 133.128 73.0078 132.758ZM77.9062 135H76.4609V126.547H77.9062V135ZM76.3438 124.305C76.3438 124.07 76.4141 123.872 76.5547 123.711C76.7005 123.549 76.9141 123.469 77.1953 123.469C77.4766 123.469 77.6901 123.549 77.8359 123.711C77.9818 123.872 78.0547 124.07 78.0547 124.305C78.0547 124.539 77.9818 124.734 77.8359 124.891C77.6901 125.047 77.4766 125.125 77.1953 125.125C76.9141 125.125 76.7005 125.047 76.5547 124.891C76.4141 124.734 76.3438 124.539 76.3438 124.305ZM79.8828 130.703C79.8828 129.385 80.1875 128.339 80.7969 127.562C81.4062 126.781 82.2135 126.391 83.2188 126.391C84.25 126.391 85.0547 126.755 85.6328 127.484L85.7031 126.547H87.0234V134.797C87.0234 135.891 86.6979 136.753 86.0469 137.383C85.401 138.013 84.5312 138.328 83.4375 138.328C82.8281 138.328 82.2318 138.198 81.6484 137.938C81.0651 137.677 80.6198 137.32 80.3125 136.867L81.0625 136C81.6823 136.766 82.4401 137.148 83.3359 137.148C84.0391 137.148 84.5859 136.951 84.9766 136.555C85.3724 136.159 85.5703 135.602 85.5703 134.883V134.156C84.9922 134.823 84.2031 135.156 83.2031 135.156C82.2135 135.156 81.4115 134.758 80.7969 133.961C80.1875 133.164 79.8828 132.078 79.8828 130.703ZM81.3359 130.867C81.3359 131.82 81.5312 132.57 81.9219 133.117C82.3125 133.659 82.8594 133.93 83.5625 133.93C84.474 133.93 85.1432 133.516 85.5703 132.688V128.828C85.1276 128.021 84.4635 127.617 83.5781 127.617C82.875 127.617 82.3255 127.891 81.9297 128.438C81.5339 128.984 81.3359 129.794 81.3359 130.867ZM90.5781 126.547L90.625 127.609C91.2708 126.797 92.1146 126.391 93.1562 126.391C94.9427 126.391 95.8438 127.398 95.8594 129.414V135H94.4141V129.406C94.4089 128.797 94.2682 128.346 93.9922 128.055C93.7214 127.763 93.2969 127.617 92.7188 127.617C92.25 127.617 91.8385 127.742 91.4844 127.992C91.1302 128.242 90.8542 128.57 90.6562 128.977V135H89.2109V126.547H90.5781ZM110.633 133.508C110.247 134.06 109.708 134.474 109.016 134.75C108.328 135.021 107.526 135.156 106.609 135.156C105.682 135.156 104.859 134.94 104.141 134.508C103.422 134.07 102.865 133.451 102.469 132.648C102.078 131.846 101.878 130.917 101.867 129.859V128.867C101.867 127.154 102.266 125.826 103.062 124.883C103.865 123.94 104.99 123.469 106.438 123.469C107.625 123.469 108.581 123.773 109.305 124.383C110.029 124.987 110.471 125.846 110.633 126.961H109.133C108.852 125.456 107.956 124.703 106.445 124.703C105.44 124.703 104.677 125.057 104.156 125.766C103.641 126.469 103.38 127.49 103.375 128.828V129.758C103.375 131.034 103.667 132.049 104.25 132.805C104.833 133.555 105.622 133.93 106.617 133.93C107.18 133.93 107.672 133.867 108.094 133.742C108.516 133.617 108.865 133.406 109.141 133.109V130.555H106.508V129.336H110.633V133.508ZM117 127.844C116.781 127.807 116.544 127.789 116.289 127.789C115.341 127.789 114.698 128.193 114.359 129V135H112.914V126.547H114.32L114.344 127.523C114.818 126.768 115.49 126.391 116.359 126.391C116.641 126.391 116.854 126.427 117 126.5V127.844ZM123.242 135C123.159 134.833 123.091 134.536 123.039 134.109C122.367 134.807 121.565 135.156 120.633 135.156C119.799 135.156 119.115 134.922 118.578 134.453C118.047 133.979 117.781 133.38 117.781 132.656C117.781 131.776 118.115 131.094 118.781 130.609C119.453 130.12 120.396 129.875 121.609 129.875H123.016V129.211C123.016 128.706 122.865 128.305 122.562 128.008C122.26 127.706 121.815 127.555 121.227 127.555C120.711 127.555 120.279 127.685 119.93 127.945C119.581 128.206 119.406 128.521 119.406 128.891H117.953C117.953 128.469 118.102 128.062 118.398 127.672C118.701 127.276 119.107 126.964 119.617 126.734C120.133 126.505 120.698 126.391 121.312 126.391C122.286 126.391 123.049 126.635 123.602 127.125C124.154 127.609 124.44 128.279 124.461 129.133V133.023C124.461 133.799 124.56 134.417 124.758 134.875V135H123.242ZM120.844 133.898C121.297 133.898 121.727 133.781 122.133 133.547C122.539 133.312 122.833 133.008 123.016 132.633V130.898H121.883C120.112 130.898 119.227 131.417 119.227 132.453C119.227 132.906 119.378 133.26 119.68 133.516C119.982 133.771 120.37 133.898 120.844 133.898ZM122.18 123H123.93L121.836 125.297H120.672L122.18 123ZM127.211 135V127.664H125.875V126.547H127.211V125.828C127.211 124.885 127.479 124.151 128.016 123.625C128.557 123.099 129.32 122.836 130.305 122.836C130.888 122.836 131.625 122.995 132.516 123.312L132.273 124.531C131.622 124.271 131.003 124.141 130.414 124.141C129.794 124.141 129.346 124.281 129.07 124.562C128.799 124.839 128.664 125.255 128.664 125.812V126.547H130.391V127.664H128.664V135H127.211ZM133.234 135H131.781V126.547H133.234V135ZM138.977 133.977C139.492 133.977 139.943 133.82 140.328 133.508C140.714 133.195 140.927 132.805 140.969 132.336H142.336C142.31 132.82 142.143 133.281 141.836 133.719C141.529 134.156 141.117 134.505 140.602 134.766C140.091 135.026 139.549 135.156 138.977 135.156C137.826 135.156 136.909 134.773 136.227 134.008C135.549 133.237 135.211 132.185 135.211 130.852V130.609C135.211 129.786 135.362 129.055 135.664 128.414C135.966 127.773 136.398 127.276 136.961 126.922C137.529 126.568 138.198 126.391 138.969 126.391C139.917 126.391 140.703 126.674 141.328 127.242C141.958 127.81 142.294 128.547 142.336 129.453H140.969C140.927 128.906 140.719 128.458 140.344 128.109C139.974 127.755 139.516 127.578 138.969 127.578C138.234 127.578 137.664 127.844 137.258 128.375C136.857 128.901 136.656 129.664 136.656 130.664V130.938C136.656 131.911 136.857 132.661 137.258 133.188C137.659 133.714 138.232 133.977 138.977 133.977ZM143.578 130.695C143.578 129.867 143.74 129.122 144.062 128.461C144.391 127.799 144.844 127.289 145.422 126.93C146.005 126.57 146.669 126.391 147.414 126.391C148.565 126.391 149.495 126.789 150.203 127.586C150.917 128.383 151.273 129.443 151.273 130.766V130.867C151.273 131.69 151.115 132.43 150.797 133.086C150.484 133.737 150.034 134.245 149.445 134.609C148.862 134.974 148.19 135.156 147.43 135.156C146.284 135.156 145.354 134.758 144.641 133.961C143.932 133.164 143.578 132.109 143.578 130.797V130.695ZM145.031 130.867C145.031 131.805 145.247 132.557 145.68 133.125C146.117 133.693 146.701 133.977 147.43 133.977C148.164 133.977 148.747 133.69 149.18 133.117C149.612 132.539 149.828 131.732 149.828 130.695C149.828 129.768 149.607 129.018 149.164 128.445C148.727 127.867 148.143 127.578 147.414 127.578C146.701 127.578 146.125 127.862 145.688 128.43C145.25 128.997 145.031 129.81 145.031 130.867Z" fill="#322153"/>
<path d="M109.875 100.484H91.125L93.4688 86.4219V81.7344H107.531V86.4219L109.875 100.484Z" fill="#757C80"/>
<path d="M132.141 32.5156H68.8594C67.565 32.5156 66.5156 33.565 66.5156 34.8594V84.0781C66.5156 85.3725 67.565 86.4219 68.8594 86.4219H132.141C133.435 86.4219 134.484 85.3725 134.484 84.0781V34.8594C134.484 33.565 133.435 32.5156 132.141 32.5156Z" fill="#B5B8B9"/>
<path d="M68.8594 32.5156H132.141C132.762 32.5156 133.358 32.7626 133.798 33.2021C134.237 33.6416 134.484 34.2378 134.484 34.8594V41.8906H66.5156V34.8594C66.5156 34.2378 66.7626 33.6416 67.2021 33.2021C67.6416 32.7626 68.2378 32.5156 68.8594 32.5156Z" fill="#2B70A8"/>
<path d="M66.5156 41.8906H134.484V74.7031H66.5156V41.8906Z" fill="#FAE8D8"/>
<path d="M75.8906 51.2656H89.9531V65.3281H75.8906V51.2656Z" fill="#FCB442"/>
<path d="M110.551 77.5339L113.865 74.2199L133.288 93.6433C133.727 94.0828 133.974 94.6788 133.974 95.3003C133.974 95.9218 133.727 96.5179 133.288 96.9574C132.849 97.3968 132.252 97.6437 131.631 97.6437C131.009 97.6437 130.413 97.3968 129.974 96.9574L110.551 77.5339Z" fill="#2B70A8"/>
<path d="M105.279 72.2596L108.593 68.9456L118.376 78.7284L115.062 82.0424L105.279 72.2596Z" fill="#FCB442"/>
<path d="M99.3281 46.5781H129.797V53.6094H99.3281V46.5781Z" fill="#FCB442"/>
<path d="M99.3281 62.9844L101.169 70.9594C101.363 71.8013 101.786 72.5732 102.391 73.1897C102.997 73.8062 103.761 74.2434 104.599 74.4529L108.443 75.414L111.758 72.0994L110.797 68.2553C110.587 67.4171 110.15 66.6531 109.533 66.0477C108.917 65.4423 108.145 65.0191 107.303 64.8248L99.3281 62.9844Z" fill="#976048"/>
<path d="M135.656 84.0781V34.8594C135.655 33.9273 135.284 33.0337 134.625 32.3747C133.966 31.7156 133.073 31.3448 132.141 31.3438H68.8594C67.9273 31.3448 67.0337 31.7156 66.3747 32.3747C65.7156 33.0337 65.3448 33.9273 65.3438 34.8594V84.0781C65.3448 85.0102 65.7156 85.9038 66.3747 86.5628C67.0337 87.2219 67.9273 87.5927 68.8594 87.5938H92.0854L90.1323 99.3125H85.2656C84.9548 99.3125 84.6568 99.436 84.437 99.6557C84.2172 99.8755 84.0938 100.174 84.0938 100.484C84.0938 100.795 84.2172 101.093 84.437 101.313C84.6568 101.533 84.9548 101.656 85.2656 101.656H115.734C116.045 101.656 116.343 101.533 116.563 101.313C116.783 101.093 116.906 100.795 116.906 100.484C116.906 100.174 116.783 99.8755 116.563 99.6557C116.343 99.436 116.045 99.3125 115.734 99.3125H110.868L108.915 87.5938H118.965L129.159 97.7875C129.818 98.4468 130.713 98.8171 131.645 98.8171C132.577 98.8171 133.472 98.4468 134.131 97.7875C134.789 97.1276 135.159 96.2336 135.159 95.3015C135.159 94.3695 134.789 93.4755 134.131 92.8156L128.909 87.5938H132.141C133.073 87.5927 133.966 87.2219 134.625 86.5628C135.284 85.9038 135.655 85.0102 135.656 84.0781ZM110.101 75.4145L111.758 73.7571L116.73 78.7288L115.072 80.3867L110.101 75.4145ZM108.084 74.1163L104.883 73.3161C104.254 73.1605 103.68 72.8332 103.226 72.3706C102.771 71.908 102.454 71.3282 102.31 70.696L100.892 64.5478L107.04 65.9666C107.672 66.1107 108.252 66.4276 108.714 66.8819C109.177 67.3363 109.504 67.9102 109.66 68.5396L110.46 71.7406L108.084 74.1163ZM112.816 71.5008L111.933 67.9706C111.674 66.9214 111.128 65.965 110.357 65.2078C109.586 64.4506 108.62 63.9225 107.566 63.6824L99.5918 61.8425C99.3981 61.7978 99.1963 61.8031 99.0052 61.8579C98.8142 61.9127 98.6402 62.0152 98.4997 62.1558C98.3591 62.2963 98.2566 62.4703 98.2018 62.6613C98.147 62.8524 98.1417 63.0542 98.1864 63.2479L100.027 71.2229C100.221 72.0644 100.598 72.8527 101.132 73.5312H67.6875V43.0625H133.312V73.5312H114.847L112.816 71.5008ZM68.8594 33.6875H132.141C132.451 33.6878 132.749 33.8114 132.969 34.0311C133.189 34.2508 133.312 34.5487 133.312 34.8594V40.7188H67.6875V34.8594C67.6878 34.5487 67.8114 34.2508 68.0311 34.0311C68.2508 33.8114 68.5487 33.6878 68.8594 33.6875ZM108.492 99.3125H92.5084L94.4615 87.5938H106.539L108.492 99.3125ZM68.8594 85.25C68.5487 85.2497 68.2508 85.1261 68.0311 84.9064C67.8114 84.6867 67.6878 84.3888 67.6875 84.0781V75.875H105.455L107.844 76.4721L116.622 85.25H68.8594ZM132.474 96.1301C132.365 96.239 132.236 96.3253 132.093 96.3842C131.951 96.4431 131.799 96.4734 131.645 96.4734C131.491 96.4734 131.339 96.4431 131.196 96.3842C131.054 96.3253 130.925 96.239 130.816 96.1301L116.73 82.0435L118.387 80.3867L132.474 94.4734C132.693 94.6933 132.816 94.9912 132.816 95.3018C132.816 95.6123 132.693 95.9102 132.474 96.1301ZM117.19 75.875H133.312V84.0781C133.312 84.3888 133.189 84.6867 132.969 84.9064C132.749 85.1261 132.451 85.2497 132.141 85.25H126.565L117.19 75.875Z" fill="black"/>
<path d="M102.844 78.2188H98.1562C97.8454 78.2188 97.5474 78.3422 97.3276 78.562C97.1078 78.7818 96.9844 79.0798 96.9844 79.3906C96.9844 79.7014 97.1078 79.9995 97.3276 80.2193C97.5474 80.439 97.8454 80.5625 98.1562 80.5625H102.844C103.155 80.5625 103.453 80.439 103.672 80.2193C103.892 79.9995 104.016 79.7014 104.016 79.3906C104.016 79.0798 103.892 78.7818 103.672 78.562C103.453 78.3422 103.155 78.2188 102.844 78.2188Z" fill="black"/>
<path d="M71.2031 38.375C71.8503 38.375 72.375 37.8503 72.375 37.2031C72.375 36.5559 71.8503 36.0312 71.2031 36.0312C70.5559 36.0312 70.0312 36.5559 70.0312 37.2031C70.0312 37.8503 70.5559 38.375 71.2031 38.375Z" fill="black"/>
<path d="M75.8906 38.375C76.5378 38.375 77.0625 37.8503 77.0625 37.2031C77.0625 36.5559 76.5378 36.0312 75.8906 36.0312C75.2434 36.0312 74.7188 36.5559 74.7188 37.2031C74.7188 37.8503 75.2434 38.375 75.8906 38.375Z" fill="black"/>
<path d="M80.5781 38.375C81.2253 38.375 81.75 37.8503 81.75 37.2031C81.75 36.5559 81.2253 36.0312 80.5781 36.0312C79.9309 36.0312 79.4062 36.5559 79.4062 37.2031C79.4062 37.8503 79.9309 38.375 80.5781 38.375Z" fill="black"/>
<path d="M78.2344 47.75H80.5781C80.8889 47.75 81.187 47.6265 81.4068 47.4068C81.6265 47.187 81.75 46.8889 81.75 46.5781C81.75 46.2673 81.6265 45.9693 81.4068 45.7495C81.187 45.5297 80.8889 45.4062 80.5781 45.4062H78.2344C77.9236 45.4062 77.6255 45.5297 77.4057 45.7495C77.186 45.9693 77.0625 46.2673 77.0625 46.5781C77.0625 46.8889 77.186 47.187 77.4057 47.4068C77.6255 47.6265 77.9236 47.75 78.2344 47.75Z" fill="black"/>
<path d="M85.2656 47.75H87.6094C87.9202 47.75 88.2182 47.6265 88.438 47.4068C88.6578 47.187 88.7812 46.8889 88.7812 46.5781C88.7812 46.2673 88.6578 45.9693 88.438 45.7495C88.2182 45.5297 87.9202 45.4062 87.6094 45.4062H85.2656C84.9548 45.4062 84.6568 45.5297 84.437 45.7495C84.2172 45.9693 84.0938 46.2673 84.0938 46.5781C84.0938 46.8889 84.2172 47.187 84.437 47.4068C84.6568 47.6265 84.9548 47.75 85.2656 47.75Z" fill="black"/>
<path d="M73.5469 68.8438H72.375V67.6719C72.375 67.3611 72.2515 67.063 72.0318 66.8432C71.812 66.6235 71.5139 66.5 71.2031 66.5C70.8923 66.5 70.5943 66.6235 70.3745 66.8432C70.1547 67.063 70.0312 67.3611 70.0312 67.6719V70.0156C70.0312 70.3264 70.1547 70.6245 70.3745 70.8443C70.5943 71.064 70.8923 71.1875 71.2031 71.1875H73.5469C73.8577 71.1875 74.1557 71.064 74.3755 70.8443C74.5953 70.6245 74.7188 70.3264 74.7188 70.0156C74.7188 69.7048 74.5953 69.4068 74.3755 69.187C74.1557 68.9672 73.8577 68.8438 73.5469 68.8438Z" fill="black"/>
<path d="M80.5781 68.8438H78.2344C77.9236 68.8438 77.6255 68.9672 77.4057 69.187C77.186 69.4068 77.0625 69.7048 77.0625 70.0156C77.0625 70.3264 77.186 70.6245 77.4057 70.8443C77.6255 71.064 77.9236 71.1875 78.2344 71.1875H80.5781C80.8889 71.1875 81.187 71.064 81.4068 70.8443C81.6265 70.6245 81.75 70.3264 81.75 70.0156C81.75 69.7048 81.6265 69.4068 81.4068 69.187C81.187 68.9672 80.8889 68.8438 80.5781 68.8438Z" fill="black"/>
<path d="M87.6094 68.8438H85.2656C84.9548 68.8438 84.6568 68.9672 84.437 69.187C84.2172 69.4068 84.0938 69.7048 84.0938 70.0156C84.0938 70.3264 84.2172 70.6245 84.437 70.8443C84.6568 71.064 84.9548 71.1875 85.2656 71.1875H87.6094C87.9202 71.1875 88.2182 71.064 88.438 70.8443C88.6578 70.6245 88.7812 70.3264 88.7812 70.0156C88.7812 69.7048 88.6578 69.4068 88.438 69.187C88.2182 68.9672 87.9202 68.8438 87.6094 68.8438Z" fill="black"/>
<path d="M94.6406 45.4062H92.2969C91.9861 45.4062 91.688 45.5297 91.4682 45.7495C91.2485 45.9693 91.125 46.2673 91.125 46.5781C91.125 46.8889 91.2485 47.187 91.4682 47.4068C91.688 47.6265 91.9861 47.75 92.2969 47.75H93.4688V48.9219C93.4688 49.2327 93.5922 49.5307 93.812 49.7505C94.0318 49.9703 94.3298 50.0938 94.6406 50.0938C94.9514 50.0938 95.2495 49.9703 95.4693 49.7505C95.689 49.5307 95.8125 49.2327 95.8125 48.9219V46.5781C95.8125 46.2673 95.689 45.9693 95.4693 45.7495C95.2495 45.5297 94.9514 45.4062 94.6406 45.4062Z" fill="black"/>
<path d="M94.6406 52.4375C94.3298 52.4375 94.0318 52.561 93.812 52.7807C93.5922 53.0005 93.4688 53.2986 93.4688 53.6094V55.9531C93.4688 56.2639 93.5922 56.562 93.812 56.7818C94.0318 57.0015 94.3298 57.125 94.6406 57.125C94.9514 57.125 95.2495 57.0015 95.4693 56.7818C95.689 56.562 95.8125 56.2639 95.8125 55.9531V53.6094C95.8125 53.2986 95.689 53.0005 95.4693 52.7807C95.2495 52.561 94.9514 52.4375 94.6406 52.4375Z" fill="black"/>
<path d="M94.6406 59.4688C94.3298 59.4688 94.0318 59.5922 93.812 59.812C93.5922 60.0318 93.4688 60.3298 93.4688 60.6406V62.9844C93.4688 63.2952 93.5922 63.5932 93.812 63.813C94.0318 64.0328 94.3298 64.1562 94.6406 64.1562C94.9514 64.1562 95.2495 64.0328 95.4693 63.813C95.689 63.5932 95.8125 63.2952 95.8125 62.9844V60.6406C95.8125 60.3298 95.689 60.0318 95.4693 59.812C95.2495 59.5922 94.9514 59.4688 94.6406 59.4688Z" fill="black"/>
<path d="M94.6406 66.5C94.3298 66.5 94.0318 66.6235 93.812 66.8432C93.5922 67.063 93.4688 67.3611 93.4688 67.6719V68.8438H92.2969C91.9861 68.8438 91.688 68.9672 91.4682 69.187C91.2485 69.4068 91.125 69.7048 91.125 70.0156C91.125 70.3264 91.2485 70.6245 91.4682 70.8443C91.688 71.064 91.9861 71.1875 92.2969 71.1875H94.6406C94.9514 71.1875 95.2495 71.064 95.4693 70.8443C95.689 70.6245 95.8125 70.3264 95.8125 70.0156V67.6719C95.8125 67.3611 95.689 67.063 95.4693 66.8432C95.2495 66.6235 94.9514 66.5 94.6406 66.5Z" fill="black"/>
<path d="M71.2031 50.0938C71.5139 50.0938 71.812 49.9703 72.0318 49.7505C72.2515 49.5307 72.375 49.2327 72.375 48.9219V47.75H73.5469C73.8577 47.75 74.1557 47.6265 74.3755 47.4068C74.5953 47.187 74.7188 46.8889 74.7188 46.5781C74.7188 46.2673 74.5953 45.9693 74.3755 45.7495C74.1557 45.5297 73.8577 45.4062 73.5469 45.4062H71.2031C70.8923 45.4062 70.5943 45.5297 70.3745 45.7495C70.1547 45.9693 70.0312 46.2673 70.0312 46.5781V48.9219C70.0312 49.2327 70.1547 49.5307 70.3745 49.7505C70.5943 49.9703 70.8923 50.0938 71.2031 50.0938Z" fill="black"/>
<path d="M71.2031 57.125C71.5139 57.125 71.812 57.0015 72.0318 56.7818C72.2515 56.562 72.375 56.2639 72.375 55.9531V53.6094C72.375 53.2986 72.2515 53.0005 72.0318 52.7807C71.812 52.561 71.5139 52.4375 71.2031 52.4375C70.8923 52.4375 70.5943 52.561 70.3745 52.7807C70.1547 53.0005 70.0312 53.2986 70.0312 53.6094V55.9531C70.0312 56.2639 70.1547 56.562 70.3745 56.7818C70.5943 57.0015 70.8923 57.125 71.2031 57.125Z" fill="black"/>
<path d="M71.2031 64.1562C71.5139 64.1562 71.812 64.0328 72.0318 63.813C72.2515 63.5932 72.375 63.2952 72.375 62.9844V60.6406C72.375 60.3298 72.2515 60.0318 72.0318 59.812C71.812 59.5922 71.5139 59.4688 71.2031 59.4688C70.8923 59.4688 70.5943 59.5922 70.3745 59.812C70.1547 60.0318 70.0312 60.3298 70.0312 60.6406V62.9844C70.0312 63.2952 70.1547 63.5932 70.3745 63.813C70.5943 64.0328 70.8923 64.1562 71.2031 64.1562Z" fill="black"/>
<path d="M106.359 57.125H99.3281C99.0173 57.125 98.7193 57.2485 98.4995 57.4682C98.2797 57.688 98.1562 57.9861 98.1562 58.2969C98.1562 58.6077 98.2797 58.9057 98.4995 59.1255C98.7193 59.3453 99.0173 59.4688 99.3281 59.4688H106.359C106.67 59.4688 106.968 59.3453 107.188 59.1255C107.408 58.9057 107.531 58.6077 107.531 58.2969C107.531 57.9861 107.408 57.688 107.188 57.4682C106.968 57.2485 106.67 57.125 106.359 57.125Z" fill="black"/>
<path d="M129.797 57.125H111.047C110.736 57.125 110.438 57.2485 110.218 57.4682C109.998 57.688 109.875 57.9861 109.875 58.2969C109.875 58.6077 109.998 58.9057 110.218 59.1255C110.438 59.3453 110.736 59.4688 111.047 59.4688H129.797C130.108 59.4688 130.406 59.3453 130.626 59.1255C130.845 58.9057 130.969 58.6077 130.969 58.2969C130.969 57.9861 130.845 57.688 130.626 57.4682C130.406 57.2485 130.108 57.125 129.797 57.125Z" fill="black"/>
<path d="M129.797 61.8125H113.391C113.08 61.8125 112.782 61.936 112.562 62.1557C112.342 62.3755 112.219 62.6736 112.219 62.9844C112.219 63.2952 112.342 63.5932 112.562 63.813C112.782 64.0328 113.08 64.1562 113.391 64.1562H129.797C130.108 64.1562 130.406 64.0328 130.626 63.813C130.845 63.5932 130.969 63.2952 130.969 62.9844C130.969 62.6736 130.845 62.3755 130.626 62.1557C130.406 61.936 130.108 61.8125 129.797 61.8125Z" fill="black"/>
<path d="M129.797 45.4062H99.3281C99.0173 45.4062 98.7193 45.5297 98.4995 45.7495C98.2797 45.9693 98.1562 46.2673 98.1562 46.5781V53.6094C98.1562 53.9202 98.2797 54.2182 98.4995 54.438C98.7193 54.6578 99.0173 54.7812 99.3281 54.7812H129.797C130.108 54.7812 130.406 54.6578 130.626 54.438C130.845 54.2182 130.969 53.9202 130.969 53.6094V46.5781C130.969 46.2673 130.845 45.9693 130.626 45.7495C130.406 45.5297 130.108 45.4062 129.797 45.4062ZM128.625 52.4375H100.5V47.75H128.625V52.4375Z" fill="black"/>
<path d="M91.125 51.2656C91.125 50.9548 91.0015 50.6568 90.7818 50.437C90.562 50.2172 90.2639 50.0938 89.9531 50.0938H75.8906C75.5798 50.0938 75.2818 50.2172 75.062 50.437C74.8422 50.6568 74.7188 50.9548 74.7188 51.2656V65.3281C74.7188 65.6389 74.8422 65.937 75.062 66.1568C75.2818 66.3765 75.5798 66.5 75.8906 66.5H89.9531C90.2639 66.5 90.562 66.3765 90.7818 66.1568C91.0015 65.937 91.125 65.6389 91.125 65.3281V51.2656ZM88.7812 64.1562H77.0625V52.4375H88.7812V64.1562Z" fill="black"/>
</g>
<defs>
<filter id="filter0_d" x="0" y="0" width="200" height="192" filterUnits="userSpaceOnUse" color-interpolation-filters="sRGB">
<feFlood flood-opacity="0" result="BackgroundImageFix"/>
<feColorMatrix in="SourceAlpha" type="matrix" values="0 0 0 0 0 0 0 0 0 0 0 0 0 0 0 0 0 0 127 0"/>
<feOffset dy="4"/>
<feGaussianBlur stdDeviation="2"/>
<feColorMatrix type="matrix" values="0 0 0 0 0 0 0 0 0 0 0 0 0 0 0 0 0 0 0.25 0"/>
<feBlend mode="normal" in2="BackgroundImageFix" result="effect1_dropShadow"/>
<feBlend mode="normal" in="SourceGraphic" in2="effect1_dropShadow" result="shape"/>
</filter>
</defs>
</svg>
