<svg width="200" height="192" viewBox="0 0 200 192" fill="none" xmlns="http://www.w3.org/2000/svg">
<g filter="url(#filter0_d)">
<rect x="4" width="192" height="184" rx="8" fill="#F0F0F0"/>
<path d="M70.3984 145V133.625H73.6094C74.599 133.625 75.474 133.844 76.2344 134.281C76.9948 134.719 77.5807 135.341 77.9922 136.148C78.4089 136.956 78.6198 137.883 78.625 138.93V139.656C78.625 140.729 78.4167 141.669 78 142.477C77.5885 143.284 76.9974 143.904 76.2266 144.336C75.4609 144.768 74.5677 144.99 73.5469 145H70.3984ZM71.8984 134.859V143.773H73.4766C74.6328 143.773 75.5312 143.414 76.1719 142.695C76.8177 141.977 77.1406 140.953 77.1406 139.625V138.961C77.1406 137.669 76.8359 136.667 76.2266 135.953C75.6224 135.234 74.763 134.87 73.6484 134.859H71.8984ZM82.2422 145H80.7969V136.547H82.2422V145ZM80.6797 134.305C80.6797 134.07 80.75 133.872 80.8906 133.711C81.0365 133.549 81.25 133.469 81.5312 133.469C81.8125 133.469 82.026 133.549 82.1719 133.711C82.3177 133.872 82.3906 134.07 82.3906 134.305C82.3906 134.539 82.3177 134.734 82.1719 134.891C82.026 135.047 81.8125 135.125 81.5312 135.125C81.25 135.125 81.0365 135.047 80.8906 134.891C80.75 134.734 80.6797 134.539 80.6797 134.305ZM89.7812 145C89.6979 144.833 89.6302 144.536 89.5781 144.109C88.9062 144.807 88.1042 145.156 87.1719 145.156C86.3385 145.156 85.6536 144.922 85.1172 144.453C84.5859 143.979 84.3203 143.38 84.3203 142.656C84.3203 141.776 84.6536 141.094 85.3203 140.609C85.9922 140.12 86.9349 139.875 88.1484 139.875H89.5547V139.211C89.5547 138.706 89.4036 138.305 89.1016 138.008C88.7995 137.706 88.3542 137.555 87.7656 137.555C87.25 137.555 86.8177 137.685 86.4688 137.945C86.1198 138.206 85.9453 138.521 85.9453 138.891H84.4922C84.4922 138.469 84.6406 138.062 84.9375 137.672C85.2396 137.276 85.6458 136.964 86.1562 136.734C86.6719 136.505 87.237 136.391 87.8516 136.391C88.8255 136.391 89.5885 136.635 90.1406 137.125C90.6927 137.609 90.9792 138.279 91 139.133V143.023C91 143.799 91.099 144.417 91.2969 144.875V145H89.7812ZM87.3828 143.898C87.8359 143.898 88.2656 143.781 88.6719 143.547C89.0781 143.312 89.3724 143.008 89.5547 142.633V140.898H88.4219C86.651 140.898 85.7656 141.417 85.7656 142.453C85.7656 142.906 85.9167 143.26 86.2188 143.516C86.5208 143.771 86.9089 143.898 87.3828 143.898ZM97.3516 137.844C97.1328 137.807 96.8958 137.789 96.6406 137.789C95.6927 137.789 95.0495 138.193 94.7109 139V145H93.2656V136.547H94.6719L94.6953 137.523C95.1693 136.768 95.8411 136.391 96.7109 136.391C96.9922 136.391 97.2057 136.427 97.3516 136.5V137.844ZM100.258 145H98.8125V136.547H100.258V145ZM98.6953 134.305C98.6953 134.07 98.7656 133.872 98.9062 133.711C99.0521 133.549 99.2656 133.469 99.5469 133.469C99.8281 133.469 100.042 133.549 100.188 133.711C100.333 133.872 100.406 134.07 100.406 134.305C100.406 134.539 100.333 134.734 100.188 134.891C100.042 135.047 99.8281 135.125 99.5469 135.125C99.2656 135.125 99.0521 135.047 98.9062 134.891C98.7656 134.734 98.6953 134.539 98.6953 134.305ZM107.5 142.758C107.5 142.367 107.352 142.065 107.055 141.852C106.763 141.633 106.25 141.445 105.516 141.289C104.786 141.133 104.206 140.945 103.773 140.727C103.346 140.508 103.029 140.247 102.82 139.945C102.617 139.643 102.516 139.284 102.516 138.867C102.516 138.174 102.807 137.589 103.391 137.109C103.979 136.63 104.729 136.391 105.641 136.391C106.599 136.391 107.375 136.638 107.969 137.133C108.568 137.628 108.867 138.26 108.867 139.031H107.414C107.414 138.635 107.245 138.294 106.906 138.008C106.573 137.721 106.151 137.578 105.641 137.578C105.115 137.578 104.703 137.693 104.406 137.922C104.109 138.151 103.961 138.451 103.961 138.82C103.961 139.169 104.099 139.432 104.375 139.609C104.651 139.786 105.148 139.956 105.867 140.117C106.591 140.279 107.177 140.471 107.625 140.695C108.073 140.919 108.404 141.19 108.617 141.508C108.836 141.82 108.945 142.203 108.945 142.656C108.945 143.411 108.643 144.018 108.039 144.477C107.435 144.93 106.651 145.156 105.688 145.156C105.01 145.156 104.411 145.036 103.891 144.797C103.37 144.557 102.961 144.224 102.664 143.797C102.372 143.365 102.227 142.898 102.227 142.398H103.672C103.698 142.883 103.891 143.268 104.25 143.555C104.615 143.836 105.094 143.977 105.688 143.977C106.234 143.977 106.672 143.867 107 143.648C107.333 143.424 107.5 143.128 107.5 142.758ZM112.789 134.5V136.547H114.367V137.664H112.789V142.906C112.789 143.245 112.859 143.5 113 143.672C113.141 143.839 113.38 143.922 113.719 143.922C113.885 143.922 114.115 143.891 114.406 143.828V145C114.026 145.104 113.656 145.156 113.297 145.156C112.651 145.156 112.164 144.961 111.836 144.57C111.508 144.18 111.344 143.625 111.344 142.906V137.664H109.805V136.547H111.344V134.5H112.789ZM121.281 145C121.198 144.833 121.13 144.536 121.078 144.109C120.406 144.807 119.604 145.156 118.672 145.156C117.839 145.156 117.154 144.922 116.617 144.453C116.086 143.979 115.82 143.38 115.82 142.656C115.82 141.776 116.154 141.094 116.82 140.609C117.492 140.12 118.435 139.875 119.648 139.875H121.055V139.211C121.055 138.706 120.904 138.305 120.602 138.008C120.299 137.706 119.854 137.555 119.266 137.555C118.75 137.555 118.318 137.685 117.969 137.945C117.62 138.206 117.445 138.521 117.445 138.891H115.992C115.992 138.469 116.141 138.062 116.438 137.672C116.74 137.276 117.146 136.964 117.656 136.734C118.172 136.505 118.737 136.391 119.352 136.391C120.326 136.391 121.089 136.635 121.641 137.125C122.193 137.609 122.479 138.279 122.5 139.133V143.023C122.5 143.799 122.599 144.417 122.797 144.875V145H121.281ZM118.883 143.898C119.336 143.898 119.766 143.781 120.172 143.547C120.578 143.312 120.872 143.008 121.055 142.633V140.898H119.922C118.151 140.898 117.266 141.417 117.266 142.453C117.266 142.906 117.417 143.26 117.719 143.516C118.021 143.771 118.409 143.898 118.883 143.898ZM129.688 142.758C129.688 142.367 129.539 142.065 129.242 141.852C128.951 141.633 128.438 141.445 127.703 141.289C126.974 141.133 126.393 140.945 125.961 140.727C125.534 140.508 125.216 140.247 125.008 139.945C124.805 139.643 124.703 139.284 124.703 138.867C124.703 138.174 124.995 137.589 125.578 137.109C126.167 136.63 126.917 136.391 127.828 136.391C128.786 136.391 129.562 136.638 130.156 137.133C130.755 137.628 131.055 138.26 131.055 139.031H129.602C129.602 138.635 129.432 138.294 129.094 138.008C128.76 137.721 128.339 137.578 127.828 137.578C127.302 137.578 126.891 137.693 126.594 137.922C126.297 138.151 126.148 138.451 126.148 138.82C126.148 139.169 126.286 139.432 126.562 139.609C126.839 139.786 127.336 139.956 128.055 140.117C128.779 140.279 129.365 140.471 129.812 140.695C130.26 140.919 130.591 141.19 130.805 141.508C131.023 141.82 131.133 142.203 131.133 142.656C131.133 143.411 130.831 144.018 130.227 144.477C129.622 144.93 128.839 145.156 127.875 145.156C127.198 145.156 126.599 145.036 126.078 144.797C125.557 144.557 125.148 144.224 124.852 143.797C124.56 143.365 124.414 142.898 124.414 142.398H125.859C125.885 142.883 126.078 143.268 126.438 143.555C126.802 143.836 127.281 143.977 127.875 143.977C128.422 143.977 128.859 143.867 129.188 143.648C129.521 143.424 129.688 143.128 129.688 142.758Z" fill="#322153"/>
<g clip-path="url(#clip0)">
<path d="M115.041 82.17C116.034 82.17 116.986 81.7758 117.688 81.0738L120.031 78.7303H124.979C125.634 78.7303 126.166 78.1987 126.166 77.5429V60.6465C126.166 59.9908 125.634 59.4591 124.979 59.4591H88.5723V81.8684L115.041 82.17Z" fill="#FFDFCF"/>
<path d="M84.1028 57.4164H77.6222C76.0825 57.4164 74.8342 58.6646 74.8342 60.2044C74.8342 61.7441 76.0825 62.9924 77.6222 62.9924H86.482H97.7746V57.6501L84.1028 57.4164Z" fill="#FFDFCF"/>
<path d="M92.086 60.4591V57.553L85.9638 57.4482C85.8158 58.1924 85.8333 58.9655 86.0211 59.7113C86.1166 60.0909 85.8319 60.4591 85.4404 60.4591H77.6222C76.539 60.4591 75.6008 59.8375 75.1391 58.9353C74.9445 59.3156 74.8341 59.7478 74.8341 60.2045C74.8341 61.7443 76.0823 62.9925 77.6221 62.9925H86.482H97.7747V60.4591H92.086Z" fill="#FFCEBF"/>
<path d="M86.2228 52.8123C86.2228 54.3432 85.6217 55.8129 84.5488 56.9049L82.2813 59.2132C81.8138 59.6891 81.0172 59.2431 81.1786 58.5958L81.9087 55.6681V40.7855H86.2228V52.8123Z" fill="#F9F3F1"/>
<path d="M77.7952 44.6958H84.994V39.8433H77.7952C76.8247 39.8433 76.038 40.63 76.038 41.6005V42.9384C76.0378 43.9091 76.8247 44.6958 77.7952 44.6958Z" fill="#E1D3CE"/>
<path d="M106.136 72.1168L107.476 73.8934C108.749 75.5822 109.438 77.6397 109.438 79.755V106.726C109.438 109.584 107.121 111.901 104.263 111.901H87.2558C84.3976 111.901 82.0807 109.584 82.0807 106.726V86.3294C82.0807 84.1491 82.9467 82.0583 84.4884 80.5167L86.4821 78.5229L93.5069 64.4313H101.24L106.136 72.1168Z" fill="#C8EFFE"/>
<path d="M88.5938 106.726V86.3294C88.5938 84.1491 89.4598 82.0583 91.0014 80.5167L92.9952 78.5229L100.02 64.4313H93.5069L86.4823 78.5229L84.4884 80.5167C82.9467 82.0583 82.0807 84.1491 82.0807 86.3294V106.726C82.0807 109.584 84.3978 111.901 87.2558 111.901H93.7689C90.9107 111.901 88.5938 109.584 88.5938 106.726Z" fill="#99E6FC"/>
<path d="M90.8115 79.0431H86.1738C84.7443 79.0431 83.5854 77.8843 83.5854 76.4547V76.108C83.5854 74.6784 84.7443 73.5196 86.1738 73.5196H90.8115C92.2411 73.5196 93.3999 74.6784 93.3999 76.108V76.4547C93.4001 77.8843 92.2412 79.0431 90.8115 79.0431Z" fill="#FFDFCF"/>
<path d="M108.426 75.4318C108.192 74.902 107.82 74.3564 107.481 73.9004L106.154 72.1189L101.206 64.4386L97.9062 64.4436C98.0527 67.2664 99.8951 69.9779 103.39 72.5081C105.749 74.2158 108.095 75.2738 108.194 75.3179L108.426 75.4318Z" fill="#99E6FC"/>
<path d="M103.104 51.5964V48.3673C103.104 48.1416 103.25 47.9418 103.465 47.8737L110.615 45.6131C111.297 45.3975 111.534 44.5538 111.065 44.0142L109.286 41.9688C107.701 40.1459 105.404 39.0992 102.988 39.0992H82.2027C81.4784 39.0992 80.8911 39.6864 80.8911 40.4107V44.1086C80.8911 44.833 81.4784 45.4201 82.2027 45.4201H88.239C88.3955 45.4201 88.5388 45.5072 88.6111 45.646L92.441 53.0026L92.1265 66.592L102.118 66.7305L103.104 51.5964Z" fill="#F9F3F1"/>
<path d="M95.9455 48.6652C95.8594 48.6652 95.7733 48.6667 95.6876 48.6695C94.8897 48.6959 94.143 48.2802 93.7744 47.5722L91.8876 43.9481C91.4576 43.1222 90.6039 42.6041 89.6728 42.6041H84.8969C84.1725 42.6041 83.5854 42.0169 83.5854 41.2926V39.0992H82.2017C81.4773 39.0992 80.8901 39.6864 80.8901 40.4107V44.1084C80.8901 44.8329 81.4774 45.42 82.2017 45.42H88.238C88.3944 45.42 88.5379 45.507 88.6101 45.6458L92.44 53.0025L92.1656 64.526C92.9229 64.2645 94.4314 63.3695 95.0354 62.8162L95.4792 62.4095C95.7319 62.1779 96.1018 62.1277 96.4072 62.2835L97.4934 62.8375C97.7683 62.9777 97.9415 63.2603 97.9415 63.5691V64.0656C97.9415 64.9045 98.0887 65.8591 98.3856 66.6771H102.11L103.103 51.5964V48.6652H95.9455Z" fill="#F3EAE6"/>
<path d="M107.965 53.1309L113.729 59.4593L113.64 68.4712C113.628 69.6232 113.153 70.6623 112.394 71.4156C111.635 72.166 110.59 72.6306 109.438 72.6306C109.438 72.6306 100.873 68.7951 100.873 64.0657V62.191C100.873 61.6263 100.556 61.1093 100.053 60.8526L95.4194 58.4891L93.0554 60.6552C92.4794 61.1828 91.7613 61.4379 91.0475 61.4379C90.0949 61.4379 89.154 60.985 88.5721 60.1203C87.7631 58.917 87.9375 57.3078 88.9854 56.3054L92.4398 53.0019C93.3837 52.1006 94.6397 51.5964 95.9455 51.5964H104.491C105.813 51.5964 107.074 52.1534 107.965 53.1309Z" fill="#FFDFCF"/>
<path d="M90.8117 73.5195H86.1739C84.7444 73.5195 83.5856 72.3607 83.5856 70.9312V70.5844C83.5856 69.1549 84.7444 67.996 86.1739 67.996H90.8117C92.2412 67.996 93.4 69.1549 93.4 70.5844V70.9312C93.4002 72.3607 92.2413 73.5195 90.8117 73.5195Z" fill="#FFDFCF"/>
<path d="M90.8911 71.2515H86.2534C85.1261 71.2515 84.1684 70.5271 83.8133 69.5212C83.6675 69.8451 83.5856 70.206 83.5856 70.5844V70.9311C83.5856 72.3607 84.7444 73.5195 86.1739 73.5195H90.8117C92.2412 73.5195 93.4 72.3607 93.4 70.9311V70.5844C93.4 70.2822 93.3481 69.9918 93.2529 69.7222C92.8478 70.6222 91.9424 71.2515 90.8911 71.2515Z" fill="#FFCEBF"/>
<path d="M90.8911 76.7751H86.2534C85.1261 76.7751 84.1696 76.0531 83.8146 75.0473C83.6688 75.3712 83.5856 75.7297 83.5856 76.1079V76.4547C83.5856 77.8842 84.7444 79.0431 86.1739 79.0431H90.8117C92.2412 79.0431 93.4 77.8842 93.4 76.4547V76.1079C93.4 75.8057 93.3479 75.5147 93.2527 75.2452C92.8475 76.1452 91.9424 76.7751 90.8911 76.7751Z" fill="#FFCEBF"/>
<path d="M90.8117 67.9959H86.1739C84.7444 67.9959 83.5856 66.8371 83.5856 65.4075V65.0608C83.5856 63.6313 84.7444 62.4724 86.1739 62.4724H90.8117C92.2412 62.4724 93.4 63.6313 93.4 65.0608V65.4075C93.4002 66.8371 92.2412 67.9959 90.8117 67.9959Z" fill="#FFDFCF"/>
<path d="M90.8911 65.728H86.2534C85.1261 65.728 84.1678 65.0049 83.8127 63.9991C83.6669 64.3231 83.5856 64.6825 83.5856 65.0609V65.4077C83.5856 66.8372 84.7444 67.996 86.1739 67.996H90.8117C92.2412 67.996 93.4 66.8372 93.4 65.4077V65.0609C93.4 64.7587 93.348 64.4678 93.2527 64.1981C92.8475 65.0981 91.9424 65.728 90.8911 65.728Z" fill="#FFCEBF"/>
<path d="M109.438 105.318C108.831 105.318 108.339 105.81 108.339 106.417V106.726C108.339 108.973 106.51 110.802 104.263 110.802H87.2558C85.0083 110.802 83.1797 108.973 83.1797 106.726V89.7949C83.1797 89.1877 82.6877 88.6957 82.0805 88.6957C81.4733 88.6957 80.9813 89.1877 80.9813 89.7949V106.726C80.9813 110.185 83.796 113 87.2558 113H104.263C107.723 113 110.537 110.185 110.537 106.726V106.417C110.537 105.81 110.045 105.318 109.438 105.318Z" fill="black"/>
<path d="M126.166 77.6311H120.031C119.739 77.6311 119.46 77.7469 119.254 77.953L116.91 80.2961C116.411 80.7953 115.747 81.0703 115.041 81.0703H110.537V79.7549C110.537 77.6062 109.881 75.4773 108.683 73.697C108.932 73.7164 109.184 73.7294 109.438 73.7294C110.045 73.7294 110.537 73.2374 110.537 72.6302C110.537 72.023 110.045 71.531 109.438 71.531C105.321 71.531 101.972 68.1817 101.972 64.065V61.2702C101.972 60.857 101.74 60.4788 101.372 60.2909L95.9187 57.5102C95.5098 57.3018 95.015 57.3691 94.6767 57.6789L92.3133 59.8437C91.9093 60.2138 91.3663 60.3892 90.8216 60.3241C90.2776 60.2594 89.7902 59.9613 89.4844 59.5066C88.9727 58.7458 89.0824 57.7334 89.7452 57.0995L93.1999 53.7967C93.9428 53.0863 94.9183 52.6952 95.9461 52.6952H104.491C105.502 52.6952 106.471 53.1237 107.152 53.8707L112.917 60.1988C113.125 60.4275 113.42 60.5577 113.729 60.5577H126.166C126.773 60.5577 127.265 60.0657 127.265 59.4586C127.265 58.8514 126.773 58.3594 126.166 58.3594H114.215L108.777 52.3906C107.681 51.1872 106.119 50.4971 104.491 50.4971H104.202V48.7935L110.945 46.6613C111.62 46.4481 112.137 45.9142 112.329 45.2331C112.521 44.5522 112.358 43.8267 111.893 43.2931L110.115 41.2477C108.32 39.1838 105.722 38 102.987 38H102.717C102.109 38 101.617 38.492 101.617 39.0992C101.617 39.7064 102.109 40.1984 102.717 40.1984H102.987C105.086 40.1984 107.079 41.1066 108.456 42.6902L110.129 44.6138L102.772 46.9399C102.314 47.0844 102.004 47.5086 102.004 47.988V50.4971H95.9462C94.8319 50.4971 93.7579 50.7939 92.8181 51.3478L89.4677 44.9126C89.2785 44.549 88.9027 44.3209 88.4928 44.3209H82.2019C82.0848 44.3209 81.9896 44.2257 81.9896 44.1086V40.4109C81.9896 40.2938 82.0848 40.1985 82.2019 40.1985H98.032C98.6392 40.1985 99.1312 39.7065 99.1312 39.0993C99.1312 38.4921 98.6392 38.0001 98.032 38.0001H82.2021C81.5194 38.0001 80.9034 38.2867 80.4643 38.7442H77.7952C76.2201 38.7442 74.9386 40.0256 74.9386 41.6007V42.9386C74.9386 44.5137 76.2201 45.7952 77.7952 45.7952H80.4824C80.5828 45.8975 80.6927 45.9899 80.8096 46.0732V55.5331L80.6141 56.3174H77.6224C75.479 56.3174 73.7352 58.0611 73.7352 60.2045C73.7352 62.348 75.479 64.0917 77.6224 64.0917H83.1099C82.9078 64.5475 82.7946 65.0511 82.7946 65.5809C82.7946 66.5886 83.2013 67.503 83.8588 68.1693C83.2013 68.8355 82.7946 69.7499 82.7946 70.7577C82.7946 71.7654 83.2013 72.6798 83.8588 73.346C83.2013 74.0123 82.7946 74.9267 82.7946 75.9344C82.7946 77.2149 83.4511 78.3446 84.4446 79.006L83.711 79.7394C82.311 81.1396 81.3783 82.9892 81.0847 84.9473C80.9947 85.5478 81.4085 86.1073 82.0088 86.1973C82.0642 86.2057 82.119 86.2096 82.1732 86.2096C82.7081 86.2096 83.1771 85.8183 83.2588 85.2733C83.483 83.7768 84.1959 82.3635 85.2655 81.2939L86.9375 79.622H90.5038C92.5371 79.622 94.1913 77.9678 94.1913 75.9344C94.1913 74.9267 93.7846 74.0123 93.1272 73.346C93.7846 72.6798 94.1913 71.7654 94.1913 70.7577C94.1913 69.7499 93.7846 68.8355 93.1272 68.1693C93.2843 68.01 93.4273 67.8367 93.5536 67.6512H100.466C101.368 69.8984 103.088 71.7323 105.258 72.7777C105.258 72.778 105.258 72.7783 105.258 72.7785L106.598 74.5551C107.721 76.0437 108.339 77.8905 108.339 79.7549V101.732C108.339 102.339 108.831 102.831 109.438 102.831C110.045 102.831 110.537 102.339 110.537 101.732V83.2686H115.041C116.335 83.2686 117.551 82.7649 118.465 81.8505L120.486 79.8293H126.166C126.773 79.8293 127.265 79.3374 127.265 78.7302C127.265 78.123 126.773 77.6311 126.166 77.6311ZM91.0844 52.7783L88.2261 55.511C87.9698 55.756 87.7536 56.0279 87.5743 56.3174H86.374C86.9919 55.2648 87.3221 54.0628 87.3221 52.8124V46.5193H87.826L91.0844 52.7783ZM82.9755 55.934C82.997 55.8469 83.0082 55.7577 83.0082 55.6681V46.5193H85.1239V52.8123C85.1239 54.0627 84.6413 55.2426 83.765 56.1346L82.64 57.2797L82.9755 55.934ZM77.137 42.9384V41.6005C77.137 41.2376 77.4323 40.9425 77.7952 40.9425H79.7912V43.5966H77.7952C77.4323 43.5968 77.137 43.3015 77.137 42.9384ZM75.9335 60.2045C75.9335 59.2733 76.691 58.5157 77.6223 58.5157H80.0771C79.976 59.2302 80.3135 59.9245 80.9571 60.2847C81.2307 60.4379 81.5269 60.5126 81.8199 60.5126C82.2755 60.5126 82.7235 60.3316 83.0656 59.9835L84.5074 58.5157H86.9677C86.9787 59.284 87.2037 60.055 87.6602 60.7339C87.9763 61.2041 88.3828 61.5958 88.8487 61.8935H77.6224C76.691 61.8933 75.9335 61.1358 75.9335 60.2045ZM90.5038 64.0917C91.3249 64.0917 91.9929 64.7599 91.9929 65.5809C91.9929 66.4019 91.3248 67.0701 90.5038 67.0701H86.4822C85.661 67.0701 84.993 66.4019 84.993 65.5809C84.993 64.7599 85.6612 64.0917 86.4822 64.0917H90.5038ZM91.9929 70.7578C91.9929 71.579 91.3248 72.247 90.5038 72.247H86.4822C85.661 72.247 84.993 71.5788 84.993 70.7578C84.993 69.9368 85.6612 69.2686 86.4822 69.2686H90.5038C91.3249 69.2686 91.9929 69.9366 91.9929 70.7578ZM90.5038 77.4237H86.4822C85.661 77.4237 84.993 76.7556 84.993 75.9345C84.993 75.1135 85.6612 74.4454 86.4822 74.4454H90.5038C91.3249 74.4454 91.9929 75.1135 91.9929 75.9345C91.9929 76.7556 91.3249 77.4237 90.5038 77.4237ZM94.1881 65.4528C94.1421 64.1138 93.3797 62.9538 92.2721 62.3461C92.8323 62.1692 93.3543 61.8716 93.7983 61.4649L95.5992 59.8151L99.7735 61.9435V64.065C99.7735 64.5364 99.8091 64.9994 99.8746 65.4528H94.1881Z" fill="black"/>
</g>
</g>
<defs>
<filter id="filter0_d" x="0" y="0" width="200" height="192" filterUnits="userSpaceOnUse" color-interpolation-filters="sRGB">
<feFlood flood-opacity="0" result="BackgroundImageFix"/>
<feColorMatrix in="SourceAlpha" type="matrix" values="0 0 0 0 0 0 0 0 0 0 0 0 0 0 0 0 0 0 127 0"/>
<feOffset dy="4"/>
<feGaussianBlur stdDeviation="2"/>
<feColorMatrix type="matrix" values="0 0 0 0 0 0 0 0 0 0 0 0 0 0 0 0 0 0 0.25 0"/>
<feBlend mode="normal" in2="BackgroundImageFix" result="effect1_dropShadow"/>
<feBlend mode="normal" in="SourceGraphic" in2="effect1_dropShadow" result="shape"/>
</filter>
<clipPath id="clip0">
<rect width="75" height="75" fill="white" transform="translate(63 38)"/>
</clipPath>
</defs>
</svg>
