<svg width="200" height="192" viewBox="0 0 200 192" fill="none" xmlns="http://www.w3.org/2000/svg">
<g filter="url(#filter0_d)">
<rect x="4" width="192" height="184" rx="8" fill="#F0F0F0"/>
<path d="M66.1719 139.742H61.2422V143.773H66.9688V145H59.7422V133.625H66.8906V134.859H61.2422V138.516H66.1719V139.742ZM70.1797 145H68.7344V133H70.1797V145ZM76.0078 145.156C74.862 145.156 73.9297 144.781 73.2109 144.031C72.4922 143.276 72.1328 142.268 72.1328 141.008V140.742C72.1328 139.904 72.2917 139.156 72.6094 138.5C72.9323 137.839 73.3802 137.323 73.9531 136.953C74.5312 136.578 75.1562 136.391 75.8281 136.391C76.9271 136.391 77.7812 136.753 78.3906 137.477C79 138.201 79.3047 139.237 79.3047 140.586V141.188H73.5781C73.599 142.021 73.8411 142.695 74.3047 143.211C74.7734 143.721 75.3672 143.977 76.0859 143.977C76.5964 143.977 77.0286 143.872 77.3828 143.664C77.737 143.456 78.0469 143.18 78.3125 142.836L79.1953 143.523C78.487 144.612 77.4245 145.156 76.0078 145.156ZM75.8281 137.578C75.2448 137.578 74.7552 137.792 74.3594 138.219C73.9635 138.641 73.7188 139.234 73.625 140H77.8594V139.891C77.8177 139.156 77.6198 138.589 77.2656 138.188C76.9115 137.781 76.4323 137.578 75.8281 137.578ZM82.9453 134.5V136.547H84.5234V137.664H82.9453V142.906C82.9453 143.245 83.0156 143.5 83.1562 143.672C83.2969 143.839 83.5365 143.922 83.875 143.922C84.0417 143.922 84.2708 143.891 84.5625 143.828V145C84.1823 145.104 83.8125 145.156 83.4531 145.156C82.8073 145.156 82.3203 144.961 81.9922 144.57C81.6641 144.18 81.5 143.625 81.5 142.906V137.664H79.9609V136.547H81.5V134.5H82.9453ZM90.3047 137.844C90.0859 137.807 89.849 137.789 89.5938 137.789C88.6458 137.789 88.0026 138.193 87.6641 139V145H86.2188V136.547H87.625L87.6484 137.523C88.1224 136.768 88.7943 136.391 89.6641 136.391C89.9453 136.391 90.1589 136.427 90.3047 136.5V137.844ZM94.9922 145.156C93.8464 145.156 92.9141 144.781 92.1953 144.031C91.4766 143.276 91.1172 142.268 91.1172 141.008V140.742C91.1172 139.904 91.276 139.156 91.5938 138.5C91.9167 137.839 92.3646 137.323 92.9375 136.953C93.5156 136.578 94.1406 136.391 94.8125 136.391C95.9115 136.391 96.7656 136.753 97.375 137.477C97.9844 138.201 98.2891 139.237 98.2891 140.586V141.188H92.5625C92.5833 142.021 92.8255 142.695 93.2891 143.211C93.7578 143.721 94.3516 143.977 95.0703 143.977C95.5807 143.977 96.013 143.872 96.3672 143.664C96.7214 143.456 97.0312 143.18 97.2969 142.836L98.1797 143.523C97.4714 144.612 96.4089 145.156 94.9922 145.156ZM94.8125 137.578C94.2292 137.578 93.7396 137.792 93.3438 138.219C92.9479 138.641 92.7031 139.234 92.6094 140H96.8438V139.891C96.8021 139.156 96.6042 138.589 96.25 138.188C95.8958 137.781 95.4167 137.578 94.8125 137.578ZM103.359 143.977C103.875 143.977 104.326 143.82 104.711 143.508C105.096 143.195 105.31 142.805 105.352 142.336H106.719C106.693 142.82 106.526 143.281 106.219 143.719C105.911 144.156 105.5 144.505 104.984 144.766C104.474 145.026 103.932 145.156 103.359 145.156C102.208 145.156 101.292 144.773 100.609 144.008C99.9323 143.237 99.5938 142.185 99.5938 140.852V140.609C99.5938 139.786 99.7448 139.055 100.047 138.414C100.349 137.773 100.781 137.276 101.344 136.922C101.911 136.568 102.581 136.391 103.352 136.391C104.299 136.391 105.086 136.674 105.711 137.242C106.341 137.81 106.677 138.547 106.719 139.453H105.352C105.31 138.906 105.102 138.458 104.727 138.109C104.357 137.755 103.898 137.578 103.352 137.578C102.617 137.578 102.047 137.844 101.641 138.375C101.24 138.901 101.039 139.664 101.039 140.664V140.938C101.039 141.911 101.24 142.661 101.641 143.188C102.042 143.714 102.615 143.977 103.359 143.977ZM109.914 145H108.469V136.547H109.914V145ZM108.352 134.305C108.352 134.07 108.422 133.872 108.562 133.711C108.708 133.549 108.922 133.469 109.203 133.469C109.484 133.469 109.698 133.549 109.844 133.711C109.99 133.872 110.062 134.07 110.062 134.305C110.062 134.539 109.99 134.734 109.844 134.891C109.698 135.047 109.484 135.125 109.203 135.125C108.922 135.125 108.708 135.047 108.562 134.891C108.422 134.734 108.352 134.539 108.352 134.305ZM117.156 142.758C117.156 142.367 117.008 142.065 116.711 141.852C116.419 141.633 115.906 141.445 115.172 141.289C114.443 141.133 113.862 140.945 113.43 140.727C113.003 140.508 112.685 140.247 112.477 139.945C112.273 139.643 112.172 139.284 112.172 138.867C112.172 138.174 112.464 137.589 113.047 137.109C113.635 136.63 114.385 136.391 115.297 136.391C116.255 136.391 117.031 136.638 117.625 137.133C118.224 137.628 118.523 138.26 118.523 139.031H117.07C117.07 138.635 116.901 138.294 116.562 138.008C116.229 137.721 115.807 137.578 115.297 137.578C114.771 137.578 114.359 137.693 114.062 137.922C113.766 138.151 113.617 138.451 113.617 138.82C113.617 139.169 113.755 139.432 114.031 139.609C114.307 139.786 114.805 139.956 115.523 140.117C116.247 140.279 116.833 140.471 117.281 140.695C117.729 140.919 118.06 141.19 118.273 141.508C118.492 141.82 118.602 142.203 118.602 142.656C118.602 143.411 118.299 144.018 117.695 144.477C117.091 144.93 116.307 145.156 115.344 145.156C114.667 145.156 114.068 145.036 113.547 144.797C113.026 144.557 112.617 144.224 112.32 143.797C112.029 143.365 111.883 142.898 111.883 142.398H113.328C113.354 142.883 113.547 143.268 113.906 143.555C114.271 143.836 114.75 143.977 115.344 143.977C115.891 143.977 116.328 143.867 116.656 143.648C116.99 143.424 117.156 143.128 117.156 142.758ZM122.445 134.5V136.547H124.023V137.664H122.445V142.906C122.445 143.245 122.516 143.5 122.656 143.672C122.797 143.839 123.036 143.922 123.375 143.922C123.542 143.922 123.771 143.891 124.062 143.828V145C123.682 145.104 123.312 145.156 122.953 145.156C122.307 145.156 121.82 144.961 121.492 144.57C121.164 144.18 121 143.625 121 142.906V137.664H119.461V136.547H121V134.5H122.445ZM130.938 145C130.854 144.833 130.786 144.536 130.734 144.109C130.062 144.807 129.26 145.156 128.328 145.156C127.495 145.156 126.81 144.922 126.273 144.453C125.742 143.979 125.477 143.38 125.477 142.656C125.477 141.776 125.81 141.094 126.477 140.609C127.148 140.12 128.091 139.875 129.305 139.875H130.711V139.211C130.711 138.706 130.56 138.305 130.258 138.008C129.956 137.706 129.51 137.555 128.922 137.555C128.406 137.555 127.974 137.685 127.625 137.945C127.276 138.206 127.102 138.521 127.102 138.891H125.648C125.648 138.469 125.797 138.062 126.094 137.672C126.396 137.276 126.802 136.964 127.312 136.734C127.828 136.505 128.393 136.391 129.008 136.391C129.982 136.391 130.745 136.635 131.297 137.125C131.849 137.609 132.135 138.279 132.156 139.133V143.023C132.156 143.799 132.255 144.417 132.453 144.875V145H130.938ZM128.539 143.898C128.992 143.898 129.422 143.781 129.828 143.547C130.234 143.312 130.529 143.008 130.711 142.633V140.898H129.578C127.807 140.898 126.922 141.417 126.922 142.453C126.922 142.906 127.073 143.26 127.375 143.516C127.677 143.771 128.065 143.898 128.539 143.898ZM139.344 142.758C139.344 142.367 139.195 142.065 138.898 141.852C138.607 141.633 138.094 141.445 137.359 141.289C136.63 141.133 136.049 140.945 135.617 140.727C135.19 140.508 134.872 140.247 134.664 139.945C134.461 139.643 134.359 139.284 134.359 138.867C134.359 138.174 134.651 137.589 135.234 137.109C135.823 136.63 136.573 136.391 137.484 136.391C138.443 136.391 139.219 136.638 139.812 137.133C140.411 137.628 140.711 138.26 140.711 139.031H139.258C139.258 138.635 139.089 138.294 138.75 138.008C138.417 137.721 137.995 137.578 137.484 137.578C136.958 137.578 136.547 137.693 136.25 137.922C135.953 138.151 135.805 138.451 135.805 138.82C135.805 139.169 135.943 139.432 136.219 139.609C136.495 139.786 136.992 139.956 137.711 140.117C138.435 140.279 139.021 140.471 139.469 140.695C139.917 140.919 140.247 141.19 140.461 141.508C140.68 141.82 140.789 142.203 140.789 142.656C140.789 143.411 140.487 144.018 139.883 144.477C139.279 144.93 138.495 145.156 137.531 145.156C136.854 145.156 136.255 145.036 135.734 144.797C135.214 144.557 134.805 144.224 134.508 143.797C134.216 143.365 134.07 142.898 134.07 142.398H135.516C135.542 142.883 135.734 143.268 136.094 143.555C136.458 143.836 136.938 143.977 137.531 143.977C138.078 143.977 138.516 143.867 138.844 143.648C139.177 143.424 139.344 143.128 139.344 142.758Z" fill="#322153"/>
<g clip-path="url(#clip0)">
<path d="M121.375 73.5C121.375 80.25 118.312 86.5 113.031 90.6875C110.875 92.375 109.469 94.5937 109.031 96.9687C108.969 96.9375 108.937 96.9375 108.875 96.9375H90.125C90.0625 96.9375 89.9687 96.9375 89.9062 96.9687C89.4687 94.5 88.1875 92.3437 86.3437 90.9687C79.5312 85.8125 76.3437 77.375 78.0937 68.875C79.8125 60.5937 86.5312 53.8437 94.8125 52.125C101.406 50.7187 108.156 52.3437 113.281 56.5C118.437 60.6875 121.375 66.875 121.375 73.5Z" fill="#FFC107"/>
<path d="M109.031 96.9688C108.937 97.5 108.875 98.0313 108.875 98.5938V105.531C108.875 108.531 106.406 111 103.406 111H95.5937C92.9687 111 90.125 109 90.125 104.625V99.0938C90.125 98.375 90.0625 97.6563 89.9062 96.9688C89.9687 96.9375 90.0625 96.9375 90.125 96.9375H108.875C108.937 96.9375 108.969 96.9375 109.031 96.9688Z" fill="#607D8B"/>
<path d="M106.531 101.625H92.4688C91.175 101.625 90.125 100.575 90.125 99.2812C90.125 97.9875 91.175 96.9375 92.4688 96.9375H106.531C107.825 96.9375 108.875 97.9875 108.875 99.2812C108.875 100.575 107.825 101.625 106.531 101.625Z" fill="black"/>
<path d="M99.5 46.8031C98.2062 46.8031 97.1562 45.7531 97.1562 44.4594V38.3438C97.1562 37.05 98.2062 36 99.5 36C100.794 36 101.844 37.05 101.844 38.3438V44.4594C101.844 45.7531 100.794 46.8031 99.5 46.8031Z" fill="black"/>
<path d="M120.034 55.3093C119.434 55.3093 118.834 55.0812 118.378 54.6218C117.463 53.7062 117.463 52.2218 118.378 51.3062L122.703 46.9812C123.619 46.0656 125.103 46.0656 126.019 46.9812C126.934 47.8968 126.934 49.3812 126.019 50.2968L121.694 54.6218C121.234 55.0781 120.634 55.3093 120.034 55.3093Z" fill="black"/>
<path d="M134.656 75.8438H128.541C127.247 75.8438 126.197 74.7938 126.197 73.5C126.197 72.2062 127.247 71.1562 128.541 71.1562H134.656C135.95 71.1562 137 72.2062 137 73.5C137 74.7938 135.95 75.8438 134.656 75.8438Z" fill="black"/>
<path d="M124.359 100.703C123.759 100.703 123.159 100.475 122.703 100.016L118.378 95.6906C117.463 94.775 117.463 93.2906 118.378 92.375C119.294 91.4594 120.778 91.4594 121.694 92.375L126.019 96.7C126.934 97.6156 126.934 99.1 126.019 100.016C125.559 100.475 124.959 100.703 124.359 100.703Z" fill="black"/>
<path d="M74.6406 100.703C74.0406 100.703 73.4406 100.475 72.9843 100.016C72.0687 99.1 72.0687 97.6156 72.9843 96.7L77.3093 92.375C78.2249 91.4594 79.7093 91.4594 80.6249 92.375C81.5406 93.2906 81.5406 94.775 80.6249 95.6906L76.2999 100.016C75.8406 100.475 75.2406 100.703 74.6406 100.703Z" fill="black"/>
<path d="M70.4594 75.8438H64.3438C63.05 75.8438 62 74.7938 62 73.5C62 72.2062 63.05 71.1562 64.3438 71.1562H70.4594C71.7531 71.1562 72.8031 72.2062 72.8031 73.5C72.8031 74.7938 71.7531 75.8438 70.4594 75.8438Z" fill="black"/>
<path d="M78.9656 55.3093C78.3656 55.3093 77.7656 55.0812 77.3093 54.6218L72.9843 50.2968C72.0687 49.3812 72.0687 47.8968 72.9843 46.9812C73.9 46.0656 75.3843 46.0656 76.2999 46.9812L80.6249 51.3062C81.5406 52.2218 81.5406 53.7062 80.6249 54.6218C80.1624 55.0781 79.5656 55.3093 78.9656 55.3093Z" fill="black"/>
<path d="M111.219 75.0625C109.925 75.0625 108.875 74.0125 108.875 72.7187C108.875 67.9781 105.022 64.125 100.281 64.125C98.9875 64.125 97.9375 63.075 97.9375 61.7812C97.9375 60.4875 98.9875 59.4375 100.281 59.4375C107.603 59.4375 113.562 65.3969 113.562 72.7187C113.562 74.0125 112.512 75.0625 111.219 75.0625Z" fill="black"/>
<path d="M103.406 111H95.5938C92.9594 111 90.125 109 90.125 104.612V99.1C90.125 95.7844 88.7125 92.7406 86.3469 90.9594C79.5188 85.8188 76.3594 77.3625 78.1 68.8906C79.8032 60.5906 86.5188 53.85 94.8094 52.1156C101.403 50.7281 108.147 52.3344 113.291 56.5156C118.428 60.6906 121.375 66.8813 121.375 73.5C121.375 80.2438 118.328 86.5031 113.016 90.6812C110.384 92.75 108.875 95.6313 108.875 98.5844V105.531C108.875 108.547 106.422 111 103.406 111ZM99.4563 56.3188C98.2313 56.3188 96.9969 56.4469 95.7625 56.7031C89.275 58.0594 84.0219 63.3344 82.6875 69.8313C81.3157 76.5094 83.7969 83.1719 89.1625 87.2125C92.6969 89.875 94.8094 94.3187 94.8094 99.1V104.612C94.8094 104.897 94.8469 106.312 95.5907 106.312H103.403C103.834 106.312 104.184 105.962 104.184 105.531V98.5844C104.184 94.1813 106.347 89.9594 110.116 86.9938C114.294 83.7125 116.688 78.7938 116.688 73.5C116.688 68.3 114.369 63.4344 110.331 60.1531C107.244 57.6469 103.416 56.3188 99.4563 56.3188Z" fill="black"/>
</g>
</g>
<defs>
<filter id="filter0_d" x="0" y="0" width="200" height="192" filterUnits="userSpaceOnUse" color-interpolation-filters="sRGB">
<feFlood flood-opacity="0" result="BackgroundImageFix"/>
<feColorMatrix in="SourceAlpha" type="matrix" values="0 0 0 0 0 0 0 0 0 0 0 0 0 0 0 0 0 0 127 0"/>
<feOffset dy="4"/>
<feGaussianBlur stdDeviation="2"/>
<feColorMatrix type="matrix" values="0 0 0 0 0 0 0 0 0 0 0 0 0 0 0 0 0 0 0.25 0"/>
<feBlend mode="normal" in2="BackgroundImageFix" result="effect1_dropShadow"/>
<feBlend mode="normal" in="SourceGraphic" in2="effect1_dropShadow" result="shape"/>
</filter>
<clipPath id="clip0">
<rect width="75" height="75" fill="white" transform="translate(62 36)"/>
</clipPath>
</defs>
</svg>
