<svg width="200" height="192" viewBox="0 0 200 192" fill="none" xmlns="http://www.w3.org/2000/svg">
<g filter="url(#filter0_d)">
<rect x="4" width="192" height="184" rx="8" fill="#F0F0F0"/>
<path d="M61.9062 129.742H56.9766V133.773H62.7031V135H55.4766V123.625H62.625V124.859H56.9766V128.516H61.9062V129.742ZM65.7109 126.547L65.7578 127.609C66.4036 126.797 67.2474 126.391 68.2891 126.391C70.0755 126.391 70.9766 127.398 70.9922 129.414V135H69.5469V129.406C69.5417 128.797 69.401 128.346 69.125 128.055C68.8542 127.763 68.4297 127.617 67.8516 127.617C67.3828 127.617 66.9714 127.742 66.6172 127.992C66.263 128.242 65.987 128.57 65.7891 128.977V135H64.3438V126.547H65.7109ZM76.5625 133.977C77.0781 133.977 77.5286 133.82 77.9141 133.508C78.2995 133.195 78.513 132.805 78.5547 132.336H79.9219C79.8958 132.82 79.7292 133.281 79.4219 133.719C79.1146 134.156 78.7031 134.505 78.1875 134.766C77.6771 135.026 77.1354 135.156 76.5625 135.156C75.4115 135.156 74.4948 134.773 73.8125 134.008C73.1354 133.237 72.7969 132.185 72.7969 130.852V130.609C72.7969 129.786 72.9479 129.055 73.25 128.414C73.5521 127.773 73.9844 127.276 74.5469 126.922C75.1146 126.568 75.7839 126.391 76.5547 126.391C77.5026 126.391 78.2891 126.674 78.9141 127.242C79.5443 127.81 79.8802 128.547 79.9219 129.453H78.5547C78.513 128.906 78.3047 128.458 77.9297 128.109C77.5599 127.755 77.1016 127.578 76.5547 127.578C75.8203 127.578 75.25 127.844 74.8438 128.375C74.4427 128.901 74.2422 129.664 74.2422 130.664V130.938C74.2422 131.911 74.4427 132.661 74.8438 133.188C75.2448 133.714 75.8177 133.977 76.5625 133.977ZM86.7656 135C86.6823 134.833 86.6146 134.536 86.5625 134.109C85.8906 134.807 85.0885 135.156 84.1562 135.156C83.3229 135.156 82.638 134.922 82.1016 134.453C81.5703 133.979 81.3047 133.38 81.3047 132.656C81.3047 131.776 81.638 131.094 82.3047 130.609C82.9766 130.12 83.9193 129.875 85.1328 129.875H86.5391V129.211C86.5391 128.706 86.388 128.305 86.0859 128.008C85.7839 127.706 85.3385 127.555 84.75 127.555C84.2344 127.555 83.8021 127.685 83.4531 127.945C83.1042 128.206 82.9297 128.521 82.9297 128.891H81.4766C81.4766 128.469 81.625 128.062 81.9219 127.672C82.224 127.276 82.6302 126.964 83.1406 126.734C83.6562 126.505 84.2214 126.391 84.8359 126.391C85.8099 126.391 86.5729 126.635 87.125 127.125C87.6771 127.609 87.9635 128.279 87.9844 129.133V133.023C87.9844 133.799 88.0833 134.417 88.2812 134.875V135H86.7656ZM84.3672 133.898C84.8203 133.898 85.25 133.781 85.6562 133.547C86.0625 133.312 86.3568 133.008 86.5391 132.633V130.898H85.4062C83.6354 130.898 82.75 131.417 82.75 132.453C82.75 132.906 82.901 133.26 83.2031 133.516C83.5052 133.771 83.8932 133.898 84.3672 133.898ZM91.6172 126.547L91.6641 127.609C92.3099 126.797 93.1536 126.391 94.1953 126.391C95.9818 126.391 96.8828 127.398 96.8984 129.414V135H95.4531V129.406C95.4479 128.797 95.3073 128.346 95.0312 128.055C94.7604 127.763 94.3359 127.617 93.7578 127.617C93.2891 127.617 92.8776 127.742 92.5234 127.992C92.1693 128.242 91.8932 128.57 91.6953 128.977V135H90.25V126.547H91.6172ZM104.297 135C104.214 134.833 104.146 134.536 104.094 134.109C103.422 134.807 102.62 135.156 101.688 135.156C100.854 135.156 100.169 134.922 99.6328 134.453C99.1016 133.979 98.8359 133.38 98.8359 132.656C98.8359 131.776 99.1693 131.094 99.8359 130.609C100.508 130.12 101.451 129.875 102.664 129.875H104.07V129.211C104.07 128.706 103.919 128.305 103.617 128.008C103.315 127.706 102.87 127.555 102.281 127.555C101.766 127.555 101.333 127.685 100.984 127.945C100.635 128.206 100.461 128.521 100.461 128.891H99.0078C99.0078 128.469 99.1562 128.062 99.4531 127.672C99.7552 127.276 100.161 126.964 100.672 126.734C101.188 126.505 101.753 126.391 102.367 126.391C103.341 126.391 104.104 126.635 104.656 127.125C105.208 127.609 105.495 128.279 105.516 129.133V133.023C105.516 133.799 105.615 134.417 105.812 134.875V135H104.297ZM101.898 133.898C102.352 133.898 102.781 133.781 103.188 133.547C103.594 133.312 103.888 133.008 104.07 132.633V130.898H102.938C101.167 130.898 100.281 131.417 100.281 132.453C100.281 132.906 100.432 133.26 100.734 133.516C101.036 133.771 101.424 133.898 101.898 133.898ZM107.43 130.703C107.43 129.406 107.737 128.365 108.352 127.578C108.966 126.786 109.771 126.391 110.766 126.391C111.755 126.391 112.539 126.729 113.117 127.406V123H114.562V135H113.234L113.164 134.094C112.586 134.802 111.781 135.156 110.75 135.156C109.771 135.156 108.971 134.755 108.352 133.953C107.737 133.151 107.43 132.104 107.43 130.812V130.703ZM108.875 130.867C108.875 131.826 109.073 132.576 109.469 133.117C109.865 133.659 110.411 133.93 111.109 133.93C112.026 133.93 112.695 133.518 113.117 132.695V128.812C112.685 128.016 112.021 127.617 111.125 127.617C110.417 127.617 109.865 127.891 109.469 128.438C109.073 128.984 108.875 129.794 108.875 130.867ZM116.43 130.695C116.43 129.867 116.591 129.122 116.914 128.461C117.242 127.799 117.695 127.289 118.273 126.93C118.857 126.57 119.521 126.391 120.266 126.391C121.417 126.391 122.346 126.789 123.055 127.586C123.768 128.383 124.125 129.443 124.125 130.766V130.867C124.125 131.69 123.966 132.43 123.648 133.086C123.336 133.737 122.885 134.245 122.297 134.609C121.714 134.974 121.042 135.156 120.281 135.156C119.135 135.156 118.206 134.758 117.492 133.961C116.784 133.164 116.43 132.109 116.43 130.797V130.695ZM117.883 130.867C117.883 131.805 118.099 132.557 118.531 133.125C118.969 133.693 119.552 133.977 120.281 133.977C121.016 133.977 121.599 133.69 122.031 133.117C122.464 132.539 122.68 131.732 122.68 130.695C122.68 129.768 122.458 129.018 122.016 128.445C121.578 127.867 120.995 127.578 120.266 127.578C119.552 127.578 118.977 127.862 118.539 128.43C118.102 128.997 117.883 129.81 117.883 130.867ZM130.023 127.844C129.805 127.807 129.568 127.789 129.312 127.789C128.365 127.789 127.721 128.193 127.383 129V135H125.938V126.547H127.344L127.367 127.523C127.841 126.768 128.513 126.391 129.383 126.391C129.664 126.391 129.878 126.427 130.023 126.5V127.844ZM134.711 135.156C133.565 135.156 132.633 134.781 131.914 134.031C131.195 133.276 130.836 132.268 130.836 131.008V130.742C130.836 129.904 130.995 129.156 131.312 128.5C131.635 127.839 132.083 127.323 132.656 126.953C133.234 126.578 133.859 126.391 134.531 126.391C135.63 126.391 136.484 126.753 137.094 127.477C137.703 128.201 138.008 129.237 138.008 130.586V131.188H132.281C132.302 132.021 132.544 132.695 133.008 133.211C133.477 133.721 134.07 133.977 134.789 133.977C135.299 133.977 135.732 133.872 136.086 133.664C136.44 133.456 136.75 133.18 137.016 132.836L137.898 133.523C137.19 134.612 136.128 135.156 134.711 135.156ZM134.531 127.578C133.948 127.578 133.458 127.792 133.062 128.219C132.667 128.641 132.422 129.234 132.328 130H136.562V129.891C136.521 129.156 136.323 128.589 135.969 128.188C135.615 127.781 135.135 127.578 134.531 127.578ZM144.609 132.758C144.609 132.367 144.461 132.065 144.164 131.852C143.872 131.633 143.359 131.445 142.625 131.289C141.896 131.133 141.315 130.945 140.883 130.727C140.456 130.508 140.138 130.247 139.93 129.945C139.727 129.643 139.625 129.284 139.625 128.867C139.625 128.174 139.917 127.589 140.5 127.109C141.089 126.63 141.839 126.391 142.75 126.391C143.708 126.391 144.484 126.638 145.078 127.133C145.677 127.628 145.977 128.26 145.977 129.031H144.523C144.523 128.635 144.354 128.294 144.016 128.008C143.682 127.721 143.26 127.578 142.75 127.578C142.224 127.578 141.812 127.693 141.516 127.922C141.219 128.151 141.07 128.451 141.07 128.82C141.07 129.169 141.208 129.432 141.484 129.609C141.76 129.786 142.258 129.956 142.977 130.117C143.701 130.279 144.286 130.471 144.734 130.695C145.182 130.919 145.513 131.19 145.727 131.508C145.945 131.82 146.055 132.203 146.055 132.656C146.055 133.411 145.753 134.018 145.148 134.477C144.544 134.93 143.76 135.156 142.797 135.156C142.12 135.156 141.521 135.036 141 134.797C140.479 134.557 140.07 134.224 139.773 133.797C139.482 133.365 139.336 132.898 139.336 132.398H140.781C140.807 132.883 141 133.268 141.359 133.555C141.724 133.836 142.203 133.977 142.797 133.977C143.344 133.977 143.781 133.867 144.109 133.648C144.443 133.424 144.609 133.128 144.609 132.758Z" fill="#322153"/>
<g clip-path="url(#clip0)">
<path d="M69.2566 77.9886H92.4155V89.8513H69.2566V77.9886Z" fill="#C3D5EF"/>
<path d="M82.27 83.9199C82.27 86.0178 82.6799 88.0197 83.4223 89.8513H92.4154V77.9886H83.4221C82.6799 79.8201 82.27 81.8221 82.27 83.9199Z" fill="#B7C8EA"/>
<path d="M131.743 89.8513H108.584V77.9886H131.743V89.8513Z" fill="#C3D5EF"/>
<path d="M129.164 77.9886H131.743V89.8513H129.164V77.9886Z" fill="#B7C8EA"/>
<path d="M65.0411 92.3182H68.314C68.8346 92.3182 69.2565 91.8962 69.2565 91.3758V76.4641C69.2565 75.9435 68.8345 75.5216 68.314 75.5216H65.0411C64.5205 75.5216 64.0986 75.9436 64.0986 76.4641V91.3759C64.0986 91.8964 64.5207 92.3182 65.0411 92.3182Z" fill="#365E7D"/>
<path d="M68.314 75.5214H66.028C66.5486 75.5214 66.9704 75.9434 66.9704 76.4641V91.3757C66.9704 91.8963 66.5484 92.3184 66.028 92.3184H68.314C68.8346 92.3184 69.2565 91.8963 69.2565 91.3757V76.4641C69.2566 75.9434 68.8346 75.5214 68.314 75.5214Z" fill="#2B4D66"/>
<path d="M135.959 92.3182H132.686C132.165 92.3182 131.743 91.8962 131.743 91.3758V76.4641C131.743 75.9435 132.165 75.5216 132.686 75.5216H135.959C136.479 75.5216 136.901 75.9436 136.901 76.4641V91.3759C136.901 91.8964 136.479 92.3182 135.959 92.3182Z" fill="#365E7D"/>
<path d="M135.959 75.5214H133.38C133.9 75.5214 134.322 75.9434 134.322 76.4641V91.3757C134.322 91.8963 133.9 92.3184 133.38 92.3184H135.959C136.479 92.3184 136.901 91.8963 136.901 91.3757V76.4641C136.901 75.9434 136.479 75.5214 135.959 75.5214Z" fill="#2B4D66"/>
<path d="M106.431 82.9245V61.1883C106.431 60.4026 105.794 59.7655 105.008 59.7655H95.9913C95.2055 59.7655 94.5685 60.4026 94.5685 61.1883V82.9244H106.431V82.9245Z" fill="#C3D5EF"/>
<path d="M105.009 59.7656H102.432C103.218 59.7656 103.855 60.4027 103.855 61.1884V82.9245H106.431V61.1884C106.431 60.4025 105.794 59.7656 105.009 59.7656Z" fill="#B7C8EA"/>
<path d="M100.5 99.7198C109.226 99.7198 116.3 92.646 116.3 83.9199C116.3 75.1938 109.226 68.1199 100.5 68.1199C91.774 68.1199 84.7001 75.1938 84.7001 83.9199C84.7001 92.646 91.774 99.7198 100.5 99.7198Z" fill="#DF6B57"/>
<path d="M100.5 68.1199C99.9653 68.1199 99.4368 68.1469 98.9158 68.1987C106.898 68.9934 113.132 75.7286 113.132 83.9199C113.132 92.1111 106.898 98.8463 98.9158 99.641C99.4368 99.6929 99.9652 99.7198 100.5 99.7198C109.226 99.7198 116.3 92.646 116.3 83.9197C116.3 75.1938 109.226 68.1199 100.5 68.1199Z" fill="#DD544F"/>
<path d="M108.873 53.3856H92.1274C91.4319 53.3856 90.8679 52.8218 90.8679 52.1262V50.5394C90.8679 49.8439 91.4317 49.28 92.1274 49.28H108.873C109.568 49.28 110.132 49.8438 110.132 50.5394V52.1263C110.132 52.8218 109.568 53.3856 108.873 53.3856Z" fill="#DF6B57"/>
<path d="M108.873 49.28H105.997C106.693 49.28 107.257 49.8438 107.257 50.5394V52.1263C107.257 52.822 106.693 53.3858 105.997 53.3858H108.873C109.568 53.3858 110.132 52.822 110.132 52.1263V50.5394C110.132 49.8438 109.568 49.28 108.873 49.28Z" fill="#DD544F"/>
<path d="M98.2166 53.3856H102.783V59.7654H98.2166V53.3856Z" fill="#365E7D"/>
<path d="M98.2166 53.3856H102.783V55.5849H98.2166V53.3856Z" fill="#2B4D66"/>
<path d="M94.8823 78.3022C91.7864 81.3981 91.7872 86.4423 94.8823 89.5377C97.9995 92.6546 103.039 92.6165 106.118 89.5377V89.5375C109.215 86.44 109.215 81.3997 106.118 78.3022C103.02 75.2046 97.9799 75.2048 94.8823 78.3022ZM100.5 78.1753C101.623 78.1753 102.745 78.5024 103.712 79.1544L100.078 82.7881L94.9547 82.4203C95.2071 81.4805 95.6998 80.5922 96.4361 79.8559C97.5565 78.7353 99.0281 78.1753 100.5 78.1753ZM94.7985 84.612L99.4724 84.9477L99.808 89.6216C98.5747 89.4732 97.3806 88.9284 96.4361 87.9842C95.4915 87.0395 94.9468 85.8452 94.7985 84.612ZM104.564 87.9839C103.828 88.7201 102.94 89.2129 102 89.4655L101.632 84.342L105.266 80.7083C106.772 82.9422 106.539 86.0087 104.564 87.9839Z" fill="black"/>
<path d="M136.901 80.4019C137.508 80.4019 138 79.9101 138 79.3033V76.4641C138 75.3385 137.084 74.4228 135.959 74.4228H132.686C131.56 74.4228 130.645 75.3385 130.645 76.4641V76.8898H123.39C123.201 76.559 122.845 76.3358 122.437 76.3358C122.029 76.3358 121.673 76.559 121.484 76.8898H115.865C114.176 73.2135 111.206 70.2435 107.53 68.5547V61.1883C107.53 59.798 106.399 58.6668 105.008 58.6668H103.882V54.4841H108.872C110.173 54.4841 111.231 53.4262 111.231 52.126V50.5394C111.231 49.2392 110.173 48.1813 108.872 48.1813H98.961C98.3543 48.1813 97.8624 48.6731 97.8624 49.28C97.8624 49.8869 98.3543 50.3786 98.961 50.3786H108.872C108.961 50.3786 109.033 50.4507 109.033 50.5394V52.1262C109.033 52.2148 108.961 52.287 108.872 52.287C103.352 52.287 97.0912 52.287 92.1272 52.287C92.0386 52.287 91.9664 52.2149 91.9664 52.1262V50.5394C91.9664 50.4508 92.0385 50.3786 92.1272 50.3786H94.5686C95.1753 50.3786 95.6672 49.8869 95.6672 49.28C95.6672 48.6731 95.1753 48.1813 94.5686 48.1813H92.1272C90.827 48.1813 89.7691 49.2392 89.7691 50.5394V52.1262C89.7691 53.4264 90.8269 54.4843 92.1272 54.4843H97.1178V58.667H95.9914C94.6011 58.667 93.4699 59.7981 93.4699 61.1884V68.5548C89.7936 70.2435 86.8235 73.2136 85.1348 76.8899H79.5161C79.3267 76.5592 78.9712 76.3359 78.5628 76.3359C78.1544 76.3359 77.7989 76.5592 77.6095 76.8899H70.3553V76.4642C70.3553 75.3387 69.4396 74.423 68.314 74.423H65.0411C63.9157 74.4228 63 75.3385 63 76.4641V91.3758C63 92.5014 63.9157 93.417 65.0411 93.417H68.314C69.4396 93.417 70.3553 92.5014 70.3553 91.3758V90.9499H71.7133C72.3201 90.9499 72.812 90.4582 72.812 89.8513C72.812 89.2444 72.3201 88.7527 71.7133 88.7527H70.3553V79.0872H77.4642V88.7527H76.1061C75.4994 88.7527 75.0075 89.2444 75.0075 89.8513C75.0075 90.4582 75.4994 90.9499 76.1061 90.9499H77.6095C77.7989 91.2807 78.1544 91.5039 78.5628 91.5039C78.9712 91.5039 79.3267 91.2807 79.5161 90.9499H85.1347C87.8073 96.7682 93.6892 100.819 100.5 100.819C107.311 100.819 113.193 96.7682 115.865 90.9499H121.484C121.673 91.2807 122.029 91.5039 122.437 91.5039C122.845 91.5039 123.201 91.2807 123.39 90.9499H130.645V91.3758C130.645 92.5014 131.56 93.417 132.686 93.417H135.959C137.084 93.417 138 92.5014 138 91.3758V83.6957C138 83.0889 137.508 82.5971 136.901 82.5971C136.294 82.5971 135.803 83.0889 135.803 83.6957V91.2196H132.842C132.842 89.3924 132.842 78.4594 132.842 76.6201H135.803V79.3031C135.803 79.91 136.294 80.4019 136.901 80.4019ZM68.158 91.2196H65.1973V76.6201H68.158V91.2196ZM99.3152 54.4843H101.685V58.667H99.3152V54.4843ZM95.6672 61.1884C95.6672 61.0097 95.8126 60.8642 95.9914 60.8642H105.009C105.187 60.8642 105.333 61.0097 105.333 61.1884V67.7266C103.801 67.2685 102.179 67.0213 100.5 67.0213C98.8211 67.0213 97.1991 67.2685 95.6672 67.7266V61.1884ZM79.6614 88.7527V79.0872H84.3066C83.8485 80.6191 83.6013 82.2411 83.6013 83.92C83.6013 85.5989 83.8485 87.2207 84.3066 88.7527H79.6614ZM100.5 98.6213C92.3936 98.6213 85.7985 92.0265 85.7985 83.92C85.7985 75.8136 92.3936 69.2185 100.5 69.2185C108.606 69.2185 115.201 75.8134 115.201 83.9199C115.201 92.0263 108.606 98.6213 100.5 98.6213ZM116.693 79.087H121.339V88.7525H116.693C117.151 87.2206 117.399 85.5987 117.399 83.9199C117.399 82.241 117.151 80.619 116.693 79.087ZM123.536 88.7527V79.0872H130.645V88.7527H123.536Z" fill="black"/>
<path d="M100.5 73.5769C101.107 73.5769 101.599 73.0851 101.599 72.4782V72.0775C101.599 71.4706 101.107 70.9788 100.5 70.9788C99.8933 70.9788 99.4014 71.4706 99.4014 72.0775V72.4782C99.4014 73.0851 99.8933 73.5769 100.5 73.5769Z" fill="black"/>
<path d="M112.342 82.8212H111.942C111.335 82.8212 110.843 83.313 110.843 83.9199C110.843 84.5267 111.335 85.0185 111.942 85.0185H112.342C112.949 85.0185 113.441 84.5267 113.441 83.9199C113.441 83.313 112.949 82.8212 112.342 82.8212Z" fill="black"/>
<path d="M100.5 94.2628C99.8933 94.2628 99.4014 94.7545 99.4014 95.3614V95.7623C99.4014 96.3692 99.8933 96.861 100.5 96.861C101.107 96.861 101.599 96.3692 101.599 95.7623V95.3614C101.599 94.7545 101.107 94.2628 100.5 94.2628Z" fill="black"/>
<path d="M89.0584 82.8212H88.6576C88.0509 82.8212 87.559 83.313 87.559 83.9199C87.559 84.5267 88.0509 85.0185 88.6576 85.0185H89.0584C89.6651 85.0185 90.157 84.5267 90.157 83.9199C90.157 83.313 89.6651 82.8212 89.0584 82.8212Z" fill="black"/>
</g>
</g>
<defs>
<filter id="filter0_d" x="0" y="0" width="200" height="192" filterUnits="userSpaceOnUse" color-interpolation-filters="sRGB">
<feFlood flood-opacity="0" result="BackgroundImageFix"/>
<feColorMatrix in="SourceAlpha" type="matrix" values="0 0 0 0 0 0 0 0 0 0 0 0 0 0 0 0 0 0 127 0"/>
<feOffset dy="4"/>
<feGaussianBlur stdDeviation="2"/>
<feColorMatrix type="matrix" values="0 0 0 0 0 0 0 0 0 0 0 0 0 0 0 0 0 0 0.25 0"/>
<feBlend mode="normal" in2="BackgroundImageFix" result="effect1_dropShadow"/>
<feBlend mode="normal" in="SourceGraphic" in2="effect1_dropShadow" result="shape"/>
</filter>
<clipPath id="clip0">
<rect width="75" height="75" fill="white" transform="translate(63 37)"/>
</clipPath>
</defs>
</svg>
