<svg width="60" height="60" viewBox="0 0 60 60" fill="none" xmlns="http://www.w3.org/2000/svg">
<g clip-path="url(#clip0)">
<path d="M60 30C60 33.7261 59.3204 37.2943 58.0788 40.5857C57.7287 41.5138 57.3343 42.42 56.8972 43.3016C55.8577 45.4004 54.5793 47.3596 53.0977 49.1436C52.2197 50.2041 51.2682 51.2032 50.252 52.1314C49.7659 52.5784 49.2639 53.0081 48.7471 53.422C48.5266 53.5996 48.3026 53.7735 48.0761 53.9449C47.5949 54.3086 47.1039 54.6575 46.6005 54.993C45.5205 55.7106 44.3927 56.3609 43.221 56.9375C42.3626 57.36 41.481 57.742 40.5785 58.0812C40.4389 58.1338 40.2994 58.1852 40.1597 58.2355C39.7788 58.3726 39.3956 58.5025 39.0087 58.6236C38.1221 58.9028 37.2185 59.1416 36.2988 59.3362C34.2674 59.771 32.1612 60 30 60C27.8388 60 25.7326 59.771 23.7012 59.3364C22.7816 59.1417 21.8779 58.9029 20.9913 58.6238C20.6044 58.5026 20.2212 58.3727 19.8403 58.2356C19.7729 58.2123 19.7068 58.1878 19.6395 58.1621C18.6611 57.8033 17.7073 57.3932 16.779 56.9377C14.8896 56.0082 13.1116 54.8855 11.4709 53.5961C10.9554 53.1907 10.4534 52.7682 9.96598 52.33C8.86758 51.3455 7.84266 50.2789 6.90105 49.1426C5.63496 47.6181 4.51816 45.965 3.57047 44.2066C2.97902 43.1071 2.4525 41.9671 1.99945 40.7903C1.27582 38.9132 0.734531 36.9442 0.400312 34.9066C0.230156 33.883 0.113789 32.841 0.0525 31.7842C0.0171094 31.1939 0 30.5988 0 30C0 27.3809 0.335508 24.8388 0.967383 22.4167C1.24406 21.3513 1.5784 20.3093 1.96781 19.2942C3.14824 16.2036 4.82578 13.3579 6.90129 10.8575C7.50246 10.1302 8.13926 9.43348 8.80664 8.76738C14.2346 3.34898 21.7249 0 30 0C38.2751 0 45.7654 3.34898 51.1935 8.76738C51.8609 9.43348 52.4964 10.1303 53.0975 10.8564C57.409 16.0506 60 22.7229 60 30Z" fill="#E8DBC4"/>
<path d="M25.5967 29.1195C25.8783 29.4011 26.0533 29.7917 26.0533 30.2229C26.0533 31.0849 25.3542 31.784 24.4922 31.784H24.3378C23.9068 31.784 23.5162 31.9591 23.2333 32.242C22.9517 32.5236 22.7767 32.9142 22.7767 33.3453C22.7767 34.2086 22.0787 34.9065 21.2155 34.9065H0.400425C0.230269 33.8829 0.113901 32.8408 0.0526123 31.784H3.47624C3.90726 31.784 4.29785 31.609 4.57956 31.3261C4.86245 31.0445 5.03753 30.6539 5.03753 30.2227C5.03753 29.3607 4.33839 28.6616 3.47636 28.6616H2.15144C1.72042 28.6616 1.32984 28.4865 1.04812 28.2036C0.765229 27.922 0.590151 27.5314 0.590151 27.1003C0.590151 26.2383 1.28929 25.5391 2.15132 25.5391H6.53742C6.96843 25.5391 7.35902 25.364 7.64074 25.0811C7.92363 24.7995 8.0987 24.409 8.0987 23.9778C8.0987 23.1158 7.39956 22.4167 6.53753 22.4167H0.967378C1.24406 21.3513 1.57839 20.3093 1.96781 19.2942H20.8494C21.2804 19.2942 21.671 19.4693 21.9527 19.7522C22.2356 20.0338 22.4107 20.4243 22.4107 20.8555C22.4107 21.7175 23.1098 22.4167 23.9719 22.4167H24.4922C25.3542 22.4167 26.0533 23.1158 26.0533 23.9778C26.0533 24.8399 25.3542 25.539 24.4922 25.539H21.6293C21.1983 25.539 20.8077 25.7141 20.5248 25.997C20.2432 26.2786 20.0681 26.6692 20.0681 27.1003C20.0681 27.9623 20.7673 28.6615 21.6293 28.6615H24.4922C24.9233 28.6616 25.3139 28.8367 25.5967 29.1195Z" fill="#F9EED7"/>
<path d="M6.47748 42.3515C6.47748 43.2135 5.77834 43.9126 4.91631 43.9126H4.48166C4.14123 43.9126 3.82659 44.0216 3.57065 44.2065C2.9792 43.107 2.45268 41.967 1.99963 40.7902H4.91631C5.34733 40.7902 5.73791 40.9652 6.01963 41.2468C6.30241 41.5298 6.47748 41.9204 6.47748 42.3515Z" fill="#F9EED7"/>
<path d="M36.8372 5.33802C36.8372 4.47576 36.1382 3.77673 35.276 3.77673H22.1189C21.2566 3.77673 20.5575 4.47576 20.5575 5.33802C20.5575 6.20029 21.2565 6.89919 22.1189 6.89919H26.3747C27.237 6.89919 27.9361 7.59822 27.9361 8.46037C27.9361 9.32263 27.2371 10.0217 26.3747 10.0217H25.9409C25.0786 10.0217 24.3797 10.7207 24.3797 11.5828C24.3797 12.4451 25.0787 13.1441 25.9409 13.1441H38.5508C39.4131 13.1441 40.1121 12.4451 40.1121 11.5828C40.1121 10.7206 40.8111 10.0217 41.6733 10.0217H42.1071C42.9694 10.0217 43.6685 9.32263 43.6685 8.46037C43.6685 7.5981 42.9695 6.89919 42.1071 6.89919H38.3984C37.5362 6.89943 36.8372 6.20029 36.8372 5.33802Z" fill="#F9EED7"/>
<path d="M49.0115 26.5711C49.0115 25.7088 49.7105 25.0097 50.5728 25.0097H55.604C56.4663 25.0097 57.1653 24.3106 57.1653 23.4484C57.1653 22.5861 56.4663 21.887 55.604 21.887H40.7718C39.9096 21.887 39.2105 22.586 39.2105 23.4484C39.2105 24.3106 38.5115 25.0097 37.6491 25.0097H32.6179C31.7557 25.0097 31.0566 25.7087 31.0566 26.5711C31.0566 27.4333 31.7557 28.1325 32.6179 28.1325H40.078C40.9402 28.1325 41.6393 28.8315 41.6393 29.6939C41.6393 30.5561 42.3383 31.2553 43.2005 31.2553H58.0329C58.8951 31.2553 59.5941 30.5563 59.5941 29.6939C59.5941 28.8316 58.8951 28.1325 58.0329 28.1325H50.5728C49.7104 28.1324 49.0115 27.4333 49.0115 26.5711Z" fill="#F9EED7"/>
<path d="M58.0789 40.5857C57.7287 41.5138 57.3344 42.42 56.8973 43.3016H44.667C44.236 43.3016 43.8454 43.1266 43.5625 42.8437C43.2809 42.5621 43.1058 42.1715 43.1058 41.7404C43.1058 40.877 42.4078 40.1792 41.5446 40.1792H39.0736C38.2103 40.1792 37.5125 39.48 37.5125 38.618V38.6168C37.5125 37.7548 38.2104 37.0557 39.0736 37.0557H53.9058C54.7678 37.0557 55.467 37.7548 55.467 38.6168V38.618C55.467 39.049 55.6421 39.4396 55.925 39.7213C56.2066 40.0042 56.5971 40.1793 57.0283 40.1793C57.4335 40.1792 57.8021 40.3322 58.0789 40.5857Z" fill="#F9EED7"/>
<path d="M19.645 3.92602H17.453V6.72188C17.453 6.98485 17.1315 7.12126 16.8198 7.12126C16.4982 7.12126 16.1865 6.98485 16.1865 6.72188V0.389771C16.1865 0.117075 16.4982 0.00012207 16.8198 0.00012207C17.1315 0.00012207 17.453 0.117075 17.453 0.389771V2.93227H19.645V0.389771C19.645 0.117075 19.9567 0.00012207 20.2781 0.00012207C20.5898 0.00012207 20.9113 0.117075 20.9113 0.389771V6.72188C20.9113 6.98485 20.5898 7.12126 20.2781 7.12126C19.9567 7.12126 19.645 6.98485 19.645 6.72188V3.92602Z" fill="#F4A14E"/>
<path d="M22.489 4.94895V2.2309C22.489 0.603984 23.4828 0 24.7685 0C26.0546 0 27.0579 0.603984 27.0579 2.2309V4.94895C27.0579 6.57586 26.0544 7.17984 24.7685 7.17984C23.4826 7.17984 22.489 6.57574 22.489 4.94895ZM25.7915 2.2309C25.7915 1.46133 25.4018 1.11059 24.7685 1.11059C24.1255 1.11059 23.7555 1.46133 23.7555 2.2309V4.94895C23.7555 5.71852 24.1257 6.06926 24.7685 6.06926C25.4018 6.06926 25.7915 5.71852 25.7915 4.94895V2.2309V2.2309Z" fill="#F4A14E"/>
<path d="M32.5615 0.00012207C32.8344 0.00012207 32.9609 0.292388 32.9609 0.565083C32.9609 0.867075 32.8148 1.13989 32.5615 1.13989H31.1394V6.72188C31.1394 6.98485 30.8179 7.12126 30.5062 7.12126C30.1846 7.12126 29.8729 6.98485 29.8729 6.72188V1.13989H28.441C28.1876 1.13989 28.0416 0.876919 28.0416 0.565083C28.0416 0.292388 28.1682 0.00012207 28.441 0.00012207C28.4409 0.00012207 32.5615 0.00012207 32.5615 0.00012207Z" fill="#F4A14E"/>
<path d="M35.4059 3.05907H36.8866C37.14 3.05907 37.286 3.30259 37.286 3.56567C37.286 3.78974 37.1593 4.05282 36.8866 4.05282H35.4059V6.01091H38.1628C38.4162 6.01091 38.5622 6.27388 38.5622 6.57587C38.5622 6.83884 38.4356 7.12138 38.1628 7.12138H34.6949C34.4123 7.12138 34.1394 6.98497 34.1394 6.722V0.399619C34.1394 0.13665 34.4122 0.000244141 34.6949 0.000244141H38.1628C38.4356 0.000244141 38.5622 0.282783 38.5622 0.545752C38.5622 0.847744 38.4161 1.11071 38.1628 1.11071H35.4059V3.05907Z" fill="#F4A14E"/>
<path d="M40.3447 7.12125C40.0621 7.12125 39.7892 6.98485 39.7892 6.72188V0.38977C39.7892 0.117075 40.1009 0.00012207 40.4225 0.00012207C40.7342 0.00012207 41.0556 0.117075 41.0556 0.38977V6.01079H43.4327C43.686 6.01079 43.8126 6.28348 43.8126 6.56614C43.8126 6.83895 43.686 7.12149 43.4327 7.12149H40.3447V7.12125Z" fill="#F4A14E"/>
<path d="M53.0975 8.76746V49.1438C52.2195 50.2043 51.2681 51.2034 50.2518 52.1316C49.7657 52.5786 49.2637 53.0083 48.7469 53.4222C48.5265 53.5998 48.3024 53.7737 48.0759 53.9451C47.5947 54.3087 47.1037 54.6577 46.6004 54.9932C45.5204 55.7108 44.3926 56.3611 43.2208 56.9377C42.3624 57.3602 41.4808 57.7422 40.5783 58.0814V58.2357H40.1595C39.7787 58.3728 39.3955 58.5027 39.0085 58.6238C38.122 58.903 37.2183 59.1418 36.2987 59.3364C34.2673 59.7711 32.1611 60.0001 29.9999 60.0001C27.8388 60.0001 25.7326 59.7711 23.7011 59.3364C22.7815 59.1418 21.8778 58.903 20.9913 58.6238C20.6043 58.5027 20.2211 58.3728 19.8403 58.2357H19.6394V58.1622C18.661 57.8034 17.7072 57.3932 16.779 56.9377C14.8896 56.0083 13.1116 54.8855 11.4708 53.5961C10.9553 53.1908 10.4533 52.7683 9.96592 52.33C8.86752 51.3455 7.8426 50.279 6.901 49.1427V8.76746H53.0975Z" fill="#F4A14E"/>
<path d="M55.287 11.0931H4.71229C4.45038 11.0931 4.23804 10.8808 4.23804 10.6189V8.6288C4.23804 8.36689 4.45038 8.15454 4.71229 8.15454H55.287C55.5489 8.15454 55.7613 8.36689 55.7613 8.6288V10.619C55.7613 10.8809 55.5489 11.0931 55.287 11.0931Z" fill="#5C5E70"/>
<path d="M9.96594 25.175V15.3253C9.96594 14.9387 10.2794 14.6252 10.666 14.6252H18.9396C19.3262 14.6252 19.6397 14.9387 19.6397 15.3253V25.175C19.6397 25.5616 19.3262 25.8751 18.9396 25.8751H10.666C10.2794 25.8751 9.96594 25.5616 9.96594 25.175Z" fill="#E28D40"/>
<path d="M18.1347 16.4816H11.4711V23.5016H18.1347V16.4816Z" fill="#5C5E70"/>
<path d="M16.8096 21.6248H16.2768C15.9158 21.6248 15.6229 21.3321 15.6229 20.9709V18.1374C15.6229 17.7764 15.9157 17.4835 16.2768 17.4835H16.8096C17.1706 17.4835 17.4635 17.7763 17.4635 18.1374V20.9709C17.4635 21.3322 17.1707 21.6248 16.8096 21.6248Z" fill="#797B89"/>
<path d="M20.575 24.8002H8.81208C8.58169 24.8002 8.39478 24.9871 8.39478 25.2175V27.029C8.39478 27.2595 8.58169 27.4463 8.81208 27.4463H20.5751C20.8056 27.4463 20.9924 27.2594 20.9924 27.029V25.2175C20.9924 24.9871 20.8056 24.8002 20.575 24.8002Z" fill="#B58657"/>
<path d="M25.2721 25.175V15.3253C25.2721 14.9387 25.5856 14.6252 25.9722 14.6252H34.2457C34.6323 14.6252 34.9458 14.9387 34.9458 15.3253V25.175C34.9458 25.5616 34.6323 25.8751 34.2457 25.8751H25.9722C25.5856 25.8751 25.2721 25.5616 25.2721 25.175Z" fill="#E28D40"/>
<path d="M33.4407 16.4816H26.7771V23.5016H33.4407V16.4816Z" fill="#5C5E70"/>
<path d="M32.1157 21.6248H31.583C31.2219 21.6248 30.9291 21.3321 30.9291 20.9709V18.1374C30.9291 17.7764 31.2218 17.4835 31.583 17.4835H32.1157C32.4768 17.4835 32.7696 17.7763 32.7696 18.1374V20.9709C32.7696 21.3322 32.4768 21.6248 32.1157 21.6248Z" fill="#797B89"/>
<path d="M35.881 24.8002H24.118C23.8875 24.8002 23.7007 24.9871 23.7007 25.2175V27.029C23.7007 27.2595 23.8876 27.4463 24.118 27.4463H35.881C36.1114 27.4463 36.2983 27.2594 36.2983 27.029V25.2175C36.2985 24.9871 36.1117 24.8002 35.881 24.8002Z" fill="#B58657"/>
<path d="M40.5782 25.175V15.3253C40.5782 14.9387 40.8917 14.6252 41.2783 14.6252H49.5519C49.9385 14.6252 50.252 14.9387 50.252 15.3253V25.175C50.252 25.5616 49.9385 25.8751 49.5519 25.8751H41.2783C40.8917 25.8751 40.5782 25.5616 40.5782 25.175Z" fill="#E28D40"/>
<path d="M48.747 16.4816H42.0834V23.5016H48.747V16.4816Z" fill="#5C5E70"/>
<path d="M47.4217 21.6248H46.889C46.528 21.6248 46.2351 21.3321 46.2351 20.9709V18.1374C46.2351 17.7764 46.5278 17.4835 46.889 17.4835H47.4217C47.7828 17.4835 48.0756 17.7763 48.0756 18.1374V20.9709C48.0756 21.3322 47.7828 21.6248 47.4217 21.6248Z" fill="#797B89"/>
<path d="M51.1873 24.8002H39.4241C39.1938 24.8002 39.0068 24.9871 39.0068 25.2175V27.029C39.0068 27.2595 39.1938 27.4463 39.4241 27.4463H51.1872C51.4176 27.4463 51.6045 27.2594 51.6045 27.029V25.2175C51.6047 24.9871 51.4178 24.8002 51.1873 24.8002Z" fill="#B58657"/>
<path d="M9.96594 41.8928V32.0431C9.96594 31.6565 10.2794 31.343 10.666 31.343H18.9396C19.3262 31.343 19.6397 31.6565 19.6397 32.0431V41.8928C19.6397 42.2794 19.3262 42.5929 18.9396 42.5929H10.666C10.2794 42.5928 9.96594 42.2793 9.96594 41.8928Z" fill="#E28D40"/>
<path d="M18.1347 33.1996H11.4711V40.2196H18.1347V33.1996Z" fill="#5C5E70"/>
<path d="M16.8096 38.3427H16.2768C15.9158 38.3427 15.6229 38.05 15.6229 37.6888V34.8553C15.6229 34.4943 15.9157 34.2014 16.2768 34.2014H16.8096C17.1706 34.2014 17.4635 34.4942 17.4635 34.8553V37.6888C17.4635 38.05 17.1707 38.3427 16.8096 38.3427Z" fill="#797B89"/>
<path d="M20.575 41.5179H8.81208C8.58169 41.5179 8.39478 41.7049 8.39478 41.9352V43.7467C8.39478 43.9771 8.58169 44.164 8.81208 44.164H20.5751C20.8056 44.164 20.9924 43.9771 20.9924 43.7467V41.9352C20.9924 41.7049 20.8056 41.5179 20.575 41.5179Z" fill="#B58657"/>
<path d="M25.2721 41.8928V32.0431C25.2721 31.6565 25.5856 31.343 25.9722 31.343H34.2457C34.6323 31.343 34.9458 31.6565 34.9458 32.0431V41.8928C34.9458 42.2794 34.6323 42.5929 34.2457 42.5929H25.9722C25.5856 42.5928 25.2721 42.2793 25.2721 41.8928Z" fill="#E28D40"/>
<path d="M33.4407 33.1996H26.7771V40.2196H33.4407V33.1996Z" fill="#5C5E70"/>
<path d="M32.1157 38.3427H31.583C31.2219 38.3427 30.9291 38.05 30.9291 37.6888V34.8553C30.9291 34.4943 31.2218 34.2014 31.583 34.2014H32.1157C32.4768 34.2014 32.7696 34.4942 32.7696 34.8553V37.6888C32.7696 38.05 32.4768 38.3427 32.1157 38.3427Z" fill="#797B89"/>
<path d="M35.881 41.5179H24.118C23.8875 41.5179 23.7007 41.7049 23.7007 41.9352V43.7467C23.7007 43.9771 23.8876 44.164 24.118 44.164H35.881C36.1114 44.164 36.2983 43.9771 36.2983 43.7467V41.9352C36.2985 41.7049 36.1117 41.5179 35.881 41.5179Z" fill="#B58657"/>
<path d="M40.5782 41.8928V32.0431C40.5782 31.6565 40.8917 31.343 41.2783 31.343H49.5519C49.9385 31.343 50.252 31.6565 50.252 32.0431V41.8928C50.252 42.2794 49.9385 42.5929 49.5519 42.5929H41.2783C40.8917 42.5928 40.5782 42.2793 40.5782 41.8928Z" fill="#E28D40"/>
<path d="M48.747 33.1996H42.0834V40.2196H48.747V33.1996Z" fill="#5C5E70"/>
<path d="M47.4217 38.3427H46.889C46.528 38.3427 46.2351 38.05 46.2351 37.6888V34.8553C46.2351 34.4943 46.5278 34.2014 46.889 34.2014H47.4217C47.7828 34.2014 48.0756 34.4942 48.0756 34.8553V37.6888C48.0756 38.05 47.7828 38.3427 47.4217 38.3427Z" fill="#797B89"/>
<path d="M51.1873 41.5179H39.4241C39.1938 41.5179 39.0068 41.7049 39.0068 41.9352V43.7467C39.0068 43.9771 39.1938 44.164 39.4241 44.164H51.1872C51.4176 44.164 51.6045 43.9771 51.6045 43.7467V41.9352C51.6047 41.7049 51.4178 41.5179 51.1873 41.5179Z" fill="#B58657"/>
<path d="M19.6395 48.7604V58.162C18.6611 57.8032 17.7074 57.393 16.7791 56.9375C14.8897 56.0081 13.1117 54.8853 11.471 53.5959C10.9555 53.1906 10.4534 52.7681 9.96606 52.3298V48.7604C9.96606 48.3748 10.2795 48.0613 10.6665 48.0613H18.9391C19.3261 48.0612 19.6395 48.3746 19.6395 48.7604Z" fill="#E28D40"/>
<path d="M18.1347 49.9176V56.9376H16.7792C14.8898 56.0082 13.1118 54.8854 11.4711 53.596V49.9176H18.1347Z" fill="#5C5E70"/>
<path d="M16.8096 55.0605H16.2768C15.9158 55.0605 15.6229 54.7677 15.6229 54.4066V51.5731C15.6229 51.212 15.9157 50.9192 16.2768 50.9192H16.8096C17.1706 50.9192 17.4635 51.2119 17.4635 51.5731V54.4066C17.4635 54.7676 17.1707 55.0605 16.8096 55.0605Z" fill="#797B89"/>
<path d="M20.9915 58.6237C20.6045 58.5025 20.2213 58.3727 19.8405 58.2356H20.5751C20.7955 58.2356 20.9767 58.407 20.9915 58.6237Z" fill="#B58657"/>
<path d="M25.2721 58.6103V48.7606C25.2721 48.374 25.5856 48.0605 25.9722 48.0605H34.2457C34.6323 48.0605 34.9458 48.374 34.9458 48.7606V58.6103C34.9458 58.9969 34.6323 59.3104 34.2457 59.3104H25.9722C25.5856 59.3104 25.2721 58.9969 25.2721 58.6103Z" fill="#E28D40"/>
<path d="M33.4407 49.9176H26.7771V56.9376H33.4407V49.9176Z" fill="#5C5E70"/>
<path d="M32.1157 55.0605H31.583C31.2219 55.0605 30.9291 54.7677 30.9291 54.4066V51.5731C30.9291 51.212 31.2218 50.9192 31.583 50.9192H32.1157C32.4768 50.9192 32.7696 51.2119 32.7696 51.5731V54.4066C32.7696 54.7676 32.4768 55.0605 32.1157 55.0605Z" fill="#797B89"/>
<path d="M36.2988 58.6531V59.3365C34.2674 59.7711 32.1612 60.0001 30 60.0001C27.8388 60.0001 25.7326 59.7711 23.7012 59.3365V58.6531C23.7012 58.423 23.8873 58.2356 24.1175 58.2356H35.8812C36.1114 58.2356 36.2988 58.423 36.2988 58.6531Z" fill="#B58657"/>
<path d="M50.2518 48.7604V52.1314C49.7658 52.5784 49.2637 53.0081 48.7469 53.422C48.5265 53.5996 48.3024 53.7735 48.0759 53.9449C47.5947 54.3085 47.1037 54.6575 46.6004 54.993C45.5204 55.7106 44.3926 56.3608 43.2208 56.9375C42.3624 57.36 41.4808 57.742 40.5784 58.0811V48.7603C40.5784 48.3746 40.8918 48.0612 41.2788 48.0612H49.5514C49.9384 48.0612 50.2518 48.3746 50.2518 48.7604Z" fill="#E28D40"/>
<path d="M48.747 49.9176V53.4221C48.5266 53.5996 48.3025 53.7735 48.076 53.945C47.5948 54.3086 47.1038 54.6576 46.6005 54.9931C45.5205 55.7106 44.3927 56.3609 43.2209 56.9376H42.0834V49.9176H48.747Z" fill="#5C5E70"/>
<path d="M48.0759 51.5731V53.945C47.5947 54.3086 47.1037 54.6576 46.6004 54.9931C46.3837 54.8866 46.2355 54.6637 46.2355 54.4066V51.5731C46.2355 51.2119 46.5281 50.9192 46.8894 50.9192H47.422C47.7833 50.9192 48.0759 51.2119 48.0759 51.5731Z" fill="#797B89"/>
<path d="M40.1596 58.2356C39.7787 58.3727 39.3955 58.5025 39.0085 58.6237C39.0232 58.407 39.2032 58.2356 39.4236 58.2356H40.1596Z" fill="#B58657"/>
<path d="M53.0975 11.0927H6.90112V12.2489H53.0975V11.0927Z" fill="#E28D40"/>
<path d="M53.273 10.1147H45.6659C45.5349 10.1147 45.4286 10.0086 45.4286 9.87744V9.12744C45.4286 8.99643 45.5348 8.89014 45.6659 8.89014H53.273C53.404 8.89014 53.5103 8.99631 53.5103 9.12744V9.87744C53.5102 10.0086 53.404 10.1147 53.273 10.1147Z" fill="#797B89"/>
</g>
<defs>
<clipPath id="clip0">
<rect width="60" height="60" fill="white"/>
</clipPath>
</defs>
</svg>
