<svg width="60" height="60" viewBox="0 0 60 60" fill="none" xmlns="http://www.w3.org/2000/svg">
<path d="M60 29.9106V30C60 40.8209 54.2706 50.3033 45.6809 55.5796C43.5772 56.8726 41.302 57.9122 38.8984 58.6591C37.7106 59.0265 36.4923 59.3228 35.247 59.542C33.5436 59.8433 31.7902 60 30 60C29.1281 60 28.2636 59.9633 27.4102 59.8898C27.1702 59.869 26.9302 59.8458 26.6913 59.8188C26.4513 59.7932 26.2125 59.7638 25.9738 59.7319C24.9023 59.5886 23.8481 59.3878 22.8146 59.133C22.5746 59.0755 22.3346 59.013 22.0971 58.9481C21.8559 58.8832 21.6171 58.8146 21.3783 58.7425C19.4729 58.1719 17.6473 57.4175 15.9219 56.498C15.6807 56.3694 15.4407 56.2384 15.2031 56.1025C14.9619 55.9654 14.7219 55.8258 14.4855 55.6813C13.3835 55.0152 12.3292 54.2793 11.3264 53.4809C11.0839 53.2886 10.8452 53.0914 10.6089 52.8919C10.3652 52.6849 10.1264 52.4755 9.89004 52.2613C7.10437 49.7438 4.79367 46.7119 3.10758 43.3139C2.03613 41.1514 1.21699 38.8409 0.68918 36.4225C0.418594 35.1845 0.225117 33.9171 0.113672 32.6265C0.0379688 31.7609 0 30.8854 0 30C0 29.9706 0 29.94 0.00117187 29.9106C0.0428906 15.458 10.3041 3.41016 23.9375 0.613477C24.2032 0.558398 24.469 0.506953 24.7371 0.46043C26.4454 0.157969 28.2049 0 30 0C46.5391 0 59.9522 13.3836 60 29.9106Z" fill="#4BC999"/>
<path d="M60.0001 29.9106H0.0012207C0.0158691 24.687 1.36657 19.7791 3.72731 15.507C4.32239 14.4294 4.98239 13.3923 5.70239 12.4004C10.0212 6.44824 16.4743 2.14406 23.9375 0.613477C24.2031 0.558398 24.4689 0.506953 24.737 0.46043C26.4454 0.157969 28.205 0 30.0001 0C30.5547 0 31.1045 0.0146484 31.6519 0.0453516C38.7895 0.432305 45.2634 3.31477 50.2164 7.83434C53.8789 11.1772 56.7099 15.4152 58.3629 20.2017C58.9899 22.0177 59.4479 23.9119 59.7173 25.8674C59.8996 27.1898 59.9964 28.5391 60.0001 29.9106Z" fill="#34ABE0"/>
<path d="M54.0734 37.5866C54.0734 36.7243 53.3744 36.0252 52.5121 36.0252H51.9917C51.1294 36.0252 50.4303 35.3261 50.4303 34.4639C50.4303 33.6016 49.7312 32.9025 48.869 32.9025H24.9293C24.0671 32.9025 23.3679 33.6015 23.3679 34.4639C23.3679 35.3261 24.0669 36.0252 24.9293 36.0252H34.5573C35.4196 36.0252 36.1187 36.7242 36.1187 37.5866C36.1187 38.4488 35.4197 39.1479 34.5573 39.1479H30.1723C29.31 39.1479 28.6109 39.8469 28.6109 40.7093C28.6109 41.5715 29.3099 42.2706 30.1723 42.2706H31.497C32.3592 42.2706 33.0584 42.9696 33.0584 43.832C33.0584 44.6942 32.3594 45.3932 31.497 45.3932H26.7509C25.8886 45.3932 25.1895 46.0923 25.1895 46.9547C25.1895 47.8169 25.8885 48.5159 26.7509 48.5159H49.2364C50.0986 48.5159 50.7976 47.8169 50.7976 46.9547C50.7976 46.0924 51.4967 45.3932 52.3591 45.3932H52.5125C53.3747 45.3932 54.0737 44.6942 54.0737 43.832C54.0737 42.9697 53.3747 42.2706 52.5125 42.2706H49.65C48.7878 42.2706 48.0886 41.5715 48.0886 40.7093C48.0886 39.847 48.7876 39.1479 49.65 39.1479H52.5125C53.3745 39.1477 54.0734 38.4488 54.0734 37.5866Z" fill="#5BD3A2"/>
<path d="M23.3679 16.6479C23.3679 15.7856 24.0669 15.0864 24.9293 15.0864H25.4497C26.312 15.0864 27.0111 14.3874 27.0111 13.5252C27.0111 12.6629 27.7102 11.9639 28.5726 11.9639H52.5124C53.3747 11.9639 54.0737 12.6629 54.0737 13.5252C54.0737 14.3874 53.3747 15.0864 52.5124 15.0864H42.8843C42.022 15.0864 41.3229 15.7855 41.3229 16.6479C41.3229 17.5101 42.0219 18.2093 42.8843 18.2093H47.2693C48.1316 18.2093 48.8306 18.9083 48.8306 19.7707C48.8306 20.6329 48.1316 21.3321 47.2693 21.3321H45.9447C45.0824 21.3321 44.3833 22.0311 44.3833 22.8935C44.3833 23.7557 45.0823 24.4549 45.9447 24.4549H50.6908C51.553 24.4549 52.2522 25.1539 52.2522 26.0163C52.2522 26.8786 51.5531 27.5777 50.6908 27.5777H28.2052C27.3429 27.5777 26.6438 26.8787 26.6438 26.0163C26.6438 25.154 25.9447 24.4549 25.0824 24.4549H24.929C24.0667 24.4549 23.3676 23.7559 23.3676 22.8935C23.3676 22.0312 24.0666 21.3321 24.929 21.3321H27.7914C28.6536 21.3321 29.3528 20.633 29.3528 19.7707C29.3528 18.9084 28.6538 18.2093 27.7914 18.2093H24.929C24.067 18.2091 23.3679 17.5101 23.3679 16.6479Z" fill="#78CAEF"/>
<path d="M50.2164 7.83439C50.1699 8.65353 49.4915 9.30252 48.6589 9.30252H36.049C35.618 9.30252 35.2274 9.12861 34.9445 8.84584C34.6629 8.56295 34.4879 8.17365 34.4879 7.74135C34.4879 6.87932 35.187 6.18017 36.049 6.18017H36.4837C36.9147 6.18017 37.3053 6.0051 37.587 5.72221C37.8699 5.4406 38.045 5.05002 38.045 4.61889C38.045 3.75686 37.3458 3.05771 36.4838 3.05771H32.2274C31.7964 3.05771 31.4058 2.88264 31.1241 2.59975C30.8412 2.31814 30.6661 1.92756 30.6661 1.49643C30.6661 0.837598 31.074 0.274395 31.6518 0.0454102C38.7895 0.432246 45.2634 3.31471 50.2164 7.83439Z" fill="#78CAEF"/>
<path d="M30.9209 17.0842C30.9209 17.9462 30.2217 18.6453 29.3597 18.6453H14.5274C14.0964 18.6453 13.7058 18.4703 13.4229 18.1874C13.1413 17.9058 12.9662 17.5152 12.9662 17.084C12.9662 16.222 12.2671 15.5229 11.4051 15.5229H3.9441C3.87062 15.5229 3.79843 15.518 3.72742 15.5069C4.32249 14.4294 4.98249 13.3923 5.70249 12.4004H8.97554C9.40656 12.4004 9.79714 12.2253 10.08 11.9424C10.3616 11.6608 10.5367 11.2703 10.5367 10.8391C10.5367 9.97709 11.2359 9.27795 12.0979 9.27795H26.9301C27.3623 9.27795 27.7517 9.45303 28.0346 9.73592C28.3174 10.0175 28.4925 10.4081 28.4925 10.8392C28.4925 11.7013 27.7934 12.4004 26.9301 12.4004H21.9C21.0367 12.4004 20.3389 13.0996 20.3389 13.9616C20.3389 14.8236 21.0368 15.5228 21.9 15.5228H29.3596C29.7906 15.5228 30.1812 15.6978 30.4629 15.9807C30.7457 16.2626 30.9209 16.6531 30.9209 17.0842Z" fill="#78CAEF"/>
<path d="M59.7172 25.8675C59.4992 25.5993 59.3682 25.2576 59.3682 24.8854C59.3682 24.0234 58.6691 23.3242 57.807 23.3242H55.3349C54.9038 23.3242 54.5133 23.1492 54.2304 22.8676C53.9488 22.5847 53.7737 22.1941 53.7737 21.7631C53.7737 20.901 54.4728 20.2019 55.3349 20.2019H58.363C58.9899 22.0176 59.4478 23.9119 59.7172 25.8675Z" fill="#78CAEF"/>
<path d="M45.737 30.9636L45.6807 31.0052V55.5796C43.577 56.8726 41.3019 57.9122 38.8982 58.6591C37.7104 59.0265 36.4921 59.3228 35.2468 59.542C33.5436 59.8433 31.7901 60 29.9999 60C29.1281 60 28.2636 59.9633 27.4101 59.8898C27.1701 59.869 26.9301 59.8458 26.6913 59.8188C26.4513 59.7932 26.2124 59.7637 25.9737 59.7319C24.9023 59.5885 23.8481 59.3878 22.8146 59.133C22.5746 59.0755 22.3346 59.013 22.097 58.9481C21.8559 58.8832 21.617 58.8146 21.3782 58.7425C19.4729 58.1719 17.6472 57.4175 15.9218 56.498C15.6807 56.3694 15.4407 56.2384 15.203 56.1024C14.9618 55.9653 14.7218 55.8258 14.4855 55.6813C13.3835 55.0152 12.3291 54.2792 11.3263 53.4808C11.0839 53.2885 10.8452 53.0914 10.6088 52.8919C10.3652 52.6849 10.1263 52.4755 9.88997 52.2613C7.10431 49.7437 4.79361 46.7119 3.10751 43.3139V31.0053L3.05115 30.9637L24.3943 2.28491L45.737 30.9636Z" fill="#F9EED7"/>
<path d="M24.6481 15.1697H24.1404C23.3289 15.1697 22.671 15.8276 22.671 16.6391V24.9347H26.1175V16.6391C26.1174 15.8276 25.4595 15.1697 24.6481 15.1697Z" fill="#5C5E70"/>
<path d="M15.2043 35.5616H10.609V43.6028H15.2043V35.5616Z" fill="#5C5E70"/>
<path d="M26.6923 35.5616H22.097V43.6028H26.6923V35.5616Z" fill="#5C5E70"/>
<path d="M38.1794 35.5616H33.5841V43.6028H38.1794V35.5616Z" fill="#5C5E70"/>
<path d="M15.2034 50.7833V56.1025C14.9622 55.9654 14.7222 55.8258 14.4858 55.6813C13.3838 55.0152 12.3294 54.2793 11.3267 53.4809C11.0842 53.2886 10.8455 53.0914 10.6091 52.8919V50.7833H15.2034Z" fill="#5C5E70"/>
<path d="M26.6915 53.9425V59.8189C26.4515 59.7932 26.2127 59.7638 25.974 59.7319C24.9025 59.5886 23.8483 59.3879 22.8148 59.1331C22.5748 59.0756 22.3348 59.0131 22.0973 58.9482V53.9425H26.6915Z" fill="#5C5E70"/>
<path d="M38.1794 50.7833H33.5841V58.8245H38.1794V50.7833Z" fill="#5C5E70"/>
<path d="M3.10705 38.3558L24.3946 9.75246L45.6807 38.3558V31.0055L45.7366 30.9637L24.3946 2.28516L3.05115 30.9637L3.10705 31.0055V38.3558Z" fill="#E8DBC4"/>
<path d="M53.6719 39.3416L51.4837 40.9702L24.3943 4.56984L0.689399 36.4225C0.418813 35.1845 0.225337 33.9171 0.113892 32.6265L23.9375 0.613477L24.3943 0L24.7372 0.46043L53.6719 39.3416Z" fill="#FF525D"/>
<path d="M24.2986 14.4533C22.9779 14.5041 21.9526 15.6317 21.9526 16.9535V24.922C21.9526 25.3258 22.2799 25.6531 22.6838 25.6531H26.1047C26.5085 25.6531 26.8358 25.3258 26.8358 24.922V16.8931C26.836 15.5156 25.6878 14.3998 24.2986 14.4533ZM23.389 16.893C23.389 16.3383 23.8396 15.8876 24.3944 15.8876C24.9491 15.8876 25.3997 16.3382 25.3997 16.893V24.2166H23.3891L23.389 16.893Z" fill="#FF525D"/>
<path d="M9.89014 35.574V43.5893C9.89014 43.9931 10.2174 44.3204 10.6213 44.3204H15.1908C15.5946 44.3204 15.9219 43.9931 15.9219 43.5893V35.574C15.9219 35.1702 15.5946 34.8429 15.1908 34.8429H10.6213C10.2174 34.8429 9.89014 35.1702 9.89014 35.574ZM14.4856 42.8854H11.3265V36.2793H14.4856V42.8854Z" fill="#FF525D"/>
<path d="M21.3784 35.574V43.5893C21.3784 43.9931 21.7057 44.3204 22.1096 44.3204H26.6792C27.083 44.3204 27.4103 43.9931 27.4103 43.5893V35.574C27.4103 35.1702 27.083 34.8429 26.6792 34.8429H22.1097C21.7057 34.8429 21.3784 35.1702 21.3784 35.574ZM25.9739 42.8854H22.8148V36.2793H25.9739V42.8854Z" fill="#FF525D"/>
<path d="M32.8665 35.574V43.5893C32.8665 43.9931 33.1938 44.3204 33.5976 44.3204H38.1671C38.5709 44.3204 38.8982 43.9931 38.8982 43.5893V35.574C38.8982 35.1702 38.5709 34.8429 38.1671 34.8429H33.5976C33.1938 34.8429 32.8665 35.1702 32.8665 35.574ZM37.462 42.8854H34.3028V36.2793H37.462V42.8854V42.8854Z" fill="#FF525D"/>
<path d="M9.89014 50.7956V52.2611C10.1265 52.4755 10.3652 52.6848 10.609 52.8917C10.8453 53.0913 11.084 53.2884 11.3265 53.4807V51.5007H14.4856V55.6811C14.722 55.8256 14.962 55.9652 15.2032 56.1023C15.4407 56.2382 15.6807 56.3692 15.922 56.4978V50.7955C15.922 50.3916 15.5947 50.0643 15.1909 50.0643H10.6213C10.2174 50.0644 9.89014 50.3918 9.89014 50.7956Z" fill="#FF525D"/>
<path d="M27.4102 54.0015V59.8898C27.1702 59.869 26.9302 59.8458 26.6913 59.8188C26.4513 59.7932 26.2125 59.7637 25.9738 59.7319V54.66H22.8147V59.133C22.5747 59.0755 22.3347 59.013 22.0971 58.9481C21.856 58.8832 21.6171 58.8146 21.3783 58.7425V54.0015C21.3783 53.572 21.7266 53.2238 22.1561 53.2238H26.6324C27.062 53.2236 27.4102 53.5719 27.4102 54.0015Z" fill="#FF525D"/>
<path d="M32.8665 50.7957V58.811C32.8665 59.2148 33.1938 59.5421 33.5976 59.5421H35.2469C36.4922 59.323 37.7105 59.0266 38.8983 58.6592V50.7957C38.8983 50.3919 38.571 50.0646 38.1672 50.0646H33.5976C33.1938 50.0646 32.8665 50.3919 32.8665 50.7957ZM37.462 58.107H34.3028V51.5009H37.462V58.107V58.107Z" fill="#FF525D"/>
<path d="M43.3469 47.7882H40.653C40.1796 47.7882 39.7959 48.172 39.7959 48.6453C39.7959 49.1188 40.1797 49.5024 40.653 49.5024H43.3469C43.8204 49.5024 44.204 49.1186 44.204 48.6453C44.204 48.172 43.8202 47.7882 43.3469 47.7882Z" fill="#E8DBC4"/>
<path d="M41.6327 45.5842H38.9388C38.4653 45.5842 38.0817 45.968 38.0817 46.4413C38.0817 46.9148 38.4655 47.2984 38.9388 47.2984H41.6327C42.1061 47.2984 42.4898 46.9147 42.4898 46.4413C42.4899 45.968 42.1061 45.5842 41.6327 45.5842Z" fill="#E8DBC4"/>
<path d="M14.8164 29.7882H12.1225C11.6491 29.7882 11.2654 30.172 11.2654 30.6453C11.2654 31.1188 11.6492 31.5024 12.1225 31.5024H14.8164C15.2898 31.5024 15.6735 31.1186 15.6735 30.6453C15.6735 30.172 15.2897 29.7882 14.8164 29.7882Z" fill="#E8DBC4"/>
<path d="M13.102 27.5841H10.4081C9.9347 27.5841 9.55103 27.9679 9.55103 28.4412C9.55103 28.9147 9.93481 29.2983 10.4081 29.2983H13.102C13.5755 29.2983 13.9592 28.9145 13.9592 28.4412C13.9592 27.9679 13.5755 27.5841 13.102 27.5841Z" fill="#E8DBC4"/>
<path d="M37.8367 25.9923H35.1428C34.6693 25.9923 34.2856 26.3761 34.2856 26.8494C34.2856 27.3229 34.6694 27.7065 35.1428 27.7065H37.8367C38.3101 27.7065 38.6938 27.3227 38.6938 26.8494C38.6939 26.3761 38.3101 25.9923 37.8367 25.9923Z" fill="#E8DBC4"/>
<path d="M36.1224 23.7882H33.4285C32.9551 23.7882 32.5714 24.172 32.5714 24.6453C32.5714 25.1188 32.9552 25.5024 33.4285 25.5024H36.1224C36.5959 25.5024 36.9795 25.1186 36.9795 24.6453C36.9795 24.172 36.5957 23.7882 36.1224 23.7882Z" fill="#E8DBC4"/>
<path d="M23.6327 49.625H20.9388C20.4653 49.625 20.0817 50.0088 20.0817 50.4821C20.0817 50.9555 20.4655 51.3392 20.9388 51.3392H23.6327C24.1061 51.3392 24.4898 50.9554 24.4898 50.4821C24.4899 50.0087 24.1061 49.625 23.6327 49.625Z" fill="#E8DBC4"/>
<path d="M21.9184 47.421H19.2245C18.7511 47.421 18.3674 47.8048 18.3674 48.2781C18.3674 48.7516 18.7512 49.1352 19.2245 49.1352H21.9184C22.3919 49.1352 22.7756 48.7514 22.7756 48.2781C22.7756 47.8047 22.3918 47.421 21.9184 47.421Z" fill="#E8DBC4"/>
<path d="M27.1837 47.421H24.4899C24.0165 47.421 23.6328 47.8048 23.6328 48.2781C23.6328 48.7516 24.0166 49.1352 24.4899 49.1352H27.1838C27.6573 49.1352 28.0409 48.7514 28.0409 48.2781C28.0409 47.8047 27.6571 47.421 27.1837 47.421Z" fill="#E8DBC4"/>
</svg>
