<svg width="200" height="192" viewBox="0 0 200 192" fill="none" xmlns="http://www.w3.org/2000/svg">
<g filter="url(#filter0_d)">
<rect x="4" width="192" height="184" rx="8" fill="#F0F0F0"/>
<path d="M61.4375 123.625L65.1562 132.906L68.875 123.625H70.8203V135H69.3203V130.57L69.4609 125.789L65.7266 135H64.5781L60.8516 125.812L61 130.57V135H59.5V123.625H61.4375ZM78.4609 135C78.3776 134.833 78.3099 134.536 78.2578 134.109C77.5859 134.807 76.7839 135.156 75.8516 135.156C75.0182 135.156 74.3333 134.922 73.7969 134.453C73.2656 133.979 73 133.38 73 132.656C73 131.776 73.3333 131.094 74 130.609C74.6719 130.12 75.6146 129.875 76.8281 129.875H78.2344V129.211C78.2344 128.706 78.0833 128.305 77.7812 128.008C77.4792 127.706 77.0339 127.555 76.4453 127.555C75.9297 127.555 75.4974 127.685 75.1484 127.945C74.7995 128.206 74.625 128.521 74.625 128.891H73.1719C73.1719 128.469 73.3203 128.062 73.6172 127.672C73.9193 127.276 74.3255 126.964 74.8359 126.734C75.3516 126.505 75.9167 126.391 76.5312 126.391C77.5052 126.391 78.2682 126.635 78.8203 127.125C79.3724 127.609 79.6589 128.279 79.6797 129.133V133.023C79.6797 133.799 79.7786 134.417 79.9766 134.875V135H78.4609ZM76.0625 133.898C76.5156 133.898 76.9453 133.781 77.3516 133.547C77.7578 133.312 78.0521 133.008 78.2344 132.633V130.898H77.1016C75.3307 130.898 74.4453 131.417 74.4453 132.453C74.4453 132.906 74.5964 133.26 74.8984 133.516C75.2005 133.771 75.5885 133.898 76.0625 133.898ZM86.0312 127.844C85.8125 127.807 85.5755 127.789 85.3203 127.789C84.3724 127.789 83.7292 128.193 83.3906 129V135H81.9453V126.547H83.3516L83.375 127.523C83.849 126.768 84.5208 126.391 85.3906 126.391C85.6719 126.391 85.8854 126.427 86.0312 126.5V127.844ZM90.6016 133.977C91.1172 133.977 91.5677 133.82 91.9531 133.508C92.3385 133.195 92.5521 132.805 92.5938 132.336H93.9609C93.9349 132.82 93.7682 133.281 93.4609 133.719C93.1536 134.156 92.7422 134.505 92.2266 134.766C91.7161 135.026 91.1745 135.156 90.6016 135.156C89.4505 135.156 88.5339 134.773 87.8516 134.008C87.1745 133.237 86.8359 132.185 86.8359 130.852V130.609C86.8359 129.786 86.987 129.055 87.2891 128.414C87.5911 127.773 88.0234 127.276 88.5859 126.922C89.1536 126.568 89.8229 126.391 90.5938 126.391C91.5417 126.391 92.3281 126.674 92.9531 127.242C93.5833 127.81 93.9193 128.547 93.9609 129.453H92.5938C92.5521 128.906 92.3438 128.458 91.9688 128.109C91.599 127.755 91.1406 127.578 90.5938 127.578C89.8594 127.578 89.2891 127.844 88.8828 128.375C88.4818 128.901 88.2812 129.664 88.2812 130.664V130.938C88.2812 131.911 88.4818 132.661 88.8828 133.188C89.2839 133.714 89.8568 133.977 90.6016 133.977ZM99.0938 135.156C97.9479 135.156 97.0156 134.781 96.2969 134.031C95.5781 133.276 95.2188 132.268 95.2188 131.008V130.742C95.2188 129.904 95.3776 129.156 95.6953 128.5C96.0182 127.839 96.4661 127.323 97.0391 126.953C97.6172 126.578 98.2422 126.391 98.9141 126.391C100.013 126.391 100.867 126.753 101.477 127.477C102.086 128.201 102.391 129.237 102.391 130.586V131.188H96.6641C96.6849 132.021 96.9271 132.695 97.3906 133.211C97.8594 133.721 98.4531 133.977 99.1719 133.977C99.6823 133.977 100.115 133.872 100.469 133.664C100.823 133.456 101.133 133.18 101.398 132.836L102.281 133.523C101.573 134.612 100.51 135.156 99.0938 135.156ZM98.9141 127.578C98.3307 127.578 97.8411 127.792 97.4453 128.219C97.0495 128.641 96.8047 129.234 96.7109 130H100.945V129.891C100.904 129.156 100.706 128.589 100.352 128.188C99.9974 127.781 99.5182 127.578 98.9141 127.578ZM105.438 126.547L105.484 127.609C106.13 126.797 106.974 126.391 108.016 126.391C109.802 126.391 110.703 127.398 110.719 129.414V135H109.273V129.406C109.268 128.797 109.128 128.346 108.852 128.055C108.581 127.763 108.156 127.617 107.578 127.617C107.109 127.617 106.698 127.742 106.344 127.992C105.99 128.242 105.714 128.57 105.516 128.977V135H104.07V126.547H105.438ZM116.406 135.156C115.26 135.156 114.328 134.781 113.609 134.031C112.891 133.276 112.531 132.268 112.531 131.008V130.742C112.531 129.904 112.69 129.156 113.008 128.5C113.331 127.839 113.779 127.323 114.352 126.953C114.93 126.578 115.555 126.391 116.227 126.391C117.326 126.391 118.18 126.753 118.789 127.477C119.398 128.201 119.703 129.237 119.703 130.586V131.188H113.977C113.997 132.021 114.24 132.695 114.703 133.211C115.172 133.721 115.766 133.977 116.484 133.977C116.995 133.977 117.427 133.872 117.781 133.664C118.135 133.456 118.445 133.18 118.711 132.836L119.594 133.523C118.885 134.612 117.823 135.156 116.406 135.156ZM116.227 127.578C115.643 127.578 115.154 127.792 114.758 128.219C114.362 128.641 114.117 129.234 114.023 130H118.258V129.891C118.216 129.156 118.018 128.589 117.664 128.188C117.31 127.781 116.831 127.578 116.227 127.578ZM122.953 135H121.508V126.547H122.953V135ZM121.391 124.305C121.391 124.07 121.461 123.872 121.602 123.711C121.747 123.549 121.961 123.469 122.242 123.469C122.523 123.469 122.737 123.549 122.883 123.711C123.029 123.872 123.102 124.07 123.102 124.305C123.102 124.539 123.029 124.734 122.883 124.891C122.737 125.047 122.523 125.125 122.242 125.125C121.961 125.125 121.747 125.047 121.602 124.891C121.461 124.734 121.391 124.539 121.391 124.305ZM129.359 127.844C129.141 127.807 128.904 127.789 128.648 127.789C127.701 127.789 127.057 128.193 126.719 129V135H125.273V126.547H126.68L126.703 127.523C127.177 126.768 127.849 126.391 128.719 126.391C129 126.391 129.214 126.427 129.359 126.5V127.844ZM130.156 130.695C130.156 129.867 130.318 129.122 130.641 128.461C130.969 127.799 131.422 127.289 132 126.93C132.583 126.57 133.247 126.391 133.992 126.391C135.143 126.391 136.073 126.789 136.781 127.586C137.495 128.383 137.852 129.443 137.852 130.766V130.867C137.852 131.69 137.693 132.43 137.375 133.086C137.062 133.737 136.612 134.245 136.023 134.609C135.44 134.974 134.768 135.156 134.008 135.156C132.862 135.156 131.932 134.758 131.219 133.961C130.51 133.164 130.156 132.109 130.156 130.797V130.695ZM131.609 130.867C131.609 131.805 131.826 132.557 132.258 133.125C132.695 133.693 133.279 133.977 134.008 133.977C134.742 133.977 135.326 133.69 135.758 133.117C136.19 132.539 136.406 131.732 136.406 130.695C136.406 129.768 136.185 129.018 135.742 128.445C135.305 127.867 134.721 127.578 133.992 127.578C133.279 127.578 132.703 127.862 132.266 128.43C131.828 128.997 131.609 129.81 131.609 130.867ZM144.586 132.758C144.586 132.367 144.438 132.065 144.141 131.852C143.849 131.633 143.336 131.445 142.602 131.289C141.872 131.133 141.292 130.945 140.859 130.727C140.432 130.508 140.115 130.247 139.906 129.945C139.703 129.643 139.602 129.284 139.602 128.867C139.602 128.174 139.893 127.589 140.477 127.109C141.065 126.63 141.815 126.391 142.727 126.391C143.685 126.391 144.461 126.638 145.055 127.133C145.654 127.628 145.953 128.26 145.953 129.031H144.5C144.5 128.635 144.331 128.294 143.992 128.008C143.659 127.721 143.237 127.578 142.727 127.578C142.201 127.578 141.789 127.693 141.492 127.922C141.195 128.151 141.047 128.451 141.047 128.82C141.047 129.169 141.185 129.432 141.461 129.609C141.737 129.786 142.234 129.956 142.953 130.117C143.677 130.279 144.263 130.471 144.711 130.695C145.159 130.919 145.49 131.19 145.703 131.508C145.922 131.82 146.031 132.203 146.031 132.656C146.031 133.411 145.729 134.018 145.125 134.477C144.521 134.93 143.737 135.156 142.773 135.156C142.096 135.156 141.497 135.036 140.977 134.797C140.456 134.557 140.047 134.224 139.75 133.797C139.458 133.365 139.312 132.898 139.312 132.398H140.758C140.784 132.883 140.977 133.268 141.336 133.555C141.701 133.836 142.18 133.977 142.773 133.977C143.32 133.977 143.758 133.867 144.086 133.648C144.419 133.424 144.586 133.128 144.586 132.758Z" fill="#322153"/>
</g>
<defs>
<filter id="filter0_d" x="0" y="0" width="200" height="192" filterUnits="userSpaceOnUse" color-interpolation-filters="sRGB">
<feFlood flood-opacity="0" result="BackgroundImageFix"/>
<feColorMatrix in="SourceAlpha" type="matrix" values="0 0 0 0 0 0 0 0 0 0 0 0 0 0 0 0 0 0 127 0"/>
<feOffset dy="4"/>
<feGaussianBlur stdDeviation="2"/>
<feColorMatrix type="matrix" values="0 0 0 0 0 0 0 0 0 0 0 0 0 0 0 0 0 0 0.25 0"/>
<feBlend mode="normal" in2="BackgroundImageFix" result="effect1_dropShadow"/>
<feBlend mode="normal" in="SourceGraphic" in2="effect1_dropShadow" result="shape"/>
</filter>
</defs>
</svg>
