<svg width="200" height="192" viewBox="0 0 200 192" fill="none" xmlns="http://www.w3.org/2000/svg">
<g filter="url(#filter0_d)">
<rect x="4" width="192" height="184" rx="8" fill="#F0F0F0"/>
<path d="M72.3281 123.625L76.0469 132.906L79.7656 123.625H81.7109V135H80.2109V130.57L80.3516 125.789L76.6172 135H75.4688L71.7422 125.812L71.8906 130.57V135H70.3906V123.625H72.3281ZM83.75 130.695C83.75 129.867 83.9115 129.122 84.2344 128.461C84.5625 127.799 85.0156 127.289 85.5938 126.93C86.1771 126.57 86.8411 126.391 87.5859 126.391C88.737 126.391 89.6667 126.789 90.375 127.586C91.0885 128.383 91.4453 129.443 91.4453 130.766V130.867C91.4453 131.69 91.2865 132.43 90.9688 133.086C90.6562 133.737 90.2057 134.245 89.6172 134.609C89.0339 134.974 88.362 135.156 87.6016 135.156C86.4557 135.156 85.526 134.758 84.8125 133.961C84.1042 133.164 83.75 132.109 83.75 130.797V130.695ZM85.2031 130.867C85.2031 131.805 85.4193 132.557 85.8516 133.125C86.2891 133.693 86.8724 133.977 87.6016 133.977C88.3359 133.977 88.9193 133.69 89.3516 133.117C89.7839 132.539 90 131.732 90 130.695C90 129.768 89.7786 129.018 89.3359 128.445C88.8984 127.867 88.3151 127.578 87.5859 127.578C86.8724 127.578 86.2969 127.862 85.8594 128.43C85.4219 128.997 85.2031 129.81 85.2031 130.867ZM95.2188 124.5V126.547H96.7969V127.664H95.2188V132.906C95.2188 133.245 95.2891 133.5 95.4297 133.672C95.5703 133.839 95.8099 133.922 96.1484 133.922C96.3151 133.922 96.5443 133.891 96.8359 133.828V135C96.4557 135.104 96.0859 135.156 95.7266 135.156C95.0807 135.156 94.5938 134.961 94.2656 134.57C93.9375 134.18 93.7734 133.625 93.7734 132.906V127.664H92.2344V126.547H93.7734V124.5H95.2188ZM97.9531 130.695C97.9531 129.867 98.1146 129.122 98.4375 128.461C98.7656 127.799 99.2188 127.289 99.7969 126.93C100.38 126.57 101.044 126.391 101.789 126.391C102.94 126.391 103.87 126.789 104.578 127.586C105.292 128.383 105.648 129.443 105.648 130.766V130.867C105.648 131.69 105.49 132.43 105.172 133.086C104.859 133.737 104.409 134.245 103.82 134.609C103.237 134.974 102.565 135.156 101.805 135.156C100.659 135.156 99.7292 134.758 99.0156 133.961C98.3073 133.164 97.9531 132.109 97.9531 130.797V130.695ZM99.4062 130.867C99.4062 131.805 99.6224 132.557 100.055 133.125C100.492 133.693 101.076 133.977 101.805 133.977C102.539 133.977 103.122 133.69 103.555 133.117C103.987 132.539 104.203 131.732 104.203 130.695C104.203 129.768 103.982 129.018 103.539 128.445C103.102 127.867 102.518 127.578 101.789 127.578C101.076 127.578 100.5 127.862 100.062 128.43C99.625 128.997 99.4062 129.81 99.4062 130.867ZM114.617 130.867C114.617 132.159 114.32 133.198 113.727 133.984C113.133 134.766 112.336 135.156 111.336 135.156C110.268 135.156 109.443 134.779 108.859 134.023L108.789 135H107.461V123H108.906V127.477C109.49 126.753 110.294 126.391 111.32 126.391C112.346 126.391 113.151 126.779 113.734 127.555C114.323 128.331 114.617 129.393 114.617 130.742V130.867ZM113.172 130.703C113.172 129.719 112.982 128.958 112.602 128.422C112.221 127.885 111.674 127.617 110.961 127.617C110.008 127.617 109.323 128.06 108.906 128.945V132.602C109.349 133.487 110.039 133.93 110.977 133.93C111.669 133.93 112.208 133.661 112.594 133.125C112.979 132.589 113.172 131.781 113.172 130.703ZM116.062 130.695C116.062 129.867 116.224 129.122 116.547 128.461C116.875 127.799 117.328 127.289 117.906 126.93C118.49 126.57 119.154 126.391 119.898 126.391C121.049 126.391 121.979 126.789 122.688 127.586C123.401 128.383 123.758 129.443 123.758 130.766V130.867C123.758 131.69 123.599 132.43 123.281 133.086C122.969 133.737 122.518 134.245 121.93 134.609C121.346 134.974 120.674 135.156 119.914 135.156C118.768 135.156 117.839 134.758 117.125 133.961C116.417 133.164 116.062 132.109 116.062 130.797V130.695ZM117.516 130.867C117.516 131.805 117.732 132.557 118.164 133.125C118.602 133.693 119.185 133.977 119.914 133.977C120.648 133.977 121.232 133.69 121.664 133.117C122.096 132.539 122.312 131.732 122.312 130.695C122.312 129.768 122.091 129.018 121.648 128.445C121.211 127.867 120.628 127.578 119.898 127.578C119.185 127.578 118.609 127.862 118.172 128.43C117.734 128.997 117.516 129.81 117.516 130.867ZM128.211 132.883L130.18 126.547H131.727L128.328 136.305C127.802 137.711 126.966 138.414 125.82 138.414L125.547 138.391L125.008 138.289V137.117L125.398 137.148C125.888 137.148 126.268 137.049 126.539 136.852C126.815 136.654 127.042 136.292 127.219 135.766L127.539 134.906L124.523 126.547H126.102L128.211 132.883Z" fill="#322153"/>
<path d="M114.148 39.2656C116.414 39.2656 118.25 37.4293 118.25 35.1641C118.25 32.8988 116.414 31.0625 114.148 31.0625C111.883 31.0625 110.047 32.8988 110.047 35.1641C110.047 37.4293 111.883 39.2656 114.148 39.2656Z" fill="#D5D5D3"/>
<path d="M121.766 46.2969H119.422V43.1923L114.991 37.6543L116.821 36.1895L121.509 42.0488C121.675 42.2567 121.766 42.515 121.766 42.7812V46.2969Z" fill="#D5D5D3"/>
<path d="M100.672 31.0625L98.3281 32.2344V33.4062C98.3281 34.0279 98.0812 34.624 97.6417 35.0635C97.2021 35.5031 96.606 35.75 95.9844 35.75H88.9531V24.0312H98.3281V27.5469L99.1089 28.7188L100.672 31.0625Z" fill="#FDC8A2"/>
<path d="M99.1089 28.7188H93.6406V26.375H98.3281V27.5469L99.1089 28.7188Z" fill="#FDB683"/>
<path d="M67.8594 68.5625H76.0625V75.5938H67.8594V68.5625Z" fill="#C7483C"/>
<path d="M79.5781 88.4844C84.1086 88.4844 87.7812 84.8117 87.7812 80.2812C87.7812 75.7508 84.1086 72.0781 79.5781 72.0781C75.0477 72.0781 71.375 75.7508 71.375 80.2812C71.375 84.8117 75.0477 88.4844 79.5781 88.4844Z" fill="#34507B"/>
<path d="M79.5781 83.7969C81.5198 83.7969 83.0938 82.2229 83.0938 80.2812C83.0938 78.3396 81.5198 76.7656 79.5781 76.7656C77.6365 76.7656 76.0625 78.3396 76.0625 80.2812C76.0625 82.2229 77.6365 83.7969 79.5781 83.7969Z" fill="#D5D5D3"/>
<path d="M67.8594 39.2656H81.9219C82.5435 39.2656 83.1396 39.5126 83.5792 39.9521C84.0187 40.3916 84.2656 40.9878 84.2656 41.6094V58.0156H65.5156V41.6094C65.5156 40.9878 65.7626 40.3916 66.2021 39.9521C66.6416 39.5126 67.2378 39.2656 67.8594 39.2656Z" fill="#D65246"/>
<path d="M69.0312 47.4688H71.375V54.5H69.0312V47.4688Z" fill="#DF6257"/>
<path d="M65.5156 42.7812H84.2656V45.125H65.5156V42.7812Z" fill="#C7483C"/>
<path d="M107.561 76.9079L114.877 69.5921C115.536 68.9328 115.906 68.0387 115.906 67.1063V58.0156C115.906 56.7724 116.4 55.5801 117.279 54.7011C118.158 53.822 119.351 53.3281 120.594 53.3281V59.1875C120.594 59.957 120.745 60.7189 121.04 61.4298C121.334 62.1407 121.766 62.7866 122.31 63.3307C122.854 63.8748 123.5 64.3064 124.211 64.6009C124.922 64.8953 125.684 65.0469 126.453 65.0469V69.7344H123.839C123.186 69.7344 122.54 69.8708 121.943 70.1351C121.346 70.3993 120.81 70.7854 120.371 71.2687L111.442 81.0907C111.002 81.574 110.467 81.9601 109.87 82.2243C109.272 82.4885 108.626 82.625 107.973 82.625H65.5156C65.5156 79.0078 66.7851 75.5053 69.1028 72.7282C71.4205 69.9511 74.6394 68.0755 78.1982 67.4284L78.4062 67.3906V62.7031H98.3281C98.3281 63.6789 97.9762 64.6219 97.3368 65.359C96.6975 66.0962 95.8138 66.5779 94.8478 66.7159C93.537 66.9032 92.3377 67.557 91.4702 68.5573C90.6026 69.5577 90.125 70.8374 90.125 72.1615V72.4367C90.125 73.8956 90.7046 75.2947 91.7362 76.3263C92.7678 77.3579 94.1669 77.9375 95.6258 77.9375H105.075C106.007 77.9375 106.902 77.5671 107.561 76.9079Z" fill="#D65246"/>
<path d="M77.2761 73.7736L76.377 71.6093C77.1658 71.2822 77.9872 71.0403 78.8273 70.8876L79.2464 73.1935C78.5708 73.3162 77.9103 73.5106 77.2761 73.7736Z" fill="#DF6257"/>
<path d="M72.3304 78.4483L70.2211 77.4267C71.1293 75.5531 72.5109 73.949 74.2293 72.7732L75.5521 74.7081C74.1709 75.6532 73.0605 76.9424 72.3304 78.4483Z" fill="#DF6257"/>
<path d="M99.5 26.375H93.6406V29.1582C93.6406 29.7054 93.4947 30.2428 93.2178 30.7148C92.941 31.1868 92.5432 31.5764 92.0655 31.8435C91.5879 32.1105 91.0476 32.2453 90.5005 32.2339C89.9534 32.2226 89.4192 32.0655 88.9531 31.7788C88.7919 31.68 88.6404 31.5662 88.5005 31.439C87.934 30.9279 87.5787 30.2237 87.5044 29.4644L87.2539 26.958C87.1722 26.1434 87.2622 25.3208 87.5181 24.5431C87.7739 23.7654 88.1899 23.05 88.7392 22.443C89.2885 21.836 89.959 21.3509 90.7073 21.0189C91.4557 20.6869 92.2653 20.5155 93.0839 20.5156H93.6406C95.1946 20.5156 96.6849 21.133 97.7838 22.2318C98.8826 23.3306 99.5 24.821 99.5 26.375Z" fill="#D65246"/>
<path d="M88.9531 52.1563V54.5C88.9531 55.4324 89.3235 56.3266 89.9828 56.9859C90.6421 57.6452 91.5363 58.0156 92.4688 58.0156H104.188L98.3281 73.25H104.188L109.695 59.9907C110.032 59.1802 110.176 58.3025 110.115 57.4269C110.054 56.5514 109.791 55.7019 109.346 54.9456C108.845 54.0961 108.132 53.3919 107.276 52.9027C106.42 52.4135 105.452 52.1562 104.466 52.1563H88.9531Z" fill="#7A432A"/>
<path d="M103.016 43.9531L95.9844 35.75H88.9531V52.1562H98.3281V46.2969L99.6422 47.611C100.302 48.2702 101.196 48.6406 102.128 48.6406H113.563V43.9531H103.016Z" fill="#D65246"/>
<path d="M115.906 53.3281H125.281V45.125H123.214C122.427 45.125 121.655 45.3442 120.985 45.7582C120.315 46.1722 119.774 46.7645 119.422 47.4688L115.906 48.6406V53.3281Z" fill="#D65246"/>
<path d="M133.484 80.2812C133.483 82.4047 132.658 84.4448 131.183 85.9721C129.708 87.4994 127.697 88.3947 125.575 88.4696C123.453 88.5445 121.385 87.7931 119.805 86.3736C118.226 84.954 117.259 82.9772 117.109 80.8591C116.958 78.741 117.634 76.647 118.996 75.0179C120.358 73.3888 122.299 72.3518 124.411 72.125C126.522 71.8983 128.639 72.4996 130.316 73.8023C131.993 75.105 133.099 77.0075 133.401 79.1093C133.457 79.4975 133.485 79.8891 133.484 80.2812Z" fill="#34507B"/>
<path d="M133.401 79.1094H124.109L119.469 86.0703C118.553 85.1501 117.868 84.0256 117.471 82.7892C117.075 81.5529 116.977 80.24 117.187 78.9585C117.396 77.6771 117.907 76.4637 118.677 75.4182C119.447 74.3727 120.454 73.5249 121.616 72.9445C122.777 72.3642 124.06 72.0679 125.358 72.0799C126.657 72.092 127.934 72.4122 129.084 73.014C130.235 73.6159 131.226 74.4823 131.977 75.5419C132.727 76.6016 133.215 77.8242 133.401 79.1094Z" fill="#2F486E"/>
<path d="M128.65 80.2812C128.651 81.1629 128.321 82.0129 127.725 82.6629C127.13 83.3129 126.312 83.7155 125.433 83.7912C124.555 83.8669 123.68 83.6101 122.982 83.0715C122.284 82.533 121.813 81.752 121.663 80.8832C121.513 80.0143 121.695 79.1208 122.172 78.3795C122.65 77.6382 123.388 77.1031 124.241 76.8801C125.094 76.657 126 76.7624 126.779 77.1752C127.558 77.588 128.154 78.2783 128.448 79.1093C128.583 79.4854 128.651 79.8818 128.65 80.2812Z" fill="#CECECC"/>
<path d="M128.448 79.1094H124.109L122.122 82.0904C121.868 81.6692 121.706 81.1996 121.646 80.7119C121.586 80.2243 121.628 79.7293 121.771 79.2591C121.913 78.7889 122.153 78.3538 122.474 77.9819C122.796 77.6101 123.191 77.3097 123.636 77.1003C124.08 76.8908 124.564 76.7769 125.055 76.7659C125.547 76.7549 126.035 76.847 126.488 77.0364C126.942 77.2257 127.35 77.508 127.688 77.8651C128.026 78.2222 128.285 78.6461 128.448 79.1094Z" fill="#C6C6C4"/>
<path d="M120.008 78.399L123.597 81.9879C123.799 82.1899 124.038 82.3501 124.302 82.4594C124.566 82.5688 124.849 82.625 125.135 82.625C125.42 82.625 125.703 82.5688 125.967 82.4594C126.231 82.3501 126.471 82.1899 126.673 81.9879C126.875 81.7859 127.035 81.5461 127.144 81.2822C127.254 81.0183 127.31 80.7355 127.31 80.4498C127.31 80.1642 127.254 79.8813 127.144 79.6174C127.035 79.3535 126.875 79.1137 126.673 78.9117L123.084 75.3229L120.008 78.399Z" fill="#D5D5D3"/>
<path d="M114.734 83.7969H119.422L124.109 76.7656H133.484C133.484 74.9008 132.744 73.1124 131.425 71.7938C130.106 70.4752 128.318 69.7344 126.453 69.7344H124.109C121.623 69.7344 119.238 70.7221 117.48 72.4803C115.722 74.2384 114.734 76.623 114.734 79.1094V83.7969Z" fill="#D65246"/>
<path d="M113.562 43.9531V48.6406L115.906 49.8125V52.1562H120.594V46.2969L113.562 43.9531Z" fill="#FDC8A2"/>
<path d="M115.906 53.3281C117.201 53.3281 118.25 52.2788 118.25 50.9844C118.25 49.69 117.201 48.6406 115.906 48.6406C114.612 48.6406 113.562 49.69 113.562 50.9844C113.562 52.2788 114.612 53.3281 115.906 53.3281Z" fill="#34507B"/>
<path d="M78.4062 66.2188H86.6094V68.5625H78.4062V66.2188Z" fill="#C7483C"/>
<path d="M102.731 80.2812H80.75V77.9375H105.075C106.007 77.9375 106.902 77.5671 107.561 76.9079L107.703 76.7656L105.217 79.2516C104.558 79.9109 103.664 80.2812 102.731 80.2812Z" fill="#C7483C"/>
<path d="M124.109 68.5625C121.618 68.5659 119.208 69.4498 117.305 71.0581C115.403 72.6664 114.13 74.8956 113.712 77.3516H116.098C116.501 75.5261 117.514 73.8926 118.971 72.7208C120.427 71.5489 122.24 70.9089 124.109 70.9062H126.453V68.5625H124.109Z" fill="#C7483C"/>
<path d="M95.9844 58.0156H86.6094C85.315 58.0156 84.2656 59.065 84.2656 60.3594C84.2656 61.6538 85.315 62.7031 86.6094 62.7031H95.9844C97.2788 62.7031 98.3281 61.6538 98.3281 60.3594C98.3281 59.065 97.2788 58.0156 95.9844 58.0156Z" fill="#34507B"/>
<path d="M98.3281 46.498L94.4693 42.6392L92.812 44.2963L98.3281 49.8125V46.498Z" fill="#C7483C"/>
<path d="M98.3281 73.25H105.359C105.981 73.25 106.577 73.4969 107.017 73.9365C107.456 74.376 107.703 74.9721 107.703 75.5938C107.703 76.2154 107.456 76.8115 107.017 77.251C106.577 77.6906 105.981 77.9375 105.359 77.9375H98.3281V73.25Z" fill="#D5D5D3"/>
<path d="M76.377 71.6093L77.2761 73.7739C77.9103 73.5108 78.5708 73.3163 79.2464 73.1935L78.8273 70.8876C77.9872 71.0403 77.1658 71.2822 76.377 71.6093Z" fill="black"/>
<path d="M70.2211 77.4267L72.3304 78.4483C73.0605 76.9424 74.1709 75.6532 75.5521 74.7081L74.2293 72.7732C72.5109 73.949 71.1293 75.5531 70.2211 77.4267Z" fill="black"/>
<path d="M134.656 76.7656C134.658 74.7475 133.914 72.7999 132.567 71.2966L130.821 72.8596C131.514 73.6328 131.988 74.5765 132.195 75.5938H124.109C123.916 75.5938 123.727 75.6414 123.556 75.7324C123.386 75.8234 123.241 75.955 123.134 76.1155L118.795 82.625H115.906V79.1094C115.909 76.9345 116.774 74.8495 118.312 73.3116C119.849 71.7738 121.935 70.9087 124.109 70.9062H126.453C127.606 70.9043 128.733 71.2439 129.692 71.8821L130.99 69.9304C129.978 69.2569 128.828 68.8181 127.625 68.6463V65.0469C127.625 64.7361 127.502 64.438 127.282 64.2182C127.062 63.9985 126.764 63.875 126.453 63.875C125.21 63.8736 124.019 63.3793 123.14 62.5005C122.261 61.6217 121.767 60.4303 121.766 59.1875V54.5H125.281C125.592 54.5 125.89 54.3765 126.11 54.1568C126.33 53.937 126.453 53.6389 126.453 53.3281V45.125C126.453 44.8142 126.33 44.5161 126.11 44.2964C125.89 44.0766 125.592 43.9531 125.281 43.9531H123.214C122.725 43.9539 122.237 44.021 121.766 44.1528V42.7812C121.766 42.515 121.675 42.2567 121.509 42.0488L117.675 37.2559C118.177 36.4086 118.358 35.4089 118.184 34.4395C118.01 33.47 117.492 32.5956 116.727 31.9759C115.961 31.3563 114.998 31.0328 114.014 31.0647C113.029 31.0966 112.089 31.4816 111.365 32.1495C110.641 32.8174 110.182 33.7234 110.071 34.7021C109.96 35.6808 110.205 36.6667 110.761 37.4797C111.317 38.2926 112.147 38.8784 113.1 39.1298C114.052 39.3812 115.063 39.2816 115.948 38.849L119.422 43.1923V44.6709L114.27 42.9537C113.933 42.8373 113.578 42.779 113.221 42.7812H103.555L97.9912 36.2904C98.4567 35.967 98.837 35.5358 99.0997 35.0336C99.3625 34.5314 99.4998 33.973 99.5 33.4062V32.9586L101.196 32.1106C101.345 32.0363 101.476 31.9312 101.581 31.8023C101.686 31.6735 101.762 31.5238 101.804 31.3632C101.847 31.2026 101.855 31.0348 101.828 30.8708C101.801 30.7069 101.739 30.5507 101.647 30.4124L99.7221 27.5252C99.9893 27.4736 100.23 27.3306 100.404 27.1207C100.577 26.9109 100.672 26.6472 100.672 26.375C100.67 24.5109 99.9283 22.7237 98.6101 21.4055C97.292 20.0874 95.5048 19.3459 93.6406 19.3438C91.4338 19.3438 89.3904 19.9776 87.8706 21.657C87.2121 22.3858 86.7133 23.2443 86.4062 24.1773C86.0991 25.1103 85.9905 26.0972 86.0875 27.0746L86.3382 29.5813C86.4437 30.662 86.9603 31.661 87.7812 32.3718V54.5C87.7806 55.3233 87.9982 56.132 88.4119 56.8438H86.6094C86.2101 56.8436 85.8138 56.9118 85.4375 57.0453V41.6094C85.4365 40.6773 85.0657 39.7837 84.4066 39.1246C83.7476 38.4655 82.854 38.0948 81.9219 38.0938H67.8594C66.9273 38.0948 66.0337 38.4655 65.3746 39.1246C64.7155 39.7837 64.3448 40.6773 64.3438 41.6094V47.4688H66.6875V45.125H83.0938V56.8438H66.6875V49.8125H64.3438V59.3813C64.3435 59.9303 64.536 60.4619 64.8878 60.8833C65.2395 61.3048 65.7281 61.5893 66.2683 61.6873L77.2344 63.6812V66.4312C76.2408 66.6612 75.2706 66.9824 74.336 67.3906H67.8594C67.5486 67.3906 67.2505 67.5141 67.0307 67.7339C66.811 67.9536 66.6875 68.2517 66.6875 68.5625V74.1248C65.1563 76.696 64.3467 79.6324 64.3438 82.625C64.3438 82.9358 64.4672 83.2339 64.687 83.4536C64.9068 83.6734 65.2048 83.7969 65.5156 83.7969H70.8874C71.5877 85.528 72.789 87.0105 74.3374 88.0544C75.8858 89.0983 77.7107 89.656 79.5781 89.656C81.4455 89.656 83.2704 89.0983 84.8188 88.0544C86.3672 87.0105 87.5686 85.528 88.2689 83.7969H107.973C108.789 83.7964 109.596 83.6256 110.343 83.2955C111.089 82.9653 111.759 82.483 112.309 81.8794L113.562 80.4997V83.7969C113.562 84.1077 113.686 84.4057 113.906 84.6255C114.126 84.8453 114.424 84.9688 114.734 84.9688H117.162C118.194 86.7559 119.787 88.1526 121.694 88.9423C123.6 89.732 125.714 89.8705 127.708 89.3364C129.701 88.8023 131.463 87.6253 132.719 85.9881C133.975 84.3509 134.656 82.3449 134.656 80.2812C134.657 79.3837 134.529 78.4907 134.275 77.6299C134.395 77.5204 134.491 77.3869 134.557 77.2381C134.622 77.0893 134.656 76.9283 134.656 76.7656ZM112.391 35.1641C112.391 34.8164 112.494 34.4765 112.687 34.1875C112.88 33.8984 113.155 33.6731 113.476 33.5401C113.797 33.407 114.15 33.3722 114.491 33.44C114.832 33.5079 115.146 33.6753 115.391 33.9211C115.637 34.1669 115.805 34.4801 115.872 34.8211C115.94 35.1621 115.905 35.5155 115.772 35.8367C115.639 36.1579 115.414 36.4325 115.125 36.6256C114.836 36.8188 114.496 36.9219 114.148 36.9219C113.682 36.9214 113.236 36.736 112.906 36.4065C112.576 36.0769 112.391 35.6301 112.391 35.1641ZM95.6255 76.7656C94.4778 76.7643 93.3776 76.3078 92.5661 75.4963C91.7546 74.6848 91.2982 73.5845 91.2969 72.4369C91.2969 71.2864 91.5878 70.2103 92.3545 69.3251C93.0378 68.5383 93.9813 68.0236 95.0127 67.8749C96.2579 67.6972 97.3971 67.0763 98.2214 66.1263C99.0457 65.1763 99.4996 63.9609 99.5 62.7031C99.5002 62.5491 99.47 62.3966 99.411 62.2544C99.3521 62.1121 99.2656 61.9829 99.1565 61.8742C99.3557 61.4577 99.4707 61.006 99.4951 60.545C99.5195 60.084 99.4526 59.6227 99.2984 59.1875H102.481L97.3388 72.5577C97.2145 72.8797 97.1525 73.2223 97.1562 73.5674V76.7656H95.6255ZM99.5 74.4219H105.359C105.611 74.4221 105.855 74.5031 106.057 74.653C106.259 74.8028 106.407 75.0136 106.48 75.2541C106.553 75.4946 106.546 75.7522 106.462 75.9888C106.377 76.2254 106.218 76.4285 106.009 76.5682C105.715 76.6973 105.397 76.7645 105.075 76.7656H99.5V74.4219ZM108.594 74.2168C108.361 73.6715 107.994 73.1939 107.527 72.828C107.061 72.4621 106.509 72.2198 105.924 72.1235L110.777 60.4395C111.209 59.4011 111.377 58.2723 111.268 57.1532C111.158 56.0341 110.774 54.9593 110.15 54.0241C109.526 53.0889 108.68 52.3222 107.689 51.792C106.697 51.2617 105.59 50.9843 104.466 50.9844H99.5V49.1261L99.8432 49.4693C99.952 49.5781 100.081 49.6644 100.223 49.7233C100.366 49.7822 100.518 49.8125 100.672 49.8125H112.592C112.404 50.3427 112.347 50.9103 112.424 51.4674C112.501 52.0246 112.711 52.5551 113.035 53.0144C113.36 53.4737 113.79 53.8483 114.29 54.1068C114.789 54.3654 115.344 54.5002 115.906 54.5H115.909C115.146 55.5128 114.733 56.7471 114.734 58.0156V67.1064C114.733 67.7277 114.486 68.3232 114.048 68.7636L108.594 74.2168ZM115.906 52.1562C115.674 52.1562 115.448 52.0875 115.255 51.9588C115.062 51.83 114.912 51.647 114.824 51.4328C114.735 51.2187 114.712 50.9831 114.757 50.7558C114.802 50.5284 114.914 50.3196 115.078 50.1557C115.241 49.9918 115.45 49.8802 115.678 49.835C115.905 49.7898 116.141 49.813 116.355 49.9017C116.569 49.9904 116.752 50.1406 116.881 50.3333C117.009 50.526 117.078 50.7526 117.078 50.9844C117.078 51.2951 116.954 51.5929 116.735 51.8126C116.515 52.0323 116.217 52.1559 115.906 52.1562ZM124.109 46.2969V52.1562H121.766V46.6618C122.211 46.4231 122.709 46.2978 123.214 46.2969H124.109ZM119.422 50.9844C119.422 50.4219 119.287 49.8676 119.029 49.368C118.77 48.8685 118.396 48.4383 117.936 48.1135C117.477 47.7888 116.946 47.5791 116.389 47.502C115.832 47.4248 115.265 47.4826 114.734 47.6703V45.5791L119.422 47.1415V50.9844ZM103.016 45.125H112.391V47.4688H101.157L94.4693 40.7807L92.812 42.438L97.1562 46.7822V50.9844H90.125V36.9219H95.4453L102.126 44.7159C102.236 44.8442 102.372 44.9472 102.526 45.0178C102.68 45.0885 102.847 45.125 103.016 45.125ZM89.6084 23.2297C90.6796 22.0459 92.1012 21.6875 93.6406 21.6875C94.6796 21.6888 95.6887 22.0346 96.5101 22.6708C97.3315 23.307 97.9187 24.1975 98.1799 25.2031H93.6406C93.3298 25.2031 93.0318 25.3266 92.812 25.5464C92.5922 25.7661 92.4688 26.0642 92.4688 26.375V29.1582C92.467 29.6456 92.2785 30.1137 91.942 30.4663C91.6054 30.8188 91.1466 31.0289 90.6598 31.0533C90.1731 31.0777 89.6955 30.9146 89.3254 30.5974C88.9553 30.2803 88.7209 29.8334 88.6704 29.3486L88.4196 26.842C88.351 26.1901 88.4214 25.531 88.6263 24.9083C88.8312 24.2856 89.1659 23.7134 89.6084 23.2297ZM90.5645 33.4062C91.6907 33.4051 92.7706 32.9572 93.567 32.1607C94.3634 31.3643 94.8113 30.2845 94.8125 29.1582V27.5469H97.1562C97.1562 27.7783 97.2247 28.0045 97.3531 28.197L98.9605 30.6084L97.8033 31.1867C97.6088 31.2841 97.4453 31.4337 97.3311 31.6187C97.2168 31.8037 97.1563 32.0169 97.1562 32.2344V33.4062C97.1559 33.7169 97.0323 34.0148 96.8126 34.2345C96.5929 34.4542 96.2951 34.5778 95.9844 34.5781H90.125V33.3833C90.271 33.3984 90.4177 33.4061 90.5645 33.4062ZM90.125 54.5V53.3281H104.466C105.205 53.3281 105.932 53.5105 106.584 53.8589C107.235 54.2074 107.79 54.7112 108.201 55.3257C108.611 55.9402 108.863 56.6465 108.935 57.3818C109.007 58.1171 108.896 58.8588 108.613 59.5411L103.405 72.0781H100.034L105.281 58.4363C105.35 58.2588 105.374 58.0673 105.351 57.8785C105.329 57.6896 105.261 57.509 105.154 57.3522C105.046 57.1954 104.902 57.0672 104.733 56.9786C104.565 56.89 104.378 56.8437 104.188 56.8438H92.4688C91.8474 56.843 91.2517 56.5958 90.8123 56.1565C90.3729 55.7171 90.1257 55.1214 90.125 54.5ZM86.6094 59.1875H95.9844C96.2952 59.1875 96.5932 59.311 96.813 59.5307C97.0328 59.7505 97.1562 60.0486 97.1562 60.3594C97.1562 60.6702 97.0328 60.9682 96.813 61.188C96.5932 61.4078 96.2952 61.5312 95.9844 61.5312H86.6094C86.2986 61.5312 86.0005 61.4078 85.7807 61.188C85.561 60.9682 85.4375 60.6702 85.4375 60.3594C85.4375 60.0486 85.561 59.7505 85.7807 59.5307C86.0005 59.311 86.2986 59.1875 86.6094 59.1875ZM66.6875 42.7812V41.6094C66.6878 41.2987 66.8114 41.0008 67.0311 40.7811C67.2508 40.5614 67.5487 40.4378 67.8594 40.4375H81.9219C82.2326 40.4378 82.5304 40.5614 82.7501 40.7811C82.9698 41.0008 83.0934 41.2987 83.0938 41.6094V42.7812H66.6875ZM66.6875 59.1875H83.0938V61.5312H78.5119L66.6875 59.3813V59.1875ZM70.48 69.7344C69.9713 70.1474 69.4875 70.5901 69.0312 71.0604V69.7344H70.48ZM79.5781 87.3125C78.3452 87.307 77.1351 86.9798 76.0674 86.3632C74.9997 85.7466 74.1115 84.862 73.4905 83.7969H76.4806C77.3357 84.552 78.4373 84.9688 79.5781 84.9688C80.719 84.9688 81.8205 84.552 82.6757 83.7969H85.6657C85.0447 84.862 84.1565 85.7466 83.0888 86.3632C82.0212 86.9798 80.811 87.307 79.5781 87.3125ZM110.574 80.3032C110.244 80.6653 109.843 80.9546 109.395 81.1526C108.947 81.3506 108.462 81.4529 107.973 81.4531H66.736C66.988 78.3937 68.2197 75.497 70.2482 73.193C72.2768 70.8889 74.9941 69.3002 77.997 68.6627C78.2999 68.5968 78.6089 68.5632 78.9189 68.5625H86.6094V66.2188H79.5781V63.875H96.9072C96.7086 64.3206 96.4002 64.7086 96.0108 65.0025C95.6213 65.2964 95.1637 65.4867 94.6807 65.5555C93.091 65.7841 91.6367 66.5771 90.5835 67.7896C89.4496 69.0954 88.9531 70.729 88.9531 72.437C88.9521 74.0249 89.52 75.5605 90.5539 76.7656H80.75V79.1094H105.075C106.317 79.1002 107.506 78.6077 108.39 77.7364L115.705 70.4209C116.581 69.5399 117.074 68.3489 117.078 67.1064V58.0156C117.079 57.2888 117.305 56.58 117.724 55.9865C118.144 55.3931 118.737 54.944 119.422 54.7008V59.1875C119.424 60.8486 120.013 62.4555 121.085 63.7243C122.158 64.993 123.644 65.8419 125.281 66.121V68.5625C124.554 68.5625 123.809 68.5186 123.086 68.613C120.894 68.8305 118.824 69.7275 117.167 71.1787C115.509 72.6299 114.347 74.5627 113.842 76.707L110.574 80.3032ZM124.736 77.9375H124.796L126.21 79.3521C126.456 79.5989 126.595 79.9329 126.595 80.2812C126.595 80.5411 126.518 80.7952 126.374 81.0113C126.229 81.2274 126.024 81.3958 125.784 81.4953C125.544 81.5947 125.28 81.6207 125.025 81.57C124.77 81.5193 124.536 81.3942 124.352 81.2104L123.274 80.132L124.736 77.9375ZM125.281 87.3125C124.266 87.3093 123.263 87.0874 122.341 86.6619C121.419 86.2365 120.6 85.6174 119.938 84.8469C120.124 84.7564 120.282 84.6184 120.397 84.447L121.413 82.9235C121.977 83.7511 122.792 84.376 123.737 84.7066C124.683 85.0373 125.709 85.0562 126.666 84.7607C127.623 84.4651 128.46 83.8706 129.055 83.0645C129.649 82.2583 129.969 81.2828 129.969 80.2812C129.97 79.5868 129.816 78.9009 129.516 78.2744C129.462 78.1591 129.401 78.0475 129.338 77.9375H131.912C132.286 78.9982 132.4 80.133 132.245 81.247C132.09 82.361 131.671 83.4216 131.021 84.3398C130.372 85.258 129.512 86.0072 128.513 86.5244C127.514 87.0417 126.406 87.3119 125.281 87.3125Z" fill="black"/>
<path d="M69.0312 47.4688H71.375V54.5H69.0312V47.4688Z" fill="black"/>
</g>
<defs>
<filter id="filter0_d" x="0" y="0" width="200" height="192" filterUnits="userSpaceOnUse" color-interpolation-filters="sRGB">
<feFlood flood-opacity="0" result="BackgroundImageFix"/>
<feColorMatrix in="SourceAlpha" type="matrix" values="0 0 0 0 0 0 0 0 0 0 0 0 0 0 0 0 0 0 127 0"/>
<feOffset dy="4"/>
<feGaussianBlur stdDeviation="2"/>
<feColorMatrix type="matrix" values="0 0 0 0 0 0 0 0 0 0 0 0 0 0 0 0 0 0 0.25 0"/>
<feBlend mode="normal" in2="BackgroundImageFix" result="effect1_dropShadow"/>
<feBlend mode="normal" in="SourceGraphic" in2="effect1_dropShadow" result="shape"/>
</filter>
</defs>
</svg>
