<svg width="60" height="60" viewBox="0 0 60 60" fill="none" xmlns="http://www.w3.org/2000/svg">
<path d="M60 30C60 37.4106 57.3122 44.1955 52.8588 49.429C47.3559 55.8967 39.1567 60 30 60C13.4314 60 0 46.5686 0 30C0 28.9078 0.0575391 27.8278 0.172617 26.7649C0.375938 24.867 0.75668 23.0216 1.29797 21.2461C1.54043 20.4465 1.81711 19.6604 2.12449 18.8902C3.24363 16.0873 4.77188 13.4913 6.63797 11.1796C7.32129 10.331 8.05102 9.52043 8.82363 8.75145C14.2494 3.34289 21.7335 0 30 0C38.2665 0 45.7519 3.34289 51.1775 8.75145C51.949 9.52043 52.6787 10.331 53.362 11.1796C55.2281 13.4914 56.7564 16.0861 57.8742 18.8902C58.1816 19.6603 58.4583 20.4465 58.702 21.2473C58.7375 21.3648 58.773 21.4823 58.8074 21.6012C59.2923 23.2665 59.6375 24.993 59.8274 26.7648C59.9412 27.8278 60 28.9065 60 30Z" fill="#89C6F5"/>
<path d="M60 30H0C0 26.0755 0.753047 22.3261 2.12449 18.8901H57.8743C58.227 19.7742 58.5393 20.6779 58.8074 21.6011C59.5836 24.2656 60 27.0845 60 30Z" fill="#25A272"/>
<path d="M60 30C60 34.0433 59.2004 37.9004 57.7494 41.4209C53.2567 52.3249 42.5254 60 30 60C17.4746 60 6.74332 52.3249 2.25059 41.4209C0.79957 37.9004 0 34.0433 0 30H60Z" fill="#89C6F5"/>
<path d="M57.8743 18.8901C56.3462 15.0575 54.0515 11.6155 51.1777 8.7513C50.9572 8.73536 50.7343 8.72681 50.5103 8.72681C47.7662 8.72681 45.3123 9.96231 43.6739 11.908C43.6737 11.9083 43.6735 11.9086 43.6732 11.9089C42.0334 9.96384 39.5801 8.72692 36.8368 8.72692C34.0934 8.72692 31.6398 9.96407 30.0001 11.9095C28.3604 9.96407 25.9069 8.72692 23.1634 8.72692C20.4204 8.72692 17.9674 9.96349 16.3277 11.9084C16.3276 11.9083 16.3276 11.9083 16.3275 11.9082C14.6878 9.96243 12.2339 8.72692 9.48985 8.72692C9.26579 8.72692 9.04419 8.73548 8.82376 8.75142C5.94985 11.6143 3.65392 15.0575 2.12462 18.8902C1.81724 19.6604 1.54056 20.4466 1.2981 21.2462C2.6781 24.4005 5.82622 26.6046 9.48997 26.6046C12.234 26.6046 14.6879 25.3691 16.3275 23.4234C16.3276 23.4233 16.3276 23.4233 16.3277 23.4232C17.9674 25.368 20.4205 26.6047 23.1634 26.6047C25.9069 26.6047 28.3604 25.3676 30.0001 23.4221C31.6398 25.3676 34.0934 26.6047 36.8368 26.6047C39.5802 26.6047 42.0334 25.3677 43.6732 23.4225C43.6735 23.4228 43.6737 23.4231 43.6739 23.4234C45.3123 25.3691 47.7662 26.6046 50.5103 26.6046C54.1739 26.6046 57.3222 24.4017 58.7022 21.2475C58.4584 20.4465 58.1816 19.6604 57.8743 18.8901Z" fill="#37AF57"/>
<path d="M59.8274 26.7649C58.0445 28.1878 55.6862 29.0534 53.1 29.0534C50.0094 29.0534 47.2457 27.8179 45.4004 25.8723C45.4004 25.8723 45.4004 25.8711 45.3993 25.8711C43.5527 27.8168 40.7903 29.0536 37.6997 29.0536C34.6103 29.0536 31.8466 27.8169 30.0001 25.8711C28.1536 27.8168 25.39 29.0536 22.3005 29.0536C20.7552 29.0536 19.2932 28.745 17.9842 28.1915C16.6764 27.6405 15.5242 26.8446 14.6009 25.8724C12.7543 27.8181 9.99069 29.0536 6.89999 29.0536C4.3139 29.0536 1.9555 28.1879 0.172607 26.765C0.375928 24.867 0.75667 23.0217 1.29796 21.2462C1.54042 20.4466 1.8171 19.6605 2.12448 18.8902C3.24362 16.0874 4.77187 13.4914 6.63796 11.1797C6.72491 11.1772 6.81187 11.176 6.89999 11.176C8.44534 11.176 9.90855 11.4846 11.2164 12.0369C12.5253 12.5891 13.6775 13.385 14.6009 14.3573C16.4474 12.4128 19.211 11.1761 22.3004 11.1761C25.3898 11.1761 28.1535 12.4128 30 14.3586C31.8465 12.4129 34.6101 11.1761 37.6996 11.1761C40.7902 11.1761 43.5526 12.4128 45.3991 14.3586C45.4003 14.3586 45.4003 14.3574 45.4003 14.3574C47.2457 12.4118 50.0093 11.1763 53.0999 11.1763C53.188 11.1763 53.275 11.1774 53.3619 11.1799C55.228 13.4918 56.7562 16.0864 57.8741 18.8905C58.1815 19.6606 58.4582 20.4468 58.7019 21.2476C58.7374 21.3651 58.7729 21.4827 58.8073 21.6015C59.2922 23.2665 59.6375 24.993 59.8274 26.7649Z" fill="#25A272"/>
<path d="M57.7494 41.4209C53.2567 52.325 42.5254 60 30 60C24.1629 60 18.7151 58.3335 14.1074 55.4474C13.9238 55.3348 13.7413 55.2173 13.5613 55.0984C13.0494 54.7629 12.5487 54.4115 12.0589 54.0454C11.1074 53.3352 10.1989 52.5699 9.34045 51.7519C8.58612 51.0368 7.86987 50.2813 7.19393 49.4903C5.14538 47.0964 3.46901 44.3768 2.25061 41.4209H57.7494Z" fill="#B8DDFF"/>
<path d="M31.2601 18.8399C31.2601 19.1878 31.0764 19.5305 30.7322 19.7081C27.7617 21.2447 20.1343 26.4831 15.1286 41.4207C13.9176 45.0329 12.8596 49.2133 12.0588 54.0452C10.2722 52.7117 8.63994 51.1823 7.19385 49.4901C7.7608 47.3289 8.61791 44.5137 9.86326 41.4207C13.1767 33.1847 19.2367 22.9847 29.8592 17.9558C30.2338 17.7782 30.6796 17.8553 30.9722 18.1481C31.0249 18.2007 31.0702 18.2582 31.1082 18.3182C31.2111 18.4788 31.2601 18.6599 31.2601 18.8399Z" fill="#B07364"/>
<path d="M31.1082 18.3183C28.2098 19.2588 20.1404 23.0682 13.9592 37.3799C13.3592 38.7698 12.8192 40.1179 12.3356 41.4208C10.9078 45.2633 9.96006 48.7237 9.34049 51.7518C8.58616 51.0367 7.86991 50.2812 7.19397 49.4902C7.76092 47.329 8.61803 44.5139 9.86338 41.4208C13.1769 33.1849 19.2369 22.9849 29.8593 17.9559C30.234 17.7783 30.6797 17.8555 30.9724 18.1482C31.025 18.2008 31.0702 18.2583 31.1082 18.3183Z" fill="#995248"/>
<path d="M49.2612 24.5915L48.7591 24.9441C48.7457 24.9232 47.2542 22.838 44.4048 21.4127C40.5917 19.5037 36.2828 19.6151 31.5954 21.7408C26.1513 24.2106 21.5362 32.962 18.3354 41.4208C16.3113 46.7657 14.8529 51.9943 14.1073 55.4473C13.9236 55.3347 13.7412 55.2172 13.5612 55.0983C14.2946 51.8032 15.709 46.7069 17.6913 41.4208C18.0917 40.3554 18.5142 39.2816 18.9599 38.2138C21.6378 31.7927 25.9603 23.624 31.3432 21.1824C37.4154 18.4285 41.9607 19.4975 44.7048 20.8788C47.6829 22.3764 49.1975 24.5021 49.2612 24.5915Z" fill="#EDE8E9"/>
<path d="M49.6224 24.7678V34.3188C49.6224 34.6568 49.3481 34.931 49.0103 34.931C48.6723 34.931 48.3981 34.6567 48.3981 34.3188V24.7678C48.3981 24.4299 48.6724 24.1556 49.0103 24.1556C49.3481 24.1555 49.6224 24.4299 49.6224 24.7678Z" fill="#CE508C"/>
<path d="M49.6224 27.4617H48.3979V30.8902H49.6224V27.4617Z" fill="#F1ECED"/>
<path d="M52.5919 36.1249H45.4286C45.4286 34.1474 47.0327 32.5433 49.0102 32.5433C50.9877 32.5433 52.5919 34.1474 52.5919 36.1249Z" fill="#CE508C"/>
<path d="M49.0102 32.5433C48.3673 32.5433 47.8469 34.1474 47.8469 36.1249H45.4285C45.4286 34.1474 47.0326 32.5433 49.0102 32.5433Z" fill="#B02D71"/>
<path d="M35.8776 34.6861H31.1021C30.6963 34.6861 30.3674 34.3571 30.3674 33.9514C30.3674 33.5456 30.6964 33.2168 31.1021 33.2168H35.8776C36.2834 33.2168 36.6122 33.5457 36.6122 33.9514C36.6122 34.3573 36.2834 34.6861 35.8776 34.6861Z" fill="#B8DDFF"/>
<path d="M41.143 38.2371H36.3675C35.9616 38.2371 35.6328 37.9082 35.6328 37.5025C35.6328 37.0966 35.9618 36.7678 36.3675 36.7678H41.143C41.5488 36.7678 41.8776 37.0968 41.8776 37.5025C41.8776 37.9083 41.5487 38.2371 41.143 38.2371Z" fill="#B8DDFF"/>
<path d="M33.1225 48.033H28.347C27.9411 48.033 27.6123 47.7041 27.6123 47.2984C27.6123 46.8926 27.9412 46.5637 28.347 46.5637H33.1225C33.5283 46.5637 33.8571 46.8927 33.8571 47.2984C33.8571 47.7042 33.5283 48.033 33.1225 48.033Z" fill="#89C6F5"/>
<path d="M47.6939 51.829H42.9184C42.5125 51.829 42.1837 51.5001 42.1837 51.0944C42.1837 50.6886 42.5127 50.3597 42.9184 50.3597H47.6939C48.0997 50.3597 48.4285 50.6887 48.4285 51.0944C48.4285 51.5001 48.0997 51.829 47.6939 51.829Z" fill="#89C6F5"/>
<path d="M27.6533 56.3672H22.8778C22.472 56.3672 22.1432 56.0383 22.1432 55.6326C22.1432 55.2268 22.4721 54.8979 22.8778 54.8979H27.6533C28.0592 54.8979 28.388 55.2269 28.388 55.6326C28.388 56.0382 28.059 56.3672 27.6533 56.3672Z" fill="#89C6F5"/>
<path d="M6.55105 34.7474H1.77554C1.36972 34.7474 1.04089 34.4184 1.04089 34.0127C1.04089 33.6069 1.36984 33.2781 1.77554 33.2781H6.55105C6.95687 33.2781 7.2857 33.607 7.2857 34.0127C7.2857 34.4184 6.95687 34.7474 6.55105 34.7474Z" fill="#B8DDFF"/>
<path d="M29.8774 24.0945C29.7419 24.0945 29.6179 24.0038 29.5817 23.8664C28.7602 20.7566 27.114 19.191 27.0975 19.1754C26.9742 19.0602 26.9673 18.8665 27.0823 18.7429C27.1974 18.6194 27.3907 18.6122 27.5144 18.7271C27.587 18.7946 29.3037 20.4171 30.1735 23.7099C30.2167 23.8734 30.1192 24.0408 29.9557 24.0841C29.9296 24.0911 29.9031 24.0945 29.8774 24.0945Z" fill="#F2D655"/>
<path d="M21.0618 35.727C20.8969 35.727 20.736 35.6437 20.6435 35.4929C18.9357 32.7035 15.0879 31.6923 15.0492 31.6824C14.7873 31.6154 14.629 31.3489 14.6957 31.087C14.7623 30.8251 15.0281 30.6664 15.2906 30.7331C15.4642 30.7771 19.5602 31.8476 21.4789 34.9815C21.6202 35.2122 21.5476 35.5136 21.317 35.655C21.2372 35.7037 21.1489 35.727 21.0618 35.727Z" fill="#F2D655"/>
<path d="M16.0415 49.4414C15.828 49.4414 15.618 49.3402 15.4872 49.1512C13.4835 46.2572 8.50539 45.7329 8.45535 45.7279C8.08515 45.6913 7.81492 45.3614 7.8516 44.9913C7.88816 44.6211 8.21816 44.3503 8.58812 44.3876C8.64543 44.3932 10.01 44.5328 11.6659 45.0795C13.9371 45.8292 15.5955 46.9412 16.5946 48.3846C16.8064 48.6905 16.7301 49.11 16.4243 49.3218C16.3073 49.4025 16.1736 49.4414 16.0415 49.4414Z" fill="#F2D655"/>
</svg>
