<svg width="200" height="192" viewBox="0 0 200 192" fill="none" xmlns="http://www.w3.org/2000/svg">
<g filter="url(#filter0_d)">
<rect x="4" width="192" height="184" rx="8" fill="#F0F0F0"/>
<path d="M73.3125 140.547V145H71.8125V133.625H76.0078C77.2526 133.625 78.2266 133.943 78.9297 134.578C79.638 135.214 79.9922 136.055 79.9922 137.102C79.9922 138.206 79.6458 139.057 78.9531 139.656C78.2656 140.25 77.2786 140.547 75.9922 140.547H73.3125ZM73.3125 139.32H76.0078C76.8099 139.32 77.4245 139.133 77.8516 138.758C78.2786 138.378 78.4922 137.831 78.4922 137.117C78.4922 136.44 78.2786 135.898 77.8516 135.492C77.4245 135.086 76.8385 134.875 76.0938 134.859H73.3125V139.32ZM83.25 145H81.8047V136.547H83.25V145ZM81.6875 134.305C81.6875 134.07 81.7578 133.872 81.8984 133.711C82.0443 133.549 82.2578 133.469 82.5391 133.469C82.8203 133.469 83.0339 133.549 83.1797 133.711C83.3255 133.872 83.3984 134.07 83.3984 134.305C83.3984 134.539 83.3255 134.734 83.1797 134.891C83.0339 135.047 82.8203 135.125 82.5391 135.125C82.2578 135.125 82.0443 135.047 81.8984 134.891C81.7578 134.734 81.6875 134.539 81.6875 134.305ZM86.9375 136.547L86.9844 137.609C87.6302 136.797 88.474 136.391 89.5156 136.391C91.3021 136.391 92.2031 137.398 92.2188 139.414V145H90.7734V139.406C90.7682 138.797 90.6276 138.346 90.3516 138.055C90.0807 137.763 89.6562 137.617 89.0781 137.617C88.6094 137.617 88.1979 137.742 87.8438 137.992C87.4896 138.242 87.2135 138.57 87.0156 138.977V145H85.5703V136.547H86.9375ZM96.3594 134.5V136.547H97.9375V137.664H96.3594V142.906C96.3594 143.245 96.4297 143.5 96.5703 143.672C96.7109 143.839 96.9505 143.922 97.2891 143.922C97.4557 143.922 97.6849 143.891 97.9766 143.828V145C97.5964 145.104 97.2266 145.156 96.8672 145.156C96.2214 145.156 95.7344 144.961 95.4062 144.57C95.0781 144.18 94.9141 143.625 94.9141 142.906V137.664H93.375V136.547H94.9141V134.5H96.3594ZM99.0938 140.695C99.0938 139.867 99.2552 139.122 99.5781 138.461C99.9062 137.799 100.359 137.289 100.938 136.93C101.521 136.57 102.185 136.391 102.93 136.391C104.081 136.391 105.01 136.789 105.719 137.586C106.432 138.383 106.789 139.443 106.789 140.766V140.867C106.789 141.69 106.63 142.43 106.312 143.086C106 143.737 105.549 144.245 104.961 144.609C104.378 144.974 103.706 145.156 102.945 145.156C101.799 145.156 100.87 144.758 100.156 143.961C99.4479 143.164 99.0938 142.109 99.0938 140.797V140.695ZM100.547 140.867C100.547 141.805 100.763 142.557 101.195 143.125C101.633 143.693 102.216 143.977 102.945 143.977C103.68 143.977 104.263 143.69 104.695 143.117C105.128 142.539 105.344 141.732 105.344 140.695C105.344 139.768 105.122 139.018 104.68 138.445C104.242 137.867 103.659 137.578 102.93 137.578C102.216 137.578 101.641 137.862 101.203 138.43C100.766 138.997 100.547 139.81 100.547 140.867ZM112.688 137.844C112.469 137.807 112.232 137.789 111.977 137.789C111.029 137.789 110.385 138.193 110.047 139V145H108.602V136.547H110.008L110.031 137.523C110.505 136.768 111.177 136.391 112.047 136.391C112.328 136.391 112.542 136.427 112.688 136.5V137.844ZM117.375 145.156C116.229 145.156 115.297 144.781 114.578 144.031C113.859 143.276 113.5 142.268 113.5 141.008V140.742C113.5 139.904 113.659 139.156 113.977 138.5C114.299 137.839 114.747 137.323 115.32 136.953C115.898 136.578 116.523 136.391 117.195 136.391C118.294 136.391 119.148 136.753 119.758 137.477C120.367 138.201 120.672 139.237 120.672 140.586V141.188H114.945C114.966 142.021 115.208 142.695 115.672 143.211C116.141 143.721 116.734 143.977 117.453 143.977C117.964 143.977 118.396 143.872 118.75 143.664C119.104 143.456 119.414 143.18 119.68 142.836L120.562 143.523C119.854 144.612 118.792 145.156 117.375 145.156ZM117.195 137.578C116.612 137.578 116.122 137.792 115.727 138.219C115.331 138.641 115.086 139.234 114.992 140H119.227V139.891C119.185 139.156 118.987 138.589 118.633 138.188C118.279 137.781 117.799 137.578 117.195 137.578ZM127.273 142.758C127.273 142.367 127.125 142.065 126.828 141.852C126.536 141.633 126.023 141.445 125.289 141.289C124.56 141.133 123.979 140.945 123.547 140.727C123.12 140.508 122.802 140.247 122.594 139.945C122.391 139.643 122.289 139.284 122.289 138.867C122.289 138.174 122.581 137.589 123.164 137.109C123.753 136.63 124.503 136.391 125.414 136.391C126.372 136.391 127.148 136.638 127.742 137.133C128.341 137.628 128.641 138.26 128.641 139.031H127.188C127.188 138.635 127.018 138.294 126.68 138.008C126.346 137.721 125.924 137.578 125.414 137.578C124.888 137.578 124.477 137.693 124.18 137.922C123.883 138.151 123.734 138.451 123.734 138.82C123.734 139.169 123.872 139.432 124.148 139.609C124.424 139.786 124.922 139.956 125.641 140.117C126.365 140.279 126.951 140.471 127.398 140.695C127.846 140.919 128.177 141.19 128.391 141.508C128.609 141.82 128.719 142.203 128.719 142.656C128.719 143.411 128.417 144.018 127.812 144.477C127.208 144.93 126.424 145.156 125.461 145.156C124.784 145.156 124.185 145.036 123.664 144.797C123.143 144.557 122.734 144.224 122.438 143.797C122.146 143.365 122 142.898 122 142.398H123.445C123.471 142.883 123.664 143.268 124.023 143.555C124.388 143.836 124.867 143.977 125.461 143.977C126.008 143.977 126.445 143.867 126.773 143.648C127.107 143.424 127.273 143.128 127.273 142.758Z" fill="#322153"/>
<path d="M132.793 59.4961C133.301 59.7981 133.676 60.2819 133.841 60.8497C134.007 61.4175 133.95 62.0269 133.684 62.5547L133.449 63.0351C133.305 63.3243 133.102 63.5803 132.853 63.7869C132.605 63.9936 132.316 64.1464 132.005 64.2356C131.695 64.3248 131.369 64.3486 131.049 64.3053C130.728 64.2621 130.42 64.1528 130.145 63.9844L128.797 63.1758L100.707 46.2656C100.342 46.0466 99.9252 45.9309 99.5 45.9309C99.0747 45.9309 98.6575 46.0466 98.2929 46.2656L70.2031 63.1758L68.8554 63.9844C68.5796 64.1528 68.2717 64.2621 67.9514 64.3053C67.6311 64.3486 67.3053 64.3248 66.9946 64.2356C66.6839 64.1464 66.3952 63.9936 66.1467 63.7869C65.8981 63.5803 65.6952 63.3243 65.5508 63.0351L65.3164 62.5547C65.0496 62.0269 64.9931 61.4175 65.1585 60.8497C65.3238 60.2819 65.6986 59.7981 66.207 59.4961L98.2929 40.2422C98.6575 40.0232 99.0747 39.9075 99.5 39.9075C99.9252 39.9075 100.342 40.0232 100.707 40.2422L119.41 51.4687L128.797 57.0937L132.793 59.4961Z" fill="#FF3051"/>
<path d="M133.684 62.5547L133.449 63.0351C133.305 63.3243 133.102 63.5803 132.853 63.7869C132.605 63.9936 132.316 64.1464 132.005 64.2356C131.695 64.3248 131.369 64.3486 131.049 64.3053C130.728 64.2621 130.42 64.1528 130.145 63.9844L128.797 63.1758L128.715 63.1172C128.735 63.0925 128.751 63.0648 128.762 63.0351L128.996 62.5547C129.263 62.0269 129.319 61.4175 129.154 60.8497C128.989 60.2819 128.614 59.7981 128.105 59.4961L124.109 57.0937L114.723 51.4687L97.1562 40.9219L98.293 40.2422C98.6575 40.0232 99.0747 39.9075 99.5 39.9075C99.9253 39.9075 100.343 40.0232 100.707 40.2422L119.41 51.4687L128.797 57.0937L132.793 59.4961C133.301 59.7981 133.676 60.2819 133.841 60.8497C134.007 61.4175 133.95 62.0269 133.684 62.5547Z" fill="#CD2A00"/>
<path d="M131.141 41.8594C131.136 42.4796 130.888 43.073 130.449 43.5116C130.011 43.9501 129.417 44.1985 128.797 44.2031H119.41C118.791 44.2 118.197 43.9517 117.76 43.5125C117.323 43.0733 117.078 42.479 117.078 41.8594C117.083 41.2392 117.331 40.6457 117.77 40.2072C118.208 39.7686 118.802 39.5202 119.422 39.5156H128.797C129.418 39.5175 130.013 39.765 130.452 40.2041C130.891 40.6433 131.139 41.2383 131.141 41.8594Z" fill="#FF3051"/>
<path d="M131.141 41.8594C131.136 42.4796 130.888 43.073 130.449 43.5116C130.011 43.9501 129.417 44.1985 128.797 44.2031H124.109C124.73 44.1985 125.323 43.9501 125.762 43.5116C126.2 43.073 126.449 42.4796 126.453 41.8594C126.451 41.2383 126.204 40.6433 125.765 40.2041C125.325 39.765 124.73 39.5175 124.109 39.5156H128.797C129.418 39.5175 130.013 39.765 130.452 40.2041C130.891 40.6433 131.139 41.2383 131.141 41.8594Z" fill="#CD2A00"/>
<path d="M70.2031 102.797V63.1758L98.293 46.2656C98.6575 46.0466 99.0747 45.9309 99.5 45.9309C99.9253 45.9309 100.343 46.0466 100.707 46.2656L128.797 63.1758V102.797H70.2031Z" fill="#E0E0E2"/>
<path d="M128.797 63.1758V102.797H124.109V63.1758L97.1562 46.9453L98.293 46.2656C98.6575 46.0466 99.0747 45.9309 99.5 45.9309C99.9253 45.9309 100.343 46.0466 100.707 46.2656L128.797 63.1758Z" fill="#C6C5CA"/>
<path d="M128.797 44.2031V57.0938L119.41 51.4688V44.2031H119.422H128.797Z" fill="#C0AB91"/>
<path d="M128.797 44.2031V57.0938L124.109 54.2812V44.2031H128.797Z" fill="#A78966"/>
<path d="M131.141 102.797C131.762 102.799 132.357 103.046 132.796 103.485C133.235 103.925 133.483 104.52 133.484 105.141C133.48 105.761 133.231 106.354 132.793 106.793C132.354 107.231 131.761 107.48 131.141 107.484H117.078V102.797H131.141Z" fill="#806749"/>
<path d="M117.078 102.797V107.484H110.047V102.797V93.4219H113.562H117.078V102.797Z" fill="#898890"/>
<path d="M117.078 71.1562V73.5H112.391V68.8125H117.078V71.1562Z" fill="#898890"/>
<path d="M112.391 73.5V74.6719C112.389 75.2929 112.141 75.888 111.702 76.3271C111.263 76.7662 110.668 77.0138 110.047 77.0156H105.359V65.2969H110.047C110.668 65.2987 111.263 65.5463 111.702 65.9854C112.141 66.4245 112.389 67.0196 112.391 67.6406V73.5Z" fill="#C6C5CA"/>
<path d="M110.047 102.797V107.484H67.8594C67.2383 107.483 66.6433 107.235 66.2041 106.796C65.765 106.357 65.5175 105.762 65.5156 105.141C65.5202 104.52 65.7686 103.927 66.2072 103.488C66.6457 103.05 67.2392 102.801 67.8594 102.797H110.047Z" fill="#806749"/>
<path d="M105.359 77.0156V78.1875C105.359 79.1199 104.989 80.0141 104.33 80.6734C103.67 81.3327 102.776 81.7031 101.844 81.7031C100.911 81.7031 100.017 81.3327 99.3578 80.6734C98.6985 80.0141 98.3281 79.1199 98.3281 78.1875V74.6719C98.3263 74.0508 98.0787 73.4558 97.6396 73.0166C97.2005 72.5775 96.6054 72.33 95.9844 72.3281C95.3642 72.3327 94.7707 72.5811 94.3322 73.0197C93.8936 73.4582 93.6452 74.0517 93.6406 74.6719V87.5625C93.6406 88.4949 93.2702 89.3891 92.6109 90.0484C91.9516 90.7077 91.0574 91.0781 90.125 91.0781C89.1926 91.0781 88.2984 90.7077 87.6391 90.0484C86.9798 89.3891 86.6094 88.4949 86.6094 87.5625V65.2969H105.359V77.0156Z" fill="#FEE9AB"/>
<path d="M92.4688 72.3281C92.8027 72.3282 93.1327 72.4005 93.4362 72.54C93.7396 72.6796 94.0092 72.8832 94.2266 73.1367C93.8452 73.5566 93.636 74.1047 93.6406 74.6719V87.5625C93.641 88.1798 93.4789 88.7863 93.1705 89.3211C92.8621 89.8559 92.4183 90.3 91.8838 90.6088C91.3493 90.9176 90.7429 91.0803 90.1256 91.0804C89.5083 91.0805 88.9018 90.918 88.3672 90.6094C88.902 90.3006 89.346 89.8565 89.6546 89.3216C89.9631 88.7867 90.1254 88.18 90.125 87.5625V74.6719C90.1296 74.0517 90.378 73.4582 90.8166 73.0197C91.2551 72.5811 91.8486 72.3327 92.4688 72.3281Z" fill="#FFDE55"/>
<path d="M105.359 65.2969V78.1875C105.36 78.8048 105.198 79.4113 104.889 79.9461C104.581 80.4809 104.137 80.925 103.603 81.2338C103.068 81.5426 102.462 81.7053 101.844 81.7054C101.227 81.7055 100.621 81.543 100.086 81.2344C100.621 80.9256 101.065 80.4815 101.373 79.9466C101.682 79.4117 101.844 78.805 101.844 78.1875V65.2969H105.359Z" fill="#FFDE55"/>
<path d="M98.3281 74.6719V77.0156H93.6406V74.6719C93.6452 74.0517 93.8936 73.4582 94.3322 73.0197C94.7707 72.5811 95.3642 72.3327 95.9844 72.3281C96.6054 72.33 97.2005 72.5775 97.6396 73.0166C98.0787 73.4558 98.3263 74.0508 98.3281 74.6719Z" fill="#C6C5CA"/>
<path d="M86.6094 65.2969V77.0156H84.2656C83.6446 77.0138 83.0495 76.7662 82.6104 76.3271C82.1713 75.888 81.9237 75.2929 81.9219 74.6719V67.6406C81.9237 67.0196 82.1713 66.4245 82.6104 65.9854C83.0495 65.5463 83.6446 65.2987 84.2656 65.2969H86.6094Z" fill="#C6C5CA"/>
<path d="M77.2344 68.8125H81.9219V73.5H77.2344V68.8125Z" fill="#898890"/>
<path d="M132.324 65.3555C132.792 65.2231 133.226 64.9941 133.6 64.6832C133.973 64.3723 134.277 63.9865 134.492 63.5508L134.738 63.0703C135.127 62.2775 135.205 61.3681 134.958 60.5204C134.711 59.6728 134.156 58.948 133.402 58.4883L129.969 56.4258V45.1641C130.744 44.8828 131.395 44.3382 131.809 43.6252C132.224 42.9123 132.374 42.0765 132.234 41.2639C132.095 40.4514 131.674 39.7137 131.046 39.1799C130.417 38.6461 129.621 38.3501 128.797 38.3438H119.422C118.49 38.3465 117.598 38.7178 116.939 39.3765C116.28 40.0352 115.909 40.9278 115.906 41.8594C115.906 42.5821 116.131 43.2871 116.548 43.8769C116.966 44.4667 117.556 44.9124 118.238 45.1523V49.3945L101.305 39.2344C100.76 38.9066 100.136 38.7335 99.5 38.7335C98.8641 38.7335 98.2402 38.9066 97.6953 39.2344L65.5976 58.4883C64.8438 58.948 64.289 59.6728 64.0418 60.5204C63.7947 61.3681 63.8731 62.2775 64.2617 63.0703L64.5078 63.5508C64.7228 63.9865 65.0268 64.3723 65.4003 64.6832C65.7737 64.9941 66.2082 65.2231 66.6758 65.3555C66.9915 65.4489 67.3191 65.4962 67.6484 65.4961C68.1259 65.4846 68.5962 65.377 69.0312 65.1797V101.625H67.8594C66.927 101.625 66.0327 101.995 65.3734 102.655C64.7141 103.314 64.3437 104.208 64.3437 105.141C64.3437 106.073 64.7141 106.967 65.3734 107.627C66.0327 108.286 66.927 108.656 67.8594 108.656H131.141C132.073 108.656 132.967 108.286 133.627 107.627C134.286 106.967 134.656 106.073 134.656 105.141C134.656 104.208 134.286 103.314 133.627 102.655C132.967 101.995 132.073 101.625 131.141 101.625H129.969V65.1914C130.709 65.5259 131.545 65.5841 132.324 65.3555ZM119.422 40.6875H128.797C129.108 40.6875 129.406 40.811 129.625 41.0307C129.845 41.2505 129.969 41.5486 129.969 41.8594C129.969 42.1702 129.845 42.4682 129.625 42.688C129.406 42.9078 129.108 43.0312 128.797 43.0312H119.422C119.111 43.0312 118.813 42.9078 118.593 42.688C118.373 42.4682 118.25 42.1702 118.25 41.8594C118.25 41.5486 118.373 41.2505 118.593 41.0307C118.813 40.811 119.111 40.6875 119.422 40.6875ZM127.625 45.375V55.0195L120.582 50.8008V45.375H127.625ZM108.875 106.312H67.8594C67.5486 106.312 67.2505 106.189 67.0307 105.969C66.8109 105.749 66.6875 105.451 66.6875 105.141C66.6875 104.83 66.8109 104.532 67.0307 104.312C67.2505 104.092 67.5486 103.969 67.8594 103.969H108.875V106.312ZM115.906 106.312H111.219V94.5938H115.906V106.312ZM117.078 92.25H114.734V85.2539C114.736 85.0665 114.781 84.882 114.867 84.7152C114.952 84.5484 115.075 84.4038 115.227 84.293L121.461 79.8398C121.918 79.5158 122.29 79.0871 122.547 78.5896C122.804 78.0921 122.938 77.5404 122.937 76.9805V73.5C122.935 72.5685 122.563 71.6759 121.905 71.0172C121.246 70.3584 120.353 69.9872 119.422 69.9844H118.25V68.8125C118.25 68.5017 118.127 68.2036 117.907 67.9839C117.687 67.7641 117.389 67.6406 117.078 67.6406H113.562C113.56 66.7091 113.188 65.8165 112.53 65.1578C111.871 64.4991 110.978 64.1278 110.047 64.125H84.2656C83.3341 64.1278 82.4415 64.4991 81.7828 65.1578C81.124 65.8165 80.7528 66.7091 80.75 67.6406H77.2344C76.9236 67.6406 76.6255 67.7641 76.4057 67.9839C76.1859 68.2036 76.0625 68.5017 76.0625 68.8125V73.5C76.0625 73.8108 76.1859 74.1089 76.4057 74.3286C76.6255 74.5484 76.9236 74.6719 77.2344 74.6719H80.75C80.7528 75.6034 81.124 76.496 81.7828 77.1547C82.4415 77.8134 83.3341 78.1847 84.2656 78.1875H85.4375V87.5625C85.4375 88.8057 85.9313 89.998 86.8104 90.8771C87.6895 91.7561 88.8818 92.25 90.125 92.25C91.3682 92.25 92.5605 91.7561 93.4395 90.8771C94.3186 89.998 94.8125 88.8057 94.8125 87.5625V78.1875H97.1562C97.1562 79.4307 97.6501 80.623 98.5292 81.5021C99.4082 82.3811 100.601 82.875 101.844 82.875C103.087 82.875 104.279 82.3811 105.158 81.5021C106.037 80.623 106.531 79.4307 106.531 78.1875H110.047C110.978 78.1847 111.871 77.8134 112.53 77.1547C113.188 76.496 113.56 75.6034 113.562 74.6719H117.078C117.389 74.6719 117.687 74.5484 117.907 74.3286C118.127 74.1089 118.25 73.8108 118.25 73.5V72.3281H119.422C119.733 72.3281 120.031 72.4516 120.25 72.6714C120.47 72.8911 120.594 73.1892 120.594 73.5V76.9805C120.592 77.1679 120.547 77.3523 120.461 77.5192C120.376 77.686 120.253 77.8306 120.102 77.9414L113.867 82.3945C113.411 82.7186 113.038 83.1473 112.781 83.6447C112.524 84.1422 112.39 84.694 112.391 85.2539V92.25H110.047C109.736 92.25 109.438 92.3735 109.218 92.5932C108.998 92.813 108.875 93.1111 108.875 93.4219V101.625H71.375V63.8438L98.8906 47.2734C99.0751 47.1641 99.2855 47.1064 99.5 47.1064C99.7144 47.1064 99.9249 47.1641 100.109 47.2734L127.625 63.8438V101.625H118.25V93.4219C118.25 93.1111 118.127 92.813 117.907 92.5932C117.687 92.3735 117.389 92.25 117.078 92.25ZM115.906 69.9844V72.3281H113.562V69.9844H115.906ZM111.219 67.6406V74.6719C111.219 74.9827 111.095 75.2807 110.875 75.5005C110.656 75.7203 110.358 75.8438 110.047 75.8438H106.531V66.4688H110.047C110.358 66.4688 110.656 66.5922 110.875 66.812C111.095 67.0318 111.219 67.3298 111.219 67.6406ZM95.9844 71.1562C95.0528 71.159 94.1602 71.5303 93.5015 72.189C92.8428 72.8477 92.4715 73.7403 92.4687 74.6719V87.5625C92.4687 88.1841 92.2218 88.7802 91.7823 89.2198C91.3427 89.6593 90.7466 89.9062 90.125 89.9062C89.5034 89.9062 88.9072 89.6593 88.4677 89.2198C88.0282 88.7802 87.7812 88.1841 87.7812 87.5625V66.4688H104.187V78.1875C104.187 78.8091 103.941 79.4052 103.501 79.8448C103.061 80.2843 102.465 80.5312 101.844 80.5312C101.222 80.5312 100.626 80.2843 100.186 79.8448C99.7469 79.4052 99.5 78.8091 99.5 78.1875V74.6719C99.4972 73.7403 99.1259 72.8477 98.4672 72.189C97.8085 71.5303 96.9159 71.159 95.9844 71.1562ZM97.1562 74.6719V75.8438H94.8125V74.6719C94.8125 74.3611 94.9359 74.063 95.1557 73.8432C95.3755 73.6235 95.6736 73.5 95.9844 73.5C96.2952 73.5 96.5932 73.6235 96.813 73.8432C97.0328 74.063 97.1562 74.3611 97.1562 74.6719ZM85.4375 66.4688V75.8438H84.2656C83.9548 75.8438 83.6567 75.7203 83.437 75.5005C83.2172 75.2807 83.0937 74.9827 83.0937 74.6719V67.6406C83.0937 67.3298 83.2172 67.0318 83.437 66.812C83.6567 66.5922 83.9548 66.4688 84.2656 66.4688H85.4375ZM80.75 69.9844V72.3281H78.4062V69.9844H80.75ZM131.141 103.969C131.451 103.969 131.749 104.092 131.969 104.312C132.189 104.532 132.312 104.83 132.312 105.141C132.312 105.451 132.189 105.749 131.969 105.969C131.749 106.189 131.451 106.312 131.141 106.312H118.25V103.969H131.141ZM101.316 45.2695C100.769 44.9361 100.141 44.7598 99.5 44.7598C98.8592 44.7598 98.2308 44.9361 97.6836 45.2695L68.2578 62.9883C68.1177 63.0706 67.9623 63.1235 67.8011 63.1436C67.6399 63.1638 67.4763 63.1508 67.3203 63.1055C67.1657 63.0619 67.0222 62.9861 66.899 62.8831C66.7758 62.7801 66.6757 62.6522 66.6054 62.5078L66.3594 62.0273C66.2312 61.7616 66.2059 61.4578 66.288 61.1745C66.3702 60.8911 66.5542 60.6481 66.8047 60.4922L98.9023 41.2383C99.0832 41.131 99.2897 41.0744 99.5 41.0744C99.7103 41.0744 99.9167 41.131 100.098 41.2383L132.195 60.4922C132.446 60.6481 132.63 60.8911 132.712 61.1745C132.794 61.4578 132.769 61.7616 132.641 62.0273L132.395 62.5078C132.324 62.6522 132.224 62.7801 132.101 62.8831C131.978 62.9861 131.834 63.0619 131.68 63.1055C131.524 63.1508 131.36 63.1638 131.199 63.1436C131.038 63.1235 130.882 63.0706 130.742 62.9883L101.316 45.2695Z" fill="black"/>
</g>
<defs>
<filter id="filter0_d" x="0" y="0" width="200" height="192" filterUnits="userSpaceOnUse" color-interpolation-filters="sRGB">
<feFlood flood-opacity="0" result="BackgroundImageFix"/>
<feColorMatrix in="SourceAlpha" type="matrix" values="0 0 0 0 0 0 0 0 0 0 0 0 0 0 0 0 0 0 127 0"/>
<feOffset dy="4"/>
<feGaussianBlur stdDeviation="2"/>
<feColorMatrix type="matrix" values="0 0 0 0 0 0 0 0 0 0 0 0 0 0 0 0 0 0 0.25 0"/>
<feBlend mode="normal" in2="BackgroundImageFix" result="effect1_dropShadow"/>
<feBlend mode="normal" in="SourceGraphic" in2="effect1_dropShadow" result="shape"/>
</filter>
</defs>
</svg>
