<svg width="60" height="60" viewBox="0 0 60 60" fill="none" xmlns="http://www.w3.org/2000/svg">
<path d="M2.10464 23.7305C1.3571 23.7305 0.805735 23.0235 0.997102 22.3008C1.99589 18.5285 3.71117 15.0476 5.98835 12.0125C6.02527 11.9633 6.22495 11.9142 6.2621 11.8652C6.55659 11.4777 6.783 11.2782 7.09566 10.9057C7.14183 10.8506 7.10304 10.615 7.14968 10.5602C12.6525 4.09852 20.8475 0 30 0C43.9122 0 55.6127 9.47004 59.0067 22.3155C59.1957 23.0309 58.6504 23.7305 57.9106 23.7305H2.10464Z" fill="#40C1FA"/>
<path d="M11.5979 23.7305C10.998 23.7305 10.5556 23.163 10.7091 22.5832C13.4368 12.2811 22.823 4.6875 33.9829 4.6875C45.1471 4.6875 54.5363 12.2869 57.26 22.595C57.4116 23.169 56.9741 23.7305 56.3804 23.7305H11.5979Z" fill="#72D1FB"/>
<path d="M27.0703 14.8542H18.434C17.4632 14.8542 16.6761 14.0671 16.6761 13.0964C16.6761 12.1256 17.4632 11.3386 18.434 11.3386H27.0703C28.0411 11.3386 28.8281 12.1256 28.8281 13.0964C28.8281 14.0671 28.0411 14.8542 27.0703 14.8542ZM48.6914 14.297C48.6914 13.3262 47.9044 12.5391 46.9336 12.5391H40.5042C39.5334 12.5391 38.7464 13.3262 38.7464 14.297C38.7464 15.2677 39.5334 16.0548 40.5042 16.0548H46.9336C47.9044 16.0548 48.6914 15.2677 48.6914 14.297ZM39.863 5.54785C39.1705 5.54785 38.6091 4.98652 38.6091 4.29395V3.79004C38.6091 2.81926 37.822 2.03223 36.8513 2.03223H34.2383C33.2676 2.03223 32.4805 2.81926 32.4805 3.79004V4.29395C32.4805 4.98641 31.9192 5.54785 31.2266 5.54785C30.2558 5.54785 29.4688 6.33488 29.4688 7.30566C29.4688 8.27644 30.2558 9.06348 31.2266 9.06348H39.8631C40.8339 9.06348 41.6209 8.27644 41.6209 7.30566C41.6208 6.33477 40.8338 5.54785 39.863 5.54785Z" fill="#93DCFC"/>
<path d="M1.00652 22.2656H58.9935C59.6501 24.7331 60 27.3257 60 30C60 31.3316 59.9133 32.6429 59.7451 33.9287C59.5656 35.3009 58.3978 36.3281 57.0138 36.3281H1.55145C1.03523 36.3281 0.58793 35.9621 0.494648 35.4544C0.169805 33.6857 0 31.8627 0 30C0 27.3257 0.349922 24.7331 1.00652 22.2656V22.2656Z" fill="#FFE7C0"/>
<path d="M5.18426 36.3281H1.55145C1.03523 36.3281 0.58793 35.9621 0.494648 35.4544C0.169805 33.6857 0 31.8627 0 30C0 27.3257 0.349922 24.7331 1.00652 22.2656H4.63934C3.98273 24.7331 3.63281 27.3257 3.63281 30C3.63281 31.8627 3.80262 33.6857 4.12746 35.4544C4.22074 35.9621 4.66793 36.3281 5.18426 36.3281V36.3281Z" fill="#FFD993"/>
<path d="M21.9726 13.8368V35.4492C21.9726 35.9347 21.5791 36.3281 21.0937 36.3281C20.6083 36.3281 20.2148 35.9347 20.2148 35.4492V13.8368C20.2148 11.6997 18.4761 9.96095 16.339 9.96095C16.2692 9.96095 15.6266 9.95286 15.5614 9.93751C15.1738 9.84599 14.8853 9.49782 14.8853 9.08204C14.8853 8.67458 15.1624 8.33204 15.5385 8.23243C15.6105 8.21333 16.2582 8.20044 16.3361 8.20044C19.4427 8.20044 21.9726 10.7304 21.9726 13.8368V13.8368Z" fill="#0A4499"/>
<path d="M8.20313 13.8367V35.4492C8.20313 35.9347 7.80961 36.3281 7.32422 36.3281C6.83883 36.3281 6.44532 35.9347 6.44532 35.4492V13.8367C6.44532 13.1776 6.27985 12.5565 5.9884 12.0125C6.36071 11.5163 6.74801 11.032 7.14973 10.5603C7.81254 11.4841 8.20313 12.6157 8.20313 13.8367V13.8367Z" fill="#0A4499"/>
<path d="M2.94907 42.9869C1.80086 40.5997 0.959341 38.0371 0.475708 35.3502C1.72305 35.246 2.91637 34.8811 4.02473 34.2962C7.61758 32.4004 11.9581 32.3167 15.5316 34.2485C16.882 34.9785 18.3609 35.3811 19.9114 35.3811C21.4618 35.3811 22.9407 34.9786 24.291 34.2486C27.8334 32.3338 32.1666 32.3338 35.7089 34.2486C37.0593 34.9786 38.5382 35.3811 40.0886 35.3811C41.639 35.3811 43.118 34.9786 44.4684 34.2485C48.042 32.3167 52.3825 32.4002 55.9752 34.2962C57.0836 34.8811 53.5321 43.5948 52.2432 43.3705C49.6114 42.9124 46.8671 43.3011 44.4682 44.5978C43.1179 45.3278 41.639 45.7304 40.0885 45.7304C38.5381 45.7304 37.0592 45.3279 35.7088 44.5979C32.1665 42.6831 27.8332 42.6831 24.2909 44.5979C22.9406 45.3279 21.4616 45.7304 19.9113 45.7304C18.3609 45.7304 16.8818 45.3279 15.5315 44.5978C12.4275 42.9199 8.74504 42.7624 5.47645 43.9923C4.98192 44.1785 3.23395 43.5792 2.94907 42.9869V42.9869Z" fill="#2476ED"/>
<path d="M7.30542 49.621C5.57632 47.6229 4.10667 45.3941 2.94897 42.9868C3.30815 42.8499 3.66007 42.6908 4.00378 42.5103C7.62183 40.612 11.9602 40.5361 15.5607 42.4673C16.9032 43.1874 18.372 43.5842 19.9114 43.5842C21.4618 43.5842 22.9407 43.1817 24.2909 42.4517C27.8621 40.5213 32.1378 40.5213 35.709 42.4517C37.0593 43.1817 38.5381 43.5842 40.0885 43.5842C41.6389 43.5842 43.1179 43.1817 44.4683 42.4516C46.5073 41.3493 48.796 40.9032 51.053 41.0755C52.7517 41.2052 54.4324 41.6851 55.9753 42.4992C56.3257 42.6841 49.6453 50.2687 48.5039 50.4209C47.1071 50.6073 45.7392 51.0393 44.4683 51.7264C43.1179 52.4564 41.639 52.859 40.0885 52.859C38.5381 52.859 37.0592 52.4565 35.709 51.7265C32.1378 49.7961 27.8621 49.7961 24.2909 51.7265C22.9406 52.4565 21.4618 52.859 19.9114 52.859C18.361 52.859 16.882 52.4565 15.5316 51.7264C13.5124 50.6348 11.2482 50.1868 9.01249 50.3456C8.3621 50.3919 7.7321 50.114 7.30542 49.621V49.621Z" fill="#0956C6"/>
<path d="M17.0595 9.08203C17.0595 9.56754 16.6659 9.96094 16.1805 9.96094C14.0434 9.96094 12.3047 11.6996 12.3047 13.8368V22.2656H10.5469V13.8368C10.5469 10.7304 13.0741 8.20312 16.1805 8.20312C16.6659 8.20312 17.0595 8.59652 17.0595 9.08203Z" fill="#0A3575"/>
<path d="M22.1191 26.8066C22.1191 27.292 21.7256 27.6855 21.2402 27.6855H7.76367C7.27828 27.6855 6.88477 27.292 6.88477 26.8066C6.88477 26.3212 7.27828 25.9277 7.76367 25.9277H21.2402C21.7256 25.9277 22.1191 26.3212 22.1191 26.8066ZM21.0938 29.8828H7.61719C7.1318 29.8828 6.73828 30.2763 6.73828 30.7617C6.73828 31.2471 7.1318 31.6406 7.61719 31.6406H21.0938C21.5791 31.6406 21.9727 31.2471 21.9727 30.7617C21.9727 30.2763 21.5791 29.8828 21.0938 29.8828ZM7.91016 23.7305H21.3867C21.8721 23.7305 22.2656 23.337 22.2656 22.8516C22.2656 22.3662 21.8721 21.9727 21.3867 21.9727H7.91016C7.42477 21.9727 7.03125 22.3662 7.03125 22.8516C7.03125 23.337 7.42477 23.7305 7.91016 23.7305ZM8.05664 19.7754H20.3613C20.8467 19.7754 21.2402 19.3819 21.2402 18.8965C21.2402 18.4111 20.8467 18.0176 20.3613 18.0176H8.05664C7.57125 18.0176 7.17773 18.4111 7.17773 18.8965C7.17773 19.3819 7.57125 19.7754 8.05664 19.7754Z" fill="#0A66EA"/>
<path d="M59.7592 33.8191C58.1474 22.7766 48.6382 14.2969 37.1484 14.2969C24.5278 14.2969 14.2969 24.5278 14.2969 37.1484C14.2969 48.6382 22.7766 58.1474 33.8191 59.7592C47.3337 58.042 58.042 47.3337 59.7592 33.8191V33.8191ZM37.1484 28.0664C42.1643 28.0664 46.2305 32.1326 46.2305 37.1484C46.2305 42.1643 42.1643 46.2305 37.1484 46.2305C32.1326 46.2305 28.0664 42.1643 28.0664 37.1484C28.0664 32.1326 32.1326 28.0664 37.1484 28.0664V28.0664Z" fill="#FFC14F"/>
<path d="M33.8191 59.7592C22.7766 58.1474 14.2969 48.6382 14.2969 37.1484C14.2969 29.19 18.3652 22.1819 24.5355 18.0902C22.1385 21.7049 20.7422 26.0409 20.7422 30.7031C20.7422 43.3237 30.9731 53.5547 43.5938 53.5547C45.6452 53.5547 47.6334 53.2843 49.525 52.7772C45.1881 56.4984 39.7763 59.0022 33.8191 59.7592V59.7592Z" fill="#FFA90B"/>
<path d="M51.6797 23.9452C51.5986 24.6528 51.1213 25.5462 50.3516 25.8202C48.735 26.3957 47.2364 23.7376 43.6329 21.2889C39.3822 18.4006 35.9445 18.3462 36.0547 17.5389C36.1645 16.7341 39.6487 16.2915 42.6172 16.8358C46.1257 17.4792 48.2284 19.3756 49.5703 20.5858C51.7427 22.5452 51.721 23.5848 51.6797 23.9452V23.9452Z" fill="#FFD993"/>
<path d="M52.7718 49.5313C47.2698 55.9402 39.109 60 29.9999 60C20.8908 60 12.73 55.9402 7.22803 49.5313C10.0183 48.9213 12.9717 49.271 15.5316 50.6548C16.8819 51.3847 18.3608 51.7874 19.9113 51.7874C21.4617 51.7874 22.9406 51.3848 24.291 50.6549C27.8333 48.74 32.1666 48.74 35.7089 50.6549C37.0593 51.3848 38.5382 51.7874 40.0886 51.7874C41.639 51.7874 43.118 51.3848 44.4683 50.6548C47.0282 49.271 49.9815 48.9213 52.7718 49.5313V49.5313Z" fill="#2476ED"/>
</svg>
