<svg width="60" height="60" viewBox="0 0 60 60" fill="none" xmlns="http://www.w3.org/2000/svg">
<path d="M30.0001 59.9999C45.867 59.9999 58.7298 47.1372 58.7298 31.2702C58.7298 15.4032 45.867 2.54053 30.0001 2.54053C14.1331 2.54053 1.27039 15.4032 1.27039 31.2702C1.27039 47.1372 14.1331 59.9999 30.0001 59.9999Z" fill="#41485D"/>
<path d="M39.7603 10.8103L35.0809 28.2739C34.8929 28.9754 34.5998 29.6443 34.2116 30.258L30.7336 35.7551L28.3361 44.703C27.7679 46.8235 25.5884 48.0819 23.4679 47.5137L25.9752 38.1562C26.3667 36.695 25.371 35.2142 23.867 35.0517C22.8984 34.9471 21.9345 34.9213 20.9825 34.9697L21.2905 34.7094C24.7594 31.7778 27.4054 27.9936 28.9679 23.7292L37.4254 0.884987C37.8972 -0.389427 39.7422 -0.253958 40.0227 1.07577C40.702 4.29608 40.6122 7.63124 39.7603 10.8103Z" fill="#F7F7F7"/>
<path d="M26.2496 29.1172C25.5973 30.1065 24.8786 31.0513 24.0975 31.9447C26.0945 35.101 27.602 38.5415 28.5687 42.1493L28.7945 42.9921L30.186 37.7988C29.1176 34.8014 27.8017 31.8971 26.2496 29.1172Z" fill="#E2E2E2"/>
<path d="M20.255 10.8103L24.9344 28.2739C25.1224 28.9754 25.4155 29.6443 25.8037 30.258L29.2817 35.7551L31.6792 44.703C32.2474 46.8235 34.4271 48.0819 36.5475 47.5137L34.0401 38.1562C33.6486 36.695 34.6443 35.2142 36.1483 35.0517C37.1169 34.9471 38.0809 34.9213 39.0328 34.9697L38.7248 34.7094C35.2559 31.7778 32.61 27.9936 31.0474 23.7292L22.5899 0.884987C22.1182 -0.389427 20.2731 -0.253958 19.9927 1.07577C19.3134 4.29608 19.4033 7.63124 20.255 10.8103Z" fill="#F7F7F7"/>
<path d="M31.5691 25.0341C31.3848 24.604 31.2089 24.1698 31.0475 23.7291L22.59 0.884987C22.1182 -0.389427 20.2732 -0.253958 19.9928 1.07577C19.9357 1.34624 19.8861 1.61788 19.8398 1.88987L27.4732 22.5977C27.8474 23.6129 28.7076 24.3714 29.7617 24.6155L31.5691 25.0341Z" fill="#E2E2E2"/>
<path d="M28.4827 29.0573C28.9257 28.2897 29.9107 28.0258 30.6783 28.469C31.4457 28.9121 31.7098 29.897 31.2666 30.6646C30.8235 31.4321 29.8385 31.6961 29.0709 31.2529C28.3034 30.8097 28.0394 29.8248 28.4827 29.0573Z" fill="#E2E2E2"/>
<path d="M30.4627 30.4492C29.6958 30.0064 29.4317 29.0226 29.8736 28.2552C29.3191 28.2567 28.7795 28.5432 28.4829 29.057C28.0397 29.8246 28.3037 30.8096 29.0711 31.2527C29.8386 31.6958 30.8237 31.4318 31.2668 30.6644C31.2671 30.6638 31.2674 30.6632 31.2677 30.6627C30.9937 30.6634 30.7163 30.5957 30.4627 30.4492Z" fill="#D2D3D6"/>
<path d="M23.8395 34.9818C15.5058 34.0975 8.28715 38.8706 5.14758 45.6911C5.93051 47.0375 6.81891 48.3148 7.80282 49.5107C8.61504 47.2095 10.194 45.1579 12.4541 43.7809C15.9751 41.6359 20.3331 44.9227 19.2593 48.9304L17.1102 56.9511C18.2371 57.5178 19.4063 58.0126 20.6119 58.4293L26.0394 38.1732C26.4445 36.6619 25.3997 35.1474 23.8395 34.9818Z" fill="#57B5E9"/>
<path d="M36.1759 34.9818C34.6129 35.1477 33.5715 36.6639 33.976 38.1735L39.4022 58.4244C40.6078 58.007 41.7767 57.5118 42.9034 56.9445L40.7561 48.9306C39.6805 44.9161 44.0457 41.6391 47.5613 43.7811C49.8184 45.1562 51.3949 47.2024 52.2081 49.4973C53.1877 48.3051 54.0726 47.0322 54.8527 45.6908C51.7509 38.9059 44.6435 34.0838 36.1759 34.9818Z" fill="#57B5E9"/>
<path d="M43.4386 43.4678C42.6399 42.7662 42.1352 41.7381 42.1352 40.5916C42.1352 38.4774 43.8491 36.7634 45.9634 36.7634C46.0765 36.7634 46.188 36.7693 46.2986 36.7789C43.3337 35.2927 39.8853 34.5882 36.1759 34.9817C34.6129 35.1476 33.5715 36.6638 33.976 38.1734L39.4022 58.4243C40.6078 58.0069 41.7767 57.5117 42.9034 56.9444L40.7561 48.9305C40.0993 46.4794 41.4707 44.3036 43.4386 43.4678Z" fill="#43A0D8"/>
<path d="M12.7212 39.5249C12.7212 38.4248 13.1718 37.4304 13.898 36.7148C10.028 38.6066 6.93012 41.8184 5.14758 45.6909C5.93051 47.0373 6.81891 48.3146 7.80282 49.5105C8.61504 47.2093 10.194 45.1577 12.4541 43.7808C13.2893 43.272 14.1716 43.0692 15.0173 43.1088C13.6623 42.4843 12.7212 41.115 12.7212 39.5249Z" fill="#43A0D8"/>
</svg>
