<svg width="60" height="60" viewBox="0 0 60 60" fill="none" xmlns="http://www.w3.org/2000/svg">
<path d="M60 30C60 46.5688 46.5688 60 30 60C13.4312 60 0 46.5688 0 30C0 13.4312 13.4312 0 30 0C46.5688 0 60 13.4312 60 30Z" fill="#F7D674"/>
<path d="M56.8661 43.3594C51.952 53.2228 41.7681 60 29.9999 60C18.2318 60 8.04788 53.2228 3.13379 43.3594H56.8661Z" fill="#F7AD3B"/>
<path d="M39.4927 25.6307C42.0662 22.4945 42.9621 19.0833 41.4524 17.5736C40.2329 16.3541 37.7729 16.7047 35.2195 18.2405C35.0222 13.7517 33.1389 10.2306 30.8432 10.2306C28.5476 10.2306 26.6639 13.7517 26.467 18.2405C23.9136 16.7052 21.4531 16.3541 20.2337 17.5736C18.7239 19.0833 19.6202 22.495 22.1938 25.6307C21.3936 25.6453 20.7166 25.8824 20.2337 26.3649C18.5175 28.0811 19.9091 32.2545 23.3414 35.6873C25.8655 38.2114 28.7893 39.6295 30.8432 39.522C32.8972 39.6295 35.821 38.2114 38.3451 35.6873C41.7774 32.255 43.1685 28.0811 41.4524 26.3649C40.9699 25.882 40.2928 25.6453 39.4927 25.6307V25.6307ZM30.6981 30.7347C30.7466 30.7338 30.7952 30.7329 30.8432 30.7306C30.8908 30.7329 30.9394 30.7338 30.9879 30.7347C30.9398 30.7933 30.8904 30.8519 30.8432 30.911C30.7961 30.8519 30.7466 30.7933 30.6981 30.7347Z" fill="#23C77D"/>
<path d="M19.6862 21.0059C19.3245 19.5667 19.4765 18.3307 20.2337 17.5736C21.4531 16.3541 23.9136 16.7052 26.4666 18.2405C26.6639 13.7517 28.5476 10.2306 30.8432 10.2306C31.577 10.2306 32.2683 10.5918 32.8766 11.2281C30.6647 12.0786 28.8973 15.4285 28.337 19.7507C28.2239 20.6259 27.3043 21.1354 26.5014 20.7706C23.7433 19.5177 21.2471 19.4184 19.8967 20.7683C19.8217 20.8438 19.7526 20.9235 19.6862 21.0059Z" fill="#03AD6B"/>
<path d="M22.2656 14.9181V48.9025C22.2656 50.197 21.2164 51.2462 19.9219 51.2462H8.82065C7.74948 50.1787 6.7598 49.0302 5.85938 47.8116V14.9181C5.85938 13.6235 6.90857 12.5743 8.20312 12.5743H19.9219C21.2164 12.5743 22.2656 13.6235 22.2656 14.9181V14.9181Z" fill="#DCDCE1"/>
<path d="M19.9219 51.2462H10.5469C9.25232 51.2462 8.20312 50.197 8.20312 48.9025V14.9181C8.20312 13.6235 9.25232 12.5743 10.5469 12.5743H19.9219C21.2164 12.5743 22.2656 13.6235 22.2656 14.9181V48.9025C22.2656 50.197 21.2164 51.2462 19.9219 51.2462Z" fill="#F0EFF4"/>
<path d="M19.0265 17.2618H19.3359C19.6596 17.2618 19.9219 17.5241 19.9219 17.8478V48.9025H9.375C8.72772 48.9025 8.20312 48.3779 8.20312 47.7306V20.1915C8.20312 19.8679 8.46542 19.6056 8.78906 19.6056H9.09851C10.8215 19.6056 12.5212 19.2041 14.0625 18.4337C15.6038 17.6628 17.3035 17.2618 19.0265 17.2618V17.2618Z" fill="#75C24B"/>
<path d="M19.3359 17.2618H19.0265C17.3035 17.2618 15.6038 17.6628 14.0625 18.4337C12.9556 18.9872 11.7668 19.3488 10.5469 19.5095V20.7775C11.1942 20.7775 11.7188 21.3021 11.7188 21.9493C11.7188 22.5966 11.1942 23.1212 10.5469 23.1212V27.8087C11.1942 27.8087 11.7188 28.3333 11.7188 28.9806C11.7188 29.6279 11.1942 30.1525 10.5469 30.1525V44.215C11.1942 44.215 11.7188 44.7396 11.7188 45.3868C11.7188 46.0341 11.1942 46.5587 10.5469 46.5587V48.9025H19.9219V17.8478C19.9219 17.5241 19.6596 17.2618 19.3359 17.2618V17.2618ZM12.8906 42.1875C12.2433 42.1875 11.7188 41.6629 11.7188 41.0157C11.7188 40.3684 12.2433 39.8438 12.8906 39.8438C13.5379 39.8438 14.0625 40.3684 14.0625 41.0157C14.0625 41.6629 13.5379 42.1875 12.8906 42.1875ZM15.2344 33.9844C14.5871 33.9844 14.0625 33.4598 14.0625 32.8125C14.0625 32.1653 14.5871 31.6407 15.2344 31.6407C15.8817 31.6407 16.4062 32.1653 16.4062 32.8125C16.4062 33.4598 15.8817 33.9844 15.2344 33.9844ZM16.4062 25.465C15.759 25.465 15.2344 24.9404 15.2344 24.2931C15.2344 23.6458 15.759 23.1212 16.4062 23.1212C17.0535 23.1212 17.5781 23.6458 17.5781 24.2931C17.5781 24.9404 17.0535 25.465 16.4062 25.465Z" fill="#8CD246"/>
<path d="M22.2656 7.88684V14.9181H5.85938V7.88684C5.85938 6.59229 6.90857 5.54309 8.20312 5.54309H10.5469V4.37122H16.4062V5.54309H19.9219C21.2164 5.54309 22.2656 6.59229 22.2656 7.88684Z" fill="#D73247"/>
<path d="M22.2656 7.88684V14.9181H8.20312V7.88684C8.20312 6.59229 9.25232 5.54309 10.5469 5.54309H13.0316C13.3553 5.54309 13.6176 5.28079 13.6176 4.95715C13.6176 4.63351 13.3553 4.37122 13.0316 4.37122H9.96094C9.6373 4.37122 9.375 4.10892 9.375 3.78528C9.375 3.46164 9.6373 3.19934 9.96094 3.19934H15.2344C15.8817 3.19934 16.4062 3.72394 16.4062 4.37122V5.54309H19.9219C21.2164 5.54309 22.2656 6.59229 22.2656 7.88684Z" fill="#EC3C52"/>
<path d="M51.1204 36.4202C49.6263 40.5249 45.5316 42.8028 41.9738 41.5082C38.4165 40.2132 36.7439 35.8361 38.2375 31.7313C39.441 28.4244 42.3327 26.305 45.2711 26.2821L51.5232 9.10449C52.6603 10.275 53.7022 11.5384 54.6374 12.882L49.2353 27.7249C51.4715 29.6311 52.3239 33.1133 51.1204 36.4202V36.4202Z" fill="#BB5335"/>
<path d="M40.5903 40.7868C38.0099 38.9864 36.9534 35.2593 38.2374 31.7313C39.4409 28.4244 42.3326 26.305 45.271 26.2821L51.5231 9.10449C52.0459 9.64282 52.5476 10.2013 53.0291 10.7776L47.0823 27.1152C46.9331 27.5263 46.5678 27.8247 46.1339 27.876C43.4408 28.1942 40.8975 30.2335 39.7879 33.2817C38.8041 35.9848 39.1937 38.8056 40.5903 40.7868Z" fill="#A0452C"/>
<path d="M29.9262 23.6468C34.2214 27.7772 42.4589 30.6918 52.1044 31.107C53.3477 31.1605 54.3649 32.7586 54.3745 34.7329V34.7709C54.3745 41.5815 45.6806 47.1031 34.9557 47.1031C24.2312 47.1031 15.5374 41.5815 15.5374 34.7709C15.5374 29.4201 20.9033 24.8658 28.4042 23.1588C28.9311 23.0384 29.4708 23.2087 29.9262 23.6468V23.6468Z" fill="#FFF5F5"/>
<path d="M39.364 46.7838C37.9476 46.9926 36.4723 47.1029 34.9557 47.1029C24.2312 47.1029 15.5374 41.5813 15.5374 34.7707C15.5374 29.4199 20.9033 24.8657 28.4042 23.1587C28.6596 23.1005 28.9178 23.1111 29.1677 23.1866C24.9206 25.7084 22.2656 29.2982 22.2656 33.2821C22.2656 39.8982 29.5866 45.4275 39.364 46.7838V46.7838Z" fill="#FBF1D1"/>
<path d="M18.9881 48.0282C16.6938 44.7153 14.9868 40.6861 14.085 36.2247C13.9463 35.5385 14.4736 34.8972 15.1736 34.8972H54.7385C55.4385 34.8972 55.9658 35.5385 55.8271 36.2247C54.9253 40.6861 53.2183 44.7153 50.924 48.0282C48.4365 51.6193 44.3455 53.7612 39.977 53.7612H29.9346C25.5666 53.7612 21.4751 51.6193 18.9881 48.0282V48.0282Z" fill="#D73247"/>
<path d="M39.9769 53.7612H33.7381C29.3696 53.7612 25.2786 51.6193 22.7911 48.0282C20.2711 44.3899 18.4602 39.8868 17.6454 34.8972H54.7384C55.4384 34.8972 55.9657 35.5385 55.827 36.2247C54.9252 40.6861 53.2182 44.7153 50.9239 48.0282C48.4364 51.6193 44.3454 53.7612 39.9769 53.7612V53.7612Z" fill="#EC3C52"/>
<path d="M53.9062 49.1309C53.9062 54.3572 49.4467 58.5938 43.9453 58.5938C38.4439 58.5938 33.9844 54.3572 33.9844 49.1309C33.9844 47.2875 34.5392 45.5677 35.4991 44.1129C36.4719 42.638 36.9809 40.9159 36.9727 39.1494C36.9727 39.1393 36.9727 39.1297 36.9727 39.1201C36.9727 35.4616 40.0946 32.4962 43.9453 32.4962C47.796 32.4962 50.918 35.4616 50.918 39.1201V39.1494C50.9097 40.9159 51.4188 42.638 52.3915 44.1129C53.3514 45.5677 53.9062 47.2875 53.9062 49.1309V49.1309Z" fill="#8CD246"/>
<path d="M45.0549 58.5338C44.6901 58.5723 44.3207 58.5938 43.9453 58.5938C38.4439 58.5938 33.9844 54.3572 33.9844 49.1309C33.9844 47.2875 34.5392 45.5677 35.4991 44.1129C36.4719 42.638 36.9809 40.9159 36.9727 39.1494C36.9727 39.1393 36.9727 39.1297 36.9727 39.1201C36.9727 35.4616 40.0946 32.4962 43.9453 32.4962C44.323 32.4962 44.6933 32.5255 45.0549 32.5804C41.7316 33.0854 39.1914 35.8205 39.1914 39.1201V39.1494C39.1997 40.9159 38.6906 42.638 37.7179 44.1129C36.758 45.5677 36.2032 47.2875 36.2032 49.1309C36.2032 54.0006 40.0758 58.0097 45.0549 58.5338V58.5338Z" fill="#75C24B"/>
<path d="M52.4121 49.1309C52.4121 53.525 48.614 57.0996 43.9453 57.0996C39.2766 57.0996 35.4785 53.525 35.4785 49.1309C35.4785 47.6432 35.9166 46.1925 36.7461 44.9355C37.8813 43.2148 38.4764 41.2116 38.4668 39.1416V39.1201C38.4668 36.2915 40.9245 33.9904 43.9453 33.9904C46.9661 33.9904 49.4238 36.2915 49.4238 39.1201V39.1425C49.4142 41.2116 50.0093 43.2148 51.1446 44.9355C51.974 46.1925 52.4121 47.6432 52.4121 49.1309Z" fill="#D6EA9F"/>
<path d="M46.3761 56.7632C42.2906 55.7689 39.0876 52.5046 38.5831 48.3092C38.3602 46.4502 38.6898 44.5716 39.5376 42.8765C40.6975 40.5556 41.1402 37.9628 40.8175 35.3778L40.8143 35.3504C40.7978 35.2121 40.7877 35.0743 40.7804 34.9366C41.6753 34.3415 42.7666 33.9904 43.9454 33.9904C46.9662 33.9904 49.4239 36.2915 49.4239 39.1201V39.1425C49.4143 41.2116 50.0094 43.2148 51.1446 44.9355C51.9741 46.1925 52.4122 47.6432 52.4122 49.1309C52.4122 52.7298 49.8638 55.7776 46.3761 56.7632V56.7632Z" fill="#E3F0BE"/>
<path d="M46.9336 49.6289C46.9336 51.8294 45.5956 53.6133 43.9453 53.6133C42.2951 53.6133 40.957 51.8294 40.957 49.6289C40.957 47.4284 42.2951 45.6445 43.9453 45.6445C45.5956 45.6445 46.9336 47.4284 46.9336 49.6289Z" fill="#BB5335"/>
<path d="M46.9336 49.6289C46.9336 51.7433 45.6981 53.4718 44.1376 53.6041C43.4157 52.695 42.9492 51.2531 42.9492 49.6289C42.9492 48.0048 43.4157 46.5628 44.1376 45.6537C45.6981 45.786 46.9336 47.5145 46.9336 49.6289Z" fill="#D25E3E"/>
</svg>
