<svg width="60" height="60" viewBox="0 0 60 60" fill="none" xmlns="http://www.w3.org/2000/svg">
<path d="M60 29.9094V30C60 31.0236 59.9486 32.0351 59.8481 33.0319C59.771 33.7972 59.6657 34.5527 59.5335 35.2984C57.0319 49.3396 44.7612 60 30 60C22.14 60 14.9878 56.978 9.63914 52.031C7.75348 50.2886 6.09059 48.3061 4.70203 46.1314C4.48535 45.7923 4.27465 45.4481 4.07145 45.0993C2.33262 42.1201 1.09348 38.8152 0.467813 35.2984C0.241289 34.031 0.095625 32.7368 0.0343359 31.4204C0.0221484 31.1816 0.0134766 30.9429 0.00867188 30.7029C0.00246094 30.469 0 30.2351 0 30V29.9841C0.00117187 27.36 0.339141 24.8155 0.974648 22.3897C1.07508 22.0028 1.18406 21.6183 1.3016 21.2363C1.34813 21.0796 1.39828 20.9239 1.44855 20.7684C1.96406 19.1693 2.61059 17.63 3.37594 16.1619C8.37668 6.5584 18.4225 0 30 0C42.0759 0 52.4841 7.13391 57.2425 17.4184C57.7103 18.4298 58.1229 19.4719 58.478 20.5409C58.8196 21.5682 59.1061 22.62 59.3351 23.6927C59.553 24.7054 59.7184 25.7388 59.8297 26.7871C59.9388 27.813 59.9964 28.8551 60 29.9094Z" fill="#E8DBC4"/>
<path d="M58.0641 25.2257C58.0641 24.4616 58.6115 23.8273 59.3351 23.6926C59.5531 24.7052 59.7184 25.7387 59.8298 26.787H59.6253C59.1942 26.787 58.8037 26.6119 58.5208 26.3303C58.2392 26.0474 58.0641 25.6567 58.0641 25.2257Z" fill="#F9EED7"/>
<path d="M60.0001 29.9094V30C60.0001 31.0236 59.9486 32.0351 59.8482 33.0319H56.2041C55.7731 33.0319 55.3825 32.8568 55.0996 32.5752C54.818 32.2923 54.6429 31.9017 54.6429 31.4707C54.6429 30.6087 55.3421 29.9095 56.2041 29.9095L60.0001 29.9094Z" fill="#F9EED7"/>
<path d="M15.1653 37.6936H11.002V19.4487C11.002 18.2989 11.9339 17.3671 13.0836 17.3671C14.2333 17.3671 15.1652 18.2991 15.1652 19.4487V37.6936H15.1653Z" fill="#C69A6A"/>
<path d="M17.3585 0.191284H8.80889C5.80326 0.191284 3.3667 2.62785 3.3667 5.63347V19.1331C3.3667 22.1387 5.80326 24.5754 8.80889 24.5754H17.3585C20.3642 24.5754 22.8007 22.1389 22.8007 19.1331V5.63359C22.8007 2.62796 20.3642 0.191284 17.3585 0.191284Z" fill="#41B787"/>
<path d="M16.8365 20.2446H11.4995C9.5582 20.2446 7.98438 18.6708 7.98438 16.7295V5.08632C7.98438 3.145 9.5582 1.57117 11.4995 1.57117H16.8366C18.7779 1.57117 20.3518 3.145 20.3518 5.08632V16.7295C20.3516 18.6709 18.7778 20.2446 16.8365 20.2446Z" fill="#4BC999"/>
<path d="M13.206 24.5756H11.002V37.6935H13.206V24.5756Z" fill="#B58657"/>
<path d="M15.1657 24.5756H11.6583V26.4282H15.1657V24.5756Z" fill="#B58657"/>
<path d="M16.8229 11.0609H15.3091C14.848 11.0609 14.4742 10.6871 14.4742 10.226V6.01831C14.4742 5.55718 14.8481 5.18347 15.3091 5.18347H16.8229C17.2841 5.18347 17.6578 5.5573 17.6578 6.01831V10.226C17.6579 10.6872 17.2839 11.0609 16.8229 11.0609Z" fill="#5BD3A2"/>
<path d="M15.6672 15.5291H10.7349C9.94595 15.5291 9.30622 14.8896 9.30622 14.1005C9.30622 13.3116 9.94583 12.6718 10.7349 12.6718H12.1568C12.9434 12.6718 13.6181 12.0565 13.6325 11.27C13.6472 10.4688 13.0021 9.8147 12.2042 9.8147H7.91849V12.6718H5.02067C4.23177 12.6718 3.59204 13.3115 3.59204 14.1005C3.59204 14.8894 4.23165 15.5291 5.02067 15.5291H7.91872V18.3863H15.7147C16.5127 18.3863 17.1577 17.7321 17.1431 16.9309C17.1284 16.1445 16.4537 15.5291 15.6672 15.5291Z" fill="#41B787"/>
<path d="M34.0526 42.2268H29.8893V23.9819C29.8893 22.8321 30.8213 21.9003 31.9709 21.9003C33.1206 21.9003 34.0525 22.8323 34.0525 23.9819V42.2268H34.0526Z" fill="#C69A6A"/>
<path d="M36.2457 4.72449H27.6961C24.6905 4.72449 22.2539 7.16105 22.2539 10.1667V23.6663C22.2539 26.6719 24.6905 29.1085 27.6961 29.1085H36.2457C39.2514 29.1085 41.6879 26.6719 41.6879 23.6663V10.1668C41.688 7.16105 39.2514 4.72449 36.2457 4.72449Z" fill="#41B787"/>
<path d="M35.7239 24.7778H30.3869C28.4455 24.7778 26.8717 23.204 26.8717 21.2627V9.61953C26.8717 7.6782 28.4455 6.10437 30.3869 6.10437H35.7239C37.6653 6.10437 39.2391 7.6782 39.2391 9.61953V21.2627C39.2391 23.204 37.6654 24.7778 35.7239 24.7778Z" fill="#4BC999"/>
<path d="M32.0938 29.1085H29.8898V42.2265H32.0938V29.1085Z" fill="#B58657"/>
<path d="M34.0523 29.1085H30.5449V30.9611H34.0523V29.1085Z" fill="#B58657"/>
<path d="M35.7102 15.5941H34.1964C33.7353 15.5941 33.3616 15.2203 33.3616 14.7593V10.5514C33.3616 10.0903 33.7354 9.71655 34.1964 9.71655H35.7102C36.1714 9.71655 36.5451 10.0904 36.5451 10.5514V14.7591C36.5451 15.2203 36.1714 15.5941 35.7102 15.5941Z" fill="#5BD3A2"/>
<path d="M34.5545 20.0622H29.6223C28.8334 20.0622 28.1937 19.4226 28.1937 18.6336C28.1937 17.8447 28.8333 17.2049 29.6223 17.2049H31.0443C31.8308 17.2049 32.5056 16.5896 32.52 15.8031C32.5346 15.0019 31.8895 14.3478 31.0916 14.3478H26.8059V17.2049H23.9079C23.119 17.2049 22.4792 17.8445 22.4792 18.6336C22.4792 19.4225 23.1189 20.0622 23.9079 20.0622H26.8059V22.9193H34.6019C35.3999 22.9193 36.0449 22.2652 36.0304 21.464C36.0158 20.6777 35.3409 20.0622 34.5545 20.0622Z" fill="#41B787"/>
<path d="M51.9973 39.9125H47.834V21.6675C47.834 20.5178 48.766 19.5859 49.9156 19.5859C51.0653 19.5859 51.9972 20.5179 51.9972 21.6675V39.9125H51.9973Z" fill="#C69A6A"/>
<path d="M54.1903 2.41016H45.6407C42.635 2.41016 40.1985 4.84672 40.1985 7.85234V21.352C40.1985 24.3576 42.635 26.7942 45.6407 26.7942H54.1903C57.1959 26.7942 59.6326 24.3576 59.6326 21.352V7.85234C59.6325 4.8466 57.1959 2.41016 54.1903 2.41016Z" fill="#41B787"/>
<path d="M53.6685 22.4635H48.3314C46.3901 22.4635 44.8163 20.8897 44.8163 18.9484V7.3052C44.8163 5.36387 46.3901 3.79004 48.3314 3.79004H53.6685C55.6098 3.79004 57.1837 5.36387 57.1837 7.3052V18.9484C57.1837 20.8897 55.6098 22.4635 53.6685 22.4635Z" fill="#4BC999"/>
<path d="M50.0376 26.7943H47.8335V39.9123H50.0376V26.7943Z" fill="#B58657"/>
<path d="M51.9972 26.7943H48.4897V28.6469H51.9972V26.7943Z" fill="#B58657"/>
<path d="M53.6548 13.2798H52.141C51.6799 13.2798 51.3062 12.9059 51.3062 12.4449V8.23707C51.3062 7.77593 51.68 7.40222 52.141 7.40222H53.6548C54.116 7.40222 54.4897 7.77605 54.4897 8.23707V12.4448C54.4898 12.9059 54.1158 13.2798 53.6548 13.2798Z" fill="#5BD3A2"/>
<path d="M52.4991 17.748H47.5668C46.7779 17.748 46.1381 17.1084 46.1381 16.3194C46.1381 15.5304 46.7777 14.8907 47.5668 14.8907H48.9887C49.7753 14.8907 50.45 14.2754 50.4645 13.4889C50.4791 12.6877 49.834 12.0336 49.0361 12.0336H44.7504V14.8907H41.8523C41.0634 14.8907 40.4237 15.5302 40.4237 16.3194C40.4237 17.1083 41.0632 17.748 41.8523 17.748H44.7504V20.6051H52.5464C53.3443 20.6051 53.9893 19.951 53.9748 19.1498C53.9604 18.3633 53.2856 17.748 52.4991 17.748Z" fill="#41B787"/>
<path d="M59.5336 35.2983C58.1695 42.9538 53.9021 49.604 47.9095 54.0698C47.023 54.731 46.0973 55.3444 45.1372 55.9065C40.6936 58.5085 35.5213 59.9999 30.0001 59.9999C24.4789 59.9999 19.3066 58.5085 14.863 55.9065C13.9041 55.3444 12.9797 54.7321 12.0931 54.0698C11.2385 53.4343 10.4205 52.7534 9.63922 52.031C9.32083 51.737 9.00864 51.4346 8.70254 51.126C7.19891 49.6126 5.85559 47.9386 4.70211 46.1314C4.48543 45.7922 4.27473 45.4481 4.07153 45.0992C4.02993 45.027 3.98704 44.9547 3.94543 44.8812C2.27282 41.9596 1.07891 38.7294 0.467896 35.2983H59.5336Z" fill="#5C5E70"/>
<path d="M41.6234 47.2368C41.6234 46.3746 40.9244 45.6755 40.0623 45.6755H26.9052C26.0429 45.6755 25.3438 46.3746 25.3438 47.2367C25.3438 48.099 26.0428 48.7979 26.9052 48.7979H31.1609C32.0232 48.7979 32.7222 49.4969 32.7222 50.3591C32.7222 51.2213 32.0232 51.9202 31.1609 51.9202H30.7271C29.8648 51.9202 29.1659 52.6193 29.1659 53.4815C29.1659 54.3438 29.865 55.0427 30.7271 55.0427H43.3371C44.1993 55.0427 44.8982 54.3437 44.8982 53.4815C44.8982 52.6193 45.5973 51.9202 46.4594 51.9202H46.8932C47.7555 51.9202 48.4544 51.2212 48.4544 50.3591C48.4544 49.4968 47.7554 48.7979 46.8932 48.7979H43.1845C42.3223 48.7981 41.6234 48.0991 41.6234 47.2368Z" fill="#797B89"/>
<path d="M16.8759 49.5649C16.8759 50.4269 16.1768 51.126 15.3147 51.126H8.70242C7.19879 49.6126 5.85547 47.9386 4.70199 46.1314C4.48531 45.7922 4.27461 45.4481 4.07141 45.0992C4.0298 45.027 3.98691 44.9547 3.94531 44.8812H12.1923C13.0543 44.8812 13.7534 45.5804 13.7534 46.4424C13.7534 46.8734 13.9285 47.264 14.2114 47.5457C14.493 47.8286 14.8836 48.0037 15.3147 48.0037C15.7457 48.0037 16.1363 48.1788 16.418 48.4617C16.7008 48.7433 16.8759 49.1338 16.8759 49.5649Z" fill="#797B89"/>
<path d="M53.8409 26.3315V44.236C53.8409 45.2829 52.9923 46.1315 51.9454 46.1315H4.70203C4.48535 45.7923 4.27465 45.4481 4.07145 45.0992C1.70695 41.0486 0.265781 36.3942 0.0343359 31.4228V31.4203C0.0110156 30.9502 0 30.4764 0 30C0 25.009 1.2184 20.302 3.37594 16.162C4.23551 16.0396 5.11348 15.976 6.00738 15.976H43.4854C47.0474 15.976 50.1907 17.7748 52.053 20.5151C52.3629 20.9681 52.6371 21.4481 52.8697 21.9515C53.493 23.2812 53.8409 24.7654 53.8409 26.3315Z" fill="#FF525D"/>
<path d="M53.8402 26.3308V33.3632H50.6991C48.3272 33.3632 46.4039 31.4399 46.4039 29.0667V24.0006C46.4039 22.4716 47.6425 21.233 49.1715 21.233H52.501C53.3534 22.738 53.8402 24.4777 53.8402 26.3308Z" fill="#5C5E70"/>
<path d="M41.8359 23.1759V28.7583C41.8359 29.8322 40.9654 30.7028 39.8914 30.7028H0.00855469C0.00246094 30.4689 0 30.235 0 29.9999V29.984C0.00117187 27.3599 0.339141 24.8154 0.974648 22.3897C1.07508 22.0027 1.18406 21.6182 1.3016 21.2362C1.37016 21.2337 1.43871 21.2325 1.50727 21.2325H39.8913C40.9654 21.2325 41.8359 22.1032 41.8359 23.1759Z" fill="#5C5E70"/>
<path d="M53.8408 32.6451V34.0816H50.6997C47.9352 34.0816 45.6864 31.8326 45.6864 29.0666V24.0006C45.6864 22.0773 47.249 20.5148 49.1723 20.5148H52.0531C52.3628 20.9681 52.6373 21.4484 52.8703 21.9513H49.1721C48.0421 21.9513 47.1228 22.8706 47.1228 24.0006V29.0666C47.1228 31.0394 48.7268 32.6451 50.6997 32.6451H53.8408Z" fill="#EF4152"/>
<path d="M39.3025 20.515H3.71262C2.93508 20.515 2.17711 20.6031 1.44855 20.7685C1.27465 21.3024 1.11668 21.8436 0.974649 22.3897C1.83668 22.1056 2.75754 21.9513 3.71262 21.9513H4.29305V29.9839H0V29.9999C0 30.4763 0.0110156 30.9501 0.0343359 31.4204H39.3025C41.0964 31.4204 42.5547 29.962 42.5547 28.1682V23.7661C42.5547 21.9734 41.0964 20.515 39.3025 20.515ZM13.6751 29.984H5.72941V21.9514H13.6751V29.984V29.984ZM23.0571 29.984H15.1114V21.9514H23.0571V29.984ZM32.4391 29.984H24.4935V21.9514H32.4391V29.984ZM41.1184 28.1681C41.1184 29.1697 40.3029 29.984 39.3025 29.984H33.8755V21.9514H39.3025C40.3029 21.9514 41.1184 22.7657 41.1184 23.766V28.1681Z" fill="#EF4152"/>
<path d="M19.347 46.1314H4.70212C4.48544 45.7923 4.27474 45.4481 4.07153 45.0992C1.70704 41.0487 0.265869 36.3943 0.0344238 31.4229V31.4204H7.4695C7.4695 31.4204 5.5727 43.5294 19.347 46.1314Z" fill="#EF4152"/>
<path d="M15.7934 46.1314C15.7934 49.3934 13.1498 52.037 9.88778 52.037C9.80446 52.037 9.72126 52.0359 9.63923 52.0309C7.75356 50.2885 6.09067 48.306 4.70212 46.1314C4.48544 45.7922 4.27474 45.448 4.07153 45.0991C4.56009 42.3292 6.97849 40.2256 9.8879 40.2256C13.1498 40.2256 15.7934 42.8693 15.7934 46.1314Z" fill="#494B5B"/>
<path d="M38.4234 52.037C41.685 52.037 44.329 49.393 44.329 46.1314C44.329 42.8698 41.685 40.2257 38.4234 40.2257C35.1618 40.2257 32.5177 42.8698 32.5177 46.1314C32.5177 49.393 35.1618 52.037 38.4234 52.037Z" fill="#494B5B"/>
<path d="M53.7466 43.6576H49.4367C48.7756 43.6576 48.2396 43.1217 48.2396 42.4605C48.2396 41.7993 48.7756 41.2634 49.4367 41.2634H53.7466C54.4077 41.2634 54.9437 41.7992 54.9437 42.4605C54.9437 43.1216 54.4077 43.6576 53.7466 43.6576Z" fill="#E8DBC4"/>
<path d="M38.4234 49.5495C40.3112 49.5495 41.8415 48.0192 41.8415 46.1314C41.8415 44.2436 40.3112 42.7133 38.4234 42.7133C36.5356 42.7133 35.0052 44.2436 35.0052 46.1314C35.0052 48.0192 36.5356 49.5495 38.4234 49.5495Z" fill="#E8DBC4"/>
<path d="M39.1967 48.2434C37.6036 48.2434 36.3118 46.9515 36.3118 45.3585C36.3118 44.2014 36.9926 43.2034 37.9747 42.7441C36.2983 42.9633 35.0052 44.396 35.0052 46.1311C35.0052 48.0192 36.5358 49.5499 38.4241 49.5499C40.1592 49.5499 41.5918 48.2569 41.811 46.5805C41.3518 47.5627 40.3538 48.2434 39.1967 48.2434Z" fill="#D6C8B0"/>
<path d="M39.4336 46.226C39.9971 46.226 40.4539 45.7692 40.4539 45.2057C40.4539 44.6421 39.9971 44.1853 39.4336 44.1853C38.87 44.1853 38.4132 44.6421 38.4132 45.2057C38.4132 45.7692 38.87 46.226 39.4336 46.226Z" fill="#F9EED7"/>
<path d="M38.0522 44.483C38.4165 44.483 38.7119 44.1877 38.7119 43.8233C38.7119 43.459 38.4165 43.1637 38.0522 43.1637C37.6879 43.1637 37.3926 43.459 37.3926 43.8233C37.3926 44.1877 37.6879 44.483 38.0522 44.483Z" fill="#F9EED7"/>
<path d="M9.88785 49.5495C11.7756 49.5495 13.306 48.0192 13.306 46.1314C13.306 44.2436 11.7756 42.7133 9.88785 42.7133C8.00007 42.7133 6.46973 44.2436 6.46973 46.1314C6.46973 48.0192 8.00007 49.5495 9.88785 49.5495Z" fill="#E8DBC4"/>
<path d="M10.6614 48.2434C9.06837 48.2434 7.77649 46.9515 7.77649 45.3585C7.77649 44.2014 8.45735 43.2034 9.43939 42.7441C7.76302 42.9633 6.46997 44.396 6.46997 46.1311C6.46997 48.0192 8.00056 49.5499 9.8888 49.5499C11.6239 49.5499 13.0566 48.2569 13.2758 46.5805C12.8165 47.5627 11.8185 48.2434 10.6614 48.2434Z" fill="#D6C8B0"/>
<path d="M10.898 46.226C11.4616 46.226 11.9184 45.7692 11.9184 45.2057C11.9184 44.6421 11.4616 44.1853 10.898 44.1853C10.3345 44.1853 9.87769 44.6421 9.87769 45.2057C9.87769 45.7692 10.3345 46.226 10.898 46.226Z" fill="#F9EED7"/>
<path d="M9.5167 44.483C9.88102 44.483 10.1764 44.1877 10.1764 43.8233C10.1764 43.459 9.88102 43.1637 9.5167 43.1637C9.15239 43.1637 8.85706 43.459 8.85706 43.8233C8.85706 44.1877 9.15239 44.483 9.5167 44.483Z" fill="#F9EED7"/>
<path d="M51.9641 29.8582C51.5808 29.8582 51.2703 29.5476 51.2703 29.1644V24.7562C51.2703 24.3729 51.5809 24.0624 51.9641 24.0624C52.3475 24.0624 52.658 24.373 52.658 24.7562V29.1644C52.6581 29.5475 52.3475 29.8582 51.9641 29.8582Z" fill="#797B89"/>
<path d="M38.9438 24.9195C39.4171 24.9195 39.8009 24.5358 39.8009 24.0624C39.8009 23.5891 39.4171 23.2053 38.9438 23.2053C38.4704 23.2053 38.0867 23.5891 38.0867 24.0624C38.0867 24.5358 38.4704 24.9195 38.9438 24.9195Z" fill="#797B89"/>
<path d="M30.6747 24.9195C31.1481 24.9195 31.5318 24.5358 31.5318 24.0624C31.5318 23.5891 31.1481 23.2053 30.6747 23.2053C30.2014 23.2053 29.8176 23.5891 29.8176 24.0624C29.8176 24.5358 30.2014 24.9195 30.6747 24.9195Z" fill="#797B89"/>
<path d="M21.4175 24.9195C21.8909 24.9195 22.2746 24.5358 22.2746 24.0624C22.2746 23.5891 21.8909 23.2053 21.4175 23.2053C20.9442 23.2053 20.5604 23.5891 20.5604 24.0624C20.5604 24.5358 20.9442 24.9195 21.4175 24.9195Z" fill="#797B89"/>
<path d="M11.6021 24.9195C12.0755 24.9195 12.4592 24.5358 12.4592 24.0624C12.4592 23.5891 12.0755 23.2053 11.6021 23.2053C11.1287 23.2053 10.745 23.5891 10.745 24.0624C10.745 24.5358 11.1287 24.9195 11.6021 24.9195Z" fill="#797B89"/>
<path d="M44.9436 18.9194H31.5558C30.9922 18.9194 30.5354 18.4625 30.5354 17.899C30.5354 17.3355 30.9923 16.8787 31.5558 16.8787H44.9436C45.5072 16.8787 45.964 17.3356 45.964 17.899C45.964 18.4626 45.5072 18.9194 44.9436 18.9194Z" fill="#FF6E7C"/>
<path d="M50.4086 39.7479C51.4005 39.7479 52.2046 38.9438 52.2046 37.9519C52.2046 36.96 51.4005 36.1559 50.4086 36.1559C49.4167 36.1559 48.6125 36.96 48.6125 37.9519C48.6125 38.9438 49.4167 39.7479 50.4086 39.7479Z" fill="#FFD15C"/>
<path d="M50.8163 38.115C51.1769 38.115 51.4693 37.8227 51.4693 37.462C51.4693 37.1014 51.1769 36.8091 50.8163 36.8091C50.4557 36.8091 50.1633 37.1014 50.1633 37.462C50.1633 37.8227 50.4557 38.115 50.8163 38.115Z" fill="#FFDC8D"/>
<path d="M47.9094 54.0698C47.0229 54.731 46.0972 55.3445 45.1371 55.9065H29.5101V54.0698H47.9094Z" fill="#FCF8F2"/>
<path d="M16.653 54.0698V55.9065H14.8629C13.904 55.3445 12.9795 54.7322 12.093 54.0698H16.653Z" fill="#FCF8F2"/>
<path d="M41.449 35.9106H25.1633C24.4533 35.9106 23.8777 35.3349 23.8777 34.6249C23.8777 33.9149 24.4533 33.3392 25.1633 33.3392H41.449C42.159 33.3392 42.7347 33.9149 42.7347 34.6249C42.7347 35.3349 42.159 35.9106 41.449 35.9106Z" fill="#FF6E7C"/>
<path d="M20.5102 35.9106H18.3062C17.5961 35.9106 17.0205 35.3349 17.0205 34.6249C17.0205 33.9149 17.5961 33.3392 18.3062 33.3392H20.5102C21.2203 33.3392 21.7959 33.9149 21.7959 34.6249C21.796 35.3349 21.2204 35.9106 20.5102 35.9106Z" fill="#FF6E7C"/>
<path d="M2.80132 24.9195C3.27469 24.9195 3.65843 24.5358 3.65843 24.0624C3.65843 23.5891 3.27469 23.2053 2.80132 23.2053C2.32795 23.2053 1.94421 23.5891 1.94421 24.0624C1.94421 24.5358 2.32795 24.9195 2.80132 24.9195Z" fill="#797B89"/>
</svg>
