<svg width="60" height="60" viewBox="0 0 60 60" fill="none" xmlns="http://www.w3.org/2000/svg">
<path d="M14.9689 29.5426C5.77658 29.5426 0.608968 18.9932 6.21803 11.7105C11.7032 4.58871 20.3158 0 30.0001 0C41.8332 0 52.0662 6.85102 56.949 16.8029C59.8325 22.6801 55.5125 29.5426 48.9659 29.5426H14.9689Z" fill="#40C1FA"/>
<path d="M53.5547 30C53.5547 43.0089 43.0089 53.5547 30 53.5547C16.9911 53.5547 6.44531 43.0089 6.44531 30C6.44531 16.9911 16.9911 6.44531 30 6.44531C43.0089 6.44531 53.5547 16.9911 53.5547 30Z" fill="#72D1FB"/>
<path d="M49.4789 16.5291H42.4163C41.4455 16.5291 40.6585 15.742 40.6585 14.7712C40.6585 13.8005 41.4455 13.0134 42.4163 13.0134H49.4789C50.4497 13.0134 51.2367 13.8005 51.2367 14.7712C51.2367 15.7421 50.4497 16.5291 49.4789 16.5291ZM30.8261 21.0868C30.8261 20.116 30.039 19.329 29.0683 19.329H22.0055C21.0347 19.329 20.2477 20.116 20.2477 21.0868C20.2477 22.0576 21.0347 22.8446 22.0055 22.8446H29.0682C30.039 22.8446 30.8261 22.0576 30.8261 21.0868Z" fill="#93DCFC"/>
<path d="M41.3654 7.01482C41.1544 8.32615 42.0249 9.5674 43.3295 9.81596C43.9054 9.92564 44.123 10.6356 43.7075 11.0491C42.7661 11.986 42.7407 13.5019 43.65 14.4698C44.0514 14.8971 43.8102 15.5993 43.231 15.6896C41.9187 15.8942 41.0071 17.1056 41.174 18.4233C41.2476 19.0049 40.6396 19.4312 40.1179 19.1638C38.9359 18.558 37.4865 19.0022 36.8468 20.1662C36.5645 20.6799 35.8222 20.6675 35.5572 20.1445C34.9571 18.9596 33.5233 18.4671 32.3216 19.0329C31.7913 19.2826 31.1979 18.8361 31.291 18.2573C31.5019 16.946 30.6315 15.7047 29.3268 15.4562C28.7509 15.3465 28.5333 14.6366 28.9489 14.223C29.8902 13.2861 29.9157 11.7703 29.0063 10.8023C28.6049 10.3751 28.8461 9.67287 29.4254 9.58252C30.7376 9.37791 31.6492 8.16654 31.4823 6.84888C31.4088 6.26728 32.0167 5.84095 32.5384 6.10838C33.7204 6.71412 35.1699 6.26998 35.8095 5.10595C36.0918 4.5922 36.8342 4.60463 37.0991 5.12763C37.6993 6.31252 39.1331 6.80506 40.3347 6.23928C40.8651 5.98955 41.4584 6.43603 41.3654 7.01482V7.01482Z" fill="#FFDE91"/>
<path d="M40.6584 12.6362C40.6584 15.0278 38.7197 16.9665 36.3281 16.9665C33.9366 16.9665 31.9978 15.0278 31.9978 12.6362C31.9978 10.2447 33.9366 8.30591 36.3281 8.30591C38.7197 8.30591 40.6584 10.2447 40.6584 12.6362V12.6362Z" fill="#FFC14F"/>
<path d="M38.9263 12.6363C38.9263 14.0712 37.7631 15.2344 36.3281 15.2344C34.8932 15.2344 33.73 14.0712 33.73 12.6363C33.73 11.2013 34.8932 10.0381 36.3281 10.0381C37.7631 10.0381 38.9263 11.2013 38.9263 12.6363V12.6363Z" fill="#FFA90B"/>
<path d="M34.6383 7.40918C34.5938 8.35465 33.7793 9.08203 32.8328 9.08203H18.2409C17.2943 9.08203 16.4799 8.35465 16.4354 7.40918C16.3878 6.39973 17.1922 5.56641 18.1912 5.56641H18.4845C19.3906 5.56641 20.1251 4.83187 20.1251 3.92578C20.1251 2.955 20.9122 2.16797 21.8829 2.16797H25.6715C26.6423 2.16797 27.4293 2.955 27.4293 3.92578C27.4293 4.83187 28.1638 5.56641 29.0699 5.56641H32.8824C33.8815 5.56641 34.6859 6.39973 34.6383 7.40918Z" fill="#B4E7FD"/>
<path d="M22.7041 9.08203H18.241C17.2945 9.08203 16.48 8.35465 16.4355 7.40918C16.3879 6.39973 17.1923 5.56641 18.1913 5.56641H18.4846C19.3907 5.56641 20.1252 4.83187 20.1252 3.92578C20.1252 2.955 20.9123 2.16797 21.8831 2.16797H25.6716C25.7869 2.16797 25.8998 2.1791 26.0089 2.20031C25.1995 2.35758 24.5883 3.07031 24.5883 3.92578C24.5883 4.83187 23.8538 5.56641 22.9477 5.56641H22.6544C21.6554 5.56641 20.851 6.39973 20.8986 7.40918C20.9431 8.35465 21.7576 9.08203 22.7041 9.08203Z" fill="#93DCFC"/>
<path d="M24.9138 18.546C24.9138 20.4972 23.3321 22.0789 21.381 22.0789C19.4298 22.0789 17.8481 20.4972 17.8481 18.546C17.8481 18.297 17.8739 18.0541 17.923 17.8196C17.9011 17.82 17.8791 17.8204 17.8569 17.8204C16.3114 17.8204 15.0586 16.5675 15.0586 15.0221C15.0586 13.4766 16.3114 12.2238 17.8569 12.2238C19.4024 12.2238 20.6552 13.4766 20.6552 15.0221C20.6552 15.0441 20.6549 15.0661 20.6544 15.0881C20.8889 15.0391 21.1318 15.0132 21.3809 15.0132C23.3321 15.0132 24.9138 16.595 24.9138 18.546V18.546Z" fill="#3D7A51"/>
<path d="M28.7695 58.5224C19.7474 58.9482 11.0442 54.9386 5.72883 47.636C2.12566 42.6859 0 36.5911 0 29.9999C0 23.0015 2.39637 16.5627 6.41332 11.4596C7.51266 11.0399 8.67469 10.7999 9.91852 10.7942C14.9065 10.7707 14.4877 14.5429 25.5264 21.1682C39.3026 29.4366 46.6766 27.5961 50.7341 34.7361C52.9448 38.6263 53.9214 44.7432 51.4774 49.1698C48.3521 54.8305 39.4727 58.0173 28.7695 58.5224V58.5224Z" fill="#489160"/>
<path d="M51.3654 49.3676C48.1439 54.9049 39.3473 58.0233 28.7696 58.5226C19.7475 58.9483 11.0443 54.9387 5.72883 47.6362C2.12566 42.686 0 36.5912 0 29.9999C0 23.0015 2.39637 16.5628 6.41332 11.4596C6.98965 11.2396 7.5832 11.069 8.1968 10.9556C5.75824 15.2944 4.36746 20.301 4.36746 25.6325C4.36746 32.2237 6.49312 38.3185 10.0963 43.2686C15.4117 50.5712 24.1148 54.5807 33.137 54.155C40.5046 53.8073 47.008 52.1889 51.3654 49.3676Z" fill="#3D7A51"/>
<path d="M27.1013 44.1245C27.1013 46.0757 25.5197 47.6574 23.5685 47.6574C23.0431 47.6574 22.5446 47.5426 22.0966 47.337C21.0279 49.0349 19.1369 50.1631 16.9826 50.1631C13.965 50.1631 11.4644 47.9498 11.0157 45.058C10.7024 45.1194 10.3785 45.1517 10.0472 45.1517C7.27943 45.1517 5.03564 42.908 5.03564 40.1401C5.03564 37.3723 7.27932 35.1286 10.0472 35.1286C12.2401 35.1286 14.104 36.5372 14.7837 38.4988C15.4651 38.2322 16.2068 38.086 16.9827 38.086C19.1371 38.086 21.028 39.2141 22.0967 40.9121C22.5449 40.7064 23.0434 40.5917 23.5686 40.5917C25.5196 40.5917 27.1013 42.1734 27.1013 44.1245ZM39.861 24.3992C37.9098 24.3992 36.3281 25.9809 36.3281 27.932C36.3281 28.1589 36.3496 28.3809 36.3905 28.5959C36.3697 28.5954 36.349 28.5952 36.3281 28.5952C34.6461 28.5952 33.2826 29.9587 33.2826 31.6407C33.2826 33.3227 34.6461 34.6861 36.3281 34.6861C38.0101 34.6861 39.3736 33.3227 39.3736 31.6407C39.3736 31.57 39.3711 31.4999 39.3664 31.4305C39.528 31.4532 39.6931 31.4649 39.861 31.4649C41.8121 31.4649 43.3938 29.8832 43.3938 27.932C43.3938 25.9809 41.8121 24.3992 39.861 24.3992V24.3992ZM14.0141 17.1512C14.0141 17.7985 13.4894 18.3231 12.8422 18.3231C12.195 18.3231 11.6703 17.7985 11.6703 17.1512C11.6703 16.504 12.195 15.9794 12.8422 15.9794C13.4894 15.9794 14.0141 16.504 14.0141 17.1512ZM8.88221 19.9394C8.23498 19.9394 7.71033 20.464 7.71033 21.1112C7.71033 21.7585 8.23498 22.2831 8.88221 22.2831C9.52943 22.2831 10.0541 21.7585 10.0541 21.1112C10.0541 20.464 9.52943 19.9394 8.88221 19.9394ZM15.4643 26.5214C14.8171 26.5214 14.2924 27.0461 14.2924 27.6933C14.2924 28.3405 14.8171 28.8652 15.4643 28.8652C16.1115 28.8652 16.6362 28.3405 16.6362 27.6933C16.6362 27.0461 16.1115 26.5214 15.4643 26.5214ZM21.1581 26.5214C20.5108 26.5214 19.9862 27.0461 19.9862 27.6933C19.9862 28.3405 20.5108 28.8652 21.1581 28.8652C21.8053 28.8652 22.3299 28.3405 22.3299 27.6933C22.3299 27.0461 21.8053 26.5214 21.1581 26.5214ZM21.1581 36.0938C20.5108 36.0938 19.9862 36.6184 19.9862 37.2657C19.9862 37.9129 20.5108 38.4375 21.1581 38.4375C21.8053 38.4375 22.3299 37.9129 22.3299 37.2657C22.3299 36.6184 21.8053 36.0938 21.1581 36.0938ZM30 32.8125C29.3528 32.8125 28.8281 33.3372 28.8281 33.9844C28.8281 34.6316 29.3528 35.1563 30 35.1563C30.6472 35.1563 31.1719 34.6316 31.1719 33.9844C31.1719 33.3372 30.6472 32.8125 30 32.8125V32.8125Z" fill="#3D7A51"/>
<path d="M30 60.0001C19.8437 60.0001 10.8661 54.9532 5.43848 47.2304C15.9153 48.0462 22.1206 45.3686 25.8473 42.7818C32.0097 38.5042 38.897 29.2667 41.1394 26.2592C42.9583 23.8198 45.5569 20.1125 50.4554 17.9978C52.9482 16.9217 55.238 16.603 56.8004 16.5046C58.8473 20.5613 60 25.146 60 30.0001C60 46.5686 46.5686 60.0001 30 60.0001V60.0001Z" fill="#6DC54A"/>
<path d="M58.1709 19.661C57.9203 19.8579 57.6694 20.0643 57.4189 20.2807C52.7196 24.3398 51.1301 29.3635 49.9633 32.7069C48.5247 36.8291 44.1062 49.4907 38.7597 56.3925C38.0152 57.3537 37.1263 58.3661 36.0537 59.3888C34.0983 59.7896 32.0738 59.9999 30 59.9999C25.7983 59.9999 21.7983 59.1361 18.168 57.5764C24.6577 55.9505 28.7277 53.1877 31.3688 50.6944C37.333 45.0639 43.2715 33.9528 45.205 30.3353C46.7732 27.401 48.9776 22.9688 53.9284 19.8831C55.1867 19.0989 56.421 18.5271 57.55 18.1062C57.7709 18.6173 57.9781 19.1357 58.1709 19.661V19.661Z" fill="#54A770"/>
<path d="M22.3417 59.0135C20.9055 58.6355 19.5114 58.1536 18.168 57.5765C24.6577 55.9506 28.7277 53.1878 31.3688 50.6945C37.333 45.064 43.2715 33.9529 45.205 30.3354C46.7732 27.4012 48.9776 22.9689 53.9284 19.8832C55.1867 19.099 56.421 18.5273 57.55 18.1063C57.6788 18.4043 57.803 18.7049 57.9223 19.0078C57.7762 19.0937 57.6296 19.1822 57.4826 19.2734C52.0957 22.6158 49.6906 27.4276 47.98 30.6129C45.871 34.5399 39.3933 46.6016 32.8996 52.7073C30.5795 54.8887 27.2481 57.2587 22.3417 59.0135V59.0135Z" fill="#489160"/>
<path d="M17.4425 45.5871C17.0015 45.3842 16.4796 45.5773 16.2767 46.0183L14.9599 48.8816L13.8664 45.9257C13.698 45.4705 13.1924 45.238 12.7372 45.4064C12.2819 45.5749 12.0494 46.0803 12.2178 46.5356L14.0474 51.4815C14.1255 51.6924 14.284 51.8736 14.5045 51.975C14.9455 52.1778 15.4674 51.9847 15.6703 51.5437L17.8737 46.7527C18.0766 46.3118 17.8835 45.7898 17.4425 45.5871ZM31.1173 40.6482C30.6763 40.4454 30.1544 40.6385 29.9515 41.0795L28.6347 43.9427L27.5412 40.9869C27.3728 40.5316 26.8673 40.2991 26.412 40.4675C25.9567 40.636 25.7242 41.1414 25.8926 41.5967L27.7223 46.5426C27.8003 46.7536 27.9589 46.9347 28.1793 47.0361C28.6203 47.2389 29.1422 47.0458 29.3451 46.6048L31.5486 41.8139C31.7513 41.3729 31.5583 40.8509 31.1173 40.6482V40.6482ZM50.1047 52.2669L48.5245 47.995C48.3561 47.5398 48.5886 47.0342 49.0438 46.8658C49.4991 46.6974 50.0047 46.9299 50.1731 47.3852L51.2665 50.341L52.5834 47.4778C52.7862 47.0368 53.3082 46.8437 53.7492 47.0465C54.0149 47.1687 54.1907 47.407 54.2439 47.6736C53.0244 49.3438 51.6363 50.8831 50.1047 52.2669V52.2669ZM57.659 32.9772C57.218 32.7744 56.6961 32.9675 56.4932 33.4085L55.1764 36.2717L54.0829 33.3159C53.9145 32.8606 53.409 32.6281 52.9537 32.7965C52.4984 32.965 52.2659 33.4705 52.4343 33.9257L54.264 38.8716C54.342 39.0826 54.5006 39.2638 54.721 39.3651C55.162 39.568 55.6839 39.3748 55.8868 38.9339L58.0903 34.1429C58.2931 33.7019 58.1 33.18 57.659 32.9772V32.9772Z" fill="#54A770"/>
</svg>
