<svg width="60" height="60" viewBox="0 0 60 60" fill="none" xmlns="http://www.w3.org/2000/svg">
<path d="M60 30C60 40.7204 54.3759 50.1281 45.9184 55.4326C45.049 55.9787 44.1503 56.4796 43.2245 56.9351C39.2351 58.898 34.7461 60 30 60C29.7465 60 29.493 59.9964 29.242 59.9902C23.9461 59.8591 18.9894 58.3555 14.7171 55.8207C14.0938 55.4509 13.4841 55.0579 12.8902 54.6452C12.8902 54.6452 12.889 54.6452 12.889 54.6441C11.4478 53.6425 10.0984 52.5159 8.85551 51.2816C7.76332 50.1967 6.75551 49.0273 5.83957 47.787C2.16855 42.8106 0 36.6575 0 30C0 20.313 4.59188 11.6988 11.7171 6.21305C12.8277 5.35852 13.9996 4.57957 15.2252 3.88523C17.7342 2.46117 20.4697 1.3909 23.3644 0.737109C25.4988 0.254648 27.72 0 30 0C46.5686 0 60 13.4314 60 30Z" fill="#CE508C"/>
<path d="M53.7104 23.7104C53.7104 32.1833 49.2654 39.6186 42.581 43.811C41.8939 44.2426 41.1835 44.6384 40.4518 44.9985C37.2988 46.5498 33.7509 47.4207 30 47.4207C29.7997 47.4207 29.5993 47.4178 29.4009 47.413C25.2152 47.3094 21.2978 46.121 17.9212 44.1178C17.4286 43.8255 16.9467 43.5149 16.4774 43.1887C16.4774 43.1887 16.4764 43.1887 16.4764 43.1878C15.3374 42.3962 14.2708 41.5057 13.2886 40.5304C12.4253 39.673 11.6289 38.7487 10.905 37.7684C8.00354 33.8353 6.28967 28.9723 6.28967 23.7104C6.28967 16.0545 9.91885 9.24609 15.5503 4.91051C16.428 4.23504 17.3542 3.61957 18.323 3.07078C20.3059 1.9452 22.468 1.09945 24.7557 0.582656C26.4425 0.201328 28.198 0 30 0C43.0949 0 53.7104 10.6154 53.7104 23.7104Z" fill="#ED7DB6"/>
<path d="M45.9184 40.8085V55.4325C45.049 55.9786 44.1503 56.4795 43.2245 56.935V40.8085H45.9184Z" fill="#89C6F5"/>
<path d="M29.2419 31.5416V59.9901C19.6419 59.7526 11.1624 55.0052 5.83948 47.7868V31.5416C5.83948 30.1335 6.40643 28.8097 7.37006 27.8461C7.77413 27.442 8.24803 27.1016 8.77819 26.8445C10.5757 25.969 11.717 24.1457 11.717 22.1474V0.635498H23.3644V22.1474C23.3644 23.5543 23.9314 24.878 24.895 25.8417C25.299 26.2458 25.773 26.5862 26.3031 26.8446C28.1008 27.7188 29.2419 29.5433 29.2419 31.5416Z" fill="#B8DDFF"/>
<path d="M23.3644 5.84331V12.3564L17.5334 12.3552C16.2587 12.3552 15.2253 13.3887 15.2253 14.6633L15.2264 22.1474C15.2253 24.1458 14.7721 25.969 14.0583 26.8445C13.7008 27.2816 13.4082 27.9564 13.2061 28.7719C13.0028 29.5874 12.8902 30.5424 12.889 31.5417L12.8902 54.6453C10.1803 52.7608 7.79628 50.4404 5.8396 47.7869V31.5416C5.8396 30.5424 6.12495 29.5873 6.63554 28.7717C7.14495 27.9551 7.8796 27.2816 8.77843 26.8444C10.576 25.9689 11.7173 24.1455 11.7173 22.1473V0.635498H15.2267L15.2255 3.88534V5.84331H23.3644Z" fill="#89C6F5"/>
<path d="M24.3447 1.85649V7.74669C24.3447 8.77172 23.5133 9.60305 22.4882 9.60305H12.5931C11.5681 9.60305 10.7378 8.77172 10.7378 7.74669V1.85649C10.7378 0.83145 11.5679 0.00012207 12.5931 0.00012207H22.4883C23.5135 0.00012207 24.3447 0.83145 24.3447 1.85649Z" fill="#E66A37"/>
<path d="M24.3447 1.85649V7.74669C24.3447 8.77172 23.5134 9.60305 22.4882 9.60305H16.5643C15.5392 9.60305 14.7079 8.77172 14.7079 7.74669V1.85649C14.7079 0.83145 15.5392 0.00012207 16.5643 0.00012207H22.4883C23.5135 0.00012207 24.3447 0.83145 24.3447 1.85649Z" fill="#F09752"/>
<path d="M26.2261 35.433V55.8208H14.7171C14.0937 55.451 13.484 55.0579 12.8901 54.6453C12.8901 54.6453 12.8889 54.6453 12.8889 54.6441C11.4478 53.6425 10.0984 52.516 8.85547 51.2817V35.433H26.2261Z" fill="#EDE8E9"/>
<path d="M12.8889 35.433V54.644C11.4478 53.6424 10.0984 52.5159 8.85547 51.2815V35.433H12.8889Z" fill="#D6D2D3"/>
<path d="M24.7253 10.6542C24.7253 10.9554 24.6028 11.2273 24.4057 11.4257C24.2086 11.6216 23.9356 11.7441 23.6356 11.7441H11.4469C10.8457 11.7441 10.3571 11.2567 10.3571 10.6542C10.3571 10.3531 10.4795 10.0812 10.6766 9.88407C10.8737 9.68696 11.1468 9.56567 11.4468 9.56567H23.6353C24.2367 9.56556 24.7253 10.0529 24.7253 10.6542Z" fill="#89C6F5"/>
<path d="M24.7254 10.6542C24.7254 10.9554 24.6029 11.2273 24.4058 11.4257C24.2087 11.6216 23.9356 11.7441 23.6356 11.7441H15.8552C15.2541 11.7441 14.7654 11.2567 14.7654 10.6542C14.7654 10.3531 14.8878 10.0812 15.085 9.88407C15.2821 9.68696 15.5551 9.56567 15.8551 9.56567H23.6355C24.2368 9.56556 24.7254 10.0529 24.7254 10.6542Z" fill="#B8DDFF"/>
<path d="M23.3646 15.6245H11.7172V22.1461H23.3646V15.6245Z" fill="#EDE8E9"/>
<path d="M15.2255 15.6245H11.7172V22.1461H15.2255V15.6245Z" fill="#D6D2D3"/>
<path d="M13.3873 52.6864C14.7624 52.6864 15.8771 51.5717 15.8771 50.1967C15.8771 48.8216 14.7624 47.7069 13.3873 47.7069C12.0123 47.7069 10.8976 48.8216 10.8976 50.1967C10.8976 51.5717 12.0123 52.6864 13.3873 52.6864Z" fill="#394568"/>
<path d="M17.3878 52.6864C18.7629 52.6864 19.8776 51.5717 19.8776 50.1967C19.8776 48.8216 18.7629 47.7069 17.3878 47.7069C16.0128 47.7069 14.8981 48.8216 14.8981 50.1967C14.8981 51.5717 16.0128 52.6864 17.3878 52.6864Z" fill="#394568"/>
<path d="M15.306 49.0535C16.6811 49.0535 17.7958 47.9388 17.7958 46.5637C17.7958 45.1887 16.6811 44.074 15.306 44.074C13.931 44.074 12.8163 45.1887 12.8163 46.5637C12.8163 47.9388 13.931 49.0535 15.306 49.0535Z" fill="#394568"/>
<path d="M19.3469 49.2984C20.722 49.2984 21.8367 48.1837 21.8367 46.8086C21.8367 45.4336 20.722 44.3188 19.3469 44.3188C17.9719 44.3188 16.8572 45.4336 16.8572 46.8086C16.8572 48.1837 17.9719 49.2984 19.3469 49.2984Z" fill="#394568"/>
<path d="M17.8775 45.6249C19.2525 45.6249 20.3672 44.5102 20.3672 43.1352C20.3672 41.7601 19.2525 40.6454 17.8775 40.6454C16.5024 40.6454 15.3877 41.7601 15.3877 43.1352C15.3877 44.5102 16.5024 45.6249 17.8775 45.6249Z" fill="#394568"/>
<path d="M21.2449 52.2372C22.6199 52.2372 23.7347 51.1225 23.7347 49.7475C23.7347 48.3724 22.6199 47.2577 21.2449 47.2577C19.8698 47.2577 18.7551 48.3724 18.7551 49.7475C18.7551 51.1225 19.8698 52.2372 21.2449 52.2372Z" fill="#394568"/>
<path d="M20.8065 46.1454C20.6866 46.1454 20.5692 46.087 20.4987 45.9792C20.3876 45.8094 20.4352 45.5817 20.605 45.4707L23.6152 43.5013C23.7851 43.3901 24.0127 43.4378 24.1237 43.6076C24.2348 43.7774 24.1872 44.0051 24.0174 44.1161L21.0072 46.0854C20.9452 46.126 20.8754 46.1454 20.8065 46.1454Z" fill="#995248"/>
<path d="M22.225 49.2575C22.2107 49.2575 22.1963 49.2567 22.1817 49.2549C21.9801 49.2313 21.8359 49.0488 21.8596 48.8473L22.3404 44.7473L19.2675 43.4744C19.08 43.3968 18.9911 43.1819 19.0687 42.9945C19.1463 42.8069 19.3613 42.718 19.5486 42.7957L23.1347 44.2811L22.5892 48.933C22.5674 49.1199 22.4086 49.2575 22.225 49.2575Z" fill="#995248"/>
<path d="M23.3374 39.5434C23.2932 39.5434 23.2482 39.5386 23.2032 39.5284C19.4725 38.6946 15.5284 38.6946 11.7975 39.5284C11.4679 39.6021 11.1402 39.3945 11.0665 39.0644C10.9927 38.7344 11.2005 38.4071 11.5305 38.3334C15.4361 37.4605 19.5649 37.4605 23.4704 38.3334C23.8004 38.4071 24.008 38.7344 23.9343 39.0644C23.8707 39.3495 23.6178 39.5434 23.3374 39.5434Z" fill="#394568"/>
<path d="M16.249 4.93777C17.0999 4.93777 17.7897 4.24799 17.7897 3.39711C17.7897 2.54622 17.0999 1.85645 16.249 1.85645C15.3982 1.85645 14.7084 2.54622 14.7084 3.39711C14.7084 4.24799 15.3982 4.93777 16.249 4.93777Z" fill="#E66A37"/>
<path d="M19.9996 7.33919C20.6082 7.33919 21.1016 6.8458 21.1016 6.23716C21.1016 5.62853 20.6082 5.13513 19.9996 5.13513C19.391 5.13513 18.8976 5.62853 18.8976 6.23716C18.8976 6.8458 19.391 7.33919 19.9996 7.33919Z" fill="#E66A37"/>
<path d="M21.4691 3.62484C22.0777 3.62484 22.5711 3.13144 22.5711 2.52281C22.5711 1.91417 22.0777 1.42078 21.4691 1.42078C20.8605 1.42078 20.3671 1.91417 20.3671 2.52281C20.3671 3.13144 20.8605 3.62484 21.4691 3.62484Z" fill="#E66A37"/>
<path d="M34.752 15.9514C34.2931 18.2015 34.0408 20.6481 34.0408 23.207C34.0408 34.2805 38.7556 43.2575 44.5714 43.2575C50.3871 43.2575 55.1019 34.2806 55.1019 23.207C55.1019 20.6481 54.8498 18.2015 54.3907 15.9514H34.752Z" fill="#B8DDFF"/>
<path d="M44.4919 43.2563C38.7123 43.1755 34.0409 34.2307 34.0409 23.2065C34.0409 20.6485 34.2931 18.202 34.7523 15.9514H38.8629C38.596 18.202 38.449 20.6485 38.449 23.2065C38.449 34.1939 41.1478 43.1166 44.4919 43.2563Z" fill="#89C6F5"/>
<path d="M52.6016 25.1351C52.3787 29.3633 51.4211 33.2535 49.849 36.2461C48.3269 39.1457 46.4033 40.8086 44.5714 40.8086C43.195 40.8086 41.7661 39.8695 40.4963 38.1722C40.0752 37.6114 39.6723 36.9673 39.2939 36.2463C37.7216 33.2536 36.764 29.3634 36.5413 25.1352H52.6017V25.1351H52.6016Z" fill="#CE508C"/>
<path d="M40.4963 38.1721C40.0752 37.6113 39.6723 36.9672 39.2939 36.2461C37.7216 33.2535 36.764 29.3633 36.5413 25.1351H38.4772C38.6277 30.3049 39.3771 34.9015 40.4963 38.1721Z" fill="#B02D71"/>
</svg>
