<svg width="601" height="474" viewBox="0 0 601 474" fill="none" xmlns="http://www.w3.org/2000/svg">
<g clip-path="url(#clip0)">
<path opacity="0.24" d="M553.34 462.21C552.4 462.68 551.46 463.15 550.52 463.58C532.4 471.84 512.05 473.64 492.12 473.75C404.91 474.38 318.21 446 231.55 456.33C177.89 462.72 118.9 482.76 73.22 453.91C51.81 440.36 37.6 418.09 25.7 395.7C10.34 366.82 -2.76999 334.84 0.520005 302.27C0.929608 298.231 1.59764 294.223 2.52001 290.27C10.12 256.38 34.23 227.41 59.59 202.95C87.89 175.59 119.59 150.34 138.46 115.86C153.46 88.61 160.11 56.16 181.72 33.81C242.5 -29.19 382.08 8.17999 445.89 47.16C487.18 72.41 520.61 112.88 530.36 160.28C536.36 189.6 533.36 220.48 541.94 249.18C555.45 294.62 596.58 330.28 600.69 377.48C603.66 411.67 583.93 446.71 553.34 462.21Z" fill="#E85C4B"/>
<path opacity="0.24" d="M553.34 462.21C552.4 462.68 551.46 463.15 550.52 463.58C532.4 471.84 512.05 473.64 492.12 473.75C404.91 474.38 318.21 446 231.55 456.33C177.89 462.72 118.9 482.76 73.22 453.91C51.81 440.36 37.6 418.09 25.7 395.7C10.34 366.82 -2.76999 334.84 0.520005 302.27C0.929608 298.231 1.59764 294.223 2.52001 290.27C3.76729 289.775 5.04287 289.354 6.34 289.01C35.03 281.11 70.65 290.11 89.67 313.24C101.96 328.24 107.76 347.33 115.74 365.03C123.72 382.73 135.59 400.45 153.9 406.79C183.9 417.16 216.69 393.09 247.53 400.29C265.07 404.44 278.81 418.03 295.68 424.37C344.8 442.88 402.3 395.87 450.05 417.75C455.53 420.26 460.66 423.66 466.42 425.34C473.66 427.5 481.33 426.87 488.88 426.72C500.922 426.446 512.962 427.374 524.82 429.49C531 430.63 537.42 432.23 541.88 436.62C545.09 439.75 546.93 444.02 548.54 448.2C550.34 452.77 551.95 457.47 553.34 462.21Z" fill="#E85C4B"/>
<path d="M485.7 300.01C484.96 278.15 489.7 256.52 494.65 235.22C515.58 253.85 536.93 273.01 550.34 297.56C555.34 306.71 559.16 316.56 565.14 325.06C572.49 335.54 582.81 343.68 589.87 354.35C603.36 374.73 602.46 403.59 587.72 423.09C586.385 425.131 584.532 426.78 582.35 427.87C579.55 429.04 576.35 428.48 573.41 427.75C547.56 421.33 525.6 401.96 515.04 377.64C503.62 351.35 486.72 330.26 485.7 300.01Z" fill="#E85C4B"/>
<path d="M485.7 300.01C484.96 278.15 489.7 256.52 494.65 235.22C515.58 253.85 536.93 273.01 550.34 297.56C555.34 306.71 559.16 316.56 565.14 325.06C572.49 335.54 582.81 343.68 589.87 354.35C603.36 374.73 602.46 403.59 587.72 423.09C586.385 425.131 584.532 426.78 582.35 427.87C579.55 429.04 576.35 428.48 573.41 427.75C547.56 421.33 525.6 401.96 515.04 377.64C503.62 351.35 486.72 330.26 485.7 300.01Z" fill="url(#paint0_linear)"/>
<path d="M191.56 382.56C196.42 398.95 205.88 414.24 206.85 431.3C207.29 439.09 203.15 453.54 201.78 461.21C216.93 463.62 235.2 457.03 250.38 454.85C252.67 454.52 255.07 454.09 256.87 452.64C258.67 451.19 259.57 449.04 260.41 446.93C272.56 416.252 277.718 383.252 275.51 350.33C275.16 345.26 274.62 340.12 272.76 335.39C272.404 334.214 271.708 333.171 270.76 332.39C269.536 331.732 268.143 331.454 266.76 331.59L228.93 331.8C217.43 331.86 199.28 331.56 190.69 340.93C182.82 349.42 188.59 372.55 191.56 382.56Z" fill="#606161"/>
<path d="M191.56 382.56C196.42 398.95 205.88 414.24 206.85 431.3C207.29 439.09 203.15 453.54 201.78 461.21C216.93 463.62 235.2 457.03 250.38 454.85C252.67 454.52 255.07 454.09 256.87 452.64C258.67 451.19 259.57 449.04 260.41 446.93C272.56 416.252 277.718 383.252 275.51 350.33C275.16 345.26 274.62 340.12 272.76 335.39C272.404 334.214 271.708 333.171 270.76 332.39C269.536 331.732 268.143 331.454 266.76 331.59L228.93 331.8C217.43 331.86 199.28 331.56 190.69 340.93C182.82 349.42 188.59 372.55 191.56 382.56Z" fill="url(#paint1_linear)"/>
<path d="M305.05 374.83C303.793 399.196 304.127 423.618 306.05 447.94C306.268 449.167 306.129 450.43 305.65 451.58C304.59 453.58 301.93 453.88 299.65 453.95C286.183 454.323 272.713 454.167 259.24 453.48C257.886 453.628 256.525 453.271 255.418 452.478C254.31 451.684 253.535 450.51 253.24 449.18C249.79 441.41 246.85 433.3 241.85 426.42C235.71 417.95 226.85 411.88 220.04 403.93C210.18 392.38 205.16 377.4 202.73 362.42C202.09 358.49 201.73 354.03 204.25 350.94C206.48 348.19 210.25 347.4 213.69 346.5C225.69 343.34 236.47 336.84 247.07 330.41C255.57 325.25 264.16 320.07 271.74 313.59C277.92 308.31 284.1 298.7 293.55 302.27C299.4 304.48 299.6 309.44 299.55 315.01C299.55 323.01 299.15 329.93 301.43 337.7C305.23 350.33 305.72 361.72 305.05 374.83Z" fill="#606161"/>
<path d="M305.05 374.83C303.793 399.196 304.127 423.618 306.05 447.94C306.268 449.167 306.129 450.43 305.65 451.58C304.59 453.58 301.93 453.88 299.65 453.95C286.183 454.323 272.713 454.167 259.24 453.48C257.886 453.628 256.525 453.271 255.418 452.478C254.31 451.684 253.535 450.51 253.24 449.18C249.79 441.41 246.85 433.3 241.85 426.42C235.71 417.95 226.85 411.88 220.04 403.93C210.18 392.38 205.16 377.4 202.73 362.42C202.09 358.49 201.73 354.03 204.25 350.94C206.48 348.19 210.25 347.4 213.69 346.5C225.69 343.34 236.47 336.84 247.07 330.41C255.57 325.25 264.16 320.07 271.74 313.59C277.92 308.31 284.1 298.7 293.55 302.27C299.4 304.48 299.6 309.44 299.55 315.01C299.55 323.01 299.15 329.93 301.43 337.7C305.23 350.33 305.72 361.72 305.05 374.83Z" fill="url(#paint2_linear)"/>
<path d="M284.04 90.43C286.425 90.4256 288.751 91.1707 290.69 92.56C291.723 93.4218 292.576 94.4785 293.2 95.67C296.68 102 295.39 110.08 298.69 116.51C299.57 118.21 300.79 119.95 300.49 121.84C300.23 123.53 298.83 124.78 298.08 126.31C296.7 129.13 297.65 132.53 296.89 135.57C296.411 137.239 295.606 138.796 294.52 140.15C293.048 142.293 291.118 144.083 288.87 145.39C287.742 146.036 286.495 146.446 285.204 146.595C283.913 146.745 282.605 146.631 281.36 146.26C278.64 145.34 276.68 143.01 274.92 140.74C273.125 138.602 271.64 136.222 270.51 133.67C268.77 129.31 268.97 124.45 269.21 119.76C269.69 110.09 270.25 89.78 284.04 90.43Z" fill="url(#paint3_linear)"/>
<path d="M301.17 88.52C300.936 88.7681 300.666 88.9804 300.37 89.15C299.963 89.3091 299.526 89.3773 299.09 89.35C296.699 89.363 294.312 89.5569 291.95 89.93C291.547 89.9559 291.159 90.0945 290.83 90.33C290.51 90.6952 290.321 91.1557 290.29 91.64C289.586 95.9857 289.384 100.398 289.69 104.79C289.79 106.19 290.03 107.79 291.18 108.59C292.109 109.103 293.176 109.312 294.23 109.19L297.9 109.12C298.207 109.089 298.516 109.148 298.79 109.29C299.17 109.53 299.25 110.04 299.36 110.48C299.99 113.2 302.5 115.15 305.15 116.03C307.8 116.91 310.65 116.94 313.43 117.2C322.21 118.04 330.62 121.27 339.43 122.1C340.121 122.253 340.839 122.234 341.521 122.044C342.203 121.854 342.828 121.499 343.34 121.01L348.71 116.78C349.19 116.343 349.75 116.003 350.36 115.78C350.87 115.655 351.397 115.615 351.92 115.66C357.56 115.89 363.79 116.84 368.34 113.51C370.638 111.652 372.356 109.174 373.29 106.37C374.497 103.438 375.047 100.277 374.9 97.11C374.566 92.7725 372.536 88.7414 369.25 85.89C368.764 85.4381 368.202 85.0759 367.59 84.82C366.868 84.5986 366.114 84.5005 365.36 84.53L346.74 84.17C337.68 84 328.62 83.83 319.56 83.97C316.264 83.9328 312.98 84.3741 309.81 85.28C306.7 86.22 303.69 86.14 301.17 88.52Z" fill="#606161"/>
<path d="M301.17 88.52C300.936 88.7681 300.666 88.9804 300.37 89.15C299.963 89.3091 299.526 89.3773 299.09 89.35C296.699 89.363 294.312 89.5569 291.95 89.93C291.547 89.9559 291.159 90.0945 290.83 90.33C290.51 90.6952 290.321 91.1557 290.29 91.64C289.586 95.9857 289.384 100.398 289.69 104.79C289.79 106.19 290.03 107.79 291.18 108.59C292.109 109.103 293.176 109.312 294.23 109.19L297.9 109.12C298.207 109.089 298.516 109.148 298.79 109.29C299.17 109.53 299.25 110.04 299.36 110.48C299.99 113.2 302.5 115.15 305.15 116.03C307.8 116.91 310.65 116.94 313.43 117.2C322.21 118.04 330.62 121.27 339.43 122.1C340.121 122.253 340.839 122.234 341.521 122.044C342.203 121.854 342.828 121.499 343.34 121.01L348.71 116.78C349.19 116.343 349.75 116.003 350.36 115.78C350.87 115.655 351.397 115.615 351.92 115.66C357.56 115.89 363.79 116.84 368.34 113.51C370.638 111.652 372.356 109.174 373.29 106.37C374.497 103.438 375.047 100.277 374.9 97.11C374.566 92.7725 372.536 88.7414 369.25 85.89C368.764 85.4381 368.202 85.0759 367.59 84.82C366.868 84.5986 366.114 84.5005 365.36 84.53L346.74 84.17C337.68 84 328.62 83.83 319.56 83.97C316.264 83.9328 312.98 84.3741 309.81 85.28C306.7 86.22 303.69 86.14 301.17 88.52Z" fill="url(#paint4_linear)"/>
<path d="M288.34 78.26C292.82 87.97 291.48 99.26 290.8 109.89C289.728 126.633 290.523 143.443 293.17 160.01C287.72 155.33 280.84 152.57 273.82 151.01C266.8 149.45 259.6 149.11 252.42 148.75C250.891 148.591 249.346 148.668 247.84 148.98C243.9 149.98 241.49 153.98 240.17 157.85C238.85 161.72 238.17 165.85 235.78 169.2L237.78 151.03C238.088 149.533 237.949 147.979 237.38 146.56C236.734 145.489 235.769 144.646 234.62 144.15C232.674 143.217 230.519 142.805 228.366 142.956C226.213 143.107 224.137 143.815 222.34 145.01C220.95 138.4 225.95 132.3 227.56 125.74C228.71 121.07 228.11 116.16 227.79 111.36C227.251 103.994 227.469 96.5917 228.44 89.27C229.04 84.88 229.97 80.46 232.16 76.62C235.73 70.36 242.27 66.32 249.04 63.85C256.4 61.17 265.41 60.33 271.4 65.37C272.87 66.61 274.28 68.48 276.24 68.92C277.95 69.3 279.24 68.92 280.94 69.85C284.28 71.63 286.73 74.89 288.34 78.26Z" fill="#606161"/>
<path d="M288.34 78.26C292.82 87.97 291.48 99.26 290.8 109.89C289.728 126.633 290.523 143.443 293.17 160.01C287.72 155.33 280.84 152.57 273.82 151.01C266.8 149.45 259.6 149.11 252.42 148.75C250.891 148.591 249.346 148.668 247.84 148.98C243.9 149.98 241.49 153.98 240.17 157.85C238.85 161.72 238.17 165.85 235.78 169.2L237.78 151.03C238.088 149.533 237.949 147.979 237.38 146.56C236.734 145.489 235.769 144.646 234.62 144.15C232.674 143.217 230.519 142.805 228.366 142.956C226.213 143.107 224.137 143.815 222.34 145.01C220.95 138.4 225.95 132.3 227.56 125.74C228.71 121.07 228.11 116.16 227.79 111.36C227.251 103.994 227.469 96.5917 228.44 89.27C229.04 84.88 229.97 80.46 232.16 76.62C235.73 70.36 242.27 66.32 249.04 63.85C256.4 61.17 265.41 60.33 271.4 65.37C272.87 66.61 274.28 68.48 276.24 68.92C277.95 69.3 279.24 68.92 280.94 69.85C284.28 71.63 286.73 74.89 288.34 78.26Z" fill="url(#paint5_linear)"/>
<path d="M255.21 54.53L245.73 47.1C245.208 46.5489 244.531 46.169 243.788 46.0101C243.045 45.8512 242.272 45.9209 241.57 46.21C232.05 48.62 222.8 52.79 215.68 59.55C205.68 69.06 200.77 82.74 197.52 96.17C197 98.34 196.52 100.68 197.33 102.75C198.045 104.221 199.068 105.52 200.33 106.56L208.08 114C208.667 114.468 209.105 115.097 209.34 115.81C209.425 116.634 209.22 117.461 208.76 118.15C207.3 120.88 205.29 123.28 203.76 125.95C202.23 128.62 201.06 131.75 201.61 134.8C201.984 136.653 202.941 138.337 204.341 139.608C205.74 140.878 207.51 141.667 209.39 141.86C212.07 142.08 214.68 141.04 217.14 139.94C235.103 131.832 250.719 119.306 262.53 103.53C268.87 95.03 274.02 85.69 278.87 76.25C281.68 70.77 284.42 65.19 286 59.25C287.158 55.4594 287.377 51.4443 286.64 47.55C286.527 46.8489 286.218 46.1939 285.75 45.66C285.077 45.1265 284.248 44.8279 283.39 44.81C279.551 44.3935 275.668 44.8222 272.012 46.066C268.357 47.3099 265.018 49.3386 262.23 52.01C261.126 53.2727 259.648 54.1488 258.01 54.51C257.2 54.68 255.86 55.01 255.21 54.53Z" fill="#E85C4B"/>
<path d="M253.56 52.88L244.08 45.45C243.534 44.9543 242.885 44.5855 242.18 44.37C241.419 44.2538 240.641 44.3189 239.91 44.56C230.4 46.96 221.14 51.13 214.03 57.89C204.03 67.41 199.12 81.09 195.87 94.52C195.35 96.69 194.87 99.02 195.68 101.1C196.392 102.57 197.415 103.867 198.68 104.9L206.43 112.34C207.021 112.804 207.46 113.435 207.69 114.15C207.785 114.973 207.582 115.803 207.12 116.49C205.66 119.22 203.65 121.63 202.12 124.3C200.59 126.97 199.42 130.09 199.97 133.14C200.343 134.992 201.298 136.677 202.696 137.949C204.093 139.221 205.861 140.013 207.74 140.21C210.43 140.43 213.04 139.39 215.5 138.29C233.462 130.185 249.075 117.658 260.88 101.88C267.23 93.37 272.38 84.04 277.23 74.6C280.04 69.12 282.78 63.54 284.35 57.6C285.508 53.8129 285.728 49.8009 284.99 45.91C284.881 45.2096 284.576 44.5545 284.11 44.02C283.433 43.4854 282.602 43.1837 281.74 43.16C277.91 42.766 274.04 43.2095 270.398 44.4596C266.757 45.7097 263.43 47.7367 260.65 50.4C259.522 51.6767 258.009 52.5509 256.34 52.89C255.54 53.01 254.2 53.39 253.56 52.88Z" fill="url(#paint6_linear)"/>
<path d="M200.57 187.08C200.05 220.39 199.33 253.83 194.13 286.73C191.95 300.56 188.98 314.68 191.63 328.42C191.971 331.941 193.318 335.289 195.509 338.066C197.701 340.842 200.645 342.93 203.99 344.08C209.484 346.42 215.223 348.138 221.1 349.2C229.4 350.88 238.01 351.96 246.3 350.2C263.51 346.58 276.13 331.42 283.18 315.31C284.66 311.93 287.32 307.74 290.86 308.79C295.19 310.07 294.47 317.62 298.68 319.26C302.87 309.01 297.06 297.62 296.5 286.56C295.87 274.18 301.89 262.56 307.12 251.32C312.35 240.08 317.04 227.46 313.66 215.53C312.19 210.32 309.26 205.65 307.51 200.53C305 193.23 304.96 185.3 302.85 177.87C298.77 163.45 286.94 151.99 273.15 146.11C260.01 140.5 239.01 136.73 224.92 141.32C203.82 148.23 200.88 167.45 200.57 187.08Z" fill="#E85C4B"/>
<path d="M200.57 187.08C200.05 220.39 199.33 253.83 194.13 286.73C191.95 300.56 188.98 314.68 191.63 328.42C191.971 331.941 193.318 335.289 195.509 338.066C197.701 340.842 200.645 342.93 203.99 344.08C209.484 346.42 215.223 348.138 221.1 349.2C229.4 350.88 238.01 351.96 246.3 350.2C263.51 346.58 276.13 331.42 283.18 315.31C284.66 311.93 287.32 307.74 290.86 308.79C295.19 310.07 294.47 317.62 298.68 319.26C302.87 309.01 297.06 297.62 296.5 286.56C295.87 274.18 301.89 262.56 307.12 251.32C312.35 240.08 317.04 227.46 313.66 215.53C312.19 210.32 309.26 205.65 307.51 200.53C305 193.23 304.96 185.3 302.85 177.87C298.77 163.45 286.94 151.99 273.15 146.11C260.01 140.5 239.01 136.73 224.92 141.32C203.82 148.23 200.88 167.45 200.57 187.08Z" fill="url(#paint7_linear)"/>
<path d="M270.34 147.83C264.93 146.91 258.72 146.45 254.63 150.11C252.86 151.839 251.56 153.99 250.85 156.36C247.78 165.15 249.03 175.16 253.36 183.36C257.69 191.56 264.92 198.13 273.16 202.47C284.587 208.561 297.848 210.257 310.44 207.24C319.66 204.91 328.1 199.94 337.44 198.03C349.68 195.51 363.5 198.21 373.94 191.33C375.073 190.647 376.056 189.743 376.83 188.67C377.607 187.415 378.07 185.992 378.18 184.52C379.02 176.85 374.51 169.52 369.18 164.01C367.803 162.419 366.097 161.147 364.18 160.28C362.437 159.702 360.604 159.444 358.77 159.52C348.07 159.42 337.41 160.85 326.71 160.86C319.04 160.86 311.26 160.13 303.98 157.64C300.98 156.64 298.33 155.08 295.43 153.99C291.784 152.71 288.072 151.629 284.31 150.75C279.663 149.59 275.007 148.617 270.34 147.83Z" fill="#E85C4B"/>
<path d="M270.34 147.83C264.93 146.91 258.72 146.45 254.63 150.11C252.86 151.839 251.56 153.99 250.85 156.36C247.78 165.15 249.03 175.16 253.36 183.36C257.69 191.56 264.92 198.13 273.16 202.47C284.587 208.561 297.848 210.257 310.44 207.24C319.66 204.91 328.1 199.94 337.44 198.03C349.68 195.51 363.5 198.21 373.94 191.33C375.073 190.647 376.056 189.743 376.83 188.67C377.607 187.415 378.07 185.992 378.18 184.52C379.02 176.85 374.51 169.52 369.18 164.01C367.803 162.419 366.097 161.147 364.18 160.28C362.437 159.702 360.604 159.444 358.77 159.52C348.07 159.42 337.41 160.85 326.71 160.86C319.04 160.86 311.26 160.13 303.98 157.64C300.98 156.64 298.33 155.08 295.43 153.99C291.784 152.71 288.072 151.629 284.31 150.75C279.663 149.59 275.007 148.617 270.34 147.83Z" fill="url(#paint8_linear)"/>
<path d="M315.61 114.13C315.522 114.573 315.593 115.033 315.81 115.43C316.106 115.778 316.518 116.005 316.97 116.07C319.97 116.79 323.04 115.51 326.06 114.84C330.61 113.84 335.34 114.23 339.98 114.62C340.415 114.597 340.846 114.716 341.207 114.959C341.567 115.203 341.839 115.558 341.98 115.97C347.26 125.15 352.67 134.78 353.21 145.36C353.196 147.74 353.333 150.118 353.62 152.48C354.96 159.85 361.31 165.03 366.18 170.71C368.55 173.48 370.67 176.51 373.52 178.8C376.37 181.09 380.18 182.54 383.67 181.51C387.58 180.37 390.1 176.36 390.72 172.34C391.34 168.32 390.43 164.23 389.52 160.26C387.67 152.13 385.79 143.92 382.21 136.39C377.1 125.64 368.81 116.8 361.98 107.07C357.267 100.362 353.231 93.204 349.93 85.7C349.21 84.05 348.45 82.3 346.93 81.28C343.63 79.01 339.06 81.63 335.15 80.74C332.44 80.12 330.41 77.9 327.93 76.64C325.45 75.38 321.58 75.73 320.93 78.42C317.411 78.098 313.887 78.9756 310.93 80.91C310.53 81.17 310.1 81.54 310.12 82.01C310.14 82.48 310.54 82.76 310.9 83.01C316.69 87.15 323.19 93.36 325.95 100.08C328.77 107.01 316.45 107.08 315.61 114.13Z" fill="url(#paint9_linear)"/>
<path d="M221.76 127.37C230.1 122.37 238.56 117.21 245.13 110.02C251.7 102.83 256.06 93.87 259.43 84.72C261.87 78.12 263.85 71.24 263.87 64.21C263.87 62.28 263.99 63.34 263.22 61.57C261.51 57.57 255.45 53.67 251.51 51.92C254.86 58.43 253.46 65.15 250.08 71.65C245.34 80.71 239.73 89.39 232.34 96.46C229.34 99.36 209.34 114.97 209.34 114.97C209.34 115.81 217.7 124.01 221.76 127.37Z" fill="#05293D"/>
<path d="M235.62 62.22C228.86 78.3 218.68 93.9 203.21 101.96C201.71 102.74 199.95 103.45 198.39 102.8C197.654 102.42 197.047 101.831 196.645 101.107C196.242 100.383 196.063 99.5557 196.13 98.73C196.292 97.0798 196.781 95.4784 197.57 94.02L203.57 80.89C207 73.42 210.49 65.89 215.84 59.61C220.06 54.68 225.65 50.61 232.02 48.98C235.02 48.23 237.35 47.43 238.09 50.85C238.91 54.5 237 58.94 235.62 62.22Z" fill="url(#paint10_linear)"/>
<path d="M219.34 176.19C218.672 176.968 218.27 177.938 218.19 178.96C218.19 180.34 219.3 181.43 220.26 182.43C231.45 194.2 231.36 212.3 232.26 228.52C233.17 245.68 235.89 262.69 238.6 279.66C239.39 284.59 240.26 289.73 243.23 293.75C248.82 301.34 259.71 302.41 267.38 307.9C269.51 309.42 271.5 311.48 271.95 314.07C272.4 316.66 271.16 319.44 269.95 321.89L257.14 347.43C255.58 350.928 253.563 354.203 251.14 357.17C248.559 359.871 245.594 362.176 242.34 364.01C225.47 374.38 206.03 381.61 186.25 380.7C166.47 379.79 146.47 369.7 137.11 352.22C130.4 339.72 129.61 324.91 130.36 310.74C131.11 296.57 133.26 282.38 131.84 268.26C131.06 260.51 129.2 252.81 129.54 245.02C129.99 234.32 134.54 224.27 138.98 214.52C141.77 208.43 144.6 202.27 148.83 197.08C153.54 191.31 159.93 186.79 163.3 180.15C164.41 177.96 165.3 175.41 167.49 174.27C168.922 173.665 170.482 173.425 172.03 173.57C179.82 173.68 188.63 173.47 193.91 167.74C197.91 163.35 198.7 156.96 200.83 151.38C202.96 145.8 208.22 140.2 213.99 141.75C212.088 150.488 211.361 159.44 211.83 168.37C221.19 161.77 228.57 152.65 238.05 146.22C244.22 142.03 253.14 138.16 260.8 139.5C271.48 141.37 265.22 146.69 258.95 149.15C243.93 155.01 228.76 162.69 219.34 176.19Z" fill="#E85C4B"/>
<path d="M219.34 176.19C218.672 176.968 218.27 177.938 218.19 178.96C218.19 180.34 219.3 181.43 220.26 182.43C231.45 194.2 231.36 212.3 232.26 228.52C233.17 245.68 235.89 262.69 238.6 279.66C239.39 284.59 240.26 289.73 243.23 293.75C248.82 301.34 259.71 302.41 267.38 307.9C269.51 309.42 271.5 311.48 271.95 314.07C272.4 316.66 271.16 319.44 269.95 321.89L257.14 347.43C255.58 350.928 253.563 354.203 251.14 357.17C248.559 359.871 245.594 362.176 242.34 364.01C225.47 374.38 206.03 381.61 186.25 380.7C166.47 379.79 146.47 369.7 137.11 352.22C130.4 339.72 129.61 324.91 130.36 310.74C131.11 296.57 133.26 282.38 131.84 268.26C131.06 260.51 129.2 252.81 129.54 245.02C129.99 234.32 134.54 224.27 138.98 214.52C141.77 208.43 144.6 202.27 148.83 197.08C153.54 191.31 159.93 186.79 163.3 180.15C164.41 177.96 165.3 175.41 167.49 174.27C168.922 173.665 170.482 173.425 172.03 173.57C179.82 173.68 188.63 173.47 193.91 167.74C197.91 163.35 198.7 156.96 200.83 151.38C202.96 145.8 208.22 140.2 213.99 141.75C212.088 150.488 211.361 159.44 211.83 168.37C221.19 161.77 228.57 152.65 238.05 146.22C244.22 142.03 253.14 138.16 260.8 139.5C271.48 141.37 265.22 146.69 258.95 149.15C243.93 155.01 228.76 162.69 219.34 176.19Z" fill="url(#paint11_linear)"/>
<path d="M194.54 234.48C195.61 227.24 197.81 220.24 200.01 213.26L206.3 193.26C206.82 191.61 207.47 189.8 209.02 189.03C211.29 187.89 213.92 189.69 215.63 191.57C227.98 205.07 227.63 225.38 229.14 243.57C230.85 264.5 236.94 286.77 253.52 299.66C260.35 304.98 269.64 310.07 269.6 318.73C269.6 322.94 267.18 326.73 264.86 330.24L253.78 347.04C247.88 355.99 240.69 365.79 230.06 367.18C226.863 367.725 223.579 367.008 220.9 365.18C217.7 362.75 216.47 358.58 215.42 354.7C205.1 316.54 189.51 274.66 194.54 234.48Z" fill="url(#paint12_linear)"/>
<path d="M197.43 355.39C198.017 356.877 198.922 358.218 200.08 359.32C202.79 361.56 206.82 360.88 210.17 359.82C216.349 357.7 222.364 355.134 228.17 352.14C232.284 350.272 236.238 348.068 239.99 345.55C241.653 344.464 243.076 343.048 244.17 341.39C244.708 340.557 245.044 339.609 245.151 338.623C245.259 337.637 245.135 336.64 244.79 335.71C244.314 334.773 243.705 333.911 242.98 333.15C236.825 325.916 232.348 317.409 229.87 308.24C228.67 303.79 227.95 299.19 226.09 294.98C225.892 294.43 225.546 293.946 225.09 293.58C224.683 293.377 224.239 293.258 223.785 293.233C223.332 293.207 222.877 293.274 222.45 293.43C214.96 295.06 207.29 296.78 200.88 300.97C197.211 303.547 193.79 306.46 190.66 309.67C188.5 311.75 186.3 313.8 186.23 316.97C186.06 324.86 189.29 333.97 191.77 341.34C193.376 346.132 195.266 350.823 197.43 355.39Z" fill="#E85C4B"/>
<path d="M198.9 354.1C199.486 355.591 200.39 356.935 201.55 358.04C204.26 360.28 208.29 359.6 211.64 358.53C217.818 356.409 223.834 353.842 229.64 350.85C233.754 348.982 237.708 346.778 241.46 344.26C243.123 343.177 244.545 341.765 245.64 340.11C246.178 339.277 246.514 338.329 246.621 337.343C246.729 336.357 246.605 335.36 246.26 334.43C245.787 333.489 245.177 332.623 244.45 331.86C238.293 324.627 233.816 316.12 231.34 306.95C230.14 302.51 229.41 297.9 227.56 293.69C227.362 293.14 227.016 292.656 226.56 292.29C226.152 292.092 225.708 291.976 225.255 291.95C224.802 291.925 224.348 291.989 223.92 292.14C216.43 293.78 208.76 295.49 202.35 299.69C198.679 302.264 195.257 305.177 192.13 308.39C189.97 310.46 187.77 312.52 187.7 315.68C187.53 323.57 190.76 332.68 193.24 340.05C194.844 344.842 196.734 349.534 198.9 354.1Z" fill="url(#paint13_linear)"/>
<path d="M194.8 202.58C193.04 208.32 191.95 214.4 188.69 219.44C186.18 223.31 182.55 226.29 179.11 229.36C172.628 235.144 166.64 241.459 161.21 248.24C159.58 250.24 157.94 252.41 155.7 253.77C153.534 254.938 151.152 255.649 148.7 255.86C142.68 256.692 136.573 256.668 130.56 255.79C128.75 255.53 126.81 255.11 125.56 253.79C124.631 252.55 124.07 251.074 123.94 249.53C121.761 235.721 122.919 221.591 127.317 208.32C131.715 195.05 139.225 183.025 149.22 173.25C151.148 171.222 153.442 169.577 155.98 168.4C158.455 167.535 161.049 167.056 163.67 166.98C175.5 166.05 187.96 165.22 198.67 170.29C200.85 171.29 206.11 173.49 207.17 175.8C208.46 178.6 205.53 181.01 204.03 183.22C200.007 189.178 196.896 195.703 194.8 202.58Z" fill="#E85C4B"/>
<path d="M194.8 202.58C193.04 208.32 191.95 214.4 188.69 219.44C186.18 223.31 182.55 226.29 179.11 229.36C172.628 235.144 166.64 241.459 161.21 248.24C159.58 250.24 157.94 252.41 155.7 253.77C153.534 254.938 151.152 255.649 148.7 255.86C142.68 256.692 136.573 256.668 130.56 255.79C128.75 255.53 126.81 255.11 125.56 253.79C124.631 252.55 124.07 251.074 123.94 249.53C121.761 235.721 122.919 221.591 127.317 208.32C131.715 195.05 139.225 183.025 149.22 173.25C151.148 171.222 153.442 169.577 155.98 168.4C158.455 167.535 161.049 167.056 163.67 166.98C175.5 166.05 187.96 165.22 198.67 170.29C200.85 171.29 206.11 173.49 207.17 175.8C208.46 178.6 205.53 181.01 204.03 183.22C200.007 189.178 196.896 195.703 194.8 202.58Z" fill="url(#paint14_linear)"/>
<path d="M198.73 277.38C191.07 280.15 184.14 284.59 177.29 288.98C175.77 289.98 174.17 290.98 173.42 292.67C172.14 295.5 173.82 298.67 175.24 301.45C178.886 308.59 180.934 316.439 181.24 324.45C186.76 322.76 192.52 327.12 198.24 326.45C200.682 325.999 203.016 325.089 205.12 323.77L223.06 314.01C224.649 313.337 226.083 312.345 227.272 311.094C228.46 309.843 229.379 308.361 229.97 306.74C231.79 303.02 233.65 298.96 232.8 294.91C232.358 293.241 231.685 291.642 230.8 290.16C228.9 286.53 223.18 270.64 219.23 270.08C217.32 269.8 211.6 273.36 209.54 274.02C205.97 275.19 202.34 276.09 198.73 277.38Z" fill="#E85C4B"/>
<path d="M197.44 277.93C189.78 280.71 182.86 285.14 176 289.54C174.48 290.54 172.88 291.54 172.13 293.22C170.85 296.05 172.54 299.22 173.95 302C177.601 309.138 179.648 316.988 179.95 325C185.48 323.31 191.23 327.68 196.95 327C199.392 326.55 201.727 325.641 203.83 324.32L221.75 314.57C223.336 313.895 224.767 312.901 225.954 311.651C227.141 310.4 228.058 308.919 228.65 307.3C230.47 303.58 232.33 299.52 231.49 295.47C231.043 293.803 230.37 292.205 229.49 290.72C227.59 287.1 221.86 271.2 217.91 270.64C216 270.37 210.28 273.92 208.22 274.58C204.68 275.74 201 276.64 197.44 277.93Z" fill="url(#paint15_linear)"/>
<path d="M181.53 341.85C183.304 346.955 184.58 352.219 185.34 357.57C185.6 359.88 185.61 362.43 184.23 364.3C182.85 366.17 180.37 366.91 178.05 366.91C175.732 366.766 173.426 366.462 171.15 366C166.04 365.33 160.73 366.17 155.8 364.67C154.149 364.134 152.543 363.466 151 362.67L137.78 356.28C137.188 356.028 136.636 355.691 136.14 355.28C135.553 354.684 135.096 353.972 134.8 353.19C131.875 346.532 131.119 339.122 132.64 332.01C134.09 325.28 137.54 319.08 138.73 312.3C139.41 308.39 139.38 304.22 141.35 300.79C141.838 299.852 142.575 299.066 143.48 298.52C144.601 298.033 145.82 297.818 147.04 297.89C150.86 297.83 148.19 292.89 152.04 292.83C154.66 292.83 164.75 293.12 166.92 294.83C169.09 296.54 169.44 305.22 170.34 307.83C172.813 314.99 175.223 322.173 177.57 329.38C178.903 333.547 180.223 337.703 181.53 341.85Z" fill="#E85C4B"/>
<path d="M181.53 341.85C183.304 346.955 184.58 352.219 185.34 357.57C185.6 359.88 185.61 362.43 184.23 364.3C182.85 366.17 180.37 366.91 178.05 366.91C175.732 366.766 173.426 366.462 171.15 366C166.04 365.33 160.73 366.17 155.8 364.67C154.149 364.134 152.543 363.466 151 362.67L137.78 356.28C137.188 356.028 136.636 355.691 136.14 355.28C135.553 354.684 135.096 353.972 134.8 353.19C131.875 346.532 131.119 339.122 132.64 332.01C134.09 325.28 137.54 319.08 138.73 312.3C139.41 308.39 139.38 304.22 141.35 300.79C141.838 299.852 142.575 299.066 143.48 298.52C144.601 298.033 145.82 297.818 147.04 297.89C150.86 297.83 148.19 292.89 152.04 292.83C154.66 292.83 164.75 293.12 166.92 294.83C169.09 296.54 169.44 305.22 170.34 307.83C172.813 314.99 175.223 322.173 177.57 329.38C178.903 333.547 180.223 337.703 181.53 341.85Z" fill="url(#paint16_linear)"/>
<path d="M356.69 154.32C354.53 155.91 352.62 157.99 350.06 158.82C351.22 162.76 356.21 164.44 357.77 168.23C358.83 170.81 358.07 173.72 357.64 176.47C356.56 183.39 357.69 190.47 358.82 197.34C359.1 199.05 359.56 201.02 361.13 201.76C361.707 201.989 362.32 202.114 362.94 202.13C366.3 202.37 369.85 202.13 372.74 200.45C376.65 198.12 378.84 193.31 383.11 191.75C384.42 191.27 385.99 191.04 386.75 189.87C387.012 189.327 387.159 188.736 387.181 188.134C387.203 187.531 387.101 186.931 386.88 186.37C385.32 180.37 382.28 174.97 379.22 169.63C377.56 166.528 375.597 163.597 373.36 160.88C370.84 158.158 368.019 155.733 364.95 153.65C362.2 151.65 359.41 152.32 356.69 154.32Z" fill="#E85C4B"/>
<path d="M356.69 154.32C354.53 155.91 352.62 157.99 350.06 158.82C351.22 162.76 356.21 164.44 357.77 168.23C358.83 170.81 358.07 173.72 357.64 176.47C356.56 183.39 357.69 190.47 358.82 197.34C359.1 199.05 359.56 201.02 361.13 201.76C361.707 201.989 362.32 202.114 362.94 202.13C366.3 202.37 369.85 202.13 372.74 200.45C376.65 198.12 378.84 193.31 383.11 191.75C384.42 191.27 385.99 191.04 386.75 189.87C387.012 189.327 387.159 188.736 387.181 188.134C387.203 187.531 387.101 186.931 386.88 186.37C385.32 180.37 382.28 174.97 379.22 169.63C377.56 166.528 375.597 163.597 373.36 160.88C370.84 158.158 368.019 155.733 364.95 153.65C362.2 151.65 359.41 152.32 356.69 154.32Z" fill="url(#paint17_linear)"/>
<path d="M154.05 302.43C153.88 307.37 154.88 312.26 155.6 317.15C157.03 326.78 157.22 337.34 151.78 345.41C151.714 345.582 151.61 345.737 151.475 345.864C151.341 345.99 151.179 346.084 151.003 346.139C150.827 346.194 150.641 346.208 150.458 346.181C150.276 346.153 150.102 346.084 149.95 345.98C141.61 342.667 133.407 338.983 125.34 334.93C124.431 334.577 123.64 333.974 123.06 333.19C122.624 332.282 122.458 331.269 122.58 330.27L123.42 302.09C123.423 300.292 123.587 298.498 123.91 296.73C124.417 294.365 125.442 292.142 126.91 290.22C127.712 289.04 128.832 288.111 130.14 287.54C131.358 287.191 132.634 287.096 133.89 287.26C142.41 287.76 150.89 288.39 159.43 289.02C160.399 289.038 161.359 289.218 162.27 289.55C164.62 290.55 165.61 293.29 166.35 295.73C165.54 293.08 160.08 293.47 158.17 294.05C155.04 295.01 154.15 299.6 154.05 302.43Z" fill="#E85C4B"/>
<path d="M158.26 215.53C153.56 222.11 149.53 229.31 147.53 237.22C144.91 247.47 145.85 258.28 146.05 268.88C146.575 301.667 139.88 334.169 126.44 364.08C123.62 370.3 120.37 376.6 114.93 380.71C112.78 378.32 110.58 375.94 108.39 373.55C108.025 373.2 107.72 372.791 107.49 372.34C107.32 372.074 107.201 371.779 107.14 371.47C107.11 370.485 107.445 369.523 108.08 368.77C111.01 364.39 115.01 360.77 117.82 356.33C120.92 351.39 122.37 345.6 123.66 339.93C126.91 325.72 129.22 311.31 131.56 296.93C132.66 290.12 133.76 283.31 134.38 276.42C135.71 261.9 135.01 247.22 137.38 232.85C139.38 220.37 144.11 207.57 153.46 198.64C156.52 195.75 161.25 193.48 164.46 195.59C165.816 196.543 166.765 197.971 167.12 199.59C168.91 205.39 161.34 211.3 158.26 215.53Z" fill="#E85C4B"/>
<path d="M156.26 213.14C151.53 219.72 147.49 226.92 145.5 234.79C142.92 245.08 143.82 255.89 144.01 266.49C144.564 299.28 137.868 331.788 124.4 361.69C121.62 367.91 118.33 374.21 112.93 378.32C111.09 376.32 109.25 374.32 107.49 372.32C107.32 372.054 107.201 371.759 107.14 371.45C107.11 370.465 107.445 369.503 108.08 368.75C111.01 364.37 115.01 360.75 117.82 356.31C120.92 351.37 122.37 345.58 123.66 339.91C126.91 325.7 129.22 311.29 131.56 296.91C132.66 290.1 133.76 283.29 134.38 276.4C135.71 261.88 135.01 247.2 137.38 232.83C139.38 220.35 144.11 207.55 153.46 198.62C156.52 195.73 161.25 193.46 164.46 195.57C164.706 196.088 164.916 196.623 165.09 197.17C166.87 203.01 159.28 208.92 156.26 213.14Z" fill="url(#paint18_linear)"/>
<path d="M485.56 302.01C481.68 302.01 477.64 302.31 474.1 300.73C471.1 299.41 468.91 296.94 466.55 294.73C457.653 286.481 446.258 281.435 434.17 280.39C424.78 279.6 415.37 281.29 405.94 281.69C386.952 282.495 368.104 278.111 351.42 269.01C353.139 282.05 357.867 294.511 365.231 305.408C372.595 316.306 382.393 325.341 393.85 331.8C399.53 334.94 405.85 337.68 409.44 343.12C416.1 353.31 410.15 368.65 417.89 378.04C420.81 381.58 425.18 383.55 428.7 386.49C437.7 394.06 439.99 406.78 445.26 417.31C455.38 437.51 476.49 449.37 496.4 460.03C503.65 463.92 511.05 467.85 519.15 469.3C526.87 470.68 534.87 469.7 542.43 467.62C572.74 459.31 597.94 428.2 591.29 397.48C586.22 374.08 564.62 357.22 550.68 338.85C534.7 317.75 513.1 301.92 485.56 302.01Z" fill="#E85C4B"/>
<path d="M485.56 302.01C481.68 302.01 477.64 302.31 474.1 300.73C471.1 299.41 468.91 296.94 466.55 294.73C457.653 286.481 446.258 281.435 434.17 280.39C424.78 279.6 415.37 281.29 405.94 281.69C386.952 282.495 368.104 278.111 351.42 269.01C353.139 282.05 357.867 294.511 365.231 305.408C372.595 316.306 382.393 325.341 393.85 331.8C399.53 334.94 405.85 337.68 409.44 343.12C416.1 353.31 410.15 368.65 417.89 378.04C420.81 381.58 425.18 383.55 428.7 386.49C437.7 394.06 439.99 406.78 445.26 417.31C455.38 437.51 476.49 449.37 496.4 460.03C503.65 463.92 511.05 467.85 519.15 469.3C526.87 470.68 534.87 469.7 542.43 467.62C572.74 459.31 597.94 428.2 591.29 397.48C586.22 374.08 564.62 357.22 550.68 338.85C534.7 317.75 513.1 301.92 485.56 302.01Z" fill="url(#paint19_linear)"/>
<path d="M83.57 318.67C80.359 331 79.3903 343.807 80.71 356.48C81.84 367.33 84.65 378.26 82.81 389.02C81.37 397.44 77.16 405.1 73.03 412.58L54.88 445.39C40.51 424.2 17.62 396.91 28.15 370.61C33.01 358.47 41.7 347.23 51.23 338.39C55.59 334.36 82.93 321.13 83.57 318.67Z" fill="#E85C4B"/>
<path d="M83.57 318.67C80.359 331 79.3903 343.807 80.71 356.48C81.84 367.33 84.65 378.26 82.81 389.02C81.37 397.44 77.16 405.1 73.03 412.58L54.88 445.39C40.51 424.2 17.62 396.91 28.15 370.61C33.01 358.47 41.7 347.23 51.23 338.39C55.59 334.36 82.93 321.13 83.57 318.67Z" fill="url(#paint20_linear)"/>
</g>
<defs>
<linearGradient id="paint0_linear" x1="564.82" y1="253.81" x2="454.61" y2="636.61" gradientUnits="userSpaceOnUse">
<stop stop-color="#010101" stop-opacity="0"/>
<stop offset="0.95" stop-color="#010101"/>
</linearGradient>
<linearGradient id="paint1_linear" x1="21825.7" y1="55741" x2="29799.6" y2="55741" gradientUnits="userSpaceOnUse">
<stop stop-color="#05293C" stop-opacity="0.92"/>
<stop offset="0.95" stop-color="#010101"/>
</linearGradient>
<linearGradient id="paint2_linear" x1="32438.6" y1="62962.6" x2="42216.9" y2="62336" gradientUnits="userSpaceOnUse">
<stop stop-color="#05293C"/>
<stop offset="0.95" stop-color="#010101"/>
</linearGradient>
<linearGradient id="paint3_linear" x1="269.05" y1="118.55" x2="300.54" y2="118.55" gradientUnits="userSpaceOnUse">
<stop stop-color="#E5C6D6"/>
<stop offset="0.42" stop-color="#EAD4D0"/>
<stop offset="1" stop-color="#F0E9CB"/>
</linearGradient>
<linearGradient id="paint4_linear" x1="37804.4" y1="4341.89" x2="32047" y2="9049.42" gradientUnits="userSpaceOnUse">
<stop stop-color="#05293C"/>
<stop offset="0.95" stop-color="#010101"/>
</linearGradient>
<linearGradient id="paint5_linear" x1="26278.9" y1="16368" x2="19702.7" y2="15863.8" gradientUnits="userSpaceOnUse">
<stop stop-color="#010101" stop-opacity="0"/>
<stop offset="0.95" stop-color="#010101"/>
</linearGradient>
<linearGradient id="paint6_linear" x1="195.24" y1="91.62" x2="285.37" y2="91.62" gradientUnits="userSpaceOnUse">
<stop stop-color="white" stop-opacity="0"/>
<stop offset="0.95" stop-color="white"/>
</linearGradient>
<linearGradient id="paint7_linear" x1="46817.3" y1="55279.7" x2="4139.81" y2="59532.5" gradientUnits="userSpaceOnUse">
<stop stop-color="#010101" stop-opacity="0"/>
<stop offset="0.95" stop-color="#010101"/>
</linearGradient>
<linearGradient id="paint8_linear" x1="47853.4" y1="11247.6" x2="47998.9" y2="21966.5" gradientUnits="userSpaceOnUse">
<stop stop-color="#010101" stop-opacity="0"/>
<stop offset="0.95" stop-color="#010101"/>
</linearGradient>
<linearGradient id="paint9_linear" x1="29866.7" y1="16797.8" x2="36398.1" y2="16797.8" gradientUnits="userSpaceOnUse">
<stop stop-color="#E5C6D6"/>
<stop offset="0.42" stop-color="#EAD4D0"/>
<stop offset="1" stop-color="#F0E9CB"/>
</linearGradient>
<linearGradient id="paint10_linear" x1="10814.4" y1="5777.49" x2="12593.2" y2="5777.49" gradientUnits="userSpaceOnUse">
<stop stop-color="#010101" stop-opacity="0"/>
<stop offset="0.95" stop-color="#010101"/>
</linearGradient>
<linearGradient id="paint11_linear" x1="44704.9" y1="66245.9" x2="8293.4" y2="73232.6" gradientUnits="userSpaceOnUse">
<stop stop-color="#010101" stop-opacity="0"/>
<stop offset="0.95" stop-color="#010101"/>
</linearGradient>
<linearGradient id="paint12_linear" x1="11502.8" y1="65878.3" x2="54497.2" y2="57206.5" gradientUnits="userSpaceOnUse">
<stop stop-color="#010101" stop-opacity="0"/>
<stop offset="0.95" stop-color="#010101"/>
</linearGradient>
<linearGradient id="paint13_linear" x1="14536.4" y1="24265.5" x2="18013" y2="24265.5" gradientUnits="userSpaceOnUse">
<stop stop-color="#010101" stop-opacity="0"/>
<stop offset="0.95" stop-color="#010101"/>
</linearGradient>
<linearGradient id="paint14_linear" x1="20993.6" y1="23867" x2="11661.6" y2="16991" gradientUnits="userSpaceOnUse">
<stop stop-color="#05293D" stop-opacity="0"/>
<stop offset="0.95" stop-color="#010101"/>
</linearGradient>
<linearGradient id="paint15_linear" x1="14827.8" y1="17791.2" x2="17801.8" y2="22480.9" gradientUnits="userSpaceOnUse">
<stop stop-color="#010101" stop-opacity="0"/>
<stop offset="0.95" stop-color="#010101"/>
</linearGradient>
<linearGradient id="paint16_linear" x1="12046.5" y1="28618.1" x2="8338.2" y2="23591.2" gradientUnits="userSpaceOnUse">
<stop stop-color="#010101" stop-opacity="0"/>
<stop offset="0.95" stop-color="#010101"/>
</linearGradient>
<linearGradient id="paint17_linear" x1="15412" y1="10420" x2="16790" y2="10420" gradientUnits="userSpaceOnUse">
<stop stop-color="white" stop-opacity="0"/>
<stop offset="0.95" stop-color="white"/>
</linearGradient>
<linearGradient id="paint18_linear" x1="9867.53" y1="57446.4" x2="16461.7" y2="57746.5" gradientUnits="userSpaceOnUse">
<stop stop-color="#010101" stop-opacity="0"/>
<stop offset="0.95" stop-color="#010101"/>
</linearGradient>
<linearGradient id="paint19_linear" x1="130008" y1="70819.9" x2="95534.1" y2="156787" gradientUnits="userSpaceOnUse">
<stop stop-color="#010101" stop-opacity="0"/>
<stop offset="0.95" stop-color="#010101"/>
</linearGradient>
<linearGradient id="paint20_linear" x1="7765.94" y1="46780.6" x2="-19828.8" y2="72086.5" gradientUnits="userSpaceOnUse">
<stop stop-color="#010101" stop-opacity="0"/>
<stop offset="0.95" stop-color="#010101"/>
</linearGradient>
<clipPath id="clip0">
<rect width="600.94" height="473.77" fill="white"/>
</clipPath>
</defs>
</svg>
